<?xml version="1.0" encoding="utf-8"?>
<!-- Generator: Adobe Illustrator 24.1.2, SVG Export Plug-In . SVG Version: 6.00 Build 0)  -->
<svg version="1.1"
	 id="Layer_1" xmlns:cc="http://creativecommons.org/ns#" xmlns:dc="http://purl.org/dc/elements/1.1/" xmlns:inkscape="http://www.inkscape.org/namespaces/inkscape" xmlns:rdf="http://www.w3.org/1999/02/22-rdf-syntax-ns#" xmlns:sodipodi="http://sodipodi.sourceforge.net/DTD/sodipodi-0.dtd" xmlns:svg="http://www.w3.org/2000/svg"
	 xmlns="http://www.w3.org/2000/svg" xmlns:xlink="http://www.w3.org/1999/xlink" x="0px" y="0px" viewBox="0 0 51.4 30"
	 style="enable-background:new 0 0 51.4 30;" xml:space="preserve">
<style type="text/css">
	.st0{fill:#FFFFFF;}
</style>
<sodipodi:namedview  bordercolor="#666666" borderopacity="1" gridtolerance="10" guidetolerance="10" id="namedview926" inkscape:current-layer="Layer_1" inkscape:cx="56.067074" inkscape:cy="19.580525" inkscape:document-rotation="0" inkscape:pageopacity="0" inkscape:pageshadow="2" inkscape:window-height="907" inkscape:window-maximized="0" inkscape:window-width="1600" inkscape:window-x="0" inkscape:window-y="25" inkscape:zoom="3.959798" objecttolerance="10" pagecolor="#ffffff" showgrid="false">
	</sodipodi:namedview>
<g id="g923" transform="translate(-0.53422889,-18)">
	<path id="path844" inkscape:connector-curvature="0" class="st0" d="M34.7,31c-0.3,0.2-0.9,0.4-1.5,0.4c-1,0-1.9-0.1-2.8-0.4
		c-0.2-0.1-0.4-0.1-0.5-0.1c-0.2,0-0.2,0.1-0.2,0.3v0.6c0,0.2,0.1,0.3,0.1,0.4c0.1,0.1,0.2,0.2,0.3,0.2c0.9,0.4,2,0.6,3.1,0.6
		c1.2,0,2.1-0.3,2.9-0.9c0.8-0.6,1.1-1.3,1.1-2.3c0-0.7-0.2-1.2-0.5-1.7c-0.3-0.4-0.9-0.8-1.7-1.1l-1.6-0.6
		c-0.6-0.2-1.1-0.5-1.3-0.7c-0.2-0.2-0.3-0.5-0.3-0.9c0-0.9,0.6-1.3,2-1.3c0.8,0,1.5,0.1,2.2,0.3c0.2,0.1,0.4,0.1,0.5,0.1
		c0.2,0,0.3-0.1,0.3-0.3v-0.6c0-0.2-0.1-0.3-0.1-0.4c-0.1-0.1-0.2-0.2-0.3-0.2c-0.9-0.3-1.7-0.5-2.6-0.5c-1.1,0-2,0.3-2.7,0.8
		c-0.7,0.5-1,1.3-1,2.1c0,1.3,0.8,2.3,2.3,2.9l1.7,0.6c0.6,0.2,0.9,0.4,1.2,0.6c0.2,0.2,0.3,0.5,0.3,0.8C35.2,30.3,35,30.8,34.7,31z
		"/>
	<path id="path855" inkscape:connector-curvature="0" class="st0" d="M25.6,22.7v7.7c-1,0.6-2,1-2.9,1c-0.6,0-1.1-0.2-1.4-0.5
		c-0.3-0.3-0.4-0.9-0.4-1.6v-6.5c0-0.3-0.1-0.4-0.4-0.4h-1.2c-0.3,0-0.4,0.1-0.4,0.4v7.2c0,1,0.2,1.8,0.8,2.3
		c0.5,0.5,1.3,0.8,2.3,0.8c1.3,0,2.7-0.5,3.9-1.4l0.1,0.7c0,0.2,0.1,0.2,0.2,0.3c0.1,0.1,0.2,0.1,0.3,0.1h0.9c0.3,0,0.4-0.1,0.4-0.4
		v-9.5c0-0.3-0.1-0.4-0.4-0.4h-1.2C25.7,22.3,25.6,22.4,25.6,22.7z"/>
	<path id="path866" inkscape:connector-curvature="0" class="st0" d="M14.6,32.7h1.2c0.3,0,0.4-0.1,0.4-0.4V25c0-1-0.2-1.7-0.7-2.3
		C15,22.3,14.3,22,13.3,22c-1.3,0-2.7,0.5-4,1.4C8.8,22.4,8,22,6.7,22s-2.5,0.5-3.8,1.3l-0.1-0.6c0-0.2-0.1-0.2-0.2-0.3
		c-0.1-0.1-0.2-0.1-0.3-0.1H1.4c-0.3,0-0.4,0.1-0.4,0.4v9.6c0,0.3,0.1,0.4,0.4,0.4h1.2c0.3,0,0.4-0.1,0.4-0.4v-7.8
		c1-0.6,2-0.9,3-0.9c0.6,0,1,0.2,1.2,0.5c0.2,0.3,0.4,0.8,0.4,1.5v6.6c0,0.3,0.1,0.4,0.4,0.4h1.2c0.3,0,0.4-0.1,0.4-0.4v-7.1v-0.3
		c0-0.1,0-0.2,0-0.3c1-0.6,2-0.9,3-0.9c0.6,0,1,0.2,1.2,0.5c0.2,0.3,0.4,0.8,0.4,1.5v6.6C14.2,32.5,14.4,32.7,14.6,32.7z"/>
	<path id="path877" inkscape:connector-curvature="0" class="st0" d="M46.1,40.3c-6.3,2.7-13.2,4-19.4,4c-9.2,0-18.2-2.5-25.4-6.8
		c-0.1-0.1-0.2-0.1-0.3-0.1c-0.4,0-0.6,0.5-0.2,0.9C7.4,44.4,16.3,48,26.1,48c7,0,15.2-2.2,20.8-6.3C47.9,41,47.1,39.9,46.1,40.3z"
		/>
	<path id="path888" inkscape:connector-curvature="0" class="st0" d="M45.9,24.6c0.5-0.6,1.3-0.9,2.5-0.9c0.6,0,1.2,0.1,1.7,0.2
		c0.2,0.1,0.2,0.1,0.3,0.1c0.2,0,0.3-0.1,0.3-0.4V23c0-0.2-0.1-0.3-0.1-0.4c-0.1-0.1-0.2-0.2-0.3-0.2c-0.8-0.2-1.5-0.3-2.2-0.3
		c-1.6,0-2.8,0.5-3.8,1.4c-0.9,0.9-1.3,2.3-1.3,4c0,1.7,0.4,3.1,1.3,4c0.9,0.9,2.1,1.4,3.7,1.4c0.9,0,1.7-0.1,2.3-0.4
		c0.2-0.1,0.3-0.1,0.3-0.2c0.1-0.1,0.1-0.2,0.1-0.4v-0.6c0-0.3-0.1-0.4-0.3-0.4c-0.1,0-0.2,0-0.3,0.1c-0.6,0.2-1.3,0.3-1.8,0.3
		c-1.1,0-1.9-0.3-2.4-0.9c-0.5-0.6-0.8-1.5-0.8-2.7v-0.3C45.2,26.1,45.4,25.2,45.9,24.6z"/>
	<path id="path899" inkscape:connector-curvature="0" class="st0" d="M48.5,45.8c3-2.5,3.8-7.8,3.2-8.6c-0.3-0.3-1.7-0.7-3.4-0.7
		c-1.8,0-4,0.4-5.7,1.6c-0.5,0.3-0.4,0.8,0.1,0.8c1.8-0.2,5.8-0.7,6.6,0.2c0.7,0.9-0.8,4.7-1.5,6.4C47.6,45.9,48,46.1,48.5,45.8z"/>
	<path id="path910" inkscape:connector-curvature="0" class="st0" d="M40.5,22.3h-1.2c-0.3,0-0.4,0.1-0.4,0.4v9.6
		c0,0.3,0.1,0.4,0.4,0.4h1.2c0.3,0,0.4-0.1,0.4-0.4v-9.6C40.9,22.4,40.8,22.3,40.5,22.3z"/>
	<path id="path921" inkscape:connector-curvature="0" class="st0" d="M40.8,18.3c-0.2-0.2-0.6-0.3-1-0.3s-0.7,0.1-0.9,0.3
		c-0.2,0.2-0.3,0.5-0.3,0.9c0,0.3,0.1,0.7,0.3,0.9c0.2,0.2,0.5,0.3,0.9,0.3c0.4,0,0.7-0.1,0.9-0.3s0.3-0.5,0.3-0.9
		C41.1,18.9,41.1,18.5,40.8,18.3z"/>
</g>
</svg>
