<?xml version="1.0" encoding="utf-8"?>
<!-- Generator: Adobe Illustrator 24.1.2, SVG Export Plug-In . SVG Version: 6.00 Build 0)  -->
<svg version="1.1"
	 id="svg30" xmlns:cc="http://creativecommons.org/ns#" xmlns:dc="http://purl.org/dc/elements/1.1/" xmlns:inkscape="http://www.inkscape.org/namespaces/inkscape" xmlns:rdf="http://www.w3.org/1999/02/22-rdf-syntax-ns#" xmlns:sodipodi="http://sodipodi.sourceforge.net/DTD/sodipodi-0.dtd" xmlns:svg="http://www.w3.org/2000/svg"
	 xmlns="http://www.w3.org/2000/svg" xmlns:xlink="http://www.w3.org/1999/xlink" x="0px" y="0px" viewBox="0 0 100 24"
	 style="enable-background:new 0 0 100 24;" xml:space="preserve">
<style type="text/css">
	.st0{fill:#FFFFFF;}
</style>
<sodipodi:namedview  bordercolor="#666666" borderopacity="1" gridtolerance="10" guidetolerance="10" id="namedview32" inkscape:current-layer="svg30" inkscape:cx="232.96151" inkscape:cy="28.838552" inkscape:pageopacity="0" inkscape:pageshadow="2" inkscape:window-height="683" inkscape:window-maximized="0" inkscape:window-width="1076" inkscape:window-x="0" inkscape:window-y="23" inkscape:zoom="1.3919667" objecttolerance="10" pagecolor="#ffffff" showgrid="false">
	</sodipodi:namedview>
<path id="path38" class="st0" d="M16.9,23c-1.3,1.3-2.7,1.1-4.1,0.5c-1.5-0.6-2.8-0.6-4.3,0c-1.9,0.8-2.9,0.6-4.1-0.5
	C-2.2,16.3-1.2,6.1,6.2,5.7c1.8,0.1,3.1,1,4.1,1.1c1.6-0.3,3.1-1.2,4.8-1.1c2,0.2,3.5,1,4.5,2.4c-4.2,2.5-3.2,8,0.6,9.5
	C19.5,19.6,18.5,21.6,16.9,23L16.9,23z M10.2,5.7c-0.2-3,2.2-5.4,5-5.7C15.5,3.4,12,6,10.2,5.7z"/>
<g id="g106">
	<path id="path75" class="st0" d="M23.5,23.7h3.1V7.4h0.1l6.7,16.3h2.5l6.7-16.3h0.1v16.3h3.1V1.6h-3.9l-7.2,17.6h-0.1L27.5,1.6h-4
		V23.7z"/>
	<path id="path77" class="st0" d="M54.5,24c2.4,0,4.1-1.1,4.9-2.7h0.1v2.4h3.3V7.6h-3.3V17c0,2.5-1.5,4.2-3.8,4.2
		c-2.3,0-3.4-1.3-3.4-3.8V7.6h-3.3V18C48.9,21.7,50.9,24,54.5,24L54.5,24z"/>
	<path id="path79" class="st0" d="M71.4,24c3.8,0,6.5-2,6.5-4.9v0c0-2.3-1.3-3.6-4.5-4.4l-2.6-0.6c-1.7-0.4-2.4-1.1-2.4-2.1v0
		c0-1.3,1.1-2.1,2.9-2.1c1.9,0,3,1,3.2,2.4l0,0.1h3.1l0-0.2c-0.2-2.7-2.5-4.9-6.3-4.9c-3.7,0-6.2,2-6.2,4.8v0c0,2.3,1.5,3.8,4.6,4.5
		l2.6,0.6c1.7,0.4,2.3,1,2.3,2v0c0,1.3-1.2,2.1-3.2,2.1c-2,0-3.1-0.9-3.4-2.4l0-0.2h-3.3l0,0.1C65.1,22,67.4,24,71.4,24L71.4,24z"/>
	<path id="path81" class="st0" d="M81.8,5c1.1,0,1.9-0.9,1.9-1.9c0-1.1-0.8-1.9-1.9-1.9c-1.1,0-1.9,0.9-1.9,1.9
		C79.9,4.2,80.7,5,81.8,5z M80.1,23.6h3.3V7.5h-3.3V23.6z"/>
	<path id="path83" class="st0" d="M93.1,24c3.9,0,6.6-2.5,6.9-5.7l0-0.1h-3.2l0,0.1c-0.4,1.7-1.7,2.9-3.7,2.9
		c-2.6,0-4.2-2.1-4.2-5.6v0c0-3.4,1.7-5.6,4.2-5.6c2.2,0,3.4,1.3,3.7,2.9l0,0.1h3.1l0-0.1c-0.3-3-2.8-5.7-6.9-5.7
		c-4.6,0-7.6,3.2-7.6,8.3v0C85.5,20.8,88.4,24,93.1,24L93.1,24z"/>
</g>
</svg>
