<?xml version="1.0" encoding="utf-8"?>
<!-- Generator: Adobe Illustrator 24.1.2, SVG Export Plug-In . SVG Version: 6.00 Build 0)  -->
<svg version="1.1" id="Layer_1" xmlns="http://www.w3.org/2000/svg" xmlns:xlink="http://www.w3.org/1999/xlink" x="0px" y="0px"
	 viewBox="0 0 200 200" style="enable-background:new 0 0 200 200;" xml:space="preserve">
<style type="text/css">
	.st0{opacity:0.5;}
</style>
<g class="st0">
	<rect width="18.2" height="18.2"/>
</g>
<g class="st0">
	<rect x="36.4" width="18.2" height="18.2"/>
</g>
<g class="st0">
	<rect x="72.7" width="18.2" height="18.2"/>
</g>
<g class="st0">
	<rect x="109.1" width="18.2" height="18.2"/>
</g>
<g class="st0">
	<rect x="145.5" width="18.2" height="18.2"/>
</g>
<g class="st0">
	<rect x="181.8" width="18.2" height="18.2"/>
</g>
<g class="st0">
	<rect x="18.2" y="18.2" width="18.2" height="18.2"/>
</g>
<g class="st0">
	<rect x="54.5" y="18.2" width="18.2" height="18.2"/>
</g>
<g class="st0">
	<rect x="90.9" y="18.2" width="18.2" height="18.2"/>
</g>
<g class="st0">
	<rect x="127.3" y="18.2" width="18.2" height="18.2"/>
</g>
<g class="st0">
	<rect x="163.6" y="18.2" width="18.2" height="18.2"/>
</g>
<g class="st0">
	<rect x="18.2" y="54.5" width="18.2" height="18.2"/>
</g>
<g class="st0">
	<rect x="54.5" y="54.5" width="18.2" height="18.2"/>
</g>
<g class="st0">
	<rect x="90.9" y="54.5" width="18.2" height="18.2"/>
</g>
<g class="st0">
	<rect x="127.3" y="54.5" width="18.2" height="18.2"/>
</g>
<g class="st0">
	<rect x="163.6" y="54.5" width="18.2" height="18.2"/>
</g>
<g class="st0">
	<rect x="18.2" y="90.9" width="18.2" height="18.2"/>
</g>
<g class="st0">
	<rect x="54.5" y="90.9" width="18.2" height="18.2"/>
</g>
<g class="st0">
	<rect x="90.9" y="90.9" width="18.2" height="18.2"/>
</g>
<g class="st0">
	<rect x="127.3" y="90.9" width="18.2" height="18.2"/>
</g>
<g class="st0">
	<rect x="163.6" y="90.9" width="18.2" height="18.2"/>
</g>
<g class="st0">
	<rect x="18.2" y="127.3" width="18.2" height="18.2"/>
</g>
<g class="st0">
	<rect x="54.5" y="127.3" width="18.2" height="18.2"/>
</g>
<g class="st0">
	<rect x="90.9" y="127.3" width="18.2" height="18.2"/>
</g>
<g class="st0">
	<rect x="127.3" y="127.3" width="18.2" height="18.2"/>
</g>
<g class="st0">
	<rect x="163.6" y="127.3" width="18.2" height="18.2"/>
</g>
<g class="st0">
	<rect x="18.2" y="163.6" width="18.2" height="18.2"/>
</g>
<g class="st0">
	<rect x="54.5" y="163.6" width="18.2" height="18.2"/>
</g>
<g class="st0">
	<rect x="90.9" y="163.6" width="18.2" height="18.2"/>
</g>
<g class="st0">
	<rect x="127.3" y="163.6" width="18.2" height="18.2"/>
</g>
<g class="st0">
	<rect x="163.6" y="163.6" width="18.2" height="18.2"/>
</g>
<g class="st0">
	<rect y="36.4" width="18.2" height="18.2"/>
</g>
<g class="st0">
	<rect x="36.4" y="36.4" width="18.2" height="18.2"/>
</g>
<g class="st0">
	<rect x="72.7" y="36.4" width="18.2" height="18.2"/>
</g>
<g class="st0">
	<rect x="109.1" y="36.4" width="18.2" height="18.2"/>
</g>
<g class="st0">
	<rect x="145.5" y="36.4" width="18.2" height="18.2"/>
</g>
<g class="st0">
	<rect x="181.8" y="36.4" width="18.2" height="18.2"/>
</g>
<g class="st0">
	<rect y="72.7" width="18.2" height="18.2"/>
</g>
<g class="st0">
	<rect x="36.4" y="72.7" width="18.2" height="18.2"/>
</g>
<g class="st0">
	<rect x="72.7" y="72.7" width="18.2" height="18.2"/>
</g>
<g class="st0">
	<rect x="109.1" y="72.7" width="18.2" height="18.2"/>
</g>
<g class="st0">
	<rect x="145.5" y="72.7" width="18.2" height="18.2"/>
</g>
<g class="st0">
	<rect x="181.8" y="72.7" width="18.2" height="18.2"/>
</g>
<g class="st0">
	<rect y="109.1" width="18.2" height="18.2"/>
</g>
<g class="st0">
	<rect x="36.4" y="109.1" width="18.2" height="18.2"/>
</g>
<g class="st0">
	<rect x="72.7" y="109.1" width="18.2" height="18.2"/>
</g>
<g class="st0">
	<rect x="109.1" y="109.1" width="18.2" height="18.2"/>
</g>
<g class="st0">
	<rect x="145.5" y="109.1" width="18.2" height="18.2"/>
</g>
<g class="st0">
	<rect x="181.8" y="109.1" width="18.2" height="18.2"/>
</g>
<g class="st0">
	<rect y="145.5" width="18.2" height="18.2"/>
</g>
<g class="st0">
	<rect x="36.4" y="145.5" width="18.2" height="18.2"/>
</g>
<g class="st0">
	<rect x="72.7" y="145.5" width="18.2" height="18.2"/>
</g>
<g class="st0">
	<rect x="109.1" y="145.5" width="18.2" height="18.2"/>
</g>
<g class="st0">
	<rect x="145.5" y="145.5" width="18.2" height="18.2"/>
</g>
<g class="st0">
	<rect x="181.8" y="145.5" width="18.2" height="18.2"/>
</g>
<g class="st0">
	<rect y="181.8" width="18.2" height="18.2"/>
</g>
<g class="st0">
	<rect x="36.4" y="181.8" width="18.2" height="18.2"/>
</g>
<g class="st0">
	<rect x="72.7" y="181.8" width="18.2" height="18.2"/>
</g>
<g class="st0">
	<rect x="109.1" y="181.8" width="18.2" height="18.2"/>
</g>
<g class="st0">
	<rect x="145.5" y="181.8" width="18.2" height="18.2"/>
</g>
<g class="st0">
	<rect x="181.8" y="181.8" width="18.2" height="18.2"/>
</g>
</svg>
