<?xml version="1.0" encoding="utf-8"?>
<!-- Generator: Adobe Illustrator 24.1.2, SVG Export Plug-In . SVG Version: 6.00 Build 0)  -->
<svg version="1.1" id="Layer_1" xmlns="http://www.w3.org/2000/svg" xmlns:xlink="http://www.w3.org/1999/xlink" x="0px" y="0px"
	 viewBox="0 0 1246.6 333.9" style="enable-background:new 0 0 1246.6 333.9;" xml:space="preserve">
<style type="text/css">
	.st0{fill:#05BF00;}
	.st1{fill:#0072AA;}
	.st2{fill:#4D4D4D;}
	.st3{fill:#F4B516;}
</style>
<g>
	<g>
		<path class="st0" d="M302,178.7c-1-5-0.4-10,0.4-14.8c3.6-20.6,8.5-40.9,16.6-60.3c4.7-11.3,10.8-21.7,19.5-30.4
			c2-2,4.2-3.8,6.4-5.6c0.2,0.2,0.4,0.3,0.7,0.5c-0.4,0.7-0.6,1.4-1.1,2c-5.9,8.8-12.1,17.3-17.6,26.4
			c-8.6,14.1-13.5,29.7-17.2,45.6c-2.7,12-4.9,24.1-7.4,36.2C302.3,178.4,302.2,178.5,302,178.7z"/>
		<path class="st0" d="M313.3,83.1c0.5-2,0.6-4.2,1.6-5.8c0.8-1.2,2.6-2.3,4.1-2.4c1.9-0.1,2.4,1.9,2.6,3.6c0.7,5-0.5,9.7-2.7,14.1
			c-0.3,0.6-1.3,1.3-2,1.3c-0.5,0-1.3-0.9-1.5-1.6C314.6,89.3,314,86.2,313.3,83.1z"/>
		<path class="st0" d="M358.9,51.3c2.6-0.1,3.7,1.6,2.4,3.9c-2.7,4.9-7.1,8-12.1,10.2c-0.4,0.2-1.7-0.7-1.7-1.1
			c-0.2-3.6,7.3-12.5,10.9-13C358.6,51.3,358.7,51.3,358.9,51.3z"/>
		<path class="st0" d="M328.3,68.8c0.3-1.7,0.5-3.8,1.1-5.7c0.5-1.3,1.4-2.7,2.5-3.4c2.4-1.6,4.7-0.3,4.6,2.6
			c-0.2,4.5-2.2,8.4-5.1,11.7c-1.1,1.2-2.3,0.8-2.6-0.9C328.6,71.8,328.5,70.4,328.3,68.8z"/>
		<path class="st0" d="M333.1,97.9c-0.3-0.2-1.5-0.3-1.8-1c-0.2-0.4,0.4-1.7,1-2.2c2.2-1.9,4.5-3.8,7-5.4c1-0.7,2.6-0.9,3.8-0.7
			c1.1,0.2,2.4,1.1,2.8,2c0.3,0.7-0.4,2.3-1.1,3C341.6,96.4,337.8,97.4,333.1,97.9z"/>
		<path class="st0" d="M311.6,104c-0.4,2.3-0.8,4.5-1.4,6.7c-0.1,0.5-0.8,1-1.4,1.1c-0.4,0.1-1.1-0.5-1.3-0.9
			c-1.6-3.2-3-6.5-2.7-10.1c0.1-1,0.4-2.1,1-2.9c1.5-2.1,3.7-1.8,4.6,0.6C311,100.2,311.2,102.1,311.6,104z"/>
		<path class="st0" d="M348.8,80.1c-1.4-0.2-2.8-0.3-4.1-0.6c-0.6-0.2-1.3-0.7-1.5-1.3c-0.1-0.4,0.3-1.4,0.8-1.6
			c2.7-1.4,5.3-2.8,8.1-3.8c1-0.4,2.7,0.2,3.7,0.8c2,1.3,1.8,3.8-0.3,4.8c-2,0.9-4.3,1.3-6.5,1.9C348.9,80.3,348.9,80.2,348.8,80.1z
			"/>
		<path class="st0" d="M321.4,120.4c-0.3-0.1-1.5-0.3-1.6-0.7c-0.2-0.7,0.2-1.8,0.7-2.2c2.2-1.9,4.4-3.7,6.8-5.2
			c0.8-0.6,2.2-0.7,3.2-0.5c1,0.3,2.2,1.1,2.5,2c0.3,0.7-0.4,2.2-1.1,2.8C329.1,119.1,325.6,120.1,321.4,120.4z"/>
	</g>
	<g>
		<path class="st1" d="M300.4,126.8c-2.5-0.4-5.1-0.2-7.7-0.2c-2.9,0.1-3.4-0.1-3.7-2.9c-0.4-3.1-1.5-5.7-3.8-7.8
			c-3.1-2.9-6.8-4.1-10.9-4.2c-7.1-0.1-13.2,2.8-19,6.5c-9.2,6-17.3,13.2-24.3,21.6c-2,2.3-2.8,2.3-3.9-0.5
			c-4.2-10.8-10.7-20.3-18.3-29c-9.9-11.3-20.2-22.3-30.5-33.1c-20-21-42.7-38.5-69-51.1c-12.2-5.8-24.8-10.4-38.5-11.1
			c-6-0.3-12,0.4-17.4,3.3c-5.8,3.1-8,7.9-6.9,14.2c0.9,4.8,4.6,9.7,9.7,10.3c-1-1.5-2-3-2.9-4.5c-3.5-6-1-12.2,5.7-14.1
			c4.9-1.4,9.9-0.6,14.7,0.3c23.3,4.4,44.5,13.6,63.3,28c25.8,19.6,49.2,42,69.9,66.9c6.8,8.2,12,17.4,15.7,27.4
			c0.5,1.5,0.6,2.7-0.1,4.2c-2.6,5.5-5.4,10.9-7.5,16.5c-1.9,5.3-3.2,10.8-0.6,16.4c2.1,4.6,5.9,5.5,9.9,2.4
			c3.9-3.1,6.3-7.2,6.7-12.1c0.5-5.7,0.4-11.5,0.7-17.2c0.1-2.1-0.2-4.7,0.9-6.1c6.4-8.2,12.8-16.5,20-24c6-6.4,13.9-9.4,23-8
			c2.8,0.4,4.1,2,4.2,4.8c0.1,0.7,0,1.5,0,2.2c-0.1,1.9,0.1,3.8,2.1,4.8c1.9,1,3.5,0.1,5.1-1c3.4-2.3,7.1-1.6,11-1.5
			c-0.4,0.6-0.4,0.8-0.6,0.9c-1.2,0.8-2.5,1.6-3.8,2.3c-8,4.6-14.1,10.9-18.2,19.2c-3.3,6.8-5.8,13.9-7.2,21.3
			c-2.2,11.8-6.9,22.3-15.8,30.6c-0.8,0.7-1.5,1.4-2.2,2.1c-1.3,1.5-8.4,6.6-8.5,6.7c-0.9,0.5-1.8,1-2.7,1.6
			c-13.6,8.3-28,15.2-43.6,18.6c-13.2,2.8-26.6,4.8-39.9,7.3c-13.7,2.6-27,6.7-38.9,14.2c-18.1,11.4-32.4,26.1-40.7,46.1
			c-2.5,6.1-4.2,12.3-3.8,19c0.1,1.7,0.3,3.3,2.2,4.6c0.2-1.3,0.5-2.4,0.6-3.4c0.3-6.4,1.6-12.6,4.1-18.5
			c7.3-17.3,19.7-29.8,36.3-38.3c9.5-4.9,19.7-7.9,30-10.7c19.8-5.3,39.6-10.2,59.4-15.2c4.8-1.2,9.6-2.5,14.5-3.8
			c2.1-0.5,18.6-6.3,19-6.5c8.6-3.8,16.4-9,23.1-15.6c5.9-5.7,10.4-12.5,13.7-20c3.7-8.3,5.4-17.1,7.3-26c2.8-13.2,9-24.1,19.8-32.3
			c1.3-1,2.2-2.4,3.3-3.6C303.6,128.3,302.1,127.1,300.4,126.8z M226.3,176.4c-0.4,2.8-2.1,5-4.5,6.5c-1.3,0.8-2.3,0.5-2.7-1
			c-0.3-1-0.4-2-0.3-3c0.6-5.4,2.9-10.1,5.5-14.8c0.3-0.4,0.6-0.8,0.9-1.2c0.2-0.2,0.5-0.3,0.9-0.6c0.3,0.8,0.9,1.4,0.8,2
			C226.8,168.4,226.8,172.4,226.3,176.4z"/>
		<path class="st1" d="M168.7,104.1c-6.5-8.8-14.4-16.3-23.8-22c-8.2-4.9-16.5-9.5-25-13.9C105.7,60.6,90.6,55.2,74.8,52
			c-5.1-1.1-10.2-0.7-14.6,2.7c-3.4,2.6-4.3,6.5-2.2,10.2c1,1.8,2.3,3.5,3.8,4.8c3.2,2.9,6.5,5.5,9.8,8.3c0.6,0.5,0.9,1.2,1.3,1.9
			c-0.8,0.1-1.6,0.5-2.4,0.4c-2-0.1-4-0.5-6-0.6c-7.6-0.4-15,0.5-21.2,5.5c-5.7,4.6-6.3,10.1-1.2,15.3c3,3.1,6.6,5.7,10.4,7.8
			c6.5,3.8,13.3,7,20,10.5c0.8,0.4,1.4,1,2.6,1.9c-1.6,0.7-2.6,1.1-3.6,1.5c-2.8,1-5.8,1.9-8.5,3.1c-7.3,3.1-9.5,13-3.8,18.5
			c3.6,3.5,7.7,6.7,12,9.3c8.9,5.4,18.9,8.2,28.7,11.6c1.4,0.5,2.8,1.2,4,1.7c-2.2,3.2-4.6,6-6.4,9c-3.5,5.9-3.2,12.5,0.9,17.4
			c6.2,7.5,15.2,8.6,23.8,10.4c0-0.2,0.1-0.4,0.1-0.6c-3.7-1.3-7.4-2.6-11-4c-4.7-1.8-7.6-5.3-9.4-9.8c-1.4-3.5-0.7-6.8,2.1-9.1
			c2.5-2.1,5.2-4,8-5.6c3.8-2.2,8-3,12.4-2.3c4.1,0.6,8.1,1.4,12.2,1.8c5.2,0.5,10.2-0.1,15-2.2c5.1-2.3,5.5-7.8,0.9-10.9
			c-1.4-1-3.1-1.7-4.8-2.1c-9.1-2.2-18-1.6-26.9,1.2c-3.2,1-6.4,1.1-9.5-0.2c-9.7-4-19.5-7.8-29.1-11.9c-6.9-2.9-13.7-5.9-19.5-10.8
			c-1-0.8-1.8-2.4-1.8-3.7c0-1.7,1.6-2.5,3.3-2.7c2.7-0.4,5.4-0.9,8.1-0.9c4.2-0.1,8.4,0.3,12.7,0.1c5.8-0.3,10.8,1.5,15.9,3.9
			c7.2,3.4,14.6,6.5,22.1,9.1c5.1,1.8,10.6,2.9,16.1,1.9c1.4-0.3,3.2-1.2,3.9-2.4c1-1.7-0.1-3.6-1.5-4.7c-2.5-2.1-5-4.3-7.8-5.8
			c-13.8-6.8-28.3-11.2-43.8-11.8c-2.9-0.1-6-1-8.7-2.3c-5.1-2.5-10-5.5-14.8-8.5c-6.1-3.8-11.7-8.3-16.7-13.5
			c-2-2.1-1.9-3.3,0.6-4.6c1.2-0.7,2.6-1.4,3.9-1.4c6.4-0.1,12.9-0.5,19.2,0.1c12,1.2,23.9,3.2,34.1,10.5c0.7,0.5,1.4,0.8,2.1,1.2
			c10,5.4,19.7,11.4,30.6,15.1c3.1,1.1,5.6,0.8,6.3-0.7c0.8-1.7-0.6-4.4-3.3-5.8c-12.9-6.8-25.6-13.8-39.4-18.8
			c-5.5-2-11.3-3.8-16.4-6.8c-8.1-4.8-15.4-10.8-21.2-18.3c-2.3-3-1.9-4.5,1.6-5.6c4.2-1.3,8.4-0.8,12.4,0.7
			c12,4.3,24,8.4,35.7,13.3C135,82.3,152.2,93,167.3,107c0.7,0.6,1.7,0.9,2.6,1.4c0.2-0.1,0.4-0.3,0.5-0.4
			C169.8,106.6,169.5,105.2,168.7,104.1z M149.2,166.9c-3,1.8-7.3,2.2-11,0.9C140.9,165.4,145.5,165,149.2,166.9z M137.7,140
			c0,0.3-0.1,0.6-0.1,0.8c-1.6,0-3.2,0.2-4.7,0c-7.8-1.4-14.9-4.8-22-8.3C120.6,132.2,129.4,135.2,137.7,140z M114.4,99.5
			c1.6,0.6,3.2,1.1,4.7,1.8c5.7,2.6,11.4,5.2,17,8c1.2,0.6,2.2,1.9,3,3.1c-9-3-17.2-7.3-25-12.3C114.2,99.9,114.3,99.7,114.4,99.5z"
			/>
		<path class="st1" d="M250,87.5c-1.7-16.6-6-32.7-12.4-48.2c-5.3-12.9-12.6-24.4-23.9-33.1c-3.6-2.8-7.5-5.1-12-6
			c-5.7-1.2-10.6,0.8-12.4,5.6c-1,2.8-1.8,5.9-1.5,8.8c0.6,6.8,1.8,13.5,2.7,20.2c0.5,3.6,1.1,7.3,1.5,11c0.1,0.7-0.4,1.4-0.6,2.2
			c-0.6-0.3-1.4-0.4-1.9-0.8c-1.8-1.5-3.6-3.1-5.4-4.6c-8.5-7.2-17.7-13.2-28.4-16.4c-2.5-0.7-5.4-0.7-8-0.3
			c-3.2,0.4-3.9,2.5-2.1,5.1c0.8,1.2,1.8,2.3,2.9,3.3c7.2,6.6,14.3,13.4,21.8,19.5c4.5,3.7,9.8,6.6,14.9,9.5
			c2.9,1.6,6.1,1.7,9.1-0.3c1.1-0.8,1.9-0.5,2.7,0.4c2.3,2.6,4.8,5.1,6.8,7.9c8,11.3,14.3,23.6,20.3,36.1c1.5,3.1,3.1,6.1,4.7,9
			c0.9,1.6,2.3,2.6,4.3,1.9c1.9-0.6,2.4-2.3,2-4c-1.1-4.2-2.1-8.5-3.9-12.4c-8-16.6-17.6-32.1-31.3-44.9c-1.7-1.6-2.6-3.6-2.8-6.1
			c-0.2-3.6-0.5-7.2-0.9-10.8c-0.8-8.4-1.7-16.8-2.4-25.1c-0.3-3.1,0.7-5.8,3.1-8.3c4.5,2.7,8.4,5.8,11.7,9.6
			c9.8,11.1,16.9,23.9,22.1,37.6c5.1,13.3,7.6,27.3,9.9,41.3c0.5,3.3,1.6,6.5,2.7,9.6c0.3,0.9,1.8,1.8,2.8,1.8c0.9,0,2.2-1,2.6-1.9
			c0.8-1.9,1.4-3.9,1.5-5.9C250.4,95.2,250.4,91.3,250,87.5z M188.7,59.7c-1.9-0.6-3.8-1.2-5.5-2.1c-9.4-5.3-17.9-11.7-24.9-20
			c-0.8-1-1.5-2-2.2-3c0.1-0.2,0.3-0.3,0.4-0.5c1.5,0.6,3.1,1.2,4.6,1.9c9.9,5.1,19,11.4,27,19.2c0.7,0.7,1.5,1.5,2.1,2.3
			c0.4,0.5,0.4,1.3,0.6,1.9C190,59.5,189.3,59.9,188.7,59.7z"/>
		<path class="st1" d="M22.8,276.9c1.7-0.2,2.8-0.1,3.8-0.4c10.8-3.2,21-7.9,30.9-13.3c6.1-3.4,11.7-7.7,17.6-11.5
			c1.6-1,3.4-1.9,5.2-2.3c1.1-0.2,2.8,0.3,3.4,1.2c0.6,0.8,0.5,2.6,0,3.6c-1,1.9-2.5,3.5-3.9,5.1c-6.4,7.4-13.3,14.3-17.8,23.1
			c-4.8,9.2-7.3,18.9-7.8,29.3c-0.2,5,9.3,18.8,11.4,22.2c-3.1-0.1-14.5-8.4-15.9-10.3c-5.2-6.8-6.2-14.7-5.7-22.9
			c0.6-10,4.2-19.1,9.2-27.7c0.5-0.8,0.9-1.5,1.3-2.3c0.2-0.4,0.2-1.2,0-1.3c-0.3-0.2-1-0.2-1.4-0.1c-0.6,0.2-1.2,0.6-1.8,0.9
			c-6.8,3.5-13.4,7.2-20.3,10.3c-2.6,1.2-5.7,1.7-8.5,1.5c-3.6-0.2-5.4-3.2-4.7-6.9c1-4.7,3.1-8.9,5.9-12.8
			c4.2-5.9,9.3-10.9,14.9-15.4c1.3-1.1,2.7-2.1,4-3.1c0.3-0.2,0.7-0.9,0.6-1c-0.2-0.4-0.7-0.7-1.2-0.8c-0.9-0.1-1.9,0-2.9,0
			c-9,0.2-17.9,0.1-26.7-2.1c-3.7-0.9-7-2.4-9.8-4.9c-3.3-3-3.6-6.5-0.9-10c3.1-4.2,7.8-6,12.3-8.1c9.9-4.7,20.5-7.3,31.4-8.3
			c19.1-1.8,37.9,0.1,56.6,4.3c2.7,0.6,5.2,1.7,7.8,2.5c1.6,0.5,3.2,1.3,2.5,3.2c-0.7,2.1-2.4,1.1-3.7,0.6
			c-15.8-5.6-32.1-8.1-48.8-7.6c-14.5,0.5-28.7,2.2-42.3,7.9c-2.7,1.1-5.4,2.5-7.9,4c-1.4,0.8-2.6,1.9-3.7,3.1c-1.5,1.7-1.1,3,1,3.6
			c3.1,0.8,6.3,1.7,9.5,2.1c11.2,1.2,22.3,0.5,33.4-0.5c10.3-0.9,20.5-2.3,30.6-5c2.9-0.8,5.4,0.7,6.1,3.1c0.7,2.5-0.7,4.6-3.8,5.6
			c-6.9,2.2-13.9,4-20.7,6.6C48.8,247,37,254.6,28.1,266.1c-1.4,1.8-2.6,3.8-3.7,5.8C23.6,273.3,23.4,274.9,22.8,276.9z"/>
		<path class="st1" d="M274,132c0,1.8-1.7,3.4-3.6,3.4c-1.9,0-3-1.1-3-3c0-1.9,1.5-3.4,3.3-3.5C272.5,128.9,274,130.2,274,132z"/>
	</g>
</g>
<g>
	<g>
		<path class="st2" d="M380.7,113.2c-0.9,0-1.7-0.3-2.3-1c-0.6-0.6-1-1.4-1-2.4V32.7h-25.2c-0.9,0-1.7-0.3-2.3-1
			c-0.6-0.6-1-1.4-1-2.4V19.1c0-1,0.3-1.9,1-2.5c0.6-0.6,1.4-1,2.3-1h69.5c1,0,1.8,0.3,2.5,1c0.6,0.7,1,1.5,1,2.5v10.3
			c0,0.9-0.3,1.7-1,2.4c-0.6,0.7-1.5,1-2.5,1h-25.1v77.1c0,0.9-0.3,1.7-1,2.4c-0.6,0.7-1.5,1-2.5,1H380.7z"/>
		<path class="st2" d="M442.2,113.2c-0.9,0-1.7-0.3-2.3-0.9c-0.6-0.6-1-1.4-1-2.4V19.1c0-1,0.3-1.9,1-2.5c0.6-0.6,1.4-1,2.3-1h12.4
			c1,0,1.8,0.3,2.4,1c0.6,0.7,0.9,1.5,0.9,2.5v36H498v-36c0-1,0.3-1.9,1-2.5c0.6-0.6,1.4-1,2.3-1h12.3c1,0,1.8,0.3,2.5,1
			c0.6,0.7,1,1.5,1,2.5v90.7c0,0.9-0.3,1.7-1,2.4c-0.6,0.7-1.5,1-2.5,1h-12.3c-0.9,0-1.7-0.3-2.3-1c-0.6-0.6-1-1.4-1-2.4V72.5h-40.2
			v37.4c0,0.9-0.3,1.7-0.9,2.4c-0.6,0.7-1.4,1-2.4,1H442.2z"/>
		<path class="st2" d="M541.5,113.2c-0.9,0-1.7-0.3-2.3-1c-0.6-0.6-1-1.4-1-2.4V19.1c0-1,0.3-1.9,1-2.5c0.6-0.6,1.4-1,2.3-1h59.9
			c1,0,1.8,0.3,2.5,1c0.6,0.7,1,1.5,1,2.5v9.2c0,0.9-0.3,1.7-1,2.4c-0.6,0.7-1.5,1-2.5,1h-44.8v24.7h41.8c1,0,1.8,0.3,2.5,0.9
			c0.6,0.6,1,1.4,1,2.4v8.6c0,1-0.3,1.8-1,2.4c-0.6,0.6-1.5,0.9-2.5,0.9h-41.8v25.5h45.9c1,0,1.8,0.3,2.5,1c0.6,0.7,1,1.5,1,2.5v9.2
			c0,0.9-0.3,1.7-1,2.4c-0.6,0.7-1.5,1-2.5,1H541.5z"/>
		<path class="st2" d="M644.8,113.2c-0.7,0-1.4-0.3-2-0.8c-0.6-0.6-0.9-1.3-0.9-2.1c0-0.4,0.1-0.8,0.3-1.3L675,19.1
			c0.3-0.9,0.8-1.7,1.6-2.4c0.8-0.7,1.8-1,3.2-1h14.8c1.4,0,2.4,0.3,3.1,1c0.7,0.7,1.3,1.5,1.6,2.4l32.8,89.9
			c0.1,0.5,0.1,0.9,0.1,1.3c0,0.8-0.3,1.5-0.8,2.1c-0.5,0.6-1.2,0.8-1.9,0.8h-11.9c-1.3,0-2.2-0.3-2.8-0.9c-0.6-0.6-1-1.2-1.2-1.7
			l-6.4-17H667l-6.4,17c-0.2,0.6-0.6,1.1-1.2,1.7c-0.6,0.6-1.5,0.9-2.8,0.9H644.8z M671.8,77.5h30.9l-15.5-43.1L671.8,77.5z"/>
		<path class="st2" d="M748.3,113.2c-0.9,0-1.7-0.3-2.3-1c-0.6-0.6-1-1.4-1-2.4V19.1c0-1,0.3-1.9,1-2.5c0.6-0.6,1.4-1,2.3-1h10.5
			c1.3,0,2.2,0.3,2.8,0.9c0.6,0.6,1,1,1.2,1.3L802,80.3V19.1c0-1,0.3-1.9,0.9-2.5c0.6-0.6,1.4-1,2.4-1h11.4c1,0,1.8,0.3,2.5,1
			c0.6,0.7,1,1.5,1,2.5v90.6c0,1-0.3,1.9-1,2.5c-0.6,0.7-1.4,1-2.3,1h-10.6c-1.3,0-2.2-0.3-2.7-1c-0.5-0.6-1-1.1-1.2-1.3l-39.1-61
			v59.9c0,0.9-0.3,1.7-1,2.4c-0.6,0.7-1.5,1-2.5,1H748.3z"/>
		<path class="st2" d="M844.6,113.2c-0.9,0-1.7-0.3-2.3-1c-0.6-0.6-1-1.4-1-2.4V19.1c0-1,0.3-1.9,1-2.5c0.6-0.6,1.4-1,2.3-1h10.5
			c1.3,0,2.2,0.3,2.8,0.9c0.6,0.6,1,1,1.2,1.3l39.2,62.4V19.1c0-1,0.3-1.9,0.9-2.5c0.6-0.6,1.4-1,2.4-1H913c1,0,1.8,0.3,2.5,1
			c0.6,0.7,1,1.5,1,2.5v90.6c0,1-0.3,1.9-1,2.5c-0.6,0.7-1.4,1-2.3,1h-10.6c-1.3,0-2.2-0.3-2.7-1c-0.5-0.6-1-1.1-1.2-1.3l-39.1-61
			v59.9c0,0.9-0.3,1.7-1,2.4c-0.6,0.7-1.5,1-2.5,1H844.6z"/>
		<path class="st2" d="M975.7,114.5c-7.9,0-14.8-1.4-20.6-4.1c-5.8-2.7-10.3-7-13.5-12.7c-3.2-5.7-4.8-13-4.8-22V19.1
			c0-1,0.3-1.9,1-2.5c0.6-0.6,1.4-1,2.3-1h12.4c1,0,1.8,0.3,2.4,1c0.6,0.7,0.9,1.5,0.9,2.5v56.7c0,7.6,1.8,13.3,5.3,16.9
			c3.5,3.7,8.4,5.5,14.6,5.5c6.2,0,11-1.8,14.5-5.5c3.5-3.7,5.2-9.3,5.2-16.9V19.1c0-1,0.3-1.9,1-2.5c0.6-0.6,1.5-1,2.5-1h12.3
			c1,0,1.8,0.3,2.4,1c0.6,0.7,0.9,1.5,0.9,2.5v56.7c0,8.9-1.6,16.2-4.7,22c-3.1,5.7-7.6,9.9-13.4,12.7
			C990.6,113.2,983.7,114.5,975.7,114.5z"/>
		<path class="st2" d="M1026.9,113.2c-0.7,0-1.4-0.3-2-0.8c-0.6-0.6-0.9-1.3-0.9-2.1c0-0.4,0.1-0.8,0.3-1.3l32.8-89.9
			c0.3-0.9,0.8-1.7,1.6-2.4c0.8-0.7,1.8-1,3.2-1h14.9c1.4,0,2.4,0.3,3.1,1c0.7,0.7,1.3,1.5,1.6,2.4l32.8,89.9
			c0.1,0.5,0.1,0.9,0.1,1.3c0,0.8-0.3,1.5-0.8,2.1c-0.5,0.6-1.2,0.8-1.9,0.8h-11.9c-1.3,0-2.2-0.3-2.8-0.9c-0.6-0.6-1-1.2-1.2-1.7
			l-6.4-17h-40.5l-6.4,17c-0.2,0.6-0.6,1.1-1.2,1.7c-0.6,0.6-1.5,0.9-2.8,0.9H1026.9z M1053.9,77.5h30.9l-15.5-43.1L1053.9,77.5z"/>
		<path class="st2" d="M1130.5,113.2c-0.9,0-1.7-0.3-2.3-1c-0.6-0.6-1-1.4-1-2.4V18.9c0-0.9,0.3-1.7,1-2.4c0.6-0.6,1.4-1,2.3-1h12.7
			c0.9,0,1.7,0.3,2.3,1c0.6,0.7,1,1.4,1,2.4v77.6h43.2c1,0,1.8,0.3,2.5,1c0.6,0.7,1,1.5,1,2.5v9.8c0,0.9-0.3,1.7-1,2.4
			c-0.6,0.7-1.5,1-2.5,1H1130.5z"/>
	</g>
	<g>
		<path class="st3" d="M351.8,225.7c-0.8,0-1.4-0.3-2-0.8c-0.5-0.6-0.8-1.2-0.8-1.9v-72.2c0-0.8,0.3-1.5,0.8-2
			c0.5-0.5,1.2-0.8,2-0.8h30.4c6,0,11.2,0.9,15.7,2.8s7.9,4.7,10.4,8.5c2.5,3.8,3.7,8.6,3.7,14.3c0,5.7-1.2,10.4-3.7,14.1
			c-2.5,3.7-6,6.4-10.4,8.2c-4.5,1.8-9.7,2.7-15.7,2.7h-12.9v24.3c0,0.7-0.3,1.4-0.8,1.9c-0.5,0.6-1.2,0.8-2,0.8H351.8z
			 M368.9,183.2h12.7c3.1,0,5.6-0.8,7.4-2.4c1.8-1.6,2.8-4.1,2.8-7.4c0-2.8-0.8-5.2-2.4-7.1c-1.6-1.9-4.2-2.9-7.8-2.9h-12.7V183.2z"
			/>
		<path class="st3" d="M425.2,225.7c-0.8,0-1.4-0.3-2-0.8c-0.5-0.6-0.8-1.2-0.8-1.9v-72.2c0-0.8,0.3-1.5,0.8-2
			c0.5-0.5,1.2-0.8,2-0.8h50.7c0.8,0,1.4,0.3,2,0.8c0.5,0.5,0.8,1.2,0.8,2v10.4c0,0.8-0.3,1.5-0.8,2c-0.5,0.5-1.2,0.8-2,0.8h-34.6
			v15h32.2c0.8,0,1.4,0.3,2,0.8c0.5,0.6,0.8,1.2,0.8,2.1v9.7c0,0.7-0.3,1.4-0.8,1.9c-0.5,0.6-1.2,0.8-2,0.8h-32.2v15.4h35.5
			c0.8,0,1.4,0.3,2,0.8c0.5,0.5,0.8,1.2,0.8,2v10.4c0,0.7-0.3,1.4-0.8,1.9c-0.5,0.6-1.2,0.8-2,0.8H425.2z"/>
		<path class="st3" d="M487.5,225.7c-0.6,0-1.1-0.2-1.6-0.7c-0.5-0.5-0.7-1-0.7-1.6c0-0.4,0-0.7,0.1-1l25.5-71.3
			c0.2-0.8,0.7-1.5,1.4-2.2c0.7-0.6,1.6-0.9,2.9-0.9h16.1c1.2,0,2.2,0.3,2.9,0.9c0.7,0.6,1.1,1.4,1.4,2.2l25.4,71.3
			c0.1,0.3,0.2,0.6,0.2,1c0,0.6-0.2,1.1-0.7,1.6c-0.5,0.5-1,0.7-1.7,0.7h-13.4c-1.1,0-1.9-0.3-2.4-0.8c-0.5-0.6-0.9-1.1-1-1.5
			l-4.2-11.3h-29l-4.1,11.3c-0.1,0.4-0.5,0.9-1,1.5c-0.5,0.6-1.4,0.8-2.6,0.8H487.5z M513,196h20.2l-10.1-29.3L513,196z"/>
		<path class="st3" d="M599.1,226.8c-6.8,0-12.7-1.1-17.6-3.4c-4.9-2.3-8.7-5.7-11.5-10.1c-2.7-4.4-4.2-10-4.5-16.6
			c-0.1-3-0.1-6.3-0.1-9.8c0-3.5,0-6.8,0.1-10c0.3-6.4,1.8-11.9,4.6-16.4c2.8-4.5,6.6-7.9,11.5-10.2c4.9-2.3,10.7-3.4,17.5-3.4
			c4.8,0,9.2,0.6,13.2,1.8c4.1,1.2,7.6,3,10.6,5.3s5.4,5.1,7.1,8.4c1.7,3.3,2.6,7,2.7,11.2c0.1,0.7-0.1,1.2-0.6,1.7
			c-0.5,0.4-1,0.7-1.7,0.7h-14.7c-0.9,0-1.7-0.2-2.2-0.6c-0.5-0.4-0.9-1.2-1.3-2.3c-1-3.9-2.7-6.6-4.9-8.1c-2.3-1.4-5.1-2.2-8.4-2.2
			c-4,0-7.1,1.1-9.4,3.4c-2.3,2.3-3.6,6-3.8,11.3c-0.2,6.1-0.2,12.3,0,18.7c0.2,5.3,1.5,9,3.8,11.3c2.3,2.3,5.5,3.4,9.4,3.4
			c3.3,0,6.2-0.7,8.5-2.2c2.3-1.5,3.9-4.1,4.9-8c0.3-1.1,0.7-1.9,1.2-2.3c0.5-0.4,1.3-0.6,2.2-0.6h14.7c0.7,0,1.2,0.2,1.7,0.7
			c0.5,0.4,0.7,1,0.6,1.7c-0.1,4.1-1,7.9-2.7,11.2c-1.7,3.3-4.1,6.1-7.1,8.4c-3,2.3-6.6,4.1-10.6,5.3
			C608.3,226.2,603.9,226.8,599.1,226.8z"/>
		<path class="st3" d="M646.9,225.7c-0.8,0-1.4-0.3-2-0.8c-0.5-0.6-0.8-1.2-0.8-1.9v-72.2c0-0.8,0.3-1.5,0.8-2
			c0.5-0.5,1.2-0.8,2-0.8h50.7c0.8,0,1.4,0.3,2,0.8c0.5,0.5,0.8,1.2,0.8,2v10.4c0,0.8-0.3,1.5-0.8,2c-0.5,0.5-1.2,0.8-2,0.8H663v15
			h32.2c0.8,0,1.4,0.3,2,0.8c0.5,0.6,0.8,1.2,0.8,2.1v9.7c0,0.7-0.3,1.4-0.8,1.9c-0.5,0.6-1.2,0.8-2,0.8H663v15.4h35.5
			c0.8,0,1.4,0.3,2,0.8c0.5,0.5,0.8,1.2,0.8,2v10.4c0,0.7-0.3,1.4-0.8,1.9c-0.5,0.6-1.2,0.8-2,0.8H646.9z"/>
		<path class="st3" d="M767.8,226.8c-6.8,0-12.7-1.1-17.6-3.4c-4.9-2.3-8.7-5.7-11.5-10.1c-2.7-4.4-4.2-10-4.5-16.6
			c-0.1-3-0.1-6.3-0.1-9.8c0-3.5,0-6.8,0.1-10c0.3-6.4,1.8-11.9,4.6-16.4c2.8-4.5,6.6-7.9,11.5-10.2c4.9-2.3,10.7-3.4,17.5-3.4
			c4.8,0,9.2,0.6,13.2,1.8c4.1,1.2,7.6,3,10.6,5.3s5.4,5.1,7.1,8.4c1.7,3.3,2.6,7,2.7,11.2c0.1,0.7-0.1,1.2-0.6,1.7
			c-0.5,0.4-1,0.7-1.7,0.7h-14.7c-0.9,0-1.7-0.2-2.2-0.6c-0.5-0.4-0.9-1.2-1.3-2.3c-1-3.9-2.7-6.6-4.9-8.1c-2.3-1.4-5.1-2.2-8.4-2.2
			c-4,0-7.1,1.1-9.4,3.4c-2.3,2.3-3.6,6-3.8,11.3c-0.2,6.1-0.2,12.3,0,18.7c0.2,5.3,1.5,9,3.8,11.3c2.3,2.3,5.5,3.4,9.4,3.4
			c3.3,0,6.2-0.7,8.5-2.2c2.3-1.5,3.9-4.1,4.9-8c0.3-1.1,0.7-1.9,1.2-2.3c0.5-0.4,1.3-0.6,2.2-0.6h14.7c0.7,0,1.2,0.2,1.7,0.7
			c0.5,0.4,0.7,1,0.6,1.7c-0.1,4.1-1,7.9-2.7,11.2c-1.7,3.3-4.1,6.1-7.1,8.4c-3,2.3-6.6,4.1-10.6,5.3
			C777,226.2,772.6,226.8,767.8,226.8z"/>
		<path class="st3" d="M843.9,226.8c-6.7,0-12.5-1.1-17.4-3.3c-4.9-2.2-8.8-5.6-11.5-10.1c-2.8-4.5-4.3-10.1-4.6-16.8
			c-0.1-3.2-0.1-6.4-0.1-9.6s0-6.4,0.1-9.6c0.3-6.7,1.8-12.3,4.6-16.8c2.8-4.6,6.7-8,11.6-10.3c5-2.3,10.7-3.4,17.2-3.4
			c6.6,0,12.3,1.1,17.3,3.4c4.9,2.3,8.8,5.7,11.6,10.3c2.8,4.6,4.3,10.2,4.6,16.8c0.1,3.2,0.2,6.4,0.2,9.6s-0.1,6.4-0.2,9.6
			c-0.2,6.7-1.7,12.3-4.5,16.8c-2.8,4.5-6.6,7.8-11.6,10.1C856.4,225.7,850.6,226.8,843.9,226.8z M843.9,210.8c3.8,0,7-1.2,9.4-3.6
			c2.4-2.4,3.7-6.1,3.9-11.3c0.1-3.3,0.2-6.3,0.2-9.2s-0.1-5.9-0.2-9c-0.1-3.5-0.8-6.3-1.9-8.5c-1.1-2.2-2.7-3.8-4.6-4.8
			c-2-1-4.2-1.6-6.7-1.6c-2.5,0-4.7,0.5-6.6,1.6c-2,1-3.5,2.6-4.7,4.8c-1.2,2.2-1.8,5-2,8.5c-0.1,3.1-0.1,6.1-0.1,9s0,6,0.1,9.2
			c0.2,5.2,1.5,9,4,11.3C837.1,209.6,840.2,210.8,843.9,210.8z"/>
		<path class="st3" d="M892.9,225.7c-0.8,0-1.4-0.3-2-0.8c-0.5-0.6-0.8-1.2-0.8-1.9v-72.2c0-0.8,0.3-1.5,0.8-2
			c0.5-0.5,1.2-0.8,2-0.8h11.5c1.2,0,2.1,0.3,2.7,0.8c0.5,0.6,0.9,1,1,1.3l26.5,42.7v-42c0-0.8,0.3-1.5,0.8-2c0.5-0.5,1.2-0.8,2-0.8
			h13c0.8,0,1.4,0.3,2,0.8c0.5,0.5,0.8,1.2,0.8,2v72.1c0,0.8-0.3,1.5-0.8,2.1c-0.5,0.6-1.2,0.8-2,0.8h-11.6c-1.2,0-2-0.3-2.6-0.9
			c-0.5-0.6-0.9-1-1-1.2l-26.5-41.1v40.4c0,0.7-0.3,1.4-0.8,1.9c-0.5,0.6-1.2,0.8-2,0.8H892.9z"/>
		<path class="st3" d="M999.4,226.8c-6.8,0-12.7-1.1-17.6-3.4c-4.9-2.3-8.7-5.7-11.5-10.1c-2.7-4.4-4.2-10-4.5-16.6
			c-0.1-3-0.1-6.3-0.1-9.8c0-3.5,0-6.8,0.1-10c0.3-6.4,1.8-11.9,4.6-16.4c2.8-4.5,6.6-7.9,11.5-10.2c4.9-2.3,10.7-3.4,17.5-3.4
			c4.8,0,9.2,0.6,13.2,1.8c4.1,1.2,7.6,3,10.6,5.3c3,2.3,5.4,5.1,7.1,8.4c1.7,3.3,2.6,7,2.7,11.2c0.1,0.7-0.1,1.2-0.6,1.7
			c-0.5,0.4-1,0.7-1.7,0.7h-14.7c-0.9,0-1.7-0.2-2.2-0.6c-0.5-0.4-0.9-1.2-1.3-2.3c-1-3.9-2.7-6.6-4.9-8.1c-2.3-1.4-5.1-2.2-8.4-2.2
			c-4,0-7.1,1.1-9.4,3.4c-2.3,2.3-3.6,6-3.8,11.3c-0.2,6.1-0.2,12.3,0,18.7c0.2,5.3,1.5,9,3.8,11.3c2.3,2.3,5.5,3.4,9.4,3.4
			c3.3,0,6.2-0.7,8.5-2.2c2.3-1.5,3.9-4.1,4.9-8c0.3-1.1,0.7-1.9,1.2-2.3c0.5-0.4,1.3-0.6,2.2-0.6h14.7c0.7,0,1.2,0.2,1.7,0.7
			c0.5,0.4,0.7,1,0.6,1.7c-0.1,4.1-1,7.9-2.7,11.2c-1.7,3.3-4.1,6.1-7.1,8.4c-3,2.3-6.6,4.1-10.6,5.3
			C1008.6,226.2,1004.2,226.8,999.4,226.8z"/>
		<path class="st3" d="M1047.2,225.7c-0.8,0-1.4-0.3-2-0.8c-0.5-0.6-0.8-1.2-0.8-1.9v-72.2c0-0.8,0.3-1.5,0.8-2
			c0.5-0.5,1.2-0.8,2-0.8h50.7c0.8,0,1.4,0.3,2,0.8c0.5,0.5,0.8,1.2,0.8,2v10.4c0,0.8-0.3,1.5-0.8,2c-0.5,0.5-1.2,0.8-2,0.8h-34.6
			v15h32.2c0.8,0,1.4,0.3,2,0.8c0.5,0.6,0.8,1.2,0.8,2.1v9.7c0,0.7-0.3,1.4-0.8,1.9c-0.5,0.6-1.2,0.8-2,0.8h-32.2v15.4h35.5
			c0.8,0,1.4,0.3,2,0.8c0.5,0.5,0.8,1.2,0.8,2v10.4c0,0.7-0.3,1.4-0.8,1.9c-0.5,0.6-1.2,0.8-2,0.8H1047.2z"/>
		<path class="st3" d="M1116.6,225.7c-0.8,0-1.4-0.3-2-0.8c-0.5-0.6-0.8-1.2-0.8-1.9v-72.2c0-0.8,0.3-1.5,0.8-2
			c0.5-0.5,1.2-0.8,2-0.8h29.5c9.4,0,16.8,2.2,22.1,6.6c5.4,4.4,8,10.6,8,18.7c0,5.3-1.2,9.7-3.7,13.3c-2.5,3.6-5.7,6.4-9.8,8.2
			l14.9,27.3c0.2,0.4,0.3,0.9,0.3,1.2c0,0.6-0.2,1.1-0.7,1.6c-0.5,0.5-1,0.7-1.6,0.7h-14.4c-1.4,0-2.4-0.4-3-1.1
			c-0.7-0.7-1.1-1.4-1.4-1.9l-12.4-24.4h-11.1v24.7c0,0.7-0.3,1.4-0.8,1.9c-0.5,0.6-1.2,0.8-2,0.8H1116.6z M1133.4,182.4h12.5
			c3.4,0,6-0.9,7.7-2.6c1.7-1.7,2.6-4,2.6-6.9s-0.8-5.2-2.4-7c-1.6-1.8-4.2-2.7-7.8-2.7h-12.5V182.4z"/>
		<path class="st3" d="M1207.6,225.7c-0.8,0-1.4-0.3-2-0.8c-0.5-0.6-0.8-1.2-0.8-1.9v-57.5h-19.3c-0.8,0-1.4-0.3-2-0.8
			c-0.5-0.6-0.8-1.2-0.8-1.9v-11.9c0-0.8,0.3-1.5,0.8-2c0.5-0.5,1.2-0.8,2-0.8h58.4c0.8,0,1.4,0.3,2,0.8c0.5,0.5,0.8,1.2,0.8,2v11.9
			c0,0.7-0.3,1.4-0.8,1.9c-0.5,0.6-1.2,0.8-2,0.8h-19.3v57.5c0,0.7-0.3,1.4-0.8,1.9c-0.5,0.6-1.2,0.8-2,0.8H1207.6z"/>
	</g>
	<g>
		<path class="st2" d="M437.6,260c-0.1,0.7-0.3,1.5-0.5,2.2c-0.1,0.5-0.3,1.1-0.6,1.6c-1.3,2.2-2.7,4.3-4.5,6.2
			c-1.1,1.1-2.4,2.3-3.4,3.5c-0.6,0.7-1.3,1.3-2.1,1.7c-1.4,1.1-2.9,1.9-4.2,3.2c-0.2,0.2-0.6,0.4-0.9,0.5c-0.7,0.4-1.3,0.7-1.9,1.2
			c-0.5,0.6-1.1,1-1.8,1.4c-0.3,0.2-0.5,0.4-0.8,0.5c-0.8,0.2-1.4,0.6-2.3,0.8c-0.7,0.1-1.3,0.6-2.1,0.6c-0.4,0-0.8,0.4-1.2,0.6
			c-0.3,0.2-0.6,0.4-0.8,0.6c-0.1,0-0.1,0-0.1,0.1v-0.1c0.1,0,0.1,0,0.1,0c-0.2,0.1-0.4,0.1-0.5,0.3c0.1,0.1,0.2,0.1,0.4,0.2
			c-0.5,0.6-1.1,0.7-1.8,0.8c-0.4,0.1-0.7,0.4-0.7,0.8c-0.1,0.4-0.2,0.9-0.2,1.4c-0.1,1.9-0.2,3.6-0.4,5.4c0,0.4,0,0.8-0.1,1.2
			c-0.5,1.9-0.6,3.8-0.7,5.6c0,1.5-0.2,3-0.3,4.6c0,0.1,0,0.2,0,0.2c-0.6,2.1-0.6,4.2-0.8,6.3c0,0.3-0.1,0.6-0.3,1
			c-0.2,0.3-0.3,0.6-0.3,1c0.1,0.9,0.1,1.8,0.1,2.8c0,0.6,0,1.1-0.2,1.7c-0.2,0.5-0.8,0.8-1.4,0.6c-0.1,0-0.2-0.3-0.2-0.5
			c-0.1-0.1,0-0.4,0-0.5c0.3-0.6,0.4-1.2,0.4-1.8c-0.1-1-0.1-2.2-0.2-3.2c0-0.3,0-0.7-0.1-0.9c-0.5-1-0.6-2-0.6-3
			c0-0.8,0-1.8-0.1-2.6c-0.1-0.8-0.1-1.5-0.1-2.4c0.1-0.8,0.1-1.8,0-2.6c-0.1-0.5-0.1-1-0.1-1.5c0.1-3,0.1-5.9,0.2-8.8
			c0-0.3-0.1-0.5-0.1-0.8c-0.1-0.3-0.5-0.4-0.8-0.3c-0.5,0-1,0.2-1.5,0.4c-0.6,0.4-1.3,0.6-2.1,0.8c-0.5,0.1-0.9,0.1-1.3-0.1
			c-0.2-0.1-0.6-0.2-0.8,0c-0.6,0.2-1.2,0.4-1.9,0.7c-0.8,0.3-1.4,0.2-2-0.3c-0.1-0.1-0.3-0.2-0.4-0.4c-0.1-0.1,0-0.2,0-0.3
			c0.1-0.1,0.3-0.2,0.4-0.2c0.4,0,0.8-0.1,1.2-0.1c0.1,0.1,0.3,0.1,0.3,0.2c0.3,0.3,0.6,0.3,0.9,0.1c0.9-0.5,1.8-0.9,2.7-1.3
			c1.4-0.7,3-1.4,4.4-2.1c0.4-0.1,0.6-0.4,0.7-0.8c0.3-1.2,0.3-2.4,0.4-3.5c0-0.9,0-1.9,0.1-2.8c0.1-0.4,0.1-0.7,0.1-1
			c0-4.4,0.3-8.9,0.6-13.4c0.1-1.6,0.2-3.1,0.3-4.7c0-0.2,0-0.4,0-0.6c-0.1-2,0.1-3.9,0.1-6c0-0.9,0.2-1.9,0.3-2.8
			c0-0.3,0.4-0.8,0.8-0.9c1-0.3,2.2-0.5,3.2-0.5c0.9-0.1,1.4,0.5,1.9,1.2c0,0.1,0,0.1,0,0.2c0.6,1.8,0.6,1.8,0.4,3.9
			c-0.2,1.1-0.4,2.1-0.3,3.1c0,0.4-0.1,0.7-0.1,1c-0.5,2.9-0.7,5.7-0.9,8.7c-0.3,4.1-0.6,8.1-0.8,12.1c0,0.4,0,0.8,0,1.2
			c0,0.4,0.5,0.7,0.8,0.4c1.4-0.8,3-1.5,4.3-2.4c1.5-1,3.1-1.8,4.6-2.8c2-1.1,3.7-2.3,5.4-3.8c1.1-1,2.3-2,3.6-2.7
			c0.4-0.1,0.7-0.5,1-0.8c0.7-0.6,1.3-1.2,2-1.8c1-0.9,1.8-2,2.4-3.2c0.2-0.4,0.4-0.9,0.7-1.3c0.9-1.1,1-2.4,1.3-3.5
			c0.3-1.2,0.2-2.4-0.1-3.5c-0.4-1.5-1.2-2.7-2.5-3.5c-1.8-1.3-3.7-2.2-5.9-2.8c-1.1-0.4-2.4-0.6-3.5-0.9c-2.2-0.6-4.5-0.5-6.8-0.7
			c-0.3-0.1-0.7,0-1,0c-0.5,0-1,0.2-1.5,0.1c-0.4-0.1-0.8,0-1.2,0.1c-0.8,0.2-1.5,0.2-2.4,0.3c-0.9,0.1-1.9,0.3-2.8,0.6
			c-0.9,0.4-2,0.7-2.9,1c-2.2,0.6-4.2,1.5-6.2,2.6c-1,0.6-2,1.4-2.8,2.3c-0.3,0.3-0.7,0.7-1.1,1c-0.5,0.6-1.4,0.5-1.8,0
			c-0.4-0.7-0.6-1.3-0.2-2c0.2-0.6,0.6-1.2,1.1-1.6c0.8-0.8,1.9-1.5,2.9-2c2.5-1.3,5.1-2.3,7.7-3c4.1-1.1,8.2-1.5,12.2-1.5
			c0.7,0,1.4,0.1,2.1,0.1c3,0.4,5.9,0.8,8.7,1.7c2.7,0.9,5.2,2.1,7.1,3.9c0.2,0.2,0.4,0.4,0.6,0.5c1.7,0.8,2.4,2.4,3,3.9
			C437.7,256.9,437.9,258.4,437.6,260z M405.8,297c-0.3,0.3-0.3,0.6-0.4,0.9c-0.1,0.3-0.2,0.4-0.4,0.4c-0.2,0-0.3-0.2-0.4-0.4
			c0-0.1-0.1-0.2-0.2-0.3c-0.3,0.7-0.3,1.6-0.6,2.7c0-3.3-0.1-6.4,0.1-9.4c0-0.6,0-1.1,0-1.7c0.1-0.3-0.1-0.5-0.1-0.4
			c-0.1,0.1-0.2,0.2-0.2,0.3c0,1.1-0.2,2.2-0.3,3.2c-0.1,1.5-0.2,2.8-0.3,4.2c-0.1,1.4-0.1,2.6-0.3,3.8c-0.1,0.9,0,1.9,0,2.8
			c0.1,1.1,0.2,2.4,0.1,3.5c0,0.4,0,0.7,0.2,0.9c0.1,0.1,0.2,0.2,0.3,0.2c0.1,0,0.1-0.1,0.2-0.2c0-0.5,0.1-1,0.2-1.6
			c0.5-0.1,0.1,0.7,0.6,0.5c0.4-2.2,0.1-4.3,0.8-6.6c0.1-0.2,0.5-0.1,0.5-0.6C405.8,298.7,405.8,297.9,405.8,297z M403.7,303.4
			c0,0.3,0.1,0.6-0.2,0.8c0-0.8,0-1.5,0.3-2.6c0,0.4,0,0.6,0,0.8C403.8,302.8,403.8,303.1,403.7,303.4z M413.7,280.3
			c0.1-0.1,0.2-0.3,0.3-0.4c-0.2,0-0.5,0.1-0.7,0.3c-1.4,0.7-2.9,1.5-4.3,2.3c-0.2,0-0.3,0.1-0.4,0.2c0,0.1-0.1,0.2,0,0.2
			c0.1,0.1,0.2,0.1,0.3,0.1c0,0.1,0.1,0.1,0.2,0C410.6,282.3,412.2,281.4,413.7,280.3z M410.3,285c0-0.1,0.1-0.2,0.1-0.4
			c0.1,0,0.3,0,0.3,0.2C410.7,284.8,410.5,285,410.3,285z M414.9,279.4c-0.3,0-0.6,0.1-0.8,0.4C414.4,279.9,414.7,279.7,414.9,279.4
			z M415,279.4c0.3-0.1,0.5-0.3,0.7-0.4C415.4,279,415.2,279.1,415,279.4z M423.2,275.2c0.1-0.1,0.1-0.3,0.2-0.5
			c-0.2,0-0.4,0-0.6,0.2c-0.7,0.5-1.4,1.1-2.2,1.5l-0.1,0.1c0,0.1,0,0.2,0,0.2c0,0.1,0.1,0.1,0.1,0.1
			C421.6,276.4,422.5,276,423.2,275.2z M422.4,276.8c-0.5,0.1-0.9,0.4-1.2,0.8C421.7,277.6,422.1,277.2,422.4,276.8z M424.6,273.8
			c-0.4,0.1-0.8,0.4-1.1,0.8C424,274.6,424.4,274.3,424.6,273.8z M432,267.6c-0.2,0-0.3,0-0.5,0.1c-0.7,0.3-1.3,0.6-1.8,1.3
			c-0.5,0.7-1.1,1.2-2,1.8c-0.7,0.5-1.4,1.2-2,1.9c0.4,0,0.8-0.1,1.1-0.4c0.5-0.4,1-0.8,1.5-1.3c0.8-0.7,1.5-1.5,2.6-2.1
			C431.6,268.8,432,268.2,432,267.6z M434.1,265.1c0-0.1,0-0.1,0-0.2c-0.1,0-0.1,0-0.2,0c-0.5,0.4-0.9,0.7-1.2,1.2
			c-0.1,0.4-0.4,0.9-0.6,1.3c0.2-0.1,0.4-0.1,0.5-0.3C433.3,266.5,433.8,265.9,434.1,265.1z"/>
		<path class="st2" d="M448.5,289.4c0,0.3-0.1,0.6-0.3,0.9c-1,1.1-1.8,2.5-2.9,3.6c-0.4,0.3-0.6,0.8-0.9,1.1
			c-0.3,0.4-0.5,0.9-0.8,1.2c-0.6,0.9-1.1,1.8-2.2,2.3c-0.3,0.1-0.6,0.4-0.8,0.6c-0.3,0.3-0.6,0.6-0.9,0.9c-0.9,1-2.2,1.7-3.2,2.7
			c-0.1,0.1-0.1,0.2,0,0.3c0.1,0,0.1,0.1,0.2,0.1c0,0,0.1,0,0.2,0c2.9-1.4,5.6-3.1,7.7-5.5c1.1-1.2,2.4-2.4,3.5-3.6
			c0.1-0.1,0.3-0.2,0.4-0.3c0,0.2-0.1,0.5-0.2,0.6c-0.5,0.8-1.1,1.5-1.7,2.2c-1.5,1.9-3.3,3.5-5.1,5.2c-0.1,0.1-0.4,0.3-0.6,0.5
			c-1.3,0.8-2.6,1.9-4.1,2.5c-0.3,0.1-0.5,0.4-0.8,0.5c-1,0.6-2.1,1.2-3.1,1.7c-1.1,0.5-2.4,0.9-3.6,0.7c-0.3-0.1-0.6-0.2-1-0.1
			c-1,0-2.1-0.3-2.7-1.2c-0.1-0.2-0.3-0.3-0.4-0.5c-1.3-1-2-2.4-2.1-4.1c-0.2-1.8-0.1-3.7,0.4-5.6c0.4-1.6,0.8-3.2,1.4-4.8
			c0.1-0.2,0.4-0.3,0.5-0.1c0.1,0.1,0.1,0.2,0.2,0.3c0,0.1,0,0.3-0.1,0.4c-0.1,0.3-0.2,0.6-0.3,1c-0.6,1.5-0.9,3.1-0.9,4.7
			c0,0,0-0.1,0.1-0.1c0.4-0.8,0.7-1.6,1.2-2.4c0.2-0.3,0.2-0.7,0.3-1.2l-0.1,0v-0.1c0-0.1,0-0.1,0-0.2c0,0,0,0,0-0.1c0,0,0,0,0-0.1
			l0.1,0.1c0-0.6,0.3-1.2,0.6-1.7c0.4-0.9,0.8-1.6,1-2.5l-0.1,0V289l0.1,0.1c0.3-0.2,0.5-0.5,0.6-0.7c0.4-0.6,0.7-1.1,1-1.6
			c0,0,0-0.2,0-0.3c-0.1,0-0.2-0.1-0.4-0.1s-0.5,0.1-0.8,0.2c0-0.3,0-0.5,0.2-0.7c1.1-1.9,2.8-3.1,5-3.4c0.4,0,0.8-0.1,1.2,0
			c0.5,0.2,0.9,0.3,1.4,0.5c1.5,0.7,2.3,2,2.5,3.7c0,0.4-0.1,0.9-0.2,1.4c-0.8,1.9-1.9,3.8-3.1,5.5c-0.2,0.3-0.6,0.7-0.9,1
			c-0.4,0.4-0.9,0.8-1.2,1.1c-1.2,1.3-1,0.9-2.6,1.4c-0.9,0.2-1.9,0.3-2.7-0.1c-0.3-0.1-0.7,0.2-0.8,0.5c-0.6,2-0.6,4.1-0.1,6
			c0,0.1,0.1,0.2,0.1,0.4c0.2,0.3,0.5,0.6,0.9,0.6c0.5,0.1,1.1,0,1.7-0.1c1-0.2,2.1-0.6,3.1-1.1c3.1-1.7,6-3.7,8.6-6.3
			c1.2-1.1,2.4-2.4,3.6-3.5c0.5-0.6,1-1.1,1.7-1.7c0.4-0.4,0.8-0.9,1.1-1.4C447.7,289.9,448.1,289.5,448.5,289.4z M424.2,297.9
			c0-0.1,0-0.2,0-0.3c0,0.1-0.1,0.2-0.1,0.3c-0.1,0.1-0.1,0.2,0,0.2C424.2,298.2,424.2,298.1,424.2,297.9z M426.3,288.8l-0.1,0.1
			L426.3,288.8c0.1-0.2,0.2-0.3,0.4-0.4l0.1-0.1c0,0.1,0,0.1-0.1,0.1C426.6,288.6,426.5,288.7,426.3,288.8z M428,286.6l-0.1,0
			c0,0,0,0,0,0.1v-0.1C427.9,286.6,427.9,286.6,428,286.6z M428.3,293.8c0.1,0,0.3,0,0.4,0c0.8-0.5,1.7-1.1,2.3-1.9
			c0.8-0.9,1.5-1.8,2.3-2.8c0.7-1,1.2-2.1,1.1-3.2c0-0.2-0.1-0.3-0.1-0.4c0-0.4-0.4-0.5-0.7-0.4c-0.7,0.5-1.2,1.1-1.9,1.7
			c-0.8,0.8-1.4,1.7-1.9,2.7c-0.3,0.9-0.8,1.6-1.2,2.5c-0.1,0.3-0.3,0.7-0.4,1.2C428,293.5,428.2,293.8,428.3,293.8z M448.9,288.8
			c0.1,0,0.1,0,0.1,0c-0.2,0.2-0.3,0.3-0.5,0.6v-0.1C448.6,289.2,448.8,288.9,448.9,288.8z M448.5,293.4v-0.1l0.1,0
			C448.6,293.3,448.6,293.3,448.5,293.4z M448.6,293.3c0.1-0.1,0.2-0.2,0.3-0.3C448.8,293.2,448.7,293.3,448.6,293.3z M449,292.9
			l-0.1,0c0,0,0,0,0-0.1c0.1,0,0.1,0,0.1,0S449,292.8,449,292.9z M450.3,287.5c-0.2,0.6-0.5,1.2-1.2,1.3c0.1-0.7,0.5-1.2,1.1-1.4
			L450.3,287.5z M449,292.8c0.1-0.1,0.2-0.2,0.3-0.2C449.2,292.7,449.1,292.7,449,292.8z M449.4,292.5c-0.1,0-0.1,0.1-0.1,0.1
			c0-0.1,0-0.1,0-0.1c0-0.1,0.1-0.1,0.1-0.1V292.5z M453,285.7c0,0,0,0,0-0.1C453,285.7,453,285.7,453,285.7l-0.1,0L453,285.7z
			 M453,285.6c0-0.2,0.1-0.5,0.3-0.7c0.1,0,0.2,0,0.2,0l0.1,0.1C453.6,285.2,453.4,285.4,453,285.6z"/>
		<path class="st2" d="M484.1,282.9c-0.1,0.4-0.2,0.7-0.5,1c-0.6,0.6-1.3,1.3-2,1.9c-1.9,1.5-3.6,3.2-5.4,4.8c-1,1-2,2.1-2.9,3.1
			c-0.7,0.9-1.4,1.7-2.4,2.4c-0.3,0.3-0.6,0.7-0.9,1.2c0,0,0,0.1,0,0.2c0.1,0,0.3,0.1,0.3,0.1c0.6-0.4,1.1-0.7,1.7-1.1
			c0.3-0.2,0.5-0.4,0.8-0.4c-0.1,0.2-0.3,0.4-0.4,0.7c-0.1,0.2,0,0.4-0.1,0.6c0.1,0.1,0.1,0.2,0,0.3c-0.5,1-1.3,1.7-2.2,2.5
			c-1.7,1.5-3.4,2.6-5.3,3.7c-0.7,0.5-1.5,0.5-2.3,0.2c-0.5-0.3-0.9-0.7-1.4-1.1c-0.2-0.2-0.4-0.4-0.6-0.6c-0.9-1-1.8-2.7-2-4.2
			c-0.1-0.8-0.2-1.5-0.2-2.3c-0.1-0.3-0.4-0.5-0.6-0.4c-1.4,1.2-3,2.1-4.3,3.5c-1.2,1.2-2.5,2.4-3.8,3.4c-0.9,0.6-1.8,1.4-2.7,2
			c-0.4,0.3-0.9,0.6-1.3,0.8c-0.6,0.3-1.1,0.3-1.8-0.1l-1.4-0.8c-0.4-0.3-0.7-0.7-0.9-1.2c-0.1-0.5-0.3-0.9-0.5-1.3
			c-0.1-1.4,0.3-2.8,0.9-4.1c0.8-1.9,2-3.7,3.2-5.3c0.6-1,1.4-1.9,2.3-2.7c1.3-1.3,2.6-2.7,3.9-4.1c1-1,2.2-1.9,3.4-2.6
			c0.5-0.4,1-0.6,1.5-0.7c0.5-0.1,0.9-0.3,1.3-0.7c0.2-0.2,0.6-0.4,0.8-0.4c1.1,0,2.2,0,3.2,0.2c1,0.3,1.8,1.1,2.4,2.1
			c0.3,0.5,0.4,1,0.1,1.5c-0.2,0.2-0.3,0.5-0.4,0.8c-0.1,0.4-0.3,0.7-0.6,1.1l-1.1,0.8c-0.2,0.2-0.5,0.4-0.8,0.3
			c-0.4-0.2-0.8-0.1-1.2-0.3c-0.1,0-0.1-0.2-0.2-0.3l0.1-0.1l1-1.3c0.3-0.4,0.4-1.1,0.2-1.6c-0.2-0.6-0.7-0.8-1.2-0.5
			c-0.2,0.1-0.4,0.2-0.6,0.5c-0.5,0.6-1.2,1-1.9,1.3c-1.3,0.7-2.5,1.8-3.6,2.7c-1.2,1-2.3,2.4-3.4,3.5c-0.3,0.3-0.6,0.8-0.8,1.2
			c-0.6,0.7-1.1,1.4-1.7,2.1c-1.1,1.4-2,3-2.8,4.7v0.4c0,0.1,0.3,0.2,0.5,0.2l0.3-0.2c0.6-0.4,1.2-0.6,1.9-1.1l4.2-3.2l5.1-3.7
			c0.5-0.4,1-0.7,1.5-0.8c0.4-0.1,0.8-0.1,1.1,0.3c0.5,0.6,1,0.9,1.8,1.2c0.2,0,0.4,0.3,0.5,0.5c0.2,0.3,0.3,0.6,0.4,0.9
			c0.1,0.3,0.1,0.7,0,1c-0.3,1.3,0.1,3.2,0.2,4.4c0,0.2,0.1,0.4,0.2,0.6c0,0.1,0.3,0.3,0.4,0.3c0.3,0,0.4-0.1,0.6-0.3
			c2.7-1.8,5.2-3.8,7.5-6.1c1.7-1.7,3.6-3.4,5.4-5.1c2.3-2.1,4.5-3.9,6.7-6.1C483.6,283.2,483.9,283.1,484.1,282.9z M442.5,298.9
			l-0.2,0.2c0.1,0,0.1,0,0.1,0S442.5,299,442.5,298.9z M451,288.1c0.4-0.6,0.9-1,1.4-1.5c0.1-0.1,0.1-0.3,0.2-0.5
			c-0.1,0.1-0.2,0.1-0.3,0.1c-1.1,0.7-2.2,1.5-3.2,2.7l-1.1,1.3l-3.6,4.4c-0.8,1-1.3,2.4-1.9,3.7v0.4c0.3-0.1,0.4-0.3,0.5-0.6
			l1.4-2.3C446.4,293.1,448.6,290.5,451,288.1z M457.8,294.2c-0.1-0.1-0.2-0.1-0.3-0.1v-0.1c-0.1,0.1-0.3,0.3-0.4,0.2
			c-0.7-0.1-1.3,0.2-1.9,0.8l-0.8,0.8c-0.3,0.2-0.4,0.4-0.4,0.9c0,0.2-0.2,0.4-0.5,0.6c-0.4,0.2-0.8,0.4-1,1l1-0.3
			c1.4-0.8,2.9-1.8,4.2-3.1c0.1,0,0.2-0.2,0.3-0.2C458.1,294.5,458,294.3,457.8,294.2z M452.8,286.1c0.2-0.1,0.3-0.1,0.5-0.4
			C453.1,285.9,452.9,285.9,452.8,286.1z M472.9,296.2c0-0.1,0-0.1,0-0.1c0.1,0,0.2-0.1,0.3-0.2c-0.1,0.1-0.2,0.2-0.2,0.3
			C472.9,296.2,472.9,296.2,472.9,296.2z M473.2,295.8c0.1,0,0.1-0.1,0.2-0.1c0-0.1,0.1,0,0.1-0.1c0,0.1,0,0.1-0.1,0.1
			C473.4,295.7,473.3,295.8,473.2,295.8z M473.7,295.3c0.1-0.1,0.2-0.2,0.2-0.2s-0.1,0.1-0.1,0.2c-0.1,0-0.1,0.1-0.2,0.1
			C473.7,295.3,473.7,295.3,473.7,295.3z M475,294c-0.1,0.1-0.3,0.3-0.4,0.4c-0.1,0.1-0.2,0.3-0.4,0.4c0,0-0.1,0.1-0.2,0.1
			c0.1,0,0.1-0.1,0.2-0.2c0.1-0.1,0.2-0.2,0.3-0.4C474.7,294.2,474.9,294.1,475,294z M475.5,293.5c0.1-0.1,0.3-0.2,0.4-0.4
			c-0.2,0.2-0.3,0.3-0.4,0.6c-0.1,0.1-0.3,0.2-0.4,0.3C475.1,293.9,475.2,293.6,475.5,293.5z M476.2,292.7c0.1-0.1,0.1-0.1,0.1-0.1
			s0,0,0,0.1c-0.1,0.2-0.2,0.3-0.4,0.3C476,293,476.1,292.8,476.2,292.7z M484.3,282.8c0,0-0.1,0-0.2,0.1c0-0.2,0.1-0.4,0.3-0.3
			C484.4,282.6,484.4,282.8,484.3,282.8z"/>
		<path class="st2" d="M506.8,281.4c-0.7,0.9-1.3,1.7-2.1,2.6c-0.2,0.3-0.6,0.7-0.8,1c-0.7,1.4-2,2.3-2.9,3.6
			c-0.2,0.3-0.6,0.7-0.9,0.9c-0.3,0.3-0.6,0.7-0.9,1c-0.5,0.1-1,0.4-1.1,1.1c0,0.4-0.3,0.6-0.5,0.9c-0.5,0.6-1.1,0.8-1.7,1.2
			c-1.2,0.6-2.3,1.4-3,2.6c-0.3,0.4-0.7,0.8-1.1,1.1c-1.1,0.7-2.3,1.5-3.4,2.4c-0.3,0.2-0.3,0.1-0.6,0.4c-0.8,0.5-1.7,0.8-2.5,0.8
			c-1,0-2.2,0.2-3.1-0.5c-1.1-0.2-2.1-0.7-3-1.4c-0.5-0.4-0.9-0.8-1.1-1.4c-0.8-1.9-1.3-3.9-1.1-6.1c0.1-0.7,0.3-1.5,0.5-2.1
			c1-2.7,2.5-5.1,4.5-7.1c0.5-0.6,1.1-1,1.9-1c0.5,0,0.8-0.4,1.2-0.6c1.1-0.6,2.3-0.9,3.5-0.9c0.7-0.1,1.4,0,2.2-0.3
			c0.3-0.2,0.6-0.1,1,0c0.9,0.4,1.7,1.2,2.1,2.2c0.3,0.7,0.4,1.4,0.3,2.2c-0.1,1.2-0.5,2.4-1.1,3.5c-0.3,0.7-0.8,1.3-1.3,1.8
			c-0.3,0.1-0.5,0.4-0.7,0.5c-0.4,0.2-0.7,0.6-1.1,0.7c-0.5,0.1-0.9,0-1.4,0c-0.1,0-0.3-0.4-0.3-0.5c0.1-0.3,0.2-0.6,0.3-0.9
			c0.6-1.9,1-3.8,1-5.8c0.1-0.4-0.2-0.8-0.6-1c-0.3-0.1-0.7-0.1-1,0.1c-0.3,0.2-0.7,0.5-1,0.8c-0.4,0.4-0.7,1.1-1.1,1.6
			c-0.5,0.5-1.1,0.8-1.5,1.3c-1.5,1.9-2.9,4-3.4,6.4c-0.4,1.6-0.1,3,0.2,4.4c0.1,0.3,0.3,0.5,0.4,0.7c0.5,0.6,1,0.9,1.9,0.8
			c1.2-0.1,2.4-0.4,3.5-0.9c0.4-0.1,0.7-0.4,1-0.5c2.6-1.3,4.5-2.5,6.7-4.3c0.5-0.5,1.1-0.9,1.9-1.3c1.3-0.8,2.5-1.9,3.6-3
			c1.7-1.6,3.2-3.4,4.8-5.1c0.8-0.9,1.4-1.9,2.3-2.9c0.1-0.1,0.2-0.2,0.3-0.1c0,0.1,0.1,0.2,0.1,0.2
			C507.1,280.8,507,281.2,506.8,281.4z M499.2,290.4l0.1,0c0,0,0,0,0,0.1C499.3,290.4,499.3,290.4,499.2,290.4z M507.9,282.2
			c-0.3,0.5-0.8,1.1-1.3,1.6c-0.1,0.1-0.2,0.1-0.3-0.1c0,0,0-0.1,0-0.2c0.3-0.3,0.6-0.8,1-1.2c0.2-0.2,0.3-0.4,0.6-0.5
			C507.9,281.9,507.9,282.1,507.9,282.2z"/>
		<path class="st2" d="M528.3,282.4c0,0.3-0.1,0.6-0.3,0.9c-1,1.1-1.8,2.5-2.9,3.6c-0.4,0.3-0.6,0.8-0.9,1.1
			c-0.3,0.4-0.5,0.9-0.8,1.2c-0.6,0.9-1.1,1.8-2.2,2.3c-0.3,0.1-0.6,0.4-0.8,0.6c-0.3,0.3-0.6,0.6-0.9,0.9c-0.9,1-2.2,1.7-3.2,2.7
			c-0.1,0.1-0.1,0.2,0,0.3c0.1,0,0.1,0.1,0.2,0.1c0,0,0.1,0,0.2,0c2.9-1.4,5.6-3.1,7.7-5.5c1.1-1.2,2.4-2.4,3.5-3.6
			c0.1-0.1,0.3-0.2,0.4-0.3c0,0.2-0.1,0.5-0.2,0.6c-0.5,0.8-1.1,1.5-1.7,2.2c-1.5,1.9-3.3,3.5-5.1,5.2c-0.1,0.1-0.4,0.3-0.6,0.5
			c-1.3,0.8-2.6,1.9-4.1,2.5c-0.3,0.1-0.5,0.4-0.8,0.5c-1,0.6-2.1,1.2-3.1,1.7c-1.1,0.5-2.4,0.9-3.6,0.7c-0.3-0.1-0.6-0.2-1-0.1
			c-1,0-2.1-0.3-2.7-1.2c-0.1-0.2-0.3-0.3-0.4-0.5c-1.3-1-2-2.4-2.1-4.1c-0.2-1.8-0.1-3.7,0.4-5.6c0.4-1.6,0.8-3.2,1.4-4.8
			c0.1-0.2,0.4-0.3,0.5-0.1c0.1,0.1,0.1,0.2,0.2,0.3c0,0.1,0,0.3-0.1,0.4c-0.1,0.3-0.2,0.6-0.3,1c-0.6,1.5-0.9,3.1-0.9,4.7
			c0,0,0-0.1,0.1-0.1c0.4-0.8,0.7-1.6,1.2-2.4c0.2-0.3,0.2-0.7,0.3-1.2l-0.1,0v-0.1c0-0.1,0-0.1,0-0.2c0,0,0,0,0-0.1c0,0,0,0,0-0.1
			l0.1,0.1c0-0.6,0.3-1.2,0.6-1.7c0.4-0.9,0.8-1.6,1-2.5l-0.1,0v-0.1l0.1,0.1c0.3-0.2,0.5-0.5,0.6-0.7c0.4-0.6,0.7-1.1,1-1.6
			c0,0,0-0.2,0-0.3c-0.1,0-0.2-0.1-0.4-0.1c-0.2,0-0.5,0.1-0.8,0.2c0-0.3,0-0.5,0.2-0.7c1.1-1.9,2.8-3.1,5-3.4c0.4,0,0.8-0.1,1.2,0
			c0.5,0.2,0.9,0.3,1.4,0.5c1.5,0.7,2.3,2,2.5,3.7c0,0.4-0.1,0.9-0.2,1.4c-0.8,1.9-1.9,3.8-3.1,5.5c-0.2,0.3-0.6,0.7-0.9,1
			c-0.4,0.4-0.9,0.8-1.2,1.1c-1.2,1.3-1,0.9-2.6,1.4c-0.9,0.2-1.9,0.3-2.7-0.1c-0.3-0.1-0.7,0.2-0.8,0.5c-0.6,2-0.6,4.1-0.1,6
			c0,0.1,0.1,0.2,0.1,0.4c0.2,0.3,0.5,0.6,0.9,0.6c0.5,0.1,1.1,0,1.7-0.1c1-0.2,2.1-0.6,3.1-1.1c3.1-1.7,6-3.7,8.6-6.3
			c1.2-1.1,2.4-2.4,3.6-3.5c0.5-0.6,1-1.1,1.7-1.7c0.4-0.4,0.8-0.9,1.1-1.4C527.5,282.9,527.9,282.5,528.3,282.4z M504.1,290.9
			c0-0.1,0-0.2,0-0.3c0,0.1-0.1,0.2-0.1,0.3c-0.1,0.1-0.1,0.2,0,0.2C504.1,291.2,504.1,291.1,504.1,290.9z M506.1,281.9L506,282
			L506.1,281.9c0.1-0.2,0.2-0.3,0.4-0.4l0.1-0.1c0,0.1,0,0.1-0.1,0.1C506.4,281.6,506.3,281.7,506.1,281.9z M507.9,279.6l-0.1,0
			c0,0,0,0,0,0.1v-0.1C507.8,279.6,507.8,279.6,507.9,279.6z M508.1,286.8c0.1,0,0.3,0,0.4,0c0.8-0.5,1.7-1.1,2.3-1.9
			c0.8-0.9,1.5-1.8,2.3-2.8c0.7-1,1.2-2.1,1.1-3.2c0-0.2-0.1-0.3-0.1-0.4c0-0.4-0.4-0.5-0.7-0.3c-0.7,0.5-1.2,1.1-1.9,1.7
			c-0.8,0.8-1.4,1.7-1.9,2.7c-0.3,0.9-0.8,1.6-1.2,2.5c-0.1,0.3-0.3,0.7-0.4,1.2C507.9,286.6,508,286.9,508.1,286.8z M528.7,281.8
			c0.1,0,0.1,0,0.1,0c-0.2,0.2-0.3,0.3-0.5,0.6v-0.1C528.4,282.2,528.6,281.9,528.7,281.8z M528.3,286.4v-0.1l0.1,0
			C528.4,286.3,528.4,286.3,528.3,286.4z M528.4,286.3c0.1-0.1,0.2-0.2,0.3-0.3C528.6,286.2,528.5,286.3,528.4,286.3z M528.8,286
			l-0.1,0c0,0,0,0,0-0.1c0.1,0,0.1,0,0.1,0S528.8,285.9,528.8,286z M530.1,280.5c-0.2,0.6-0.5,1.2-1.2,1.3c0.1-0.7,0.5-1.2,1.1-1.4
			L530.1,280.5z M528.8,285.9c0.1-0.1,0.2-0.2,0.3-0.2C529.1,285.7,528.9,285.7,528.8,285.9z M529.3,285.5c-0.1,0-0.1,0.1-0.1,0.1
			c0-0.1,0-0.1,0-0.1c0-0.1,0.1-0.1,0.1-0.1V285.5z M532.9,278.7c0,0,0,0,0-0.1C532.9,278.7,532.9,278.7,532.9,278.7l-0.1,0
			L532.9,278.7z M532.9,278.6c0-0.2,0.1-0.5,0.3-0.7c0.1,0,0.2,0,0.2,0l0.1,0.1C533.4,278.2,533.2,278.5,532.9,278.6z"/>
		<path class="st2" d="M535.5,302c-0.6,1.4-1.5,2.6-2.5,3.9c-0.6,0.8-1.2,1.6-2,2.3c-1,1.2-2.6,1.7-3.9,2.3c-0.2,0.1-0.6,0-1-0.1
			c0-0.9,0.4-1.5,0.8-2.2c1-1.7,2.1-3.5,3-5.3c1.8-3.5,2.5-6.9,1.8-10.6c0,0,0-0.1,0.1-0.4c1.4-0.6,2.6-0.3,3.7,0.4
			c0.6,0.4,1,0.8,1.1,1.7C536.8,296.6,536.9,299.4,535.5,302z"/>
		<path class="st2" d="M607.7,295.9c-0.1,0.5-0.1,1.1-0.1,1.7c-1.2,0.5-2.1,0.2-3.1,0.1c-0.4,0-0.8,0.1-1.3,0
			c-0.4,0-0.8,0.1-1.1,0.1c-1.3,0-2.7-0.1-4-0.1c-2.2,0-4.3,0-6.5,0.1c-2.8,0.1-5.4,0.3-8.2,0.5c-2.2,0.2-4.4,0.5-6.7,0.8
			c-0.2,0-0.4,0-0.6,0c-0.2,0-0.2-0.1-0.4-0.1c-1.1,0.3-2.2,0.5-3.3,0.8c0.3,0.4,0.6,0.3,0.9,0.2c2.9-0.9,5.9-0.8,8.9-1.1
			c1.4-0.1,2.9-0.3,4.4-0.3c1.5-0.1,3.1-0.1,4.6-0.1c0,0,0.1,0.1,0.3,0.2c-0.9,0.2-1.7,0.4-2.5,0.3c-2.1,0-4,0.5-6.1,0.7
			c-2,0.3-4,0.4-6.1,0.6c-1.3,0.1-2.8,0.5-4.1,0.7c-3.4,0.6-6.8,1.2-10.1,1.7c-1.7,0.2-3.4,0.7-5.2,1.3c-0.8,0.3-1.8,0.6-2.6,0.7
			c-0.4,0.1-0.7,0-0.8-0.3c-0.1-0.2,0.1-0.5-0.1-0.6c-1-0.7-0.2-1.6,0-2.5c0.3-0.6,1-0.8,1.7-1.1c2.9-1.2,6-1.8,8.8-2.4
			c1-0.2,2.1-0.3,3.4-0.5c0-0.3,0-0.7,0.1-1c-0.1-2-0.3-4-0.2-6c0-2.4,0.1-6.9,0.2-9.3c0.1-3.1,0.1-8.4,0.3-11.5s0.5-6.3,0.9-9.5
			c0.3-2.7,0.6-5.3,1.1-8.1c0.2-0.9,0.4-2,0.7-3c1-2.9,1.9-5.8,3.3-8.7c0.3-0.5,0.5-1.1,0.6-1.7c0.3-1,0.9-1.7,1.7-2.5
			c2.2-2.2,4.8-3.6,7.5-4.3c1.5-0.4,3-0.3,4.4-0.1c0.8,0.1,1.7,0.5,2.4,0.7c1.8,0.8,2.6,2.4,3.2,4.2c0.5,1.3,0.6,2.8,0.7,4.3
			c0.1,1.2,0.1,2.4-0.1,3.5c-0.2,0.4-0.2,0.8-0.4,1.2c-0.9,1.1-1.2,2.5-1.5,3.8c-0.3,0.6-0.4,1.3-0.7,1.8c0,0.3-0.1,0.5-0.2,0.7
			c-0.4,0.9-2.6,1.9-3.4,1.6c-0.9-0.2-1.1-1-1.8-1.6c-0.1,0,0-0.3,0.1-0.6c0.2,0.2,0.3,0.4,0.5,0.5c1.3-0.8,1.5-2.2,1.9-3.5
			c0.2-0.7,0.4-1.5,0.6-2.3c0.3-1.1,0.5-2.1,0.6-3.2c0.1-2.1,0.2-4.2-0.7-5.9c-0.8-1.7-2.2-2.7-4-3.2c-0.9-0.1-1.9,0.2-2.6,0.8
			c-1.2,1.1-2.5,2.4-3.6,3.6c-0.7,0.8-1.3,1.8-1.7,2.8c-0.4,1.4-1,2.7-1.7,4c0,0.1-0.2,0.3-0.2,0.5c0,1.4-0.6,2.7-1.1,4.2
			c-0.2,1.2-0.5,2.5-0.8,3.8c-0.3,1.1-0.5,2.2-0.7,3.4c-0.2,0.8-0.2,1.7-0.3,2.5c0,0.3,0.2,0.7-0.3,1.1c-0.4-1.4,0.1-2.9,0.2-4.3
			c0.1-1.5,0.3-2.9,0.6-4.4c0.3-1.5,0.7-2.9,1.1-4.2c0.5-1.5,1-2.9,1.4-4.5c-0.8,0.7-1.1,1.4-1.3,2.2c0,0.7-0.4,1.4-0.7,1.9
			c-0.9,1.5-1.2,3.1-1.7,4.7c-0.3,1.3-0.6,2.5-0.7,3.9c-0.2,0.5-0.2,1.2-0.2,1.8c-0.3,1.3-0.5,2.5-0.8,3.9c-0.2-0.2-0.4-0.3-0.7-0.5
			c-0.1,0.3-0.3,0.6-0.2,0.8c0.2,0.7,0.2,1.4-0.1,2.3c0,0,0.1,0.1,0.2,0.3c0.2-0.1,0.4-0.2,0.6-0.3c0.1,0.1,0.2,0.2,0.2,0.3
			c0,0.1,0,0.2,0,0.4c-0.2,1.4-0.5,2.7-0.4,4.1c0.1,0.5,0.2,1.1-0.4,1.7c-0.1-0.2-0.1-0.4-0.1-0.5c0-1,0-2.1,0.3-3.1
			c0.2-0.4,0-0.8-0.1-1.3c-0.6,0.4-0.5,0.8-0.5,1.1c0.1,1.1,0,2.2-0.1,3.3c-0.1,1.7-0.2,3.3-0.4,5c0,0.6,0.1,1.3,0.2,1.9
			c0.6-0.9,0.1-1.9,0.6-2.9c0.3,0.3,0.4,0.6,0.2,1c0,0.8-0.1,1.6-0.1,2.3c0,0.2,0.1,0.4,0.3,0.7c0.2-0.5,0.4-0.9,0.6-1.3
			c0.1,0,0.2,0,0.2,0c0.1,1.2,0,4.4-0.1,5.7c0,0.1,0,0.3,0,0.4c0,1.4,0,4.9,0,6.3c0.1,0.6,0,1.2,0,2c0,0.4,0.1,0.7,0.2,1
			c0.2,0.8,0.1,1.5,0.1,2.4c-0.1,0.7-0.1,1.5-0.2,2.4c0.6-0.1,1.1-0.1,1.5-0.1c3.3-0.4,6.6-0.8,9.9-1.2c0.6-0.2,1.3-0.1,2-0.2
			c2.6-0.1,5.3-0.3,8-0.3c1.2-0.1,2.6,0.1,3.8,0c2.7,0,5.2,0.1,7.7,0.4c1,0.1,2.1,0.1,3,0.3C607.1,295.7,607.4,295.8,607.7,295.9z
			 M568.9,289c0.1-2.4,0.1-8.9,0.2-11.3c-0.1,0-0.2,0-0.3,0c0.1,2.4-0.4,9-0.1,11.4C568.8,289.1,568.9,289,568.9,289z M569.9,288.2
			c0-1,0.2-3.9,0.1-4.9c0.1-0.8,0.4-3.9,0-4.8C569.3,280.4,569.2,287.3,569.9,288.2z M569.8,271.3c0.2,0.6,0.2,1.2-0.1,1.9
			C569.2,272.6,569.7,271.9,569.8,271.3z M569.8,292.4c0.3-1.3,0.4-2.4,0-3.6C569.5,290,569.6,291.3,569.8,292.4z M569.8,293.3
			c0.1,0.8,0.1,1.5,0.2,2.4C570.4,294.7,570.2,293.8,569.8,293.3z M570,260.4c0,0,0,0,0.1,0c0-0.1,0-0.2,0-0.3c-0.1,0-0.1,0-0.1,0
			C570,260.1,570,260.3,570,260.4z M570.3,258.9c0,0.1,0.1,0.1,0.1,0.1c0.1-0.1,0.1-0.2,0.1-0.3c0.1-0.1,0-0.2,0-0.3
			c-0.1,0-0.1,0-0.1,0C570.3,258.6,570.3,258.8,570.3,258.9z M570.5,262.3c0,0,0.1,0,0.2,0c-0.1,0.2-0.2,0.3-0.2,0.5l-0.1,0
			C570.4,262.6,570.5,262.4,570.5,262.3z M570.6,257.3c0,0.1,0,0.1,0.1,0.2c0,0,0.1-0.1,0.2-0.2c-0.1-0.1-0.2-0.1-0.2-0.2
			C570.6,257.2,570.5,257.2,570.6,257.3z M570.9,275.3c0,0.3,0.1,0.4,0.1,0.5c-0.1,0-0.2-0.1-0.3-0.2
			C570.7,275.6,570.8,275.5,570.9,275.3z M571.1,253.5l0.1,0c0-0.1,0-0.2,0-0.3C571.1,253.3,571.1,253.4,571.1,253.5z M572.2,266.2
			c-0.2,0.7,0.1,1.6-0.4,2.4c-0.2-1-0.1-2.4,0.3-3.2c0.1,0.1,0.1,0.2,0.1,0.2C572.2,265.7,572.3,265.9,572.2,266.2z M572.1,264
			c-0.3-0.7-0.1-1.4,0-2.2c0.1,0,0.2,0,0.2,0C572.2,262.5,572.2,263.3,572.1,264z M572.1,249.7c0-0.1,0-0.1,0-0.1
			S572.1,249.6,572.1,249.7z M572.3,248.9c0.1-0.4,0.3-0.9,0.4-1.3c-0.1,0-0.2,0-0.2,0C572.4,248.1,572,248.4,572.3,248.9z
			 M572.8,246.8c0,0,0.1,0,0.1-0.1l-0.1,0C572.8,246.8,572.8,246.8,572.8,246.8z M577,241.3c0.1,0,0.1,0.1,0.1,0.1
			c0.1-0.1,0.1-0.1,0.1-0.2c0,0,0,0-0.1,0C577.1,241.1,577.1,241.3,577,241.3z M589.6,296.7c0-0.1,0-0.2,0-0.2c-0.2,0-0.3,0-0.5,0
			c0,0.1,0,0.1,0,0.2C589.3,296.7,589.5,296.7,589.6,296.7z M592.9,296.5c-0.1,0-0.3,0-0.5,0C592.6,296.5,592.8,296.5,592.9,296.5z
			 M597.5,296.5c-0.1,0-0.1,0-0.1,0S597.4,296.5,597.5,296.5z M598.9,296.5c0,0-0.1,0-0.1-0.1c-0.1,0.1-0.1,0.1-0.2,0.2
			c0.1,0,0.1,0.1,0.2,0C598.8,296.6,598.9,296.6,598.9,296.5z M603.7,296.9v-0.1l-0.1,0v0.1L603.7,296.9z M604.9,298.4
			c0.7-0.1,1.4-0.1,2.2-0.2v0.1c-0.7,0.1-1.4,0.1-2.2,0.2V298.4z"/>
		<path class="st2" d="M619,276.9c0,0,0.1,0,0.2,0c-0.2,0.3-0.3,0.6-0.5,0.9c-0.6,1-1.3,2-2.2,2.9c-0.1,0.1-0.3,0.3-0.4,0.6
			c-0.7,1-1.7,1.9-2.6,2.6c-0.4,0.3-0.8,0.6-1.1,1c-1.1,1.1-2.5,2-3.9,2.7c-1.2,0.7-2.6,1.2-3.9,1.7c-0.5,0.1-2.8,0.6-3.3,0.6
			c-0.1,0.1-0.1,0.1-0.1,0.2c-1.3,1.1-2.7,2.4-4.4,3.4c-0.2,0.1-0.4,0.2-0.7,0.4c-0.3,0.1-0.6,0.2-0.9,0.2c-0.5-0.2-1-0.2-1.4-0.3
			c-1-0.1-1.9-0.4-2.3-1.1c-0.1-0.3-0.5-0.5-0.8-0.5c-0.5-0.3-0.7-0.7-0.7-1.1c-0.3-1.7-0.1-3.5,0.5-5.2c0.2-0.7,0.5-1.5,1-2.3
			c0.2-0.2,0.3-0.4,0.3-0.7c0.1-0.7,0.3-1.6,0.2-2.3c-0.2-2.8,0.9-5.2,2.9-7.6c0.2-0.2,0.4-0.4,0.7-0.7c0.1-0.1,0.4-0.2,0.6-0.4
			c0.8-0.1,1.5-0.3,2.3-0.6c1.4-0.4,2.9-0.4,4.3-0.1c0.2,0.1,0.4,0.2,0.6,0.3c2.2,1,3.1,2.5,2.8,4.5c-0.1,0.6,0.1,1.2-0.2,1.9
			c0,0-0.1,0-0.2,0.1c-0.1,0-0.2-0.1-0.2-0.2c0-0.2,0-0.5,0.1-0.7c0-0.2-0.1-0.3-0.1-0.5c0,0-0.1-0.1-0.2-0.1
			c-0.1,0.1-0.2,0.1-0.3,0.2c-0.2,1.6-0.9,3.2-1.3,4.8c-0.1,0.6-0.4,1.3-0.7,1.8c-0.1,0.3-0.2,0.6-0.2,0.9c0.2-0.2,0.5-0.4,0.6-0.6
			c0.2-0.1,0.3-0.3,0.5-0.4c0.1,0.5-0.1,0.9-0.4,1.4c-0.4,0.6-1.1,2.1-1.7,2.5c-1.1,1.2,1.9,0,3.3-0.6l1.2-0.6c2-1,3.4-2.3,5.2-3.8
			c2.5-2.2,4.8-4.4,6.9-6.9c0,0.8-0.4,1.6-1,2.2c-1,1.1-2.1,2.2-3.1,3.4c-0.2,0.2-0.3,0.4-0.4,0.7v0.1c0,0.1,0.1,0.1,0.1,0.1
			c0.3,0,0.5-0.1,0.7-0.4c1.3-1.2,2.7-2.3,3.7-3.6C618.6,277.4,618.8,277.2,619,276.9z M592.6,280.3c0-0.2,0-0.2-0.1-0.2
			c-0.1,0,0,0.1,0,0.2L592.6,280.3z M592.9,278.7v-0.1l-0.1,0.1L592.9,278.7z M593.3,277.6c0,0,0-0.1,0-0.2
			C593.3,277.5,593.2,277.5,593.3,277.6z M593.4,277.3c0.1,0,0.2,0,0.4,0.1c-0.1-0.2-0.1-0.4-0.1-0.6
			C593.5,276.9,593.4,277.1,593.4,277.3z M597.3,289.5c-0.4-0.2-0.7-0.3-1.1-0.4c-0.1-0.1-0.3-0.3-0.4-0.5c-0.3-0.4-0.7-0.8-1.1-1.1
			c-0.1-0.1-0.1-0.2-0.2-0.3c-0.1,0.1-0.1,0.1-0.1,0.1c-0.1,0.3-0.2,0.5-0.2,0.8c-0.2,0.8-0.5,1.8-0.4,2.7c0,0.1,0,0.3,0.1,0.5
			c0.1,0.1,0.4,0.3,0.5,0.2c0.3,0,0.5-0.1,0.7-0.3C596,290.7,596.6,290.2,597.3,289.5z M593.8,276.7c0.3-0.1,0.3-0.3,0.3-0.5
			C593.9,276.2,593.8,276.5,593.8,276.7z M594.2,276c0.1,0.1,0.3,0.1,0.4,0.1c0.1,0,0.2-0.1,0.3-0.1c0,0,0-0.1-0.1-0.1
			c0,0-0.1-0.1-0.2,0C594.5,275.9,594.3,276,594.2,276z M596,280.7c0.1,0.1,0.2,0.2,0.2,0.3c0.2,0.5,0.3,1,0.4,1.5
			c0.1,0.3,0,0.6,0,0.9c-0.2,0.9-0.2,1.8-0.2,2.6c0,0.6,0.3,1.1,0.7,1.5c0.1,0.2,0.4,0.3,0.6,0.4c0.3,0,0.6-0.1,0.8,0
			c0.6-0.8,1.1-1.5,1.1-1.5c0.1-0.1,0.2-0.2,0.3-0.3c0.5-0.7,0.9-1.3,1.2-2c0.4-1,0.8-1.9,1.1-2.9c0.5-1.2,0.7-2.4,0.6-3.8
			c0-1.2-0.3-2.2-0.8-3.3c-0.2-0.5-0.7-1-1.2-1.3c-0.1-0.1-0.4-0.1-0.5,0c-0.2,0.1-0.5,0.3-0.6,0.4c-0.4,0.4-0.7,1-1.1,1.4
			c-0.7,0.7-1.1,1.4-1.7,2.2c-0.1,0.2-0.2,0.3-0.2,0.5c0.1,0.7-0.3,1.5-0.6,2.3C596.1,280,596,280.4,596,280.7z M603.4,273.3
			c0,0.1,0,0.2,0,0.3c0.1,0,0.1,0,0.2,0l0.1-0.1c-0.1-0.1-0.1-0.1-0.2-0.2L603.4,273.3z M604,276.8l0.2,0l-0.1-0.1L604,276.8z
			 M618.5,275.2c-0.1,0-0.1,0-0.1,0c0.2-0.1,0.3-0.2,0.4-0.3l0.1,0C618.7,275,618.6,275.1,618.5,275.2z M619.6,276.3
			c-0.1,0.2-0.2,0.4-0.4,0.6C619.3,276.6,619.3,276.4,619.6,276.3z M619.2,276.8c0,0.1,0,0.1,0,0.1
			C619.2,276.8,619.2,276.8,619.2,276.8z M620,275.6c-0.1,0.2-0.2,0.4-0.4,0.6C619.7,275.9,619.7,275.7,620,275.6z M619.6,276.2
			c0,0,0,0,0,0.1V276.2z M620.4,275.1c-0.1,0.2-0.2,0.3-0.4,0.4C620.1,275.3,620.1,275.2,620.4,275.1z M620,275.5c0,0.1,0,0.1,0,0.1
			V275.5z M620.8,274.4c0,0.2-0.1,0.4-0.3,0.5C620.6,274.7,620.7,274.5,620.8,274.4z M620.4,274.9c0,0,0,0,0,0.1V274.9z
			 M621.6,273.2c-0.1,0.5-0.3,0.9-0.7,1.2c0-0.3-0.1-0.5-0.1-0.7c-0.1-0.4,0.2-0.8,0.6-1c0-0.1,0.2,0,0.2,0.1
			C621.6,272.9,621.6,273.1,621.6,273.2z M620.9,274.4c0,0,0,0-0.1,0C620.9,274.4,620.9,274.4,620.9,274.4z"/>
		<path class="st2" d="M638.7,265.1c-0.1,0.2-0.2,0.3-0.4,0.4c-0.4,0.3-0.8,0.6-1.2,0.8c-1.2,0.8-2.3,1.7-2.9,3.1
			c-0.1,0.2-0.2,0.5-0.4,0.8c-0.5,0.6-0.8,1.3-0.8,2.1c0,0.5-0.2,0.9-0.4,1.4c-0.3,0.6-0.5,1.2-0.7,1.8c-0.1,0.2-0.1,0.4-0.2,0.6
			c-0.7,0.7-0.8,1.7-1.1,2.7c-0.4,1.6-0.7,3.2-1,4.7c-0.3,1.4-0.6,2.6-1.2,3.9c-0.2,0.4-0.3,1-0.5,1.4c-0.1,0.2-0.4,0.4-0.6,0.4
			c-0.9-0.1-1.8-0.3-2.5-0.4c-0.1-0.1-0.2-0.2-0.2-0.2c-1.1-0.8-1.9-1.8-1.9-3.2c-0.6-2.7-1.2-5.6-2-8.3c-0.5-1.8-1.1-3.5-1.8-5.2
			c-0.2-0.4-0.5-0.8-0.7-1.1c-0.1-0.3,0.1-0.9,0.3-1.1c0.5-0.4,1.1-0.5,1.8-0.7c0.1,0,0.1,0,0.2,0c0.7,0.2,1.3,0.4,2.1,0.6
			c0.6,0.3,1,0.7,1.2,1.4c0.2,0.5,0.4,1,0.5,1.6c0.5,1.8,1,3.7,1.2,5.6c0.1,0.4,0.1,0.7,0.1,1.1c0,0.1,0.1,0.2,0.2,0.2
			c0.1,0,0.2,0,0.2-0.1c0.4-0.7,0.6-1.4,0.8-2.1c0.5-2,1.2-3.9,2.2-5.9c0.8-1.5,1.7-2.9,2.9-4.2c0.7-0.8,1.5-1.6,2.5-2.1
			c1-0.6,2.3-0.9,3.5-1c0.2,0,0.5,0.2,0.8,0.2C638.7,264.6,638.8,265,638.7,265.1z M629.7,274.9c-0.2,0-0.5,0-0.6,0.4
			c-0.2,0.9-0.3,1.9-0.5,2.8c0,0.1,0.1,0.2,0.1,0.2c0.1,0,0.3-0.1,0.3-0.2c0.3-0.9,0.5-1.7,0.8-2.6
			C629.8,275.3,629.8,275.1,629.7,274.9z M630.9,272.6c-0.2,0.2-0.4,0.3-0.6,0.6c-0.3,0.2-0.5,0.6-0.5,1.1c0.1,0.2,0.1,0.3,0.1,0.5
			C630.4,274.2,630.7,273.4,630.9,272.6z M632.3,270c-0.1-0.1-0.3-0.1-0.5-0.1c-0.5,0.1-0.8,0.4-0.7,0.8c0.1,0.6-0.4,1.2-0.2,1.8
			c0.1,0,0.3,0,0.3-0.1C631.7,271.6,632.1,270.8,632.3,270z"/>
		<path class="st2" d="M666.6,270.3c0,0.3-0.1,0.6-0.3,0.9c-1,1.1-1.8,2.5-2.9,3.6c-0.4,0.3-0.6,0.8-0.9,1.1
			c-0.3,0.4-0.5,0.9-0.8,1.2c-0.6,0.9-1.1,1.8-2.2,2.3c-0.3,0.1-0.6,0.4-0.8,0.6c-0.3,0.3-0.6,0.6-0.9,0.9c-0.9,1-2.2,1.7-3.2,2.7
			c-0.1,0.1-0.1,0.2,0,0.3c0.1,0,0.1,0.1,0.2,0.1c0,0,0.1,0,0.2,0c2.9-1.4,5.6-3.1,7.7-5.5c1.1-1.2,2.4-2.4,3.5-3.6
			c0.1-0.1,0.3-0.2,0.4-0.3c0,0.2-0.1,0.5-0.2,0.6c-0.5,0.8-1.1,1.5-1.7,2.2c-1.5,1.9-3.3,3.5-5.1,5.2c-0.1,0.1-0.4,0.3-0.6,0.5
			c-1.3,0.8-2.6,1.9-4.1,2.5c-0.3,0.1-0.5,0.4-0.8,0.5c-1,0.6-2.1,1.2-3.1,1.7c-1.1,0.5-2.4,0.9-3.6,0.7c-0.3-0.1-0.6-0.2-1-0.1
			c-1,0-2.1-0.3-2.7-1.2c-0.1-0.2-0.3-0.3-0.4-0.5c-1.3-1-2-2.4-2.1-4.1c-0.2-1.8-0.1-3.7,0.4-5.6c0.4-1.6,0.8-3.2,1.4-4.8
			c0.1-0.2,0.4-0.3,0.5-0.1c0.1,0.1,0.1,0.2,0.2,0.3c0,0.1,0,0.3-0.1,0.4c-0.1,0.3-0.2,0.6-0.3,1c-0.6,1.5-0.9,3.1-0.9,4.7
			c0,0,0-0.1,0.1-0.1c0.4-0.8,0.7-1.6,1.2-2.4c0.2-0.3,0.2-0.7,0.3-1.2l-0.1,0v-0.1c0-0.1,0-0.1,0-0.2c0,0,0,0,0-0.1c0,0,0,0,0-0.1
			l0.1,0.1c0-0.6,0.3-1.2,0.6-1.7c0.4-0.9,0.8-1.6,1-2.5l-0.1,0V270l0.1,0.1c0.3-0.2,0.5-0.5,0.6-0.7c0.4-0.6,0.7-1.1,1-1.6
			c0,0,0-0.2,0-0.3c-0.1,0-0.2-0.1-0.4-0.1s-0.5,0.1-0.8,0.2c0-0.3,0-0.5,0.2-0.7c1.1-1.9,2.8-3.1,5-3.4c0.4,0,0.8-0.1,1.2,0
			c0.5,0.2,0.9,0.3,1.4,0.5c1.5,0.7,2.3,2,2.5,3.7c0,0.4-0.1,0.9-0.2,1.4c-0.8,1.9-1.9,3.8-3.1,5.5c-0.2,0.3-0.6,0.7-0.9,1
			c-0.4,0.4-0.9,0.8-1.2,1.1c-1.2,1.3-1,0.9-2.6,1.4c-0.9,0.2-1.9,0.3-2.7-0.1c-0.3-0.1-0.7,0.2-0.8,0.5c-0.6,2-0.6,4.1-0.1,6
			c0,0.1,0.1,0.2,0.1,0.4c0.2,0.3,0.5,0.6,0.9,0.6c0.5,0.1,1.1,0,1.7-0.1c1-0.2,2.1-0.6,3.1-1.1c3.1-1.7,6-3.7,8.6-6.3
			c1.2-1.1,2.4-2.4,3.6-3.5c0.5-0.6,1-1.1,1.7-1.7c0.4-0.4,0.8-0.9,1.1-1.4C665.8,270.8,666.2,270.4,666.6,270.3z M642.3,278.8
			c0-0.1,0-0.2,0-0.3c0,0.1-0.1,0.2-0.1,0.3c-0.1,0.1-0.1,0.2,0,0.2C642.3,279.1,642.3,279,642.3,278.8z M644.4,269.8l-0.1,0.1
			L644.4,269.8c0.1-0.2,0.2-0.3,0.4-0.4l0.1-0.1c0,0.1,0,0.1-0.1,0.1C644.7,269.5,644.6,269.6,644.4,269.8z M646.2,267.5l-0.1,0
			c0,0,0,0,0,0.1v-0.1C646.1,267.5,646.1,267.5,646.2,267.5z M646.4,274.7c0.1,0,0.3,0,0.4,0c0.8-0.5,1.7-1.1,2.3-1.9
			c0.8-0.9,1.5-1.8,2.3-2.8c0.7-1,1.2-2.1,1.1-3.2c0-0.2-0.1-0.3-0.1-0.4c0-0.4-0.4-0.5-0.7-0.4c-0.7,0.5-1.2,1.1-1.9,1.7
			c-0.8,0.8-1.4,1.7-1.9,2.7c-0.3,0.9-0.8,1.6-1.2,2.5c-0.1,0.3-0.3,0.7-0.4,1.2C646.2,274.5,646.3,274.8,646.4,274.7z M667,269.7
			c0.1,0,0.1,0,0.1,0c-0.2,0.2-0.3,0.3-0.5,0.6v-0.1C666.7,270.1,666.9,269.8,667,269.7z M666.6,274.3v-0.1l0.1,0
			C666.7,274.2,666.7,274.2,666.6,274.3z M666.7,274.2c0.1-0.1,0.2-0.2,0.3-0.3C666.9,274.1,666.8,274.2,666.7,274.2z M667.1,273.9
			l-0.1,0c0,0,0,0,0-0.1c0.1,0,0.1,0,0.1,0S667.1,273.8,667.1,273.9z M668.4,268.4c-0.2,0.6-0.5,1.2-1.2,1.3
			c0.1-0.7,0.5-1.2,1.1-1.4L668.4,268.4z M667.1,273.8c0.1-0.1,0.2-0.2,0.3-0.2C667.3,273.6,667.2,273.6,667.1,273.8z M667.5,273.4
			c-0.1,0-0.1,0.1-0.1,0.1c0-0.1,0-0.1,0-0.1c0-0.1,0.1-0.1,0.1-0.1V273.4z M671.2,266.6c0,0,0,0,0-0.1
			C671.2,266.6,671.2,266.6,671.2,266.6l-0.1,0L671.2,266.6z M671.2,266.5c0-0.2,0.1-0.5,0.3-0.7c0.1,0,0.2,0,0.2,0l0.1,0.1
			C671.7,266.1,671.5,266.4,671.2,266.5z"/>
		<path class="st2" d="M673.7,289.9c-0.6,1.4-1.5,2.6-2.5,3.9c-0.6,0.8-1.2,1.6-2,2.3c-1,1.2-2.6,1.7-3.9,2.3c-0.2,0.1-0.6,0-1-0.1
			c0-0.9,0.4-1.5,0.8-2.2c1-1.7,2.1-3.5,3-5.3c1.8-3.5,2.5-6.9,1.8-10.6c0,0,0-0.1,0.1-0.4c1.4-0.6,2.6-0.3,3.7,0.4
			c0.6,0.4,1,0.8,1.1,1.7C675.1,284.5,675.2,287.3,673.7,289.9z"/>
		<path class="st2" d="M755.3,225.9c-0.9,2.7-2.3,5.2-3.9,7.5c-0.3,0.3-0.4,0.8-0.6,1c-0.4,0.6-0.8,1.2-1.2,1.6
			c-0.7,0.8-1.4,1.3-2.3,2c-0.8,0.7-2.1,0.8-2.8,0.1c-0.7-0.5-0.7-1.2-0.2-1.8c0.9-1.1,1.9-2.1,2.5-3.2c1-2.1,2.5-3.7,3.6-5.7
			c0.7-1.4,1.2-3,1.7-4.5c0.2-1.2-0.1-2.2-0.6-2.9c-0.6-1-1.7-1.6-2.8-1.9c-0.3-0.2-0.9,0-1.5,0c-2.9,0.6-5.7,2-8.4,3.5
			c-1.7,1-3.1,2-4.5,3.1c-0.9,0.7-1.3,1.5-1.5,2.5c-0.7,4-1.3,8.1-2.2,12.1c-1,4.9-1.8,10-2.7,14.9c0,0.1,0.1,0.2,0.2,0.4
			c0.2,0,0.5,0,0.8-0.2c1.4-0.5,2.9-1.4,4.3-2c0.1,0,0.2-0.1,0.3-0.2c1.4-0.8,2.8-1.1,4,0.1c0,0.6-0.1,1.4-0.9,1.6
			c-0.8,0.4-0.9,1.2-1.1,2c-0.7,0.2-1.2,0.4-2,0.7c-1.7,0.7-3.4,1.4-5.2,2.1c-1,0.4-1.5,1.1-1.7,2.3c-0.2,1.7-0.4,3.4-0.7,5.1
			c-0.4,3-0.9,6.1-1.1,9.1c0,0.4,0,0.8-0.2,1.3c-0.4,1.4-0.2,3-0.4,4.8c2.3-0.9,4-2.4,5.9-3.7c1.8-1.4,3.5-3,4.9-4.7
			c0.5,0.1,0.5,0.3,0.4,0.6c-0.6,1.2-1.8,2.1-2.6,3.1c-0.2,0.3-0.5,0.6-0.9,0.9c0.5,0.3,0.8-0.3,1.1-0.4c0.2-0.1,0.5,0,0.8-0.2
			c-0.5,1.2-1.4,1.8-2.4,2.5c-2.1,1.4-4.1,2.7-6.2,4.1c-0.8,0.5-1.1,0.9-1.2,1.8c0,0.4-0.2,1.1-0.2,1.6c0,1.4-0.2,3,0.1,4.6
			c0.3,1.6,0.3,3.5,0.4,5.3c0,0.2,0,0.5-0.1,0.7c0,0.5-0.3,0.9-0.8,1c-1.7,0.6-3.3-0.4-3.6-2.1c-0.4-2.3-0.5-4.8-0.4-7.3
			c0-0.7,0.2-1.4-0.3-1.9c-0.1,0-0.3,0-0.5,0c-2,0.4-3.7,0.7-5.7,1.2c-0.1,0-0.4,0.1-0.7,0.2c-2.5-0.4-4.8-0.9-5.8-3.5
			c-1.9-4.4-1.7-4.2-0.7-8.1c0.9-3.6,2.9-6.9,5.1-9.9c1.4-2.1,3.3-3.7,5.3-5.1c0.5-0.4,0.9-0.8,1.3-1.1c-0.2-0.4-0.6-0.3-0.8-0.2
			c-1.5,0-3-0.2-4.4-0.5c-1.8-0.5-3.1-1.4-3.8-3.1c-0.5-0.9-1-1.9-1.5-2.8c-0.5-1.1-0.3-2.3-0.1-3.5c0.2-0.8,0.5-1.9,1.1-2.8
			c0.2,0.4,0.3,0.4,0.5,0.1c0.1-0.1,0.2-0.3,0.3-0.5l-0.1,0c0.3-0.2,0.5-0.6,0.6-1c2.5-4.1,5.7-7.7,9.2-11.1
			c3.2-3.1,6.5-5.7,9.8-8.5c0.6-0.4,1-0.9,1.1-1.6c0.3-2.3,0.8-4.6,1.2-6.9c0.2-1.4,0.2-2.7,0.3-4.2c0-0.2,0.1-0.4,0.1-0.6
			c0.1-0.3,0.5-0.7,0.9-0.7c1.1-0.1,2.2-0.1,3,0.8c0.1,0.2,0.3,0.4,0.6,0.6c0,0.4,0,1-0.2,1.6c-0.2,1.2-0.6,2.3-0.7,3.4
			c-0.3,1.1-0.6,2.2-0.2,3.3c1.4-0.8,3-1.8,4.4-2.7c0.1-0.1,0.1-0.2,0.2-0.3c-0.2-0.1-0.4-0.1-0.6,0c0-0.1,0-0.2,0.1-0.2
			c3-1.8,6.3-3,9.6-3.2c3.6,0,7.4,2.2,8,6.2C755.9,223.2,755.8,224.5,755.3,225.9z M707.9,278.1c-0.5,0.8-0.6,1.8-0.6,3.2
			c0.3-1.1,0.5-1.8,0.6-2.4C708,278.6,707.9,278.3,707.9,278.1z M708.3,247.1c-0.3,0.1-0.5,0.3-0.7,0.5c0-0.3,0-0.5,0.2-0.6
			c0-0.1,0.2-0.1,0.4-0.2C708.2,246.9,708.3,247,708.3,247.1z M709.1,275.4c-0.9,0.7-1,1.6-1.1,2.6
			C708.8,277.3,708.9,276.3,709.1,275.4z M723.7,262.2c-1.4-0.2-2.1-0.1-3,0.5c-2.1,1.6-4.2,3.1-5.8,5.2c-0.6,0.7-1.2,1.3-2.3,1.7
			c-0.1,0.1-0.3,0.5-0.5,0.8c-0.8,0.3-1,0.8-1,1.6c0.3,0.6,0.3,0.6-0.4,1.3c-0.1,0.3-0.1,0.5-0.4,0.8c-0.1,0.5-0.2,0.9-0.5,1.4
			c-0.8,1.8-1.1,3.7-1.4,5.6c-0.1,0.4,0,1,0,1.5c0,0.8,0.4,1.4,0.8,2.1c0.5,0.7,1.1,1,2.2,0.8c2.5-0.3,4.9-0.9,7.2-1.9
			c0.6-0.3,1.1-0.6,1.5-1.3c0.2-0.3,0.4-0.7,0.6-0.9c0.1,0.1,0.2,0.3,0.3,0.5c0.7-1,0.5-2.2,0.7-3.3c0.4-1.2,0.2-2.4,0.3-3.5
			c-0.2-0.3-0.4-0.4-0.5-0.7c-0.1-0.2,0-0.6,0.1-0.6c0.8-0.3,1-1,0.8-1.7c0-0.4,0.1-0.6,0.2-0.8c0.2-0.6-0.3-0.6-0.6-0.7
			c1-1,0.9-1,0.9-2.5c0-0.7,0.1-1.5,0.1-2.1c-0.2-0.1-0.4-0.2-0.5-0.3c-0.1-0.4,0.2-0.5,0.4-0.6c0.4-0.2,0.6-0.5,0.3-0.7
			c-0.6-0.8-0.3-1.2,0.3-1.9C723.7,262.5,723.7,262.3,723.7,262.2z M709.2,244.7l-0.1,0.1L709.2,244.7c0.1-0.3,0.2-0.4,0.3-0.7
			l0.1,0c0,0,0,0-0.1,0C709.4,244.2,709.3,244.5,709.2,244.7z M709.5,274.5c-0.1,0.3-0.2,0.4-0.3,0.6
			C709.4,274.9,709.5,274.8,709.5,274.5z M709.5,274.3c0.3-0.1,0.6-0.3,0.8-0.4c0.1-0.2,0.2-0.4,0.4-0.7c0-0.3,0-0.5,0-0.8
			C710,272.9,709.7,273.5,709.5,274.3z M728.3,229.7c-0.8,0.1-1.5,0.5-2.1,1c-0.7,0.6-1.2,0.9-1.9,1.4c-0.3,0.6-0.9,0.9-1.4,1.3
			c-0.6,1-1.5,1.5-2.4,2.2c-1.1,1.4-2.4,2.9-4,4c0,0.2-0.1,0.2-0.3,0c-0.6,0.5-1.1,0.7-1.5,1.6c-0.3,0.5-0.9,1.1-1.5,1.7
			c0,0.1,0,0.3,0,0.4c0,0,0,0-0.1,0c0.2,0.3,0.3,0.6,0.1,0.8c-0.4,0.8-0.8,1.3-1.2,2.1c-1,1.9-1.3,3.9-1.8,5.8
			c-0.3,1.3-0.1,2.2,0.2,3.1c0.7,1.6,1.9,2.6,3.7,2.8c2.6,0.1,5.2-0.3,7.7-1c1.3-0.4,2.3-1,2.6-2.4c0.4-2.3,0.3-4.7,1.8-6.6
			c-0.5-1.1-0.5-1.1-0.2-2.2c0.1-0.6,0.4-1.3,0.5-1.8c0.3-1.5,0.3-2.9,0.6-4.4c0.3-1.9,0.8-3.9,1-5.8
			C728.4,232.4,728.6,231,728.3,229.7z M710.3,242.7l-0.1,0.1v-0.1c0.1,0,0.1,0,0.2,0C710.3,242.7,710.3,242.7,710.3,242.7z
			 M712.2,270.4v-0.1c0,0,0,0,0.1,0c0.1,0,0.3,0,0.4,0v-0.1v0.2C712.6,270.4,712.4,270.4,712.2,270.4z M712.7,265.8
			c0.5,0,0.8-0.3,1.1-0.6C713.3,265.3,713,265.6,712.7,265.8z M714.3,264.5c0.3-0.1,0.6-0.4,0.9-0.6
			C714.8,264,714.5,264.2,714.3,264.5z M715.9,263.3c0.5-0.1,0.8-0.4,0.9-0.8C716.5,262.8,716.3,262.9,715.9,263.3z M716.5,239.1
			c0,0.1-0.1,0.2-0.2,0.3c0.1,0,0.2,0,0.2,0C716.5,239.3,716.5,239.2,716.5,239.1z M720.9,287.5c-0.6,0.8-0.6,0.8-0.1,2.2
			C720.8,289.1,720.9,288.3,720.9,287.5z M720.7,291.2V291l-0.1,0.2L720.7,291.2z M721,276.5l0.1,0v0.2L721,276.5z M722.5,288.8
			c-0.6,1.9,0.2,3.5,0.3,5.1c0-0.8,0.1-1.7,0-2.5C722.8,290.7,722.9,289.8,722.5,288.8z M722.9,233.3c0.1-0.4,0.4-0.8,0.6-1.2
			c-0.4,0-0.7,0.3-1,0.7C722.2,233.2,722.5,233.3,722.9,233.3z M722.7,286.2v-0.1l-0.1,0.1L722.7,286.2z M723,295.2
			c0-0.1,0-0.1-0.1-0.1c0,0.1,0,0.1,0,0.2l0.1,0V295.2z M723.5,277.2c-0.1,0.1-0.2,0.1-0.2,0.2s0,0.1,0.1,0.2c0,0,0.1,0,0.1-0.1
			C723.5,277.5,723.5,277.4,723.5,277.2z M723.7,232c0.2,0,0.4,0,0.6-0.1C724.1,231.6,724,231.6,723.7,232z M724.1,271.7
			c-0.4,1.1-0.5,2-0.3,3C723.7,273.7,724.8,272.8,724.1,271.7z M724.6,268.2c-0.3,0.9-0.4,1.5-0.5,1.9c0,0.3,0,0.6,0.4,0.5
			C724.8,269.9,725,269.2,724.6,268.2z M725.2,266.5c0-0.1-0.2-0.1-0.3-0.2c0,0.2,0,0.5,0,0.7c0,0.1,0.1,0.1,0.1,0.2
			C725.1,266.9,725.1,266.7,725.2,266.5z M725.5,264.5c0-0.1,0-0.3-0.1-0.4c0,0.1-0.1,0.2-0.1,0.3c0,0.1,0.1,0.2,0.1,0.3
			C725.5,264.6,725.5,264.6,725.5,264.5z M725.8,260.6c-0.1,0.2-0.1,0.4-0.2,0.6c-0.1,0.2-0.1,0.4-0.1,0.6c0,0.1-0.1,0.2-0.1,0.2
			c0,0.2,0,0.4,0,0.6c0,0.2,0.1,0.3,0.3,0.6C726.1,262.2,725.9,261.5,725.8,260.6z M727.4,251.1c0-0.1,0-0.2,0-0.2
			c-0.1,0.1-0.1,0.1-0.1,0.2L727.4,251.1z M728.6,245.3c0-0.4,0.1-0.7,0.1-1C728.4,244.6,728.3,245,728.6,245.3z M731.8,227.3
			l-0.1,0c0,0.3,0,0.6,0,0.9l0.1,0C731.8,227.9,731.8,227.6,731.8,227.3z M733.7,276.6c0.2,0,0.3-0.2,0.5-0.4v0.1
			c-0.1,0.1-0.3,0.2-0.4,0.2L733.7,276.6z M735.4,274.9l-0.1,0.1L735.4,274.9z M736.3,273.2c0,0.7-0.5,1.2-0.9,1.7
			C735.6,274.2,735.6,273.7,736.3,273.2z"/>
		<path class="st2" d="M815.2,226.9c-0.1,0.7-0.3,1.5-0.5,2.2c-0.1,0.5-0.3,1.1-0.6,1.6c-1.3,2.2-2.7,4.3-4.5,6.2
			c-1.1,1.1-2.4,2.3-3.4,3.5c-0.6,0.7-1.3,1.3-2.1,1.7c-1.4,1.1-2.9,1.9-4.2,3.2c-0.2,0.2-0.6,0.4-0.9,0.5c-0.7,0.4-1.3,0.7-1.9,1.2
			c-0.5,0.6-1.1,1-1.8,1.4c-0.3,0.2-0.5,0.4-0.8,0.5c-0.8,0.2-1.4,0.6-2.3,0.8c-0.7,0.1-1.3,0.6-2.1,0.6c-0.4,0-0.8,0.4-1.2,0.6
			c-0.3,0.2-0.6,0.4-0.8,0.6c-0.1,0-0.1,0-0.1,0.1v-0.1c0.1,0,0.1,0,0.1,0c-0.2,0.1-0.4,0.1-0.5,0.3c0.1,0.1,0.2,0.1,0.4,0.2
			c-0.5,0.6-1.1,0.7-1.8,0.8c-0.4,0.1-0.7,0.4-0.7,0.8c-0.1,0.4-0.2,0.9-0.2,1.4c-0.1,1.9-0.2,3.6-0.4,5.4c0,0.4,0,0.8-0.1,1.2
			c-0.5,1.9-0.6,3.8-0.7,5.6c0,1.5-0.2,3-0.3,4.6c0,0.1,0,0.2,0,0.2c-0.6,2.1-0.6,4.2-0.8,6.3c0,0.3-0.1,0.6-0.3,1s-0.3,0.6-0.3,1
			c0.1,0.9,0.1,1.8,0.1,2.8c0,0.6,0,1.1-0.2,1.7c-0.2,0.5-0.8,0.8-1.4,0.6c-0.1,0-0.2-0.3-0.2-0.5c-0.1-0.1,0-0.4,0-0.5
			c0.3-0.6,0.4-1.2,0.4-1.8c-0.1-1-0.1-2.2-0.2-3.2c0-0.3,0-0.7-0.1-0.9c-0.5-1-0.6-2-0.6-3c0-0.8,0-1.8-0.1-2.6
			c-0.1-0.8-0.1-1.5-0.1-2.4c0.1-0.8,0.1-1.8,0-2.6c-0.1-0.5-0.1-1-0.1-1.5c0.1-3,0.1-5.9,0.2-8.8c0-0.3-0.1-0.5-0.1-0.8
			c-0.1-0.3-0.5-0.4-0.8-0.3c-0.5,0-1,0.2-1.5,0.4c-0.6,0.4-1.3,0.6-2.1,0.8c-0.5,0.1-0.9,0.1-1.3-0.1c-0.2-0.1-0.6-0.2-0.8,0
			c-0.6,0.2-1.2,0.4-1.9,0.7c-0.8,0.3-1.4,0.2-2-0.3c-0.1-0.1-0.3-0.2-0.4-0.4c-0.1-0.1,0-0.2,0-0.3c0.1-0.1,0.3-0.2,0.4-0.2
			c0.4,0,0.8-0.1,1.2-0.1c0.1,0.1,0.3,0.1,0.3,0.2c0.3,0.3,0.6,0.3,0.9,0.1c0.9-0.5,1.8-0.9,2.7-1.3c1.4-0.7,3-1.4,4.4-2.1
			c0.4-0.1,0.6-0.4,0.7-0.8c0.3-1.2,0.3-2.4,0.4-3.5c0-0.9,0-1.9,0.1-2.8c0.1-0.4,0.1-0.7,0.1-1c0-4.4,0.3-8.9,0.6-13.4
			c0.1-1.6,0.2-3.1,0.3-4.7c0-0.2,0-0.4,0-0.6c-0.1-2,0.1-3.9,0.1-6c0-0.9,0.2-1.9,0.3-2.8c0-0.3,0.4-0.8,0.8-0.9
			c1-0.3,2.2-0.5,3.2-0.5c0.9-0.1,1.4,0.5,1.9,1.2c0,0.1,0,0.1,0,0.2c0.6,1.8,0.6,1.8,0.4,3.9c-0.2,1.1-0.4,2.1-0.3,3.1
			c0,0.4-0.1,0.7-0.1,1c-0.5,2.9-0.7,5.7-0.9,8.7c-0.3,4.1-0.6,8.1-0.8,12.1c0,0.4,0,0.8,0,1.2s0.5,0.7,0.8,0.4
			c1.4-0.8,3-1.5,4.3-2.4c1.5-1,3.1-1.8,4.6-2.8c2-1.1,3.7-2.3,5.4-3.8c1.1-1,2.3-2,3.6-2.7c0.4-0.1,0.7-0.5,1-0.8
			c0.7-0.6,1.3-1.2,2-1.8c1-0.9,1.8-2,2.4-3.2c0.2-0.4,0.4-0.9,0.7-1.3c0.9-1.1,1-2.4,1.3-3.5c0.3-1.2,0.2-2.4-0.1-3.5
			c-0.4-1.5-1.2-2.7-2.5-3.5c-1.8-1.3-3.7-2.2-5.9-2.8c-1.1-0.4-2.4-0.6-3.5-0.9c-2.2-0.6-4.5-0.5-6.8-0.7c-0.3-0.1-0.7,0-1,0
			c-0.5,0-1,0.2-1.5,0.1c-0.4-0.1-0.8,0-1.2,0.1c-0.8,0.2-1.5,0.2-2.4,0.3c-0.9,0.1-1.9,0.3-2.8,0.6c-0.9,0.4-2,0.7-2.9,1
			c-2.2,0.6-4.2,1.5-6.2,2.6c-1,0.6-2,1.4-2.8,2.3c-0.3,0.3-0.7,0.7-1.1,1c-0.5,0.6-1.4,0.5-1.8,0c-0.4-0.7-0.6-1.3-0.2-2
			c0.2-0.6,0.6-1.2,1.1-1.6c0.8-0.8,1.9-1.5,2.9-2c2.5-1.3,5.1-2.3,7.7-3c4.1-1.1,8.2-1.5,12.2-1.5c0.7,0,1.4,0.1,2.1,0.1
			c3,0.4,5.9,0.8,8.7,1.7c2.7,0.9,5.2,2.1,7.1,3.9c0.2,0.2,0.4,0.4,0.6,0.5c1.7,0.8,2.4,2.4,3,3.9
			C815.3,223.8,815.5,225.3,815.2,226.9z M783.5,264c-0.3,0.3-0.3,0.6-0.4,0.9c-0.1,0.3-0.2,0.4-0.4,0.4s-0.3-0.2-0.4-0.4
			c0-0.1-0.1-0.2-0.2-0.3c-0.3,0.7-0.3,1.6-0.6,2.7c0-3.3-0.1-6.4,0.1-9.4c0-0.6,0-1.1,0-1.7c0.1-0.3-0.1-0.5-0.1-0.4
			c-0.1,0.1-0.2,0.2-0.2,0.3c0,1.1-0.2,2.2-0.3,3.2c-0.1,1.5-0.2,2.8-0.3,4.2c-0.1,1.4-0.1,2.6-0.3,3.8c-0.1,0.9,0,1.9,0,2.8
			c0.1,1.1,0.2,2.4,0.1,3.5c0,0.4,0,0.7,0.2,0.9c0.1,0.1,0.2,0.2,0.3,0.2c0.1,0,0.1-0.1,0.2-0.2c0-0.5,0.1-1,0.2-1.6
			c0.5-0.1,0.1,0.7,0.6,0.5c0.4-2.2,0.1-4.3,0.8-6.6c0.1-0.2,0.5-0.1,0.5-0.6C783.5,265.6,783.5,264.8,783.5,264z M781.3,270.4
			c0,0.3,0.1,0.6-0.2,0.8c0-0.8,0-1.5,0.3-2.6c0,0.4,0,0.6,0,0.8C781.4,269.7,781.4,270.1,781.3,270.4z M791.4,247.3
			c0.1-0.1,0.2-0.3,0.3-0.4c-0.2,0-0.5,0.1-0.7,0.3c-1.4,0.7-2.9,1.5-4.3,2.3c-0.2,0-0.3,0.1-0.4,0.2c0,0.1-0.1,0.2,0,0.2
			c0.1,0.1,0.2,0.1,0.3,0.1c0,0.1,0.1,0.1,0.2,0C788.3,249.2,789.9,248.3,791.4,247.3z M788,251.9c0-0.1,0.1-0.2,0.1-0.4
			c0.1,0,0.3,0,0.3,0.2C788.4,251.8,788.2,251.9,788,251.9z M792.6,246.4c-0.3,0-0.6,0.1-0.8,0.4
			C792.1,246.8,792.4,246.7,792.6,246.4z M792.7,246.3c0.3-0.1,0.5-0.3,0.7-0.4C793.1,246,792.9,246,792.7,246.3z M800.9,242.1
			c0.1-0.1,0.1-0.3,0.2-0.5c-0.2,0-0.4,0-0.6,0.2c-0.7,0.5-1.4,1.1-2.2,1.5l-0.1,0.1c0,0.1,0,0.2,0,0.2c0,0.1,0.1,0.1,0.1,0.1
			C799.3,243.4,800.1,242.9,800.9,242.1z M800,243.7c-0.5,0.1-0.9,0.4-1.2,0.8C799.4,244.5,799.7,244.2,800,243.7z M802.3,240.8
			c-0.4,0.1-0.8,0.4-1.1,0.8C801.7,241.5,802.1,241.3,802.3,240.8z M809.6,234.5c-0.2,0-0.3,0-0.5,0.1c-0.7,0.3-1.3,0.6-1.8,1.3
			c-0.5,0.7-1.1,1.2-2,1.8c-0.7,0.5-1.4,1.2-2,1.9c0.4,0,0.8-0.1,1.1-0.4c0.5-0.4,1-0.8,1.5-1.3c0.8-0.7,1.5-1.5,2.6-2.1
			C809.2,235.7,809.6,235.2,809.6,234.5z M811.8,232.1c0-0.1,0-0.1,0-0.2c-0.1,0-0.1,0-0.2,0c-0.5,0.4-0.9,0.7-1.2,1.2
			c-0.1,0.4-0.4,0.9-0.6,1.3c0.2-0.1,0.4-0.1,0.5-0.3C811,233.5,811.5,232.8,811.8,232.1z"/>
		<path class="st2" d="M843.6,251.5c-0.1,0.4-0.2,0.7-0.5,1c-0.6,0.6-1.3,1.3-2,1.9c-1.9,1.5-3.6,3.2-5.4,4.8c-1,1-2,2.1-2.9,3.1
			c-0.7,0.9-1.4,1.7-2.4,2.4c-0.3,0.3-0.6,0.7-0.9,1.2c0,0,0,0.1,0,0.2c0.1,0,0.3,0.1,0.3,0.1c0.6-0.4,1.1-0.7,1.7-1.1
			c0.3-0.2,0.5-0.4,0.8-0.4c-0.1,0.2-0.3,0.4-0.4,0.7c-0.1,0.2,0,0.4-0.1,0.6c0.1,0.1,0.1,0.2,0,0.3c-0.5,1-1.3,1.7-2.2,2.5
			c-1.7,1.5-3.4,2.6-5.3,3.7c-0.7,0.5-1.5,0.5-2.3,0.2c-0.5-0.3-0.9-0.7-1.4-1.1c-0.2-0.2-0.4-0.4-0.6-0.6c-0.9-1-1.8-2.7-2-4.2
			c-0.1-0.8-0.2-1.5-0.2-2.3c-0.1-0.3-0.4-0.5-0.6-0.4c-1.4,1.2-3,2.1-4.3,3.5c-1.2,1.2-2.5,2.4-3.8,3.4c-0.9,0.6-1.8,1.4-2.7,2
			c-0.4,0.3-0.9,0.6-1.3,0.8c-0.6,0.3-1.1,0.3-1.8-0.1l-1.4-0.8c-0.4-0.3-0.7-0.7-0.9-1.2c-0.1-0.5-0.3-0.9-0.5-1.3
			c-0.1-1.4,0.3-2.8,0.9-4.1c0.8-1.9,2-3.7,3.2-5.3c0.6-1,1.4-1.9,2.3-2.7c1.3-1.3,2.6-2.7,3.9-4.1c1-1,2.2-1.9,3.4-2.6
			c0.5-0.4,1-0.6,1.5-0.7c0.5-0.1,0.9-0.3,1.3-0.7c0.2-0.2,0.6-0.4,0.8-0.4c1.1,0,2.2,0,3.2,0.2c1,0.3,1.8,1.1,2.4,2.1
			c0.3,0.5,0.4,1,0.1,1.5c-0.2,0.2-0.3,0.5-0.4,0.8c-0.1,0.4-0.3,0.7-0.6,1.1l-1.1,0.8c-0.2,0.2-0.5,0.4-0.8,0.3
			c-0.4-0.2-0.8-0.1-1.2-0.3c-0.1,0-0.1-0.2-0.2-0.3l0.1-0.1l1-1.3c0.3-0.4,0.4-1.1,0.2-1.6c-0.2-0.6-0.7-0.8-1.2-0.5
			c-0.2,0.1-0.4,0.2-0.6,0.5c-0.5,0.6-1.2,1-1.9,1.3c-1.3,0.7-2.5,1.8-3.6,2.7c-1.2,1-2.3,2.4-3.4,3.5c-0.3,0.3-0.6,0.8-0.8,1.2
			c-0.6,0.7-1.1,1.4-1.7,2.1c-1.1,1.4-2,3-2.8,4.7v0.4c0,0.1,0.3,0.2,0.5,0.2l0.3-0.2c0.6-0.4,1.2-0.6,1.9-1.1l4.2-3.2l5.1-3.7
			c0.5-0.4,1-0.7,1.5-0.8c0.4-0.1,0.8-0.1,1.1,0.3c0.5,0.6,1,0.9,1.8,1.2c0.2,0,0.4,0.3,0.5,0.5c0.2,0.3,0.3,0.6,0.4,0.9
			c0.1,0.3,0.1,0.7,0,1c-0.3,1.3,0.1,3.2,0.2,4.4c0,0.2,0.1,0.4,0.2,0.6c0,0.1,0.3,0.3,0.4,0.3c0.3,0,0.4-0.1,0.6-0.3
			c2.7-1.8,5.2-3.8,7.5-6.1c1.7-1.7,3.6-3.4,5.4-5.1c2.3-2.1,4.5-3.9,6.7-6.1C843.1,251.7,843.4,251.6,843.6,251.5z M802,267.4
			l-0.2,0.2c0.1,0,0.1,0,0.1,0S802,267.5,802,267.4z M810.5,256.7c0.4-0.6,0.9-1,1.4-1.5c0.1-0.1,0.1-0.3,0.2-0.5
			c-0.1,0.1-0.2,0.1-0.3,0.1c-1.1,0.7-2.2,1.5-3.2,2.7l-1.1,1.3l-3.6,4.4c-0.8,1-1.3,2.4-1.9,3.7v0.4c0.3-0.1,0.4-0.3,0.5-0.6
			l1.4-2.3C805.9,261.6,808.1,259,810.5,256.7z M817.3,262.8c-0.1-0.1-0.2-0.1-0.3-0.1v-0.1c-0.1,0.1-0.3,0.3-0.4,0.2
			c-0.7-0.1-1.3,0.2-1.9,0.8l-0.8,0.8c-0.3,0.2-0.4,0.4-0.4,0.9c0,0.2-0.2,0.4-0.5,0.6c-0.4,0.2-0.8,0.4-1,1l1-0.3
			c1.4-0.8,2.9-1.8,4.2-3.1c0.1,0,0.2-0.2,0.3-0.2C817.6,263.1,817.5,262.9,817.3,262.8z M812.3,254.6c0.2-0.1,0.3-0.1,0.5-0.4
			C812.6,254.4,812.4,254.4,812.3,254.6z M832.4,264.8c0-0.1,0-0.1,0-0.1c0.1,0,0.2-0.1,0.3-0.2c-0.1,0.1-0.2,0.2-0.2,0.3
			C832.4,264.8,832.4,264.8,832.4,264.8z M832.7,264.3c0.1,0,0.1-0.1,0.2-0.1c0-0.1,0.1,0,0.1-0.1c0,0.1,0,0.1-0.1,0.1
			C832.9,264.2,832.8,264.3,832.7,264.3z M833.2,263.9c0.1-0.1,0.2-0.2,0.2-0.2s-0.1,0.1-0.1,0.2c-0.1,0-0.1,0.1-0.2,0.1
			C833.2,263.9,833.2,263.9,833.2,263.9z M834.5,262.5c-0.1,0.1-0.3,0.3-0.4,0.4c-0.1,0.1-0.2,0.3-0.4,0.4c0,0-0.1,0.1-0.2,0.1
			c0.1,0,0.1-0.1,0.2-0.2c0.1-0.1,0.2-0.2,0.3-0.4C834.2,262.8,834.4,262.6,834.5,262.5z M834.9,262.1c0.1-0.1,0.3-0.2,0.4-0.4
			c-0.2,0.2-0.3,0.3-0.4,0.6c-0.1,0.1-0.3,0.2-0.4,0.3C834.6,262.4,834.7,262.2,834.9,262.1z M835.7,261.3c0.1-0.1,0.1-0.1,0.1-0.1
			s0,0,0,0.1c-0.1,0.2-0.2,0.3-0.4,0.3C835.5,261.5,835.6,261.4,835.7,261.3z M843.8,251.4c0,0-0.1,0-0.2,0.1c0-0.2,0.1-0.4,0.3-0.3
			C843.9,251.2,843.9,251.4,843.8,251.4z"/>
		<path class="st2" d="M840.8,260.2c0-2.4-0.1-4.7-0.1-7.1c0,0,0-0.1,0-0.2c0.1-2.2,0.9-2.8,3-3.1c0.3,0,0.6,0,1,0
			c0.7,0,1.2,0.5,1.4,1.3c0.1,0.6,0,1.2,0.4,1.7c0.1,0.1,0.3,0.1,0.4,0.1c0.1-0.1,0.2-0.3,0.4-0.6c0.9-1.4,1.8-2.8,2.8-4.3
			c0.7-1,1.5-2,2.3-3c1.3-1.6,2.7-3,4.3-4.2c1.1-0.9,2.4-1.6,3.7-1.9c0.4-0.1,0.8-0.2,1.2-0.2c1.2,0,2.6,0.1,3.8,0.2
			c1.2,0.1,2,0.9,2.5,2c0.2,0.5,0.2,1.1-0.1,1.7c-0.2,0.3-0.8,0.6-1.1,0.3c-0.1-0.2-0.2-0.3-0.4-0.5c-0.3-0.5-0.5-0.9-0.9-1.4
			c-0.6-0.8-1.9-1-2.7-0.5c-0.4,0.3-0.8,0.6-1.2,0.9c-1.4,1.3-2.9,2.6-4,4.1c-0.7,0.9-1.4,1.7-2.1,2.5c-1.3,1.6-2.5,3.3-3.7,5
			c-0.3,0.5-0.5,1.1-0.8,1.6c-1.4,2.5-2.7,5.1-3.9,7.7c-0.6,1.1-1.2,5.2-1.5,6.4c-0.1,0.4-0.3,1-0.5,1.4c-0.2,0.7-1.2,1.1-1.9,0.8
			c-0.4-0.2-0.8-0.4-1.2-0.7c-0.1-0.1-0.4-0.1-0.6,0s-0.4-0.1-0.5-0.3c-0.2-0.4-0.4-0.8-0.6-1.2
			C840.6,266.8,840.8,262.1,840.8,260.2z M849.2,251.8c0.5-0.3,0.7-0.8,0.9-1.3l0.1,0l-0.1,0.1c-0.5,0.3-0.7,0.7-0.8,1.2
			c-0.3,0.3-0.4,0.7-0.4,1c-0.2,0.1-0.4,0.2-0.5,0.5c-0.3,0.5-0.6,1-0.9,1.5c-0.3,0.5-0.3,1.2,0.1,1.5c0.3,0.4,0.5,0.5,0.7,0.1
			c0.1-0.2,0.2-0.4,0.4-0.6c0.5-0.8,0.9-1.5,1.5-2.2c0.6-0.7,1-1.4,1.5-2.1c0.8-0.9,1.3-2,2.1-2.9c0.9-1.2,1.9-2.3,2.7-3.5
			c0.3-0.4,0.6-0.9,0.8-1.3c0.5-0.1,0.9-0.5,1.2-0.9c0.1-0.1,0.1-0.2,0-0.3c0-0.1-0.1-0.1-0.2-0.1c-0.6,0.3-0.9,0.7-0.9,1.3
			c-0.3-0.1-0.6-0.2-1,0.1c-0.7,0.7-1.4,1.4-2.1,2.1c-1.9,2.4-3.5,4.9-5,7.6c-0.1,0.3-0.3,0.5-0.5,0.8c0,0-0.1,0.1-0.2,0
			c-0.1,0-0.2-0.1-0.2-0.2c-0.1-0.3-0.1-0.7-0.1-1c0.2-0.1,0.4-0.2,0.5-0.5C849.1,252.5,849.2,252.1,849.2,251.8z M847.6,256.2
			c0.1,0,0.1,0.1-0.1,0.1L847.6,256.2z"/>
		<path class="st2" d="M909.8,225.9c0,0,0,0.1,0,0.2c-0.1,0.1-0.2,0.2-0.3,0.2c-0.2,0.1-0.4,0.2-0.6,0.3c-0.5,0-1,0.2-1.5,0
			c-0.7-0.1-1.5,0-2.3,0c-0.3,0-0.6,0.1-0.9,0.2c-0.4,0.1-0.8,0.3-1.2,0.2c-0.6-0.2-1.3-0.1-2,0.1c-0.3,0.1-0.7,0.3-1,0.2
			c-0.8,0.1-1.8-0.1-2.6,0.1c-0.8,0.2-1.5,0.4-2.4,0.4c-1.4,0.1-2.9,0.3-4.2,0.9c-0.1,0-0.2,0.1-0.1,0.3l0.1,0.1
			c0.2,0,0.4,0.1,0.6,0c0.7-0.2,1.3-0.2,2.1-0.4c0.9-0.1,1.9-0.2,2.8-0.3c1.1-0.1,2.3-0.4,3.4-0.6c1-0.1,2.2-0.3,3.2-0.1
			c0.1,0,0.2,0.1,0.3,0.2c0,0,0,0.2-0.1,0.2c-0.1,0-0.2,0.1-0.3,0.1c-1.2,0.3-2.4,0.6-3.6,0.8c-0.8,0.1-1.8,0.2-2.6,0.5
			c-0.3,0.1-0.7,0.2-1,0.2c-0.8,0.1-1.5,0.2-2.4,0.3c-0.3,0-0.5,0.1-0.8,0.3c-0.4,0.2-0.8,0.4-1.3,0.4c-0.3,0.1-0.6,0.2-0.9,0.2
			c-2.2,0.6-4.3,0.8-6.5,1.2c-0.5,0-1,0.2-1.5,0.3c-0.8,0.2-1.1,0.6-1.3,1.4c0,0.2-0.1,0.4-0.1,0.6c-0.4,2.1-0.8,4.2-1.1,6.3
			c-0.2,0.5-0.3,1.2-0.5,1.8c-0.1,0.6-0.4,1.3-0.5,1.9c-0.2,1.2-0.7,2.1-1.3,3c-0.5,0.7-0.7,1.4-0.8,2.1c-0.1,1.5,0,2.9-0.1,4.2
			c0,2.4,0,4.8,0.1,7.1c0,0.9,0.2,1.8,0.3,2.8c0.2,0.9,0.3,1.9,0.2,3c-0.1,0.4,0,0.8,0.1,1.1c0.1,0.9,0.3,1.8,0.5,2.7
			c0,0.2-0.2,0.4-0.4,0.3c-0.4-0.1-0.7-0.2-1-0.4c-0.1,0-0.1,0-0.2,0c0,0.1-0.1,0.1-0.1,0.2c0.2,1.8,0.8,3.2,1.8,4.6c0,0,0,0,0.1,0
			c0.1,0.1,0.2,0.1,0.3,0l0.1,0l-0.1,0.1c0.6,0.3,0.9,0.7,1.1,1.4c0.5,1.6,1.4,2.9,2.8,3.9c0.7,0.7,1.7,0.9,2.7,0.8
			c0.3,0,0.5,0.1,0.4,0.3c0,0.1-0.2,0.3-0.3,0.4c-0.1,0-0.2,0-0.2,0c-0.2,0-0.3,0.1-0.4,0.1c-0.3,0-0.5-0.1-0.8,0
			c-2.8,0.5-4.6-0.8-6.1-2.8c-0.7-1-1.3-2.2-2.1-3.2c-0.3-0.7-0.6-1.4-1-2.2c-0.5-1.1-1-2.3-1.1-3.7c-0.1-0.7-0.3-1.4-0.5-2.1
			c-0.2-0.9-0.4-1.9-0.6-2.8c-0.1-0.8-0.3-1.7-0.3-2.6c0-0.8-0.2-1.6-0.2-2.5c-0.1-2-0.2-4-0.1-6c0-0.7,0-1.5,0-2.3
			c0-1.8,0.1-3.4,0.4-5.2c0.2-1.3,0.2-2.5,0.3-3.6c0.4-2.6,0.7-5.3,1.1-7.9c0-0.2,0-0.5,0.1-0.7c0-0.6-0.3-0.9-0.8-0.9
			c-2.6,0.2-5.1,0.3-7.5,0.8c0,0-0.1,0-0.2,0c-1.3,0-2.6,0-3.9,0.1c-0.2-0.1-0.4-0.2-0.6-0.3c-0.7-0.6-1-1.5-0.9-2.4
			c0.1-0.3,0.4-0.8,0.7-0.8c0.5,0,1-0.2,1.5-0.2c1.9-0.1,3.6-0.1,5.5-0.3c2.1-0.2,4-0.5,6.1-0.7c0.6-0.1,0.9-0.4,1-1.1
			c0,0,0-0.1,0-0.2c0.7-4,1.5-8.1,2.5-12c0.4-1.7,0.9-3.4,1.5-5c0.2-0.5,0.5-1,0.9-1.4c0.3-0.3,0.7-0.7,1.2-0.7
			c0.2,0,0.4-0.1,0.5-0.1c0.7-0.3,1.3-0.2,2.1-0.1c0.8,0.2,1.2,0.8,1.3,1.6c0,0.4,0.1,0.8,0,1.2c-0.2,1.5-0.4,2.9-0.7,4.5
			c-0.2,1.4-0.5,2.7-0.8,4.2c-0.4,2.2-0.5,4.6-0.8,6.9c0,0.1,0,0.2,0.1,0.3c0,0.3,0.3,0.6,0.5,0.6c0.2,0,0.5,0,0.7-0.1
			c1.8-0.2,3.5-0.4,5.3-0.7c1.3-0.1,2.7-0.2,4-0.5c0.4,0,0.7-0.1,1-0.1c2.6-0.5,5.2-0.7,7.6-1.1c1-0.2,2.1-0.4,3-0.3
			c0.9-0.3,2-0.2,2.9-0.3c0.9,0.1,2-0.2,3-0.4C909.7,225.6,909.7,225.8,909.8,225.9z M873.6,265.5c-0.1-0.2-0.3-0.4-0.4-0.3
			c-0.1,0-0.2,0.2-0.2,0.3c0,0.2,0.2,0.4,0.4,0.3C873.5,265.8,873.5,265.6,873.6,265.5z M873.6,243.8l-0.1,0v0.1L873.6,243.8z
			 M874,260.8c0,0.1,0.2,0.1,0.3,0.1c0.1,0,0.1-0.1,0.1-0.2c0.1-0.1,0.1-0.2,0.1-0.3c0.1-0.5,0-1-0.2-1.5c0,0-0.1,0-0.2,0
			c0,0-0.1,0-0.1,0.1C873.7,259.6,873.6,260.2,874,260.8z M874.5,252.5c0.2-0.3,0.3-0.7,0.1-1.1c0-0.1-0.2-0.2-0.3-0.2
			c0,0-0.1,0-0.1,0.1c-0.1,0.2-0.2,0.5-0.2,0.6c0,0.3-0.1,0.4,0,0.5c0,0.1,0.1,0.3,0.2,0.3C874.3,252.7,874.5,252.6,874.5,252.5z
			 M874.4,272c0.1-0.5,0.1-1-0.1-1.5c0,0-0.1-0.1-0.1,0c-0.1,0-0.2,0-0.2,0.1C873.9,271.2,874.1,271.7,874.4,272z M877,233.7
			c0-0.1-0.2-0.2-0.3-0.2c-0.1,0-0.4,0.2-0.4,0.3c-0.5,1.4-0.8,2.8-0.8,4.2c0,1-0.2,2-0.3,3c-0.3,1.3-0.5,2.6-0.6,4
			c0,0.6,0,1.3-0.2,2c-0.1,0.3-0.2,0.7-0.2,1.1c0,0.4,0.1,0.8,0.3,1.1c0.1,0,0.1,0.1,0.2,0.1c0.1,0,0.2,0,0.2-0.2
			c0.2-0.7,0.4-1.6,0.4-2.4c0-0.6,0.1-1.4,0.3-2c0.2-1.6,0.5-3,0.6-4.6c0.1-0.9,0.2-1.8,0.5-2.6c0.1-0.8,0.3-1.6,0.3-2.4
			C877,234.5,877.1,234.1,877,233.7z M874.3,256.4l-0.1,0c0,0.1,0,0.2,0,0.3c0.1,0,0.1,0,0.2,0C874.4,256.6,874.4,256.4,874.3,256.4
			z M874.5,264c0,0.2,0.1,0.5,0.2,0.4c0.1-0.1,0.2-0.2,0.2-0.4c0-0.3-0.1-0.6-0.1-1.2C874.5,263.3,874.5,263.6,874.5,264z
			 M875.4,267.3c-0.2-0.4-0.4-0.9-0.8-1.6c-0.1,0.5-0.1,0.7-0.1,0.9c0.1,0.8,0.3,1.7,0.5,2.6l0.1,0.1c0.1,0.1,0.3,0.2,0.3,0.1
			c0.1,0,0.3-0.1,0.3-0.2C875.8,268.5,875.7,267.9,875.4,267.3z M875,274c0.1,0.1,0.2,0.3,0.2,0.4c0-0.2,0-0.3,0-0.4
			c0-0.2-0.1-0.3-0.2-0.2V274z M875.3,274.5c0,0.2,0,0.3,0,0.4c0.1,0.2,0.2,0.3,0.3,0.1v-0.1C875.5,274.7,875.4,274.6,875.3,274.5z
			 M877.6,272.5c0.1,0.2,0.2,0.3,0.3,0.5c0,0.1,0,0.1,0,0.2c-0.1,0.1-0.2,0.2-0.2,0.2c-0.5,0-0.7-0.4-0.6-0.8
			c0.1-0.1,0.1-0.1,0.2-0.2C877.4,272.3,877.5,272.4,877.6,272.5z M878.5,225.3c0-0.3,0.1-0.5,0.1-0.8c0,0-0.1,0-0.2,0
			c-0.1,0.4-0.2,0.8-0.3,1.2c-0.1,0.4-0.3,0.8-0.4,1.2c-0.1,0.6-0.2,1.2-0.3,1.8c0,0.1,0.1,0.2,0.2,0.3c0,0,0.1,0,0.1-0.1
			C878.1,227.6,878.6,226.5,878.5,225.3z M877.7,275.4c-0.1,0-0.2,0-0.3,0c0-0.2,0.1-0.5,0.3-0.8C877.7,275,877.7,275.2,877.7,275.4
			z M877.8,274.6c-0.1,0-0.1,0-0.1,0l0.1-0.1V274.6z M878.4,234.5c0-0.1,0-0.2,0-0.3c-0.1,0.1-0.1,0.2-0.1,0.3
			c-0.1,0.1,0,0.1,0.1,0.2C878.4,234.6,878.4,234.6,878.4,234.5z M879.7,228.5c0.4-1.2,0.5-2.4,0.5-3.7c-0.7,1.1-0.9,2.4-0.8,3.6
			c0,0.1,0.1,0.2,0.2,0.2C879.6,228.6,879.7,228.6,879.7,228.5z M880.3,223.5c0,0.4,0,0.8-0.1,1.1
			C880.4,224.3,880.5,224,880.3,223.5z M889.4,229.2c0-0.1,0-0.2-0.1-0.2c-0.5-0.3-1.1,0.1-1.8-0.1c-0.1-0.1-0.3-0.1-0.5,0
			c-0.7,0.2-1.4,0.3-2.2,0.6c0,0,0,0.1,0.1,0.2c1.2-0.1,2.6-0.2,3.9-0.3c0.1,0,0.3-0.1,0.4-0.1L889.4,229.2z M905.4,227.7
			c0,0-0.1,0-0.1,0.1l-0.1,0c-0.1-0.1-0.1-0.2,0-0.2C905.3,227.6,905.4,227.6,905.4,227.7z M908.5,227.2c-0.8,0.3-1.2,0.4-1.8,0.6
			c-0.1,0-0.3-0.2-0.2-0.2c0-0.1,0.1-0.3,0.2-0.3C907.2,227,907.7,227.1,908.5,227.2z"/>
		<path class="st2" d="M931.3,247.8c-0.3,0.5-0.6,1-0.9,1.2c-0.5,0.4-0.9,0.7-1.3,1l-1.2,1c0,0,0,0.1-0.2,0.1
			c-1,0.6-1.8,1.6-2.6,2.3c-0.5,0.5-1.1,1-1.7,1.6c-0.1,0.1-0.3,0.3-0.4,0.4c-0.2,0.2-0.4,0.3-0.6,0.4c-0.2-0.2-0.4-0.3-0.6,0.1
			l-0.2,0.3c0.1,0,0.3,0,0.4,0.1l-0.4,0.7l-4.1,3.9c0,0-0.1,0.1-0.2,0.1c0-0.3,0-0.4-0.1-0.7c-0.1-0.1-0.3,0-0.5,0.1
			c-0.6,0.6-1.1,1.2-1.7,1.9c-0.1,0.2-0.3,0.5-0.5,0.7c-0.5,0.3-0.8,0.7-1.2,0.9c-0.7,0.4-1.2,1.5-1.9,2l-0.3,0.4
			c0,0.1-0.2,0.4-0.4,0.4c-0.4,0.1-0.6,0.5-0.9,0.8l-0.8,1.1c-0.2,0.2-0.4,0.7-0.6,1.2c0,0.1-0.1,0.2-0.2,0.4c0,0.1-0.1,0.1-0.1,0.2
			l-0.1,0.1c-0.4,0.7-0.7,1.4-0.8,2.3c0,0.2-0.1,0.5-0.2,0.8l-0.3,1.3l-0.6,3.6c0,0.1,0,0.2,0,0.2c0,1-0.6,1.8-0.8,2.8
			c-0.2,0.8-0.2,1.7-0.5,2.5c-0.3,0.7-0.4,1.6-0.6,2.3c-0.6,1.6-1.1,3.2-1.7,4.8c-0.5,1.6-1.1,3-2,4.5l-1.8,3
			c-0.8,1.4-1.9,2.7-3,3.9c-0.2,0.2-0.4,0.4-0.6,0.6c-1.7,1.2-5.2,1.3-6.5-1c-0.4-0.6-0.8-1.3-1.1-2c-0.5-1.1-0.6-2.3-0.2-3.7
			c0.5-1.8,1.2-3.6,2.1-5.3c1.5-3.4,3.6-6.6,5.7-9.8c1.3-2.1,2.9-4,4.3-6l1.7-1.9c0.6-0.8,1.3-1.6,2-2.4c0.4-0.4,0.6-1,0.6-1.6
			c0.3-1.9,0.5-3.7,0.7-5.5c0.1-0.7,0.1-1.5,0.1-2.2c0-0.1-0.1-0.3-0.2-0.3c-0.2,0-0.4,0-0.5,0.1l-0.8,1.1c-0.6,1-1.2,1.9-2.2,2.5
			c-0.5,0.4-0.8,0.7-1.2,1c-0.6,0.7-1.3,0.8-2.2,0.8c-1.4,0-2.8-0.5-3.8-1.4c-1-0.8-1.8-2.1-2-3.5c-0.3-2.1-0.3-4.4-0.3-6.6l0.3-4.6
			c0-1.1,0.1-2.4,0.1-3.6c-0.1-0.9,0.3-1.7,1-2.3c0.3-0.2,0.6-0.5,1-0.4c0.3,0,0.7-0.1,1,0c0.8,0,1.3,0.4,1.7,1
			c0.1,0.2,0.2,0.4,0.2,0.6c-0.3,2.5-0.2,4.9-0.7,7.3c-0.2,3-0.4,5.9,0,8.8c0,0.3,0.1,0.6,0.2,0.8c0.1,0.3,0.4,0.4,0.7,0.2
			c0.5-0.3,0.8-0.8,1.2-1.2c1.5-1.9,3.1-3.8,4.2-5.9l2.4-4.1c0.5-1,0.9-1.9,0.9-3.1c0-0.1,0-0.3,0.1-0.4c0.1-0.2,0.2-0.4,0.4-0.4
			c1.3-0.6,2.5-0.6,3.6,0.2c0.4,0.3,0.6,0.8,0.6,1.3c0.1,0.5,0.1,1.1,0.1,1.6c0.1,0.7,0.1,1.3-0.1,2c-0.5,2.7-0.9,5.6-1.2,8.4
			c-0.2,0.9-0.4,2-0.4,3v0.1c0,0.1,0.2,0.2,0.3,0.2l0.3-0.1l0.7-0.6c2.1-2.2,4.3-3.5,6.7-5.4l0.3-0.3c1.5-1.7,3.3-3,4.9-4.5
			c0.5-0.5,0.9-0.9,1.4-1.1c0.2-0.1,0.3-0.2,0.4-0.4c0.6-0.7,1.3-1.1,2.1-1.7l1.5-1.2c1.2-1,2.6-1.8,4-2.3c0.1-0.1,0.2,0,0.2,0.1
			C931.4,247.5,931.3,247.8,931.3,247.8z M890.1,293.3l0.2-1.1l-0.6,1c0,0.1,0.1,0.3,0.2,0.2C890,293.4,890.1,293.4,890.1,293.3z
			 M902,278.4c0-0.2-0.2-0.3-0.5-0.3l-0.3,0.2c-0.2,0.4-0.5,0.8-0.9,0.9c0.1-0.5,0.3-0.9,0.8-1v-0.7c-0.5-0.1-0.8,0.4-1.1,0.7
			c-0.6,0.8-1.1,1.5-1.7,2.3c-0.1,0.1-0.1,0.3-0.1,0.5c0.4-0.2,0.7-0.6,1-0.9c0.3-0.4,0.5-0.8,1-0.9c-0.1,0.8-0.6,1.4-1.1,2.1
			c-1.1,1.2-2.1,2.8-2.9,4.2c-0.6,0.9-1.2,1.9-1.8,2.8c-1.1,1.8-1.9,3.7-2.7,5.5c0,0.1-0.1,0.2-0.1,0.2c-0.6,2-0.9,4-1.5,5.9v0.5
			c0,0.3,0.3,0.8,0.7,0.9l0.8-0.1c0.9-0.3,1.7-0.9,2.2-1.5c1.4-1.7,2.6-3.4,3.6-5.3c0.4-0.7,0.7-1.3,0.9-2l1.3-3.6
			c0.1-0.5,0.1-0.9,0.4-1.4c0.4-0.7,0.6-1.4,0.6-2.1l0.3-1.3c0.4-1.7,0.6-3.5,0.9-5.2C902.1,278.7,902,278.5,902,278.4z M890.4,292
			c0.3-0.2,0.6-0.5,0.7-1l-0.1-0.1c0-0.1-0.1,0-0.2,0C890.6,291.3,890.5,291.6,890.4,292z M891.7,289.3c0.2-0.1,0.2-0.4,0.3-0.6
			C891.8,288.9,891.7,289.1,891.7,289.3z M892.1,288.5c0.4-0.1,0.7-0.4,0.8-0.6c0.4-0.8,0.7-1.5,0.8-2.3c-0.1,0.1-0.3,0.1-0.4,0.3
			c-0.4,0.8-0.9,1.4-1.1,2.3C892.1,288.3,892.1,288.4,892.1,288.5z M893.8,285.3c0.2-0.1,0.5-0.1,0.6-0.4c0.4-0.6,0.7-1.1,0.6-1.8
			l-0.7,0.7C893.9,284.3,893.8,284.8,893.8,285.3z M894.9,300.6c-0.1,0-0.1-0.1-0.2-0.1l-0.1,0c-0.3,0.2-0.5,0.6-0.6,0.9
			c-0.1,0.2,0,0.3,0.1,0.3c0.1,0,0.2,0,0.2,0c0.2-0.2,0.4-0.4,0.5-0.7C894.9,300.9,894.9,300.8,894.9,300.6z M895.2,283
			c0.6-0.2,1-0.6,1.3-1.1l0.3-1C895.9,281.4,895.4,282.1,895.2,283z M898,295.5c-0.2,0-0.4,0.1-0.6,0.4c-0.3,0.5-0.5,1.1-0.8,1.5
			l-0.4,0.8c-0.1,0.3-0.1,0.6,0,0.6c0.2,0,0.3-0.1,0.4-0.2C897.3,297.6,897.8,296.5,898,295.5z M896.8,280.8l0.6-0.3
			c0.6-0.7,1-1.3,1.3-2.2c0-0.1,0-0.2-0.1-0.2c0,0-0.1-0.1-0.1,0C897.6,278.9,897,279.7,896.8,280.8z M898,281.2
			c-0.6,0.2-0.8,0.8-1,1.3c0,0,0.1,0.1,0.2,0.1C897.8,282.4,898.1,281.8,898,281.2z M898.5,294.6c-0.2,0.2-0.2,0.3-0.3,0.6
			L898.5,294.6z M900.4,288.8c-0.1-0.1-0.2-0.2-0.3-0.1c-0.1,0-0.2,0.1-0.3,0.1c0.1,0,0.2,0.1,0.3,0.1c0,0.1,0.1,0,0.2,0
			L900.4,288.8z M900.8,275.8c0.1-0.1,0.2-0.1,0.2-0.1s0.1-0.1,0.1-0.2v-0.3c-0.1-0.1-0.3-0.1-0.3,0.1
			C900.7,275.4,900.8,275.6,900.8,275.8z M902,276c-0.1,0-0.3,0-0.3,0.1c-0.3,0.3-0.5,0.8-0.5,1.3l0.6-0.5c0.1-0.2,0.2-0.4,0.2-0.5
			C902.1,276.2,902,276.1,902,276z M915.6,262.2c0,0,0.1,0,0.2,0l-0.2,0.1V262.2z M916.3,261.7c-0.1,0-0.1,0-0.1,0
			c-0.1,0.2-0.2,0.4-0.4,0.6l0.3-0.5C916.2,261.7,916.2,261.7,916.3,261.7z M917,261.1c-0.1,0.3-0.4,0.4-0.7,0.6l0.3-0.4
			C916.7,261.1,916.9,261,917,261.1z M917.2,261c0,0,0,0,0,0.1c0-0.1,0,0-0.1,0C917,261,917.2,261,917.2,261z M922,256.2v0.1
			c0,0,0,0-0.1,0C921.9,256.2,921.9,256.2,922,256.2z M922.3,255.9c-0.1,0.2-0.1,0.2-0.3,0.3C922.1,256.1,922.2,256,922.3,255.9z"/>
	</g>
</g>
</svg>
