<?xml version="1.0" encoding="utf-8"?>
<!-- Generator: Adobe Illustrator 24.1.2, SVG Export Plug-In . SVG Version: 6.00 Build 0)  -->
<svg version="1.1" id="Layer_1" xmlns="http://www.w3.org/2000/svg" xmlns:xlink="http://www.w3.org/1999/xlink" x="0px" y="0px"
	 viewBox="0 0 500 134" style="enable-background:new 0 0 500 134;" xml:space="preserve">
<style type="text/css">
	.st0{fill:#05BF00;}
	.st1{fill:#EC5242;}
	.st2{fill:#4D4D4D;}
</style>
<g>
	<g>
		<path class="st0" d="M121.2,71.7c-0.4-2-0.2-4,0.2-5.9c1.4-8.3,3.4-16.4,6.7-24.2c1.9-4.5,4.3-8.7,7.8-12.2
			c0.8-0.8,1.7-1.5,2.6-2.2c0.1,0.1,0.2,0.1,0.3,0.2c-0.2,0.3-0.2,0.6-0.4,0.8c-2.4,3.5-4.9,6.9-7.1,10.6
			c-3.4,5.7-5.4,11.9-6.9,18.3c-1.1,4.8-2,9.7-3,14.5C121.3,71.6,121.2,71.6,121.2,71.7z"/>
		<path class="st0" d="M125.7,33.4c0.2-0.8,0.2-1.7,0.6-2.3c0.3-0.5,1-0.9,1.6-1c0.8,0,1,0.8,1,1.4c0.3,2-0.2,3.9-1.1,5.7
			c-0.1,0.2-0.5,0.5-0.8,0.5c-0.2,0-0.5-0.4-0.6-0.6C126.2,35.9,126,34.6,125.7,33.4z"/>
		<path class="st0" d="M144,20.6c1,0,1.5,0.6,1,1.6c-1.1,2-2.8,3.2-4.9,4.1c-0.2,0.1-0.7-0.3-0.7-0.4c-0.1-1.4,2.9-5,4.4-5.2
			C143.9,20.6,143.9,20.6,144,20.6z"/>
		<path class="st0" d="M131.7,27.6c0.1-0.7,0.2-1.5,0.4-2.3c0.2-0.5,0.6-1.1,1-1.4c1-0.6,1.9-0.1,1.8,1c-0.1,1.8-0.9,3.4-2,4.7
			c-0.4,0.5-0.9,0.3-1-0.4C131.8,28.8,131.8,28.3,131.7,27.6z"/>
		<path class="st0" d="M133.6,39.3c-0.1-0.1-0.6-0.1-0.7-0.4c-0.1-0.2,0.2-0.7,0.4-0.9c0.9-0.8,1.8-1.5,2.8-2.2
			c0.4-0.3,1-0.4,1.5-0.3c0.4,0.1,1,0.4,1.1,0.8c0.1,0.3-0.2,0.9-0.4,1.2C137,38.7,135.5,39.1,133.6,39.3z"/>
		<path class="st0" d="M125,41.8c-0.2,0.9-0.3,1.8-0.6,2.7c0,0.2-0.3,0.4-0.6,0.4c-0.2,0-0.4-0.2-0.5-0.4c-0.6-1.3-1.2-2.6-1.1-4.1
			c0-0.4,0.2-0.8,0.4-1.2c0.6-0.8,1.5-0.7,1.8,0.2C124.8,40.2,124.8,41,125,41.8z"/>
		<path class="st0" d="M139.9,32.2c-0.6-0.1-1.1-0.1-1.6-0.2c-0.2-0.1-0.5-0.3-0.6-0.5c0-0.2,0.1-0.6,0.3-0.6
			c1.1-0.6,2.1-1.1,3.2-1.5c0.4-0.2,1.1,0.1,1.5,0.3c0.8,0.5,0.7,1.5-0.1,1.9C141.8,31.9,140.9,32,139.9,32.2
			C140,32.3,140,32.2,139.9,32.2z"/>
		<path class="st0" d="M128.9,48.3c-0.1,0-0.6-0.1-0.6-0.3c-0.1-0.3,0.1-0.7,0.3-0.9c0.9-0.8,1.8-1.5,2.7-2.1
			c0.3-0.2,0.9-0.3,1.3-0.2c0.4,0.1,0.9,0.4,1,0.8c0.1,0.3-0.2,0.9-0.4,1.1C132,47.8,130.6,48.2,128.9,48.3z"/>
	</g>
	<g>
		<path class="st1" d="M120.5,50.9c-1-0.2-2-0.1-3.1-0.1c-1.2,0-1.4,0-1.5-1.2c-0.2-1.2-0.6-2.3-1.5-3.1c-1.2-1.2-2.7-1.6-4.4-1.7
			c-2.8,0-5.3,1.1-7.6,2.6c-3.7,2.4-6.9,5.3-9.7,8.7c-0.8,0.9-1.1,0.9-1.6-0.2c-1.7-4.3-4.3-8.1-7.3-11.6c-4-4.5-8.1-8.9-12.2-13.3
			c-8-8.4-17.1-15.4-27.7-20.5C39,8.2,33.9,6.4,28.4,6.1c-2.4-0.1-4.8,0.2-7,1.3c-2.3,1.2-3.2,3.2-2.8,5.7c0.4,1.9,1.8,3.9,3.9,4.1
			c-0.4-0.6-0.8-1.2-1.2-1.8C20,13,21,10.5,23.7,9.8c2-0.6,4-0.2,5.9,0.1c9.3,1.8,17.8,5.5,25.4,11.2C65.3,29,74.7,38,83,47.9
			c2.7,3.3,4.8,7,6.3,11c0.2,0.6,0.2,1.1,0,1.7c-1,2.2-2.2,4.4-3,6.6c-0.8,2.1-1.3,4.3-0.2,6.6c0.8,1.8,2.4,2.2,4,1
			c1.6-1.2,2.5-2.9,2.7-4.9c0.2-2.3,0.2-4.6,0.3-6.9c0-0.8-0.1-1.9,0.4-2.4c2.6-3.3,5.1-6.6,8-9.6c2.4-2.6,5.6-3.8,9.2-3.2
			c1.1,0.2,1.6,0.8,1.7,1.9c0,0.3,0,0.6,0,0.9c0,0.8,0,1.5,0.8,1.9c0.8,0.4,1.4,0,2-0.4c1.4-0.9,2.8-0.6,4.4-0.6
			c-0.2,0.2-0.2,0.3-0.2,0.4c-0.5,0.3-1,0.6-1.5,0.9c-3.2,1.8-5.7,4.4-7.3,7.7c-1.3,2.7-2.3,5.6-2.9,8.5c-0.9,4.7-2.8,8.9-6.3,12.3
			c-0.3,0.3-0.6,0.6-0.9,0.8c-0.5,0.6-3.4,2.6-3.4,2.7c-0.4,0.2-0.7,0.4-1.1,0.6c-5.5,3.3-11.2,6.1-17.5,7.5
			c-5.3,1.1-10.7,1.9-16,2.9c-5.5,1-10.8,2.7-15.6,5.7c-7.3,4.6-13,10.5-16.3,18.5c-1,2.4-1.7,4.9-1.5,7.6c0,0.7,0.1,1.3,0.9,1.8
			c0.1-0.5,0.2-1,0.2-1.4c0.1-2.6,0.6-5.1,1.6-7.4c2.9-6.9,7.9-12,14.6-15.4c3.8-2,7.9-3.2,12-4.3c7.9-2.1,15.9-4.1,23.8-6.1
			c1.9-0.5,3.8-1,5.8-1.5c0.8-0.2,7.5-2.5,7.6-2.6c3.4-1.5,6.6-3.6,9.3-6.3c2.4-2.3,4.2-5,5.5-8c1.5-3.3,2.2-6.9,2.9-10.4
			c1.1-5.3,3.6-9.7,7.9-13c0.5-0.4,0.9-1,1.3-1.4C121.8,51.5,121.2,51,120.5,50.9z M90.8,70.8c-0.2,1.1-0.8,2-1.8,2.6
			c-0.5,0.3-0.9,0.2-1.1-0.4c-0.1-0.4-0.2-0.8-0.1-1.2c0.2-2.2,1.2-4.1,2.2-5.9c0.1-0.2,0.2-0.3,0.4-0.5c0.1-0.1,0.2-0.1,0.4-0.2
			c0.1,0.3,0.4,0.6,0.3,0.8C91,67.6,91,69.2,90.8,70.8z"/>
		<path class="st1" d="M67.7,41.8c-2.6-3.5-5.8-6.5-9.5-8.8c-3.3-2-6.6-3.8-10-5.6c-5.7-3-11.7-5.2-18.1-6.5c-2-0.4-4.1-0.3-5.9,1.1
			c-1.4,1-1.7,2.6-0.9,4.1c0.4,0.7,0.9,1.4,1.5,1.9c1.3,1.2,2.6,2.2,3.9,3.3c0.2,0.2,0.4,0.5,0.5,0.8c-0.3,0-0.6,0.2-1,0.2
			c-0.8,0-1.6-0.2-2.4-0.2c-3-0.2-6,0.2-8.5,2.2c-2.3,1.8-2.5,4.1-0.5,6.1c1.2,1.2,2.6,2.3,4.2,3.1c2.6,1.5,5.3,2.8,8,4.2
			c0.3,0.2,0.6,0.4,1,0.8c-0.6,0.3-1,0.4-1.4,0.6c-1.1,0.4-2.3,0.8-3.4,1.2c-2.9,1.2-3.8,5.2-1.5,7.4c1.4,1.4,3.1,2.7,4.8,3.7
			c3.6,2.2,7.6,3.3,11.5,4.7c0.6,0.2,1.1,0.5,1.6,0.7c-0.9,1.3-1.8,2.4-2.6,3.6c-1.4,2.4-1.3,5,0.4,7c2.5,3,6.1,3.4,9.5,4.2
			c0-0.1,0-0.2,0-0.2c-1.5-0.5-3-1-4.4-1.6c-1.9-0.7-3-2.1-3.8-3.9c-0.6-1.4-0.3-2.7,0.8-3.6c1-0.8,2.1-1.6,3.2-2.2
			c1.5-0.9,3.2-1.2,5-0.9c1.6,0.2,3.2,0.6,4.9,0.7c2.1,0.2,4.1,0,6-0.9c2-0.9,2.2-3.1,0.4-4.4c-0.6-0.4-1.2-0.7-1.9-0.8
			c-3.6-0.9-7.2-0.6-10.8,0.5c-1.3,0.4-2.6,0.4-3.8-0.1c-3.9-1.6-7.8-3.1-11.7-4.8c-2.8-1.2-5.5-2.4-7.8-4.3c-0.4-0.3-0.7-1-0.7-1.5
			c0-0.7,0.6-1,1.3-1.1c1.1-0.2,2.2-0.4,3.2-0.4c1.7,0,3.4,0.1,5.1,0c2.3-0.1,4.3,0.6,6.4,1.6c2.9,1.4,5.9,2.6,8.9,3.6
			c2,0.7,4.3,1.2,6.5,0.8c0.6-0.1,1.3-0.5,1.6-1c0.4-0.7,0-1.4-0.6-1.9c-1-0.8-2-1.7-3.1-2.3c-5.5-2.7-11.3-4.5-17.6-4.7
			c-1.2,0-2.4-0.4-3.5-0.9c-2-1-4-2.2-5.9-3.4c-2.4-1.5-4.7-3.3-6.7-5.4c-0.8-0.8-0.8-1.3,0.2-1.8c0.5-0.3,1-0.6,1.6-0.6
			c2.6,0,5.2-0.2,7.7,0c4.8,0.5,9.6,1.3,13.7,4.2c0.3,0.2,0.6,0.3,0.8,0.5c4,2.2,7.9,4.6,12.3,6.1c1.2,0.4,2.2,0.3,2.5-0.3
			c0.3-0.7-0.2-1.8-1.3-2.3c-5.2-2.7-10.3-5.5-15.8-7.5c-2.2-0.8-4.5-1.5-6.6-2.7c-3.2-1.9-6.2-4.3-8.5-7.3
			c-0.9-1.2-0.8-1.8,0.6-2.2c1.7-0.5,3.4-0.3,5,0.3c4.8,1.7,9.6,3.4,14.3,5.3c7.7,3.2,14.6,7.5,20.6,13.1c0.3,0.2,0.7,0.4,1,0.6
			c0.1,0,0.2-0.1,0.2-0.2C68.1,42.8,68,42.2,67.7,41.8z M59.9,67c-1.2,0.7-2.9,0.9-4.4,0.4C56.6,66.4,58.4,66.2,59.9,67z M55.3,56.2
			c0,0.1,0,0.2,0,0.3c-0.6,0-1.3,0.1-1.9,0c-3.1-0.6-6-1.9-8.8-3.3C48.4,53.1,51.9,54.3,55.3,56.2z M45.9,40
			c0.6,0.2,1.3,0.4,1.9,0.7c2.3,1,4.6,2.1,6.8,3.2c0.5,0.2,0.9,0.8,1.2,1.2c-3.6-1.2-6.9-2.9-10-4.9C45.8,40.1,45.9,40,45.9,40z"/>
		<path class="st1" d="M100.3,35.1c-0.7-6.7-2.4-13.1-5-19.3c-2.1-5.2-5.1-9.8-9.6-13.3c-1.4-1.1-3-2-4.8-2.4
			c-2.3-0.5-4.3,0.3-5,2.2c-0.4,1.1-0.7,2.4-0.6,3.5c0.2,2.7,0.7,5.4,1.1,8.1c0.2,1.4,0.4,2.9,0.6,4.4c0,0.3-0.2,0.6-0.2,0.9
			c-0.2-0.1-0.6-0.2-0.8-0.3c-0.7-0.6-1.4-1.2-2.2-1.8c-3.4-2.9-7.1-5.3-11.4-6.6c-1-0.3-2.2-0.3-3.2-0.1c-1.3,0.2-1.6,1-0.8,2
			c0.3,0.5,0.7,0.9,1.2,1.3c2.9,2.6,5.7,5.4,8.7,7.8c1.8,1.5,3.9,2.6,6,3.8c1.2,0.6,2.4,0.7,3.6-0.1c0.4-0.3,0.8-0.2,1.1,0.2
			c0.9,1,1.9,2,2.7,3.2c3.2,4.5,5.7,9.5,8.1,14.5c0.6,1.2,1.2,2.4,1.9,3.6c0.4,0.6,0.9,1,1.7,0.8c0.8-0.2,1-0.9,0.8-1.6
			c-0.4-1.7-0.8-3.4-1.6-5c-3.2-6.7-7.1-12.9-12.6-18c-0.7-0.6-1-1.4-1.1-2.4c-0.1-1.4-0.2-2.9-0.4-4.3c-0.3-3.4-0.7-6.7-1-10.1
			C77.6,4.8,78,3.7,79,2.7c1.8,1.1,3.4,2.3,4.7,3.8c3.9,4.5,6.8,9.6,8.9,15.1c2,5.3,3,10.9,4,16.6c0.2,1.3,0.6,2.6,1.1,3.8
			c0.1,0.4,0.7,0.7,1.1,0.7c0.4,0,0.9-0.4,1-0.8c0.3-0.8,0.6-1.6,0.6-2.4C100.5,38.2,100.5,36.7,100.3,35.1z M75.7,24
			c-0.8-0.2-1.5-0.5-2.2-0.8c-3.8-2.1-7.2-4.7-10-8c-0.3-0.4-0.6-0.8-0.9-1.2c0-0.1,0.1-0.1,0.2-0.2c0.6,0.2,1.2,0.5,1.8,0.8
			c4,2,7.6,4.6,10.8,7.7c0.3,0.3,0.6,0.6,0.8,0.9c0.2,0.2,0.2,0.5,0.2,0.8C76.2,23.9,76,24.1,75.7,24z"/>
		<path class="st1" d="M9.2,111.1c0.7-0.1,1.1,0,1.5-0.2c4.3-1.3,8.4-3.2,12.4-5.3c2.4-1.4,4.7-3.1,7.1-4.6c0.6-0.4,1.4-0.8,2.1-0.9
			c0.4-0.1,1.1,0.1,1.4,0.5c0.2,0.3,0.2,1,0,1.4c-0.4,0.8-1,1.4-1.6,2c-2.6,3-5.3,5.7-7.1,9.3c-1.9,3.7-2.9,7.6-3.1,11.7
			c-0.1,2,3.7,7.5,4.6,8.9c-1.2,0-5.8-3.4-6.4-4.1c-2.1-2.7-2.5-5.9-2.3-9.2c0.2-4,1.7-7.7,3.7-11.1c0.2-0.3,0.4-0.6,0.5-0.9
			c0.1-0.2,0.1-0.5,0-0.5c-0.1-0.1-0.4-0.1-0.6,0c-0.2,0.1-0.5,0.2-0.7,0.4c-2.7,1.4-5.4,2.9-8.1,4.1c-1,0.5-2.3,0.7-3.4,0.6
			c-1.4-0.1-2.2-1.3-1.9-2.8c0.4-1.9,1.2-3.6,2.4-5.1c1.7-2.4,3.7-4.4,6-6.2c0.5-0.4,1.1-0.8,1.6-1.2c0.1-0.1,0.3-0.4,0.2-0.4
			c-0.1-0.2-0.3-0.3-0.5-0.3c-0.4,0-0.8,0-1.2,0c-3.6,0.1-7.2,0-10.7-0.8c-1.5-0.4-2.8-1-3.9-2c-1.3-1.2-1.4-2.6-0.4-4
			C2,88.6,3.9,87.9,5.7,87c4-1.9,8.2-2.9,12.6-3.3c7.7-0.7,15.2,0,22.7,1.7c1.1,0.2,2.1,0.7,3.1,1c0.6,0.2,1.3,0.5,1,1.3
			c-0.3,0.8-1,0.4-1.5,0.2c-6.3-2.2-12.9-3.2-19.6-3c-5.8,0.2-11.5,0.9-17,3.2c-1.1,0.4-2.2,1-3.2,1.6c-0.6,0.3-1,0.8-1.5,1.2
			c-0.6,0.7-0.4,1.2,0.4,1.4c1.2,0.3,2.5,0.7,3.8,0.8c4.5,0.5,8.9,0.2,13.4-0.2c4.1-0.4,8.2-0.9,12.3-2c1.2-0.3,2.2,0.3,2.4,1.2
			c0.3,1-0.3,1.8-1.5,2.2c-2.8,0.9-5.6,1.6-8.3,2.6c-5.3,2-10,5-13.6,9.6c-0.6,0.7-1,1.5-1.5,2.3C9.5,109.7,9.4,110.3,9.2,111.1z"/>
		<path class="st1" d="M109.9,53c0,0.7-0.7,1.4-1.4,1.4s-1.2-0.4-1.2-1.2c0-0.8,0.6-1.4,1.3-1.4C109.3,51.7,109.9,52.3,109.9,53z"/>
	</g>
</g>
<g>
	<g>
		<path class="st2" d="M152.7,45.5c-0.4,0-0.7-0.1-0.9-0.4c-0.2-0.2-0.4-0.6-0.4-1V13.2h-10.1c-0.4,0-0.7-0.1-0.9-0.4
			c-0.2-0.2-0.4-0.6-0.4-1V7.7c0-0.4,0.1-0.8,0.4-1c0.2-0.2,0.6-0.4,0.9-0.4h27.9c0.4,0,0.7,0.1,1,0.4c0.2,0.3,0.4,0.6,0.4,1v4.1
			c0,0.4-0.1,0.7-0.4,1c-0.2,0.3-0.6,0.4-1,0.4h-10.1v30.9c0,0.4-0.1,0.7-0.4,1c-0.2,0.3-0.6,0.4-1,0.4L152.7,45.5L152.7,45.5z"/>
		<path class="st2" d="M177.4,45.5c-0.4,0-0.7-0.1-0.9-0.4c-0.2-0.2-0.4-0.6-0.4-1V7.7c0-0.4,0.1-0.8,0.4-1c0.2-0.2,0.6-0.4,0.9-0.4
			h5c0.4,0,0.7,0.1,1,0.4c0.2,0.3,0.4,0.6,0.4,1v14.4h16.1V7.7c0-0.4,0.1-0.8,0.4-1c0.2-0.2,0.6-0.4,0.9-0.4h4.9
			c0.4,0,0.7,0.1,1,0.4c0.2,0.3,0.4,0.6,0.4,1v36.4c0,0.4-0.1,0.7-0.4,1c-0.2,0.3-0.6,0.4-1,0.4h-4.9c-0.4,0-0.7-0.1-0.9-0.4
			c-0.2-0.2-0.4-0.6-0.4-1v-15h-16.1v15c0,0.4-0.1,0.7-0.4,1c-0.2,0.3-0.6,0.4-1,0.4L177.4,45.5L177.4,45.5z"/>
		<path class="st2" d="M217.2,45.5c-0.4,0-0.7-0.1-0.9-0.4c-0.2-0.2-0.4-0.6-0.4-1V7.7c0-0.4,0.1-0.8,0.4-1c0.2-0.2,0.6-0.4,0.9-0.4
			h24c0.4,0,0.7,0.1,1,0.4c0.2,0.3,0.4,0.6,0.4,1v3.7c0,0.4-0.1,0.7-0.4,1c-0.2,0.3-0.6,0.4-1,0.4h-18v9.9H240c0.4,0,0.7,0.1,1,0.4
			c0.2,0.2,0.4,0.6,0.4,1v3.4c0,0.4-0.1,0.7-0.4,1c-0.2,0.2-0.6,0.4-1,0.4h-16.8V39h18.4c0.4,0,0.7,0.1,1,0.4c0.2,0.3,0.4,0.6,0.4,1
			v3.7c0,0.4-0.1,0.7-0.4,1c-0.2,0.3-0.6,0.4-1,0.4C241.7,45.5,217.2,45.5,217.2,45.5z"/>
		<path class="st2" d="M258.6,45.5c-0.3,0-0.6-0.1-0.8-0.3c-0.2-0.2-0.4-0.5-0.4-0.8c0-0.2,0-0.3,0.1-0.5l13.2-36.1
			c0.1-0.4,0.3-0.7,0.6-1c0.3-0.3,0.7-0.4,1.3-0.4h5.9c0.6,0,1,0.1,1.2,0.4s0.5,0.6,0.6,1l13.2,36.1c0,0.2,0,0.4,0,0.5
			c0,0.3-0.1,0.6-0.3,0.8c-0.2,0.2-0.5,0.3-0.8,0.3h-4.8c-0.5,0-0.9-0.1-1.1-0.4c-0.2-0.2-0.4-0.5-0.5-0.7l-2.6-6.8h-16.1l-2.6,6.8
			c-0.1,0.2-0.2,0.4-0.5,0.7c-0.2,0.2-0.6,0.4-1.1,0.4C263.4,45.5,258.6,45.5,258.6,45.5z M269.5,31.1h12.4l-6.2-17.3L269.5,31.1z"
			/>
		<path class="st2" d="M300.1,45.5c-0.4,0-0.7-0.1-0.9-0.4c-0.2-0.2-0.4-0.6-0.4-1V7.7c0-0.4,0.1-0.8,0.4-1c0.2-0.2,0.6-0.4,0.9-0.4
			h4.2c0.5,0,0.9,0.1,1.1,0.4s0.4,0.4,0.5,0.5l15.7,25.1V7.7c0-0.4,0.1-0.8,0.4-1c0.2-0.2,0.6-0.4,1-0.4h4.6c0.4,0,0.7,0.1,1,0.4
			c0.2,0.3,0.4,0.6,0.4,1V44c0,0.4-0.1,0.8-0.4,1c-0.2,0.3-0.6,0.4-0.9,0.4h-4.3c-0.5,0-0.9-0.1-1.1-0.4c-0.2-0.2-0.4-0.4-0.5-0.5
			l-15.7-24.5v24c0,0.4-0.1,0.7-0.4,1c-0.2,0.3-0.6,0.4-1,0.4H300.1z"/>
		<path class="st2" d="M338.8,45.5c-0.4,0-0.7-0.1-0.9-0.4c-0.2-0.2-0.4-0.6-0.4-1V7.7c0-0.4,0.1-0.8,0.4-1c0.2-0.2,0.6-0.4,0.9-0.4
			h4.2c0.5,0,0.9,0.1,1.1,0.4s0.4,0.4,0.5,0.5l15.7,25V7.7c0-0.4,0.1-0.8,0.4-1c0.2-0.2,0.6-0.4,1-0.4h4.6c0.4,0,0.7,0.1,1,0.4
			c0.2,0.3,0.4,0.6,0.4,1V44c0,0.4-0.1,0.8-0.4,1c-0.2,0.3-0.6,0.4-0.9,0.4H362c-0.5,0-0.9-0.1-1.1-0.4c-0.2-0.2-0.4-0.4-0.5-0.5
			l-15.7-24.5v24c0,0.4-0.1,0.7-0.4,1c-0.2,0.3-0.6,0.4-1,0.4H338.8z"/>
		<path class="st2" d="M391.3,46c-3.2,0-5.9-0.6-8.3-1.6s-4.1-2.8-5.4-5.1s-1.9-5.2-1.9-8.8V7.7c0-0.4,0.1-0.8,0.4-1
			c0.2-0.2,0.6-0.4,0.9-0.4h5c0.4,0,0.7,0.1,1,0.4c0.2,0.3,0.4,0.6,0.4,1v22.7c0,3,0.7,5.3,2.1,6.8c1.4,1.5,3.4,2.2,5.9,2.2
			c2.5,0,4.4-0.7,5.8-2.2s2.1-3.7,2.1-6.8V7.7c0-0.4,0.1-0.8,0.4-1c0.2-0.2,0.6-0.4,1-0.4h4.9c0.4,0,0.7,0.1,1,0.4
			c0.2,0.3,0.4,0.6,0.4,1v22.7c0,3.6-0.6,6.5-1.9,8.8c-1.2,2.3-3,4-5.4,5.1C397.3,45.5,394.5,46,391.3,46z"/>
		<path class="st2" d="M411.9,45.5c-0.3,0-0.6-0.1-0.8-0.3c-0.2-0.2-0.4-0.5-0.4-0.8c0-0.2,0-0.3,0.1-0.5L424,7.7
			c0.1-0.4,0.3-0.7,0.6-1c0.3-0.3,0.7-0.4,1.3-0.4h6c0.6,0,1,0.1,1.2,0.4c0.3,0.3,0.5,0.6,0.6,1l13.2,36.1c0,0.2,0,0.4,0,0.5
			c0,0.3-0.1,0.6-0.3,0.8s-0.5,0.3-0.8,0.3h-4.8c-0.5,0-0.9-0.1-1.1-0.4c-0.2-0.2-0.4-0.5-0.5-0.7l-2.6-6.8h-16.2l-2.6,6.8
			c-0.1,0.2-0.2,0.4-0.5,0.7c-0.2,0.2-0.6,0.4-1.1,0.4H411.9z M422.7,31.1h12.4l-6.2-17.3L422.7,31.1z"/>
		<path class="st2" d="M453.4,45.5c-0.4,0-0.7-0.1-0.9-0.4c-0.2-0.2-0.4-0.6-0.4-1V7.6c0-0.4,0.1-0.7,0.4-1c0.2-0.2,0.6-0.4,0.9-0.4
			h5.1c0.4,0,0.7,0.1,0.9,0.4c0.2,0.3,0.4,0.6,0.4,1v31.1h17.3c0.4,0,0.7,0.1,1,0.4c0.2,0.3,0.4,0.6,0.4,1v3.9c0,0.4-0.1,0.7-0.4,1
			c-0.2,0.3-0.6,0.4-1,0.4C477.1,45.5,453.4,45.5,453.4,45.5z"/>
	</g>
	<g>
		<path class="st1" d="M141.1,90.6c-0.3,0-0.6-0.1-0.8-0.3c-0.2-0.2-0.3-0.5-0.3-0.8v-29c0-0.3,0.1-0.6,0.3-0.8
			c0.2-0.2,0.5-0.3,0.8-0.3h12.2c2.4,0,4.5,0.4,6.3,1.1c1.8,0.8,3.2,1.9,4.2,3.4s1.5,3.4,1.5,5.7s-0.5,4.2-1.5,5.7s-2.4,2.6-4.2,3.3
			c-1.8,0.7-3.9,1.1-6.3,1.1h-5.2v9.7c0,0.3-0.1,0.6-0.3,0.8c-0.2,0.2-0.5,0.3-0.8,0.3L141.1,90.6L141.1,90.6z M148,73.5h5.1
			c1.2,0,2.2-0.3,3-1c0.7-0.6,1.1-1.6,1.1-3c0-1.1-0.3-2.1-1-2.8c-0.6-0.8-1.7-1.2-3.1-1.2H148V73.5z"/>
		<path class="st1" d="M170.6,90.6c-0.3,0-0.6-0.1-0.8-0.3c-0.2-0.2-0.3-0.5-0.3-0.8v-29c0-0.3,0.1-0.6,0.3-0.8
			c0.2-0.2,0.5-0.3,0.8-0.3h20.3c0.3,0,0.6,0.1,0.8,0.3c0.2,0.2,0.3,0.5,0.3,0.8v4.2c0,0.3-0.1,0.6-0.3,0.8
			c-0.2,0.2-0.5,0.3-0.8,0.3H177v6h12.9c0.3,0,0.6,0.1,0.8,0.3c0.2,0.2,0.3,0.5,0.3,0.8v3.9c0,0.3-0.1,0.6-0.3,0.8
			c-0.2,0.2-0.5,0.3-0.8,0.3H177v6.2h14.2c0.3,0,0.6,0.1,0.8,0.3c0.2,0.2,0.3,0.5,0.3,0.8v4.2c0,0.3-0.1,0.6-0.3,0.8
			c-0.2,0.2-0.5,0.3-0.8,0.3L170.6,90.6L170.6,90.6z"/>
		<path class="st1" d="M195.5,90.6c-0.2,0-0.4-0.1-0.6-0.3c-0.2-0.2-0.3-0.4-0.3-0.6c0-0.2,0-0.3,0-0.4l10.2-28.6
			c0.1-0.3,0.3-0.6,0.6-0.9c0.3-0.2,0.6-0.4,1.2-0.4h6.5c0.5,0,0.9,0.1,1.2,0.4c0.3,0.2,0.4,0.6,0.6,0.9L225,89.2
			c0,0.1,0.1,0.2,0.1,0.4c0,0.2-0.1,0.4-0.3,0.6c-0.2,0.2-0.4,0.3-0.7,0.3h-5.4c-0.4,0-0.8-0.1-1-0.3c-0.2-0.2-0.4-0.4-0.4-0.6
			l-1.7-4.5H204l-1.6,4.5c0,0.2-0.2,0.4-0.4,0.6s-0.6,0.3-1,0.3H195.5z M205.8,78.7h8.1l-4.1-11.7L205.8,78.7z"/>
		<path class="st1" d="M240.3,91c-2.7,0-5.1-0.4-7.1-1.4c-2-0.9-3.5-2.3-4.6-4.1c-1.1-1.8-1.7-4-1.8-6.7c0-1.2,0-2.5,0-3.9
			c0-1.4,0-2.7,0-4c0.1-2.6,0.7-4.8,1.8-6.6c1.1-1.8,2.6-3.2,4.6-4.1c2-0.9,4.3-1.4,7-1.4c1.9,0,3.7,0.2,5.3,0.7
			c1.6,0.5,3,1.2,4.3,2.1c1.2,0.9,2.2,2,2.8,3.4c0.7,1.3,1,2.8,1.1,4.5c0,0.3,0,0.5-0.2,0.7c-0.2,0.2-0.4,0.3-0.7,0.3H247
			c-0.4,0-0.7-0.1-0.9-0.2s-0.4-0.5-0.5-0.9c-0.4-1.6-1.1-2.6-2-3.2c-0.9-0.6-2-0.9-3.4-0.9c-1.6,0-2.8,0.4-3.8,1.4
			c-0.9,0.9-1.4,2.4-1.5,4.5c-0.1,2.4-0.1,4.9,0,7.5c0.1,2.1,0.6,3.6,1.5,4.5c0.9,0.9,2.2,1.4,3.8,1.4c1.3,0,2.5-0.3,3.4-0.9
			c0.9-0.6,1.6-1.6,2-3.2c0.1-0.4,0.3-0.8,0.5-0.9c0.2-0.2,0.5-0.2,0.9-0.2h5.9c0.3,0,0.5,0.1,0.7,0.3c0.2,0.2,0.3,0.4,0.2,0.7
			c0,1.6-0.4,3.2-1.1,4.5s-1.6,2.4-2.8,3.4c-1.2,0.9-2.6,1.6-4.3,2.1C244,90.8,242.2,91,240.3,91z"/>
		<path class="st1" d="M259.5,90.6c-0.3,0-0.6-0.1-0.8-0.3c-0.2-0.2-0.3-0.5-0.3-0.8v-29c0-0.3,0.1-0.6,0.3-0.8
			c0.2-0.2,0.5-0.3,0.8-0.3h20.3c0.3,0,0.6,0.1,0.8,0.3c0.2,0.2,0.3,0.5,0.3,0.8v4.2c0,0.3-0.1,0.6-0.3,0.8
			c-0.2,0.2-0.5,0.3-0.8,0.3h-13.9v6h12.9c0.3,0,0.6,0.1,0.8,0.3c0.2,0.2,0.3,0.5,0.3,0.8v3.9c0,0.3-0.1,0.6-0.3,0.8
			c-0.2,0.2-0.5,0.3-0.8,0.3h-12.9v6.2h14.2c0.3,0,0.6,0.1,0.8,0.3c0.2,0.2,0.3,0.5,0.3,0.8v4.2c0,0.3-0.1,0.6-0.3,0.8
			c-0.2,0.2-0.5,0.3-0.8,0.3L259.5,90.6L259.5,90.6z"/>
		<path class="st1" d="M308,91c-2.7,0-5.1-0.4-7.1-1.4c-2-0.9-3.5-2.3-4.6-4.1c-1.1-1.8-1.7-4-1.8-6.7c0-1.2,0-2.5,0-3.9
			c0-1.4,0-2.7,0-4c0.1-2.6,0.7-4.8,1.8-6.6c1.1-1.8,2.6-3.2,4.6-4.1c2-0.9,4.3-1.4,7-1.4c1.9,0,3.7,0.2,5.3,0.7
			c1.6,0.5,3,1.2,4.3,2.1c1.2,0.9,2.2,2,2.8,3.4c0.7,1.3,1,2.8,1.1,4.5c0,0.3,0,0.5-0.2,0.7c-0.2,0.2-0.4,0.3-0.7,0.3h-5.9
			c-0.4,0-0.7-0.1-0.9-0.2c-0.2-0.2-0.4-0.5-0.5-0.9c-0.4-1.6-1.1-2.6-2-3.2c-0.9-0.6-2-0.9-3.4-0.9c-1.6,0-2.8,0.4-3.8,1.4
			c-0.9,0.9-1.4,2.4-1.5,4.5c-0.1,2.4-0.1,4.9,0,7.5c0.1,2.1,0.6,3.6,1.5,4.5c0.9,0.9,2.2,1.4,3.8,1.4c1.3,0,2.5-0.3,3.4-0.9
			c0.9-0.6,1.6-1.6,2-3.2c0.1-0.4,0.3-0.8,0.5-0.9c0.2-0.2,0.5-0.2,0.9-0.2h5.9c0.3,0,0.5,0.1,0.7,0.3c0.2,0.2,0.3,0.4,0.2,0.7
			c0,1.6-0.4,3.2-1.1,4.5c-0.7,1.3-1.6,2.4-2.8,3.4c-1.2,0.9-2.6,1.6-4.3,2.1C311.6,90.8,309.9,91,308,91z"/>
		<path class="st1" d="M338.5,91c-2.7,0-5-0.4-7-1.3s-3.5-2.2-4.6-4.1c-1.1-1.8-1.7-4.1-1.8-6.7c0-1.3,0-2.6,0-3.8
			c0-1.3,0-2.6,0-3.8c0.1-2.7,0.7-4.9,1.8-6.7c1.1-1.8,2.7-3.2,4.7-4.1c2-0.9,4.3-1.4,6.9-1.4c2.6,0,4.9,0.4,6.9,1.4
			c2,0.9,3.5,2.3,4.7,4.1c1.1,1.8,1.7,4.1,1.8,6.7c0,1.3,0.1,2.6,0.1,3.8c0,1.3,0,2.6-0.1,3.8c-0.1,2.7-0.7,4.9-1.8,6.7
			c-1.1,1.8-2.6,3.1-4.7,4.1C343.5,90.6,341.2,91,338.5,91z M338.5,84.6c1.5,0,2.8-0.5,3.8-1.4s1.5-2.4,1.6-4.5
			c0-1.3,0.1-2.5,0.1-3.7s0-2.4-0.1-3.6c0-1.4-0.3-2.5-0.8-3.4c-0.4-0.9-1.1-1.5-1.8-1.9c-0.8-0.4-1.7-0.6-2.7-0.6
			c-1,0-1.9,0.2-2.6,0.6c-0.8,0.4-1.4,1-1.9,1.9s-0.7,2-0.8,3.4c0,1.2,0,2.4,0,3.6s0,2.4,0,3.7c0.1,2.1,0.6,3.6,1.6,4.5
			C335.7,84.1,337,84.6,338.5,84.6z"/>
		<path class="st1" d="M358.1,90.6c-0.3,0-0.6-0.1-0.8-0.3c-0.2-0.2-0.3-0.5-0.3-0.8v-29c0-0.3,0.1-0.6,0.3-0.8
			c0.2-0.2,0.5-0.3,0.8-0.3h4.6c0.5,0,0.8,0.1,1.1,0.3c0.2,0.2,0.4,0.4,0.4,0.5l10.6,17.1V60.5c0-0.3,0.1-0.6,0.3-0.8
			c0.2-0.2,0.5-0.3,0.8-0.3h5.2c0.3,0,0.6,0.1,0.8,0.3c0.2,0.2,0.3,0.5,0.3,0.8v28.9c0,0.3-0.1,0.6-0.3,0.8
			c-0.2,0.2-0.5,0.3-0.8,0.3h-4.7c-0.5,0-0.8-0.1-1-0.4c-0.2-0.2-0.4-0.4-0.4-0.5l-10.6-16.5v16.2c0,0.3-0.1,0.6-0.3,0.8
			c-0.2,0.2-0.5,0.3-0.8,0.3H358.1z"/>
		<path class="st1" d="M400.8,91c-2.7,0-5.1-0.4-7.1-1.4s-3.5-2.3-4.6-4.1c-1.1-1.8-1.7-4-1.8-6.7c0-1.2,0-2.5,0-3.9
			c0-1.4,0-2.7,0-4c0.1-2.6,0.7-4.8,1.8-6.6c1.1-1.8,2.6-3.2,4.6-4.1c2-0.9,4.3-1.4,7-1.4c1.9,0,3.7,0.2,5.3,0.7
			c1.6,0.5,3,1.2,4.3,2.1c1.2,0.9,2.2,2,2.8,3.4c0.7,1.3,1,2.8,1.1,4.5c0,0.3,0,0.5-0.2,0.7c-0.2,0.2-0.4,0.3-0.7,0.3h-5.9
			c-0.4,0-0.7-0.1-0.9-0.2c-0.2-0.2-0.4-0.5-0.5-0.9c-0.4-1.6-1.1-2.6-2-3.2c-0.9-0.6-2-0.9-3.4-0.9c-1.6,0-2.8,0.4-3.8,1.4
			c-0.9,0.9-1.4,2.4-1.5,4.5c-0.1,2.4-0.1,4.9,0,7.5c0.1,2.1,0.6,3.6,1.5,4.5c0.9,0.9,2.2,1.4,3.8,1.4c1.3,0,2.5-0.3,3.4-0.9
			c0.9-0.6,1.6-1.6,2-3.2c0.1-0.4,0.3-0.8,0.5-0.9c0.2-0.2,0.5-0.2,0.9-0.2h5.9c0.3,0,0.5,0.1,0.7,0.3c0.2,0.2,0.3,0.4,0.2,0.7
			c0,1.6-0.4,3.2-1.1,4.5c-0.7,1.3-1.6,2.4-2.8,3.4c-1.2,0.9-2.6,1.6-4.3,2.1C404.5,90.8,402.8,91,400.8,91z"/>
		<path class="st1" d="M420,90.6c-0.3,0-0.6-0.1-0.8-0.3c-0.2-0.2-0.3-0.5-0.3-0.8v-29c0-0.3,0.1-0.6,0.3-0.8
			c0.2-0.2,0.5-0.3,0.8-0.3h20.3c0.3,0,0.6,0.1,0.8,0.3c0.2,0.2,0.3,0.5,0.3,0.8v4.2c0,0.3-0.1,0.6-0.3,0.8
			c-0.2,0.2-0.5,0.3-0.8,0.3h-13.9v6h12.9c0.3,0,0.6,0.1,0.8,0.3c0.2,0.2,0.3,0.5,0.3,0.8v3.9c0,0.3-0.1,0.6-0.3,0.8
			c-0.2,0.2-0.5,0.3-0.8,0.3h-12.9v6.2h14.2c0.3,0,0.6,0.1,0.8,0.3c0.2,0.2,0.3,0.5,0.3,0.8v4.2c0,0.3-0.1,0.6-0.3,0.8
			c-0.2,0.2-0.5,0.3-0.8,0.3L420,90.6L420,90.6z"/>
		<path class="st1" d="M447.8,90.6c-0.3,0-0.6-0.1-0.8-0.3c-0.2-0.2-0.3-0.5-0.3-0.8v-29c0-0.3,0.1-0.6,0.3-0.8
			c0.2-0.2,0.5-0.3,0.8-0.3h11.8c3.8,0,6.7,0.9,8.9,2.6c2.2,1.8,3.2,4.3,3.2,7.5c0,2.1-0.5,3.9-1.5,5.3c-1,1.4-2.3,2.6-3.9,3.3
			l6,10.9c0.1,0.2,0.1,0.4,0.1,0.5c0,0.2-0.1,0.4-0.3,0.6c-0.2,0.2-0.4,0.3-0.6,0.3h-5.8c-0.6,0-1-0.2-1.2-0.4
			c-0.3-0.3-0.4-0.6-0.6-0.8l-5-9.8h-4.5v9.9c0,0.3-0.1,0.6-0.3,0.8c-0.2,0.2-0.5,0.3-0.8,0.3L447.8,90.6L447.8,90.6z M454.6,73.2h5
			c1.4,0,2.4-0.4,3.1-1c0.7-0.7,1-1.6,1-2.8c0-1.2-0.3-2.1-1-2.8c-0.6-0.7-1.7-1.1-3.1-1.1h-5L454.6,73.2L454.6,73.2z"/>
		<path class="st1" d="M484.3,90.6c-0.3,0-0.6-0.1-0.8-0.3c-0.2-0.2-0.3-0.5-0.3-0.8V66.4h-7.7c-0.3,0-0.6-0.1-0.8-0.3
			c-0.2-0.2-0.3-0.5-0.3-0.8v-4.8c0-0.3,0.1-0.6,0.3-0.8s0.5-0.3,0.8-0.3h23.4c0.3,0,0.6,0.1,0.8,0.3c0.2,0.2,0.3,0.5,0.3,0.8v4.8
			c0,0.3-0.1,0.6-0.3,0.8c-0.2,0.2-0.5,0.3-0.8,0.3h-7.7v23.1c0,0.3-0.1,0.6-0.3,0.8c-0.2,0.2-0.5,0.3-0.8,0.3H484.3z"/>
	</g>
	<g>
		<path class="st2" d="M175.5,104.3c0,0.3-0.1,0.6-0.2,0.9c0,0.2-0.1,0.4-0.2,0.6c-0.5,0.9-1.1,1.7-1.8,2.5c-0.4,0.4-1,0.9-1.4,1.4
			c-0.2,0.3-0.5,0.5-0.8,0.7c-0.6,0.4-1.2,0.8-1.7,1.3c-0.1,0.1-0.2,0.2-0.4,0.2c-0.3,0.2-0.5,0.3-0.8,0.5c-0.2,0.2-0.4,0.4-0.7,0.6
			c-0.1,0.1-0.2,0.2-0.3,0.2c-0.3,0.1-0.6,0.2-0.9,0.3c-0.3,0-0.5,0.2-0.8,0.2c-0.2,0-0.3,0.2-0.5,0.2c-0.1,0.1-0.2,0.2-0.3,0.2
			c0,0,0,0,0,0v0c0,0,0,0,0,0c-0.1,0-0.2,0-0.2,0.1c0,0,0.1,0,0.2,0.1c-0.2,0.2-0.4,0.3-0.7,0.3c-0.2,0-0.3,0.2-0.3,0.3
			c0,0.2-0.1,0.4-0.1,0.6c0,0.8-0.1,1.4-0.2,2.2c0,0.2,0,0.3,0,0.5c-0.2,0.8-0.2,1.5-0.3,2.2c0,0.6-0.1,1.2-0.1,1.8c0,0,0,0.1,0,0.1
			c-0.2,0.8-0.2,1.7-0.3,2.5c0,0.1,0,0.2-0.1,0.4c-0.1,0.1-0.1,0.2-0.1,0.4c0,0.4,0,0.7,0,1.1c0,0.2,0,0.4-0.1,0.7
			c-0.1,0.2-0.3,0.3-0.6,0.2c0,0-0.1-0.1-0.1-0.2c0,0,0-0.2,0-0.2c0.1-0.2,0.2-0.5,0.2-0.7c0-0.4,0-0.9-0.1-1.3c0-0.1,0-0.3,0-0.4
			c-0.2-0.4-0.2-0.8-0.2-1.2c0-0.3,0-0.7,0-1c0-0.3,0-0.6,0-1c0-0.3,0-0.7,0-1c0-0.2,0-0.4,0-0.6c0-1.2,0-2.4,0.1-3.5
			c0-0.1,0-0.2,0-0.3c0-0.1-0.2-0.2-0.3-0.1c-0.2,0-0.4,0.1-0.6,0.2c-0.2,0.2-0.5,0.2-0.8,0.3c-0.2,0-0.4,0-0.5,0
			c-0.1,0-0.2-0.1-0.3,0c-0.2,0.1-0.5,0.2-0.8,0.3c-0.3,0.1-0.6,0.1-0.8-0.1c0,0-0.1-0.1-0.2-0.2c0,0,0-0.1,0-0.1
			c0,0,0.1-0.1,0.2-0.1c0.2,0,0.3,0,0.5,0c0,0,0.1,0,0.1,0.1c0.1,0.1,0.2,0.1,0.4,0c0.4-0.2,0.7-0.4,1.1-0.5
			c0.6-0.3,1.2-0.6,1.8-0.8c0.2,0,0.2-0.2,0.3-0.3c0.1-0.5,0.1-1,0.2-1.4c0-0.4,0-0.8,0-1.1c0-0.2,0-0.3,0-0.4
			c0-1.8,0.1-3.6,0.2-5.4c0-0.6,0.1-1.2,0.1-1.9c0-0.1,0-0.2,0-0.2c0-0.8,0-1.6,0-2.4c0-0.4,0.1-0.8,0.1-1.1c0-0.1,0.2-0.3,0.3-0.4
			c0.4-0.1,0.9-0.2,1.3-0.2c0.4,0,0.6,0.2,0.8,0.5c0,0,0,0,0,0.1c0.2,0.7,0.2,0.7,0.2,1.6c-0.1,0.4-0.2,0.8-0.1,1.2
			c0,0.2,0,0.3,0,0.4c-0.2,1.2-0.3,2.3-0.4,3.5c-0.1,1.6-0.2,3.2-0.3,4.9c0,0.2,0,0.3,0,0.5c0,0.2,0.2,0.3,0.3,0.2
			c0.6-0.3,1.2-0.6,1.7-1c0.6-0.4,1.2-0.7,1.8-1.1c0.8-0.4,1.5-0.9,2.2-1.5c0.4-0.4,0.9-0.8,1.4-1.1c0.2,0,0.3-0.2,0.4-0.3
			c0.3-0.2,0.5-0.5,0.8-0.7c0.4-0.4,0.7-0.8,1-1.3c0.1-0.2,0.2-0.4,0.3-0.5c0.4-0.4,0.4-1,0.5-1.4c0.1-0.5,0.1-1,0-1.4
			c-0.2-0.6-0.5-1.1-1-1.4c-0.7-0.5-1.5-0.9-2.4-1.1c-0.4-0.2-1-0.2-1.4-0.4c-0.9-0.2-1.8-0.2-2.7-0.3c-0.1,0-0.3,0-0.4,0
			c-0.2,0-0.4,0.1-0.6,0c-0.2,0-0.3,0-0.5,0c-0.3,0.1-0.6,0.1-1,0.1c-0.4,0-0.8,0.1-1.1,0.2c-0.4,0.2-0.8,0.3-1.2,0.4
			c-0.9,0.2-1.7,0.6-2.5,1c-0.4,0.2-0.8,0.6-1.1,0.9c-0.1,0.1-0.3,0.3-0.4,0.4c-0.2,0.2-0.6,0.2-0.7,0c-0.2-0.3-0.2-0.5-0.1-0.8
			c0.1-0.2,0.2-0.5,0.4-0.6c0.3-0.3,0.8-0.6,1.2-0.8c1-0.5,2-0.9,3.1-1.2c1.6-0.4,3.3-0.6,4.9-0.6c0.3,0,0.6,0,0.8,0
			c1.2,0.2,2.4,0.3,3.5,0.7c1.1,0.4,2.1,0.8,2.8,1.6c0.1,0.1,0.2,0.2,0.2,0.2c0.7,0.3,1,1,1.2,1.6
			C175.6,103.1,175.7,103.7,175.5,104.3z M162.8,119.2c-0.1,0.1-0.1,0.2-0.2,0.4c0,0.1-0.1,0.2-0.2,0.2c-0.1,0-0.1-0.1-0.2-0.2
			c0,0,0-0.1-0.1-0.1c-0.1,0.3-0.1,0.6-0.2,1.1c0-1.3,0-2.6,0-3.8c0-0.2,0-0.4,0-0.7c0-0.1,0-0.2,0-0.2c0,0-0.1,0.1-0.1,0.1
			c0,0.4-0.1,0.9-0.1,1.3c0,0.6-0.1,1.1-0.1,1.7c0,0.6,0,1-0.1,1.5c0,0.4,0,0.8,0,1.1c0,0.4,0.1,1,0,1.4c0,0.2,0,0.3,0.1,0.4
			c0,0,0.1,0.1,0.1,0.1c0,0,0,0,0.1-0.1c0-0.2,0-0.4,0.1-0.6c0.2,0,0,0.3,0.2,0.2c0.2-0.9,0-1.7,0.3-2.6c0-0.1,0.2,0,0.2-0.2
			C162.8,119.8,162.8,119.5,162.8,119.2z M161.9,121.7c0,0.1,0,0.2-0.1,0.3c0-0.3,0-0.6,0.1-1c0,0.2,0,0.2,0,0.3
			C162,121.5,162,121.6,161.9,121.7z M166,112.5c0,0,0.1-0.1,0.1-0.2c-0.1,0-0.2,0-0.3,0.1c-0.6,0.3-1.2,0.6-1.7,0.9
			c-0.1,0-0.1,0-0.2,0.1c0,0,0,0.1,0,0.1c0,0,0.1,0,0.1,0c0,0,0,0,0.1,0C164.7,113.3,165.3,112.9,166,112.5z M164.6,114.3
			c0,0,0-0.1,0-0.2c0,0,0.1,0,0.1,0.1C164.7,114.3,164.7,114.3,164.6,114.3z M166.4,112.1c-0.1,0-0.2,0-0.3,0.2
			C166.2,112.3,166.4,112.2,166.4,112.1z M166.5,112.1c0.1,0,0.2-0.1,0.3-0.2C166.6,111.9,166.6,112,166.5,112.1z M169.8,110.4
			c0,0,0-0.1,0.1-0.2c-0.1,0-0.2,0-0.2,0.1c-0.3,0.2-0.6,0.4-0.9,0.6l0,0c0,0,0,0.1,0,0.1c0,0,0,0,0,0
			C169.1,110.9,169.5,110.7,169.8,110.4z M169.4,111.1c-0.2,0-0.4,0.2-0.5,0.3C169.2,111.4,169.3,111.2,169.4,111.1z M170.3,109.9
			c-0.2,0-0.3,0.2-0.4,0.3C170.1,110.2,170.2,110.1,170.3,109.9z M173.3,107.4c-0.1,0-0.1,0-0.2,0c-0.3,0.1-0.5,0.2-0.7,0.5
			c-0.2,0.3-0.4,0.5-0.8,0.7c-0.3,0.2-0.6,0.5-0.8,0.8c0.2,0,0.3,0,0.4-0.2c0.2-0.2,0.4-0.3,0.6-0.5c0.3-0.3,0.6-0.6,1-0.8
			C173.1,107.9,173.3,107.6,173.3,107.4z M174.1,106.4C174.1,106.3,174.1,106.3,174.1,106.4C174.1,106.3,174.1,106.3,174.1,106.4
			c-0.3,0.1-0.4,0.2-0.6,0.4c0,0.2-0.2,0.4-0.2,0.5c0.1,0,0.2,0,0.2-0.1C173.8,106.9,174,106.7,174.1,106.4z"/>
		<path class="st2" d="M179.9,116.1c0,0.1,0,0.2-0.1,0.4c-0.4,0.4-0.7,1-1.2,1.4c-0.2,0.1-0.2,0.3-0.4,0.4c-0.1,0.2-0.2,0.4-0.3,0.5
			c-0.2,0.4-0.4,0.7-0.9,0.9c-0.1,0-0.2,0.2-0.3,0.2c-0.1,0.1-0.2,0.2-0.4,0.4c-0.4,0.4-0.9,0.7-1.3,1.1c0,0,0,0.1,0,0.1
			c0,0,0,0,0.1,0c0,0,0,0,0.1,0c1.2-0.6,2.2-1.2,3.1-2.2c0.4-0.5,1-1,1.4-1.4c0,0,0.1-0.1,0.2-0.1c0,0.1,0,0.2-0.1,0.2
			c-0.2,0.3-0.4,0.6-0.7,0.9c-0.6,0.8-1.3,1.4-2,2.1c0,0-0.2,0.1-0.2,0.2c-0.5,0.3-1,0.8-1.6,1c-0.1,0-0.2,0.2-0.3,0.2
			c-0.4,0.2-0.8,0.5-1.2,0.7c-0.4,0.2-1,0.4-1.4,0.3c-0.1,0-0.2-0.1-0.4,0c-0.4,0-0.8-0.1-1.1-0.5c0-0.1-0.1-0.1-0.2-0.2
			c-0.5-0.4-0.8-1-0.8-1.6c-0.1-0.7,0-1.5,0.2-2.2c0.2-0.6,0.3-1.3,0.6-1.9c0-0.1,0.2-0.1,0.2,0c0,0,0,0.1,0.1,0.1c0,0,0,0.1,0,0.2
			c0,0.1-0.1,0.2-0.1,0.4c-0.2,0.6-0.4,1.2-0.4,1.9c0,0,0,0,0,0c0.2-0.3,0.3-0.6,0.5-1c0.1-0.1,0.1-0.3,0.1-0.5h0v0c0,0,0,0,0-0.1
			c0,0,0,0,0,0c0,0,0,0,0,0l0,0c0-0.2,0.1-0.5,0.2-0.7c0.2-0.4,0.3-0.6,0.4-1h0V116l0,0c0.1-0.1,0.2-0.2,0.2-0.3
			c0.2-0.2,0.3-0.4,0.4-0.6c0,0,0-0.1,0-0.1c0,0-0.1,0-0.2,0c-0.1,0-0.2,0-0.3,0.1c0-0.1,0-0.2,0.1-0.3c0.4-0.8,1.1-1.2,2-1.4
			c0.2,0,0.3,0,0.5,0c0.2,0.1,0.4,0.1,0.6,0.2c0.6,0.3,0.9,0.8,1,1.5c0,0.2,0,0.4-0.1,0.6c-0.3,0.8-0.8,1.5-1.2,2.2
			c-0.1,0.1-0.2,0.3-0.4,0.4c-0.2,0.2-0.4,0.3-0.5,0.4c-0.5,0.5-0.4,0.4-1,0.6c-0.4,0.1-0.8,0.1-1.1,0c-0.1,0-0.3,0.1-0.3,0.2
			c-0.2,0.8-0.2,1.6,0,2.4c0,0,0,0.1,0,0.2c0.1,0.1,0.2,0.2,0.4,0.2c0.2,0,0.4,0,0.7,0c0.4-0.1,0.8-0.2,1.2-0.4
			c1.2-0.7,2.4-1.5,3.4-2.5c0.5-0.4,1-1,1.4-1.4c0.2-0.2,0.4-0.4,0.7-0.7c0.2-0.2,0.3-0.4,0.4-0.6
			C179.6,116.3,179.7,116.2,179.9,116.1z M170.2,119.5c0,0,0-0.1,0-0.1C170.2,119.4,170.1,119.5,170.2,119.5
			C170.1,119.6,170.1,119.6,170.2,119.5C170.2,119.6,170.2,119.6,170.2,119.5z M171,115.9L171,115.9L171,115.9
			c0-0.1,0.1-0.1,0.2-0.2l0,0c0,0,0,0,0,0C171.1,115.8,171.1,115.8,171,115.9z M171.7,115L171.7,115C171.6,115,171.6,115,171.7,115
			L171.7,115C171.6,115,171.6,115,171.7,115z M171.8,117.9c0,0,0.1,0,0.2,0c0.3-0.2,0.7-0.4,0.9-0.8c0.3-0.4,0.6-0.7,0.9-1.1
			c0.3-0.4,0.5-0.8,0.4-1.3c0-0.1,0-0.1,0-0.2c0-0.2-0.2-0.2-0.3-0.2c-0.3,0.2-0.5,0.4-0.8,0.7c-0.3,0.3-0.6,0.7-0.8,1.1
			c-0.1,0.4-0.3,0.6-0.5,1c0,0.1-0.1,0.3-0.2,0.5C171.7,117.8,171.8,117.9,171.8,117.9z M180.1,115.9
			C180.1,115.9,180.1,115.9,180.1,115.9c0,0.1-0.1,0.1-0.2,0.2v0C179.9,116,180,115.9,180.1,115.9z M179.9,117.7L179.9,117.7
			L179.9,117.7C179.9,117.7,179.9,117.7,179.9,117.7z M179.9,117.7c0,0,0.1-0.1,0.1-0.1C180,117.6,180,117.7,179.9,117.7z
			 M180.1,117.5L180.1,117.5C180.1,117.5,180.1,117.5,180.1,117.5C180.1,117.5,180.1,117.5,180.1,117.5
			C180.1,117.5,180.1,117.5,180.1,117.5z M180.6,115.3c-0.1,0.2-0.2,0.5-0.5,0.5C180.2,115.6,180.3,115.4,180.6,115.3L180.6,115.3z
			 M180.1,117.5c0,0,0.1-0.1,0.1-0.1C180.2,117.4,180.1,117.4,180.1,117.5z M180.3,117.4C180.2,117.4,180.2,117.4,180.3,117.4
			C180.2,117.4,180.2,117.4,180.3,117.4C180.2,117.3,180.3,117.3,180.3,117.4L180.3,117.4z M181.7,114.6
			C181.7,114.6,181.7,114.6,181.7,114.6S181.7,114.6,181.7,114.6L181.7,114.6L181.7,114.6z M181.7,114.6c0-0.1,0-0.2,0.1-0.3
			c0,0,0.1,0,0.1,0l0,0C182,114.4,181.9,114.5,181.7,114.6z"/>
		<path class="st2" d="M194.2,113.5c0,0.2-0.1,0.3-0.2,0.4c-0.2,0.2-0.5,0.5-0.8,0.8c-0.8,0.6-1.4,1.3-2.2,1.9
			c-0.4,0.4-0.8,0.8-1.2,1.2c-0.3,0.4-0.6,0.7-1,1c-0.1,0.1-0.2,0.3-0.4,0.5c0,0,0,0,0,0.1c0,0,0.1,0,0.1,0c0.2-0.2,0.4-0.3,0.7-0.4
			c0.1-0.1,0.2-0.2,0.3-0.2c0,0.1-0.1,0.2-0.2,0.3c0,0.1,0,0.2,0,0.2c0,0,0,0.1,0,0.1c-0.2,0.4-0.5,0.7-0.9,1
			c-0.7,0.6-1.4,1-2.1,1.5c-0.3,0.2-0.6,0.2-0.9,0.1c-0.2-0.1-0.4-0.3-0.6-0.4c-0.1-0.1-0.2-0.2-0.2-0.2c-0.4-0.4-0.7-1.1-0.8-1.7
			c0-0.3-0.1-0.6-0.1-0.9c0-0.1-0.2-0.2-0.2-0.2c-0.6,0.5-1.2,0.8-1.7,1.4c-0.5,0.5-1,1-1.5,1.4c-0.4,0.2-0.7,0.6-1.1,0.8
			c-0.2,0.1-0.4,0.2-0.5,0.3c-0.2,0.1-0.4,0.1-0.7,0l-0.6-0.3c-0.2-0.1-0.3-0.3-0.4-0.5c0-0.2-0.1-0.4-0.2-0.5
			c0-0.6,0.1-1.1,0.4-1.6c0.3-0.8,0.8-1.5,1.3-2.1c0.2-0.4,0.6-0.8,0.9-1.1c0.5-0.5,1-1.1,1.6-1.6c0.4-0.4,0.9-0.8,1.4-1
			c0.2-0.2,0.4-0.2,0.6-0.3c0.2,0,0.4-0.1,0.5-0.3c0.1-0.1,0.2-0.2,0.3-0.2c0.4,0,0.9,0,1.3,0.1c0.4,0.1,0.7,0.4,1,0.8
			c0.1,0.2,0.2,0.4,0,0.6c-0.1,0.1-0.1,0.2-0.2,0.3c0,0.2-0.1,0.3-0.2,0.4l-0.4,0.3c-0.1,0.1-0.2,0.2-0.3,0.1
			c-0.2-0.1-0.3,0-0.5-0.1c0,0,0-0.1-0.1-0.1l0,0l0.4-0.5c0.1-0.2,0.2-0.4,0.1-0.6c-0.1-0.2-0.3-0.3-0.5-0.2c-0.1,0-0.2,0.1-0.2,0.2
			c-0.2,0.2-0.5,0.4-0.8,0.5c-0.5,0.3-1,0.7-1.4,1.1c-0.5,0.4-0.9,1-1.4,1.4c-0.1,0.1-0.2,0.3-0.3,0.5c-0.2,0.3-0.4,0.6-0.7,0.8
			c-0.4,0.6-0.8,1.2-1.1,1.9v0.2c0,0,0.1,0.1,0.2,0.1l0.1-0.1c0.2-0.2,0.5-0.2,0.8-0.4l1.7-1.3l2-1.5c0.2-0.2,0.4-0.3,0.6-0.3
			c0.2,0,0.3,0,0.4,0.1c0.2,0.2,0.4,0.4,0.7,0.5c0.1,0,0.2,0.1,0.2,0.2c0.1,0.1,0.1,0.2,0.2,0.4c0,0.1,0,0.3,0,0.4
			c-0.1,0.5,0,1.3,0.1,1.8c0,0.1,0,0.2,0.1,0.2c0,0,0.1,0.1,0.2,0.1c0.1,0,0.2,0,0.2-0.1c1.1-0.7,2.1-1.5,3-2.4
			c0.7-0.7,1.4-1.4,2.2-2c0.9-0.8,1.8-1.6,2.7-2.4C194,113.6,194.1,113.6,194.2,113.5z M177.5,119.9L177.5,119.9
			C177.5,120,177.5,120,177.5,119.9C177.5,120,177.5,120,177.5,119.9z M180.9,115.6c0.2-0.2,0.4-0.4,0.6-0.6c0,0,0-0.1,0.1-0.2
			c0,0-0.1,0-0.1,0c-0.4,0.3-0.9,0.6-1.3,1.1l-0.4,0.5l-1.4,1.8c-0.3,0.4-0.5,1-0.8,1.5v0.2c0.1,0,0.2-0.1,0.2-0.2l0.6-0.9
			C179.1,117.6,179.9,116.6,180.9,115.6z M183.6,118c0,0-0.1,0-0.1,0v0c0,0-0.1,0.1-0.2,0.1c-0.3,0-0.5,0.1-0.8,0.3l-0.3,0.3
			c-0.1,0.1-0.2,0.2-0.2,0.4c0,0.1-0.1,0.2-0.2,0.2c-0.2,0.1-0.3,0.2-0.4,0.4l0.4-0.1c0.6-0.3,1.2-0.7,1.7-1.2c0,0,0.1-0.1,0.1-0.1
			C183.8,118.2,183.7,118.1,183.6,118z M181.6,114.8c0.1,0,0.1,0,0.2-0.2C181.8,114.7,181.7,114.7,181.6,114.8z M189.7,118.8
			C189.7,118.8,189.7,118.8,189.7,118.8c0,0,0.1-0.1,0.1-0.1C189.8,118.8,189.7,118.8,189.7,118.8
			C189.7,118.8,189.7,118.8,189.7,118.8z M189.8,118.7C189.9,118.7,189.9,118.6,189.8,118.7c0.1-0.1,0.1,0,0.1-0.1
			C189.9,118.6,189.9,118.6,189.8,118.7C189.9,118.6,189.9,118.7,189.8,118.7z M190,118.5C190.1,118.4,190.1,118.4,190,118.5
			C190.1,118.4,190.1,118.4,190,118.5C190,118.5,190,118.5,190,118.5C190,118.5,190,118.5,190,118.5z M190.5,118
			c0,0-0.1,0.1-0.2,0.2c0,0-0.1,0.1-0.2,0.2c0,0,0,0-0.1,0c0,0,0,0,0.1-0.1c0,0,0.1-0.1,0.1-0.2C190.4,118,190.5,118,190.5,118z
			 M190.7,117.8c0,0,0.1-0.1,0.2-0.2C190.8,117.7,190.8,117.7,190.7,117.8c0,0.1-0.1,0.2-0.2,0.2
			C190.6,117.9,190.6,117.8,190.7,117.8z M191,117.4C191.1,117.4,191.1,117.4,191,117.4C191.1,117.4,191.1,117.4,191,117.4
			c0,0.1,0,0.1-0.1,0.1C190.9,117.6,191,117.5,191,117.4z M194.3,113.5C194.3,113.5,194.2,113.5,194.3,113.5
			C194.2,113.4,194.2,113.3,194.3,113.5C194.3,113.4,194.3,113.5,194.3,113.5z"/>
		<path class="st2" d="M203.3,112.9c-0.3,0.4-0.5,0.7-0.8,1c-0.1,0.1-0.2,0.3-0.3,0.4c-0.3,0.6-0.8,0.9-1.2,1.4
			c-0.1,0.1-0.2,0.3-0.4,0.4c-0.1,0.1-0.2,0.3-0.4,0.4c-0.2,0-0.4,0.2-0.4,0.4c0,0.2-0.1,0.2-0.2,0.4c-0.2,0.2-0.4,0.3-0.7,0.5
			c-0.5,0.2-0.9,0.6-1.2,1c-0.1,0.2-0.3,0.3-0.4,0.4c-0.4,0.3-0.9,0.6-1.4,1c-0.1,0.1-0.1,0-0.2,0.2c-0.3,0.2-0.7,0.3-1,0.3
			c-0.4,0-0.9,0.1-1.2-0.2c-0.4-0.1-0.8-0.3-1.2-0.6c-0.2-0.2-0.4-0.3-0.4-0.6c-0.3-0.8-0.5-1.6-0.4-2.4c0-0.3,0.1-0.6,0.2-0.8
			c0.4-1.1,1-2,1.8-2.8c0.2-0.2,0.4-0.4,0.8-0.4c0.2,0,0.3-0.2,0.5-0.2c0.4-0.2,0.9-0.4,1.4-0.4c0.3,0,0.6,0,0.9-0.1
			c0.1-0.1,0.2,0,0.4,0c0.4,0.2,0.7,0.5,0.8,0.9c0.1,0.3,0.2,0.6,0.1,0.9c0,0.5-0.2,1-0.4,1.4c-0.1,0.3-0.3,0.5-0.5,0.7
			c-0.1,0-0.2,0.2-0.3,0.2c-0.2,0.1-0.3,0.2-0.4,0.3c-0.2,0-0.4,0-0.6,0c0,0-0.1-0.2-0.1-0.2c0-0.1,0.1-0.2,0.1-0.4
			c0.2-0.8,0.4-1.5,0.4-2.3c0-0.2-0.1-0.3-0.2-0.4c-0.1,0-0.3,0-0.4,0s-0.3,0.2-0.4,0.3c-0.2,0.2-0.3,0.4-0.4,0.6
			c-0.2,0.2-0.4,0.3-0.6,0.5c-0.6,0.8-1.2,1.6-1.4,2.6c-0.2,0.6,0,1.2,0.1,1.8c0,0.1,0.1,0.2,0.2,0.3c0.2,0.2,0.4,0.4,0.8,0.3
			c0.5,0,1-0.2,1.4-0.4c0.2,0,0.3-0.2,0.4-0.2c1-0.5,1.8-1,2.7-1.7c0.2-0.2,0.4-0.4,0.8-0.5c0.5-0.3,1-0.8,1.4-1.2
			c0.7-0.6,1.3-1.4,1.9-2c0.3-0.4,0.6-0.8,0.9-1.2c0,0,0.1-0.1,0.1,0c0,0,0,0.1,0,0.1C203.4,112.7,203.4,112.8,203.3,112.9z
			 M200.2,116.5L200.2,116.5C200.3,116.5,200.3,116.5,200.2,116.5C200.3,116.5,200.3,116.5,200.2,116.5z M203.7,113.2
			c-0.1,0.2-0.3,0.4-0.5,0.6c0,0-0.1,0-0.1,0c0,0,0,0,0-0.1c0.1-0.1,0.2-0.3,0.4-0.5c0.1-0.1,0.1-0.2,0.2-0.2
			C203.7,113.1,203.7,113.2,203.7,113.2z"/>
		<path class="st2" d="M211.9,113.3c0,0.1,0,0.2-0.1,0.4c-0.4,0.4-0.7,1-1.2,1.4c-0.2,0.1-0.2,0.3-0.4,0.4c-0.1,0.2-0.2,0.4-0.3,0.5
			c-0.2,0.4-0.4,0.7-0.9,0.9c-0.1,0-0.2,0.2-0.3,0.2c-0.1,0.1-0.2,0.2-0.4,0.4c-0.4,0.4-0.9,0.7-1.3,1.1c0,0,0,0.1,0,0.1
			c0,0,0,0,0.1,0c0,0,0,0,0.1,0c1.2-0.6,2.2-1.2,3.1-2.2c0.4-0.5,1-1,1.4-1.4c0,0,0.1-0.1,0.2-0.1c0,0.1,0,0.2-0.1,0.2
			c-0.2,0.3-0.4,0.6-0.7,0.9c-0.6,0.8-1.3,1.4-2,2.1c0,0-0.2,0.1-0.2,0.2c-0.5,0.3-1,0.8-1.6,1c-0.1,0-0.2,0.2-0.3,0.2
			c-0.4,0.2-0.8,0.5-1.2,0.7c-0.4,0.2-1,0.4-1.4,0.3c-0.1,0-0.2-0.1-0.4,0c-0.4,0-0.8-0.1-1.1-0.5c0-0.1-0.1-0.1-0.2-0.2
			c-0.5-0.4-0.8-1-0.8-1.6c-0.1-0.7,0-1.5,0.2-2.2c0.2-0.6,0.3-1.3,0.6-1.9c0-0.1,0.2-0.1,0.2,0c0,0,0,0.1,0.1,0.1c0,0,0,0.1,0,0.2
			c0,0.1-0.1,0.2-0.1,0.4c-0.2,0.6-0.4,1.2-0.4,1.9c0,0,0,0,0,0c0.2-0.3,0.3-0.6,0.5-1c0.1-0.1,0.1-0.3,0.1-0.5h0v0c0,0,0,0,0-0.1
			c0,0,0,0,0,0c0,0,0,0,0,0l0,0c0-0.2,0.1-0.5,0.2-0.7c0.2-0.4,0.3-0.6,0.4-1h0v0l0,0c0.1-0.1,0.2-0.2,0.2-0.3
			c0.2-0.2,0.3-0.4,0.4-0.6c0,0,0-0.1,0-0.1c0,0-0.1,0-0.2,0s-0.2,0-0.3,0.1c0-0.1,0-0.2,0.1-0.3c0.4-0.8,1.1-1.2,2-1.4
			c0.2,0,0.3,0,0.5,0c0.2,0.1,0.4,0.1,0.6,0.2c0.6,0.3,0.9,0.8,1,1.5c0,0.2,0,0.4-0.1,0.6c-0.3,0.8-0.8,1.5-1.2,2.2
			c-0.1,0.1-0.2,0.3-0.4,0.4c-0.2,0.2-0.4,0.3-0.5,0.4c-0.5,0.5-0.4,0.4-1,0.6c-0.4,0.1-0.8,0.1-1.1,0c-0.1,0-0.3,0.1-0.3,0.2
			c-0.2,0.8-0.2,1.6,0,2.4c0,0,0,0.1,0,0.2c0.1,0.1,0.2,0.2,0.4,0.2c0.2,0,0.4,0,0.7,0c0.4-0.1,0.8-0.2,1.2-0.4
			c1.2-0.7,2.4-1.5,3.4-2.5c0.5-0.4,1-1,1.4-1.4c0.2-0.2,0.4-0.4,0.7-0.7c0.2-0.2,0.3-0.4,0.4-0.6
			C211.6,113.5,211.7,113.3,211.9,113.3z M202.2,116.7c0,0,0-0.1,0-0.1C202.2,116.6,202.2,116.7,202.2,116.7
			C202.1,116.8,202.1,116.8,202.2,116.7C202.2,116.8,202.2,116.8,202.2,116.7z M203,113.1L203,113.1L203,113.1
			c0-0.1,0.1-0.1,0.2-0.2l0,0c0,0,0,0,0,0C203.1,113,203.1,113,203,113.1z M203.7,112.2L203.7,112.2
			C203.7,112.2,203.7,112.2,203.7,112.2L203.7,112.2C203.7,112.2,203.7,112.2,203.7,112.2z M203.8,115.1c0,0,0.1,0,0.2,0
			c0.3-0.2,0.7-0.4,0.9-0.8c0.3-0.4,0.6-0.7,0.9-1.1c0.3-0.4,0.5-0.8,0.4-1.3c0-0.1,0-0.1,0-0.2c0-0.2-0.2-0.2-0.3-0.1
			c-0.3,0.2-0.5,0.4-0.8,0.7c-0.3,0.3-0.6,0.7-0.8,1.1c-0.1,0.4-0.3,0.6-0.5,1c0,0.1-0.1,0.3-0.2,0.5
			C203.7,115,203.8,115.1,203.8,115.1z M212.1,113.1C212.1,113.1,212.1,113.1,212.1,113.1c0,0.1-0.1,0.1-0.2,0.2v0
			C211.9,113.2,212,113.1,212.1,113.1z M211.9,114.9L211.9,114.9L211.9,114.9C211.9,114.9,211.9,114.9,211.9,114.9z M211.9,114.9
			c0,0,0.1-0.1,0.1-0.1C212,114.8,212,114.9,211.9,114.9z M212.1,114.7L212.1,114.7C212.1,114.7,212.1,114.7,212.1,114.7
			C212.1,114.7,212.1,114.7,212.1,114.7C212.1,114.7,212.1,114.7,212.1,114.7z M212.6,112.5c-0.1,0.2-0.2,0.5-0.5,0.5
			C212.2,112.8,212.3,112.6,212.6,112.5L212.6,112.5z M212.1,114.7c0,0,0.1-0.1,0.1-0.1C212.2,114.6,212.1,114.6,212.1,114.7z
			 M212.3,114.5C212.3,114.5,212.3,114.6,212.3,114.5C212.3,114.5,212.3,114.5,212.3,114.5C212.3,114.5,212.3,114.5,212.3,114.5
			L212.3,114.5z M213.8,111.8C213.8,111.8,213.8,111.8,213.8,111.8S213.8,111.8,213.8,111.8L213.8,111.8L213.8,111.8z M213.8,111.8
			c0-0.1,0-0.2,0.1-0.3c0,0,0.1,0,0.1,0l0,0C214,111.6,213.9,111.7,213.8,111.8z"/>
		<path class="st2" d="M214.8,121.2c-0.2,0.6-0.6,1-1,1.6c-0.2,0.3-0.5,0.6-0.8,0.9c-0.4,0.5-1,0.7-1.6,0.9c-0.1,0-0.2,0-0.4,0
			c0-0.4,0.2-0.6,0.3-0.9c0.4-0.7,0.8-1.4,1.2-2.1c0.7-1.4,1-2.8,0.7-4.3c0,0,0,0,0-0.2c0.6-0.2,1-0.1,1.5,0.2
			c0.2,0.2,0.4,0.3,0.4,0.7C215.3,119,215.4,120.1,214.8,121.2z"/>
		<path class="st2" d="M243.7,118.7c0,0.2,0,0.4,0,0.7c-0.5,0.2-0.8,0.1-1.2,0c-0.2,0-0.3,0-0.5,0c-0.2,0-0.3,0-0.4,0
			c-0.5,0-1.1,0-1.6,0c-0.9,0-1.7,0-2.6,0c-1.1,0-2.2,0.1-3.3,0.2c-0.9,0.1-1.8,0.2-2.7,0.3c-0.1,0-0.2,0-0.2,0c-0.1,0-0.1,0-0.2,0
			c-0.4,0.1-0.9,0.2-1.3,0.3c0.1,0.2,0.2,0.1,0.4,0.1c1.2-0.4,2.4-0.3,3.6-0.4c0.6,0,1.2-0.1,1.8-0.1c0.6,0,1.2,0,1.8,0
			c0,0,0,0,0.1,0.1c-0.4,0.1-0.7,0.2-1,0.1c-0.8,0-1.6,0.2-2.4,0.3c-0.8,0.1-1.6,0.2-2.4,0.2c-0.5,0-1.1,0.2-1.6,0.3
			c-1.4,0.2-2.7,0.5-4.1,0.7c-0.7,0.1-1.4,0.3-2.1,0.5c-0.3,0.1-0.7,0.2-1,0.3c-0.2,0-0.3,0-0.3-0.1c0-0.1,0-0.2,0-0.2
			c-0.4-0.3-0.1-0.6,0-1c0.1-0.2,0.4-0.3,0.7-0.4c1.2-0.5,2.4-0.7,3.5-1c0.4-0.1,0.8-0.1,1.4-0.2c0-0.1,0-0.3,0-0.4
			c0-0.8-0.1-1.6-0.1-2.4c0-1,0-2.8,0.1-3.7c0-1.2,0-3.4,0.1-4.6c0.1-1.2,0.2-2.5,0.4-3.8c0.1-1.1,0.2-2.1,0.4-3.2
			c0.1-0.4,0.2-0.8,0.3-1.2c0.4-1.2,0.8-2.3,1.3-3.5c0.1-0.2,0.2-0.4,0.2-0.7c0.1-0.4,0.4-0.7,0.7-1c0.9-0.9,1.9-1.4,3-1.7
			c0.6-0.2,1.2-0.1,1.8,0c0.3,0,0.7,0.2,1,0.3c0.7,0.3,1,1,1.3,1.7c0.2,0.5,0.2,1.1,0.3,1.7c0,0.5,0,1,0,1.4
			c-0.1,0.2-0.1,0.3-0.2,0.5c-0.4,0.4-0.5,1-0.6,1.5c-0.1,0.2-0.2,0.5-0.3,0.7c0,0.1,0,0.2-0.1,0.3c-0.2,0.4-1,0.8-1.4,0.6
			c-0.4-0.1-0.4-0.4-0.7-0.6c0,0,0-0.1,0-0.2c0.1,0.1,0.1,0.2,0.2,0.2c0.5-0.3,0.6-0.9,0.8-1.4c0.1-0.3,0.2-0.6,0.2-0.9
			c0.1-0.4,0.2-0.8,0.2-1.3c0-0.8,0.1-1.7-0.3-2.4c-0.3-0.7-0.9-1.1-1.6-1.3c-0.4,0-0.8,0.1-1,0.3c-0.5,0.4-1,1-1.4,1.4
			c-0.3,0.3-0.5,0.7-0.7,1.1c-0.2,0.6-0.4,1.1-0.7,1.6c0,0-0.1,0.1-0.1,0.2c0,0.6-0.2,1.1-0.4,1.7c-0.1,0.5-0.2,1-0.3,1.5
			c-0.1,0.4-0.2,0.9-0.3,1.4c-0.1,0.3-0.1,0.7-0.1,1c0,0.1,0.1,0.3-0.1,0.4c-0.2-0.6,0-1.2,0.1-1.7c0-0.6,0.1-1.2,0.2-1.8
			c0.1-0.6,0.3-1.2,0.4-1.7c0.2-0.6,0.4-1.2,0.6-1.8c-0.3,0.3-0.4,0.6-0.5,0.9c0,0.3-0.2,0.6-0.3,0.8c-0.4,0.6-0.5,1.2-0.7,1.9
			c-0.1,0.5-0.2,1-0.3,1.6c-0.1,0.2-0.1,0.5-0.1,0.7c-0.1,0.5-0.2,1-0.3,1.6c-0.1-0.1-0.2-0.1-0.3-0.2c0,0.1-0.1,0.2-0.1,0.3
			c0.1,0.3,0.1,0.6,0,0.9c0,0,0,0,0.1,0.1c0.1,0,0.2-0.1,0.2-0.1c0,0,0.1,0.1,0.1,0.1c0,0,0,0.1,0,0.2c-0.1,0.6-0.2,1.1-0.2,1.6
			c0,0.2,0.1,0.4-0.2,0.7c0-0.1,0-0.2,0-0.2c0-0.4,0-0.8,0.1-1.2c0.1-0.2,0-0.3,0-0.5c-0.2,0.2-0.2,0.3-0.2,0.4c0,0.4,0,0.9,0,1.3
			c0,0.7-0.1,1.3-0.2,2c0,0.2,0,0.5,0.1,0.8c0.2-0.4,0-0.8,0.2-1.2c0.1,0.1,0.2,0.2,0.1,0.4c0,0.3,0,0.6,0,0.9c0,0.1,0,0.2,0.1,0.3
			c0.1-0.2,0.2-0.4,0.2-0.5c0,0,0.1,0,0.1,0c0,0.5,0,1.8,0,2.3c0,0,0,0.1,0,0.2c0,0.6,0,2,0,2.5c0,0.2,0,0.5,0,0.8
			c0,0.2,0,0.3,0.1,0.4c0.1,0.3,0,0.6,0,1c0,0.3,0,0.6-0.1,1c0.2,0,0.4,0,0.6,0c1.3-0.2,2.6-0.3,4-0.5c0.2-0.1,0.5,0,0.8-0.1
			c1,0,2.1-0.1,3.2-0.1c0.5,0,1,0,1.5,0c1.1,0,2.1,0,3.1,0.2c0.4,0,0.8,0,1.2,0.1C243.5,118.6,243.6,118.7,243.7,118.7z M228.2,116
			c0-1,0-3.6,0.1-4.5c0,0-0.1,0-0.1,0C228.2,112.4,228,115,228.2,116C228.1,116,228.2,116,228.2,116z M228.6,115.6
			c0-0.4,0.1-1.6,0-2c0-0.3,0.2-1.6,0-1.9C228.3,112.5,228.3,115.3,228.6,115.6z M228.5,108.9c0.1,0.2,0.1,0.5,0,0.8
			C228.3,109.4,228.5,109.1,228.5,108.9z M228.5,117.3c0.1-0.5,0.2-1,0-1.4C228.4,116.4,228.5,116.9,228.5,117.3z M228.5,117.7
			c0,0.3,0,0.6,0.1,1C228.8,118.2,228.7,117.9,228.5,117.7z M228.6,104.5C228.6,104.5,228.6,104.5,228.6,104.5c0,0,0-0.1,0-0.1
			c0,0,0,0,0,0S228.6,104.4,228.6,104.5z M228.8,103.9C228.8,103.9,228.8,103.9,228.8,103.9C228.8,103.9,228.8,103.8,228.8,103.9
			c0.1-0.1,0.1-0.2,0.1-0.2c0,0,0,0,0,0C228.8,103.8,228.8,103.8,228.8,103.9z M228.8,105.2C228.8,105.2,228.9,105.2,228.8,105.2
			c0,0.1,0,0.1,0,0.2h0C228.8,105.4,228.8,105.3,228.8,105.2z M228.9,103.2C228.9,103.3,228.9,103.3,228.9,103.2c0,0.1,0.1,0,0.1,0
			C229,103.2,228.9,103.2,228.9,103.2C228.9,103.2,228.8,103.2,228.9,103.2z M229,110.5c0,0.1,0,0.2,0,0.2c0,0-0.1,0-0.1-0.1
			C228.9,110.6,229,110.5,229,110.5z M229.1,101.7L229.1,101.7c0,0,0-0.1,0-0.1C229.1,101.6,229.1,101.7,229.1,101.7z M229.5,106.8
			c-0.1,0.3,0,0.6-0.2,1c-0.1-0.4,0-1,0.1-1.3c0,0,0,0.1,0,0.1C229.5,106.6,229.6,106.7,229.5,106.8z M229.5,105.9
			c-0.1-0.3,0-0.6,0-0.9c0,0,0.1,0,0.1,0C229.5,105.3,229.5,105.6,229.5,105.9z M229.5,100.2C229.5,100.2,229.5,100.2,229.5,100.2
			C229.5,100.2,229.5,100.2,229.5,100.2z M229.6,99.9c0-0.2,0.1-0.4,0.2-0.5c0,0-0.1,0-0.1,0C229.6,99.5,229.4,99.7,229.6,99.9z
			 M229.8,99C229.8,99,229.8,99,229.8,99L229.8,99C229.8,99,229.8,99,229.8,99z M231.4,96.8C231.5,96.8,231.5,96.9,231.4,96.8
			C231.5,96.8,231.5,96.8,231.4,96.8C231.5,96.8,231.5,96.8,231.4,96.8C231.5,96.7,231.5,96.8,231.4,96.8z M236.5,119
			C236.5,119,236.5,119,236.5,119c-0.1-0.1-0.1-0.1-0.2-0.1c0,0,0,0,0,0.1C236.4,119,236.5,119,236.5,119z M237.8,119
			c0,0-0.1,0-0.2,0C237.7,119,237.8,119,237.8,119z M239.7,119C239.6,119,239.6,119,239.7,119C239.6,119,239.6,119,239.7,119z
			 M240.2,119C240.2,119,240.2,119,240.2,119c-0.1,0-0.1,0-0.1,0C240.1,119,240.1,119,240.2,119C240.2,119,240.2,119,240.2,119z
			 M242.1,119.1L242.1,119.1L242.1,119.1L242.1,119.1L242.1,119.1z M242.6,119.7c0.3,0,0.6,0,0.9-0.1v0
			C243.2,119.7,242.9,119.7,242.6,119.7L242.6,119.7z"/>
		<path class="st2" d="M248.3,111.1C248.3,111.1,248.3,111.1,248.3,111.1c0,0.1,0,0.2-0.1,0.4c-0.2,0.4-0.5,0.8-0.9,1.2
			c0,0-0.1,0.1-0.2,0.2c-0.3,0.4-0.7,0.8-1,1c-0.2,0.1-0.3,0.2-0.4,0.4c-0.4,0.4-1,0.8-1.6,1.1c-0.5,0.3-1,0.5-1.6,0.7
			c-0.2,0-1.1,0.2-1.3,0.2c0,0,0,0,0,0.1c-0.5,0.4-1.1,1-1.8,1.4c-0.1,0-0.2,0.1-0.3,0.2c-0.1,0-0.2,0.1-0.4,0.1
			c-0.2-0.1-0.4-0.1-0.6-0.1c-0.4,0-0.8-0.2-0.9-0.4c0-0.1-0.2-0.2-0.3-0.2c-0.2-0.1-0.3-0.3-0.3-0.4c-0.1-0.7,0-1.4,0.2-2.1
			c0.1-0.3,0.2-0.6,0.4-0.9c0.1-0.1,0.1-0.2,0.1-0.3c0-0.3,0.1-0.6,0.1-0.9c-0.1-1.1,0.4-2.1,1.2-3c0.1-0.1,0.2-0.2,0.3-0.3
			c0,0,0.2-0.1,0.2-0.2c0.3,0,0.6-0.1,0.9-0.2c0.6-0.2,1.2-0.2,1.7,0c0.1,0,0.2,0.1,0.2,0.1c0.9,0.4,1.2,1,1.1,1.8
			c0,0.2,0,0.5-0.1,0.8c0,0,0,0-0.1,0c0,0-0.1,0-0.1-0.1c0-0.1,0-0.2,0-0.3c0-0.1,0-0.1,0-0.2c0,0,0,0-0.1,0c0,0-0.1,0-0.1,0.1
			c-0.1,0.6-0.4,1.3-0.5,1.9c0,0.2-0.2,0.5-0.3,0.7c0,0.1-0.1,0.2-0.1,0.4c0.1-0.1,0.2-0.2,0.2-0.2c0.1,0,0.1-0.1,0.2-0.2
			c0,0.2,0,0.4-0.2,0.6c-0.2,0.2-0.4,0.8-0.7,1c-0.4,0.5,0.8,0,1.3-0.2l0.5-0.2c0.8-0.4,1.4-0.9,2.1-1.5c1-0.9,1.9-1.8,2.8-2.8
			c0,0.3-0.2,0.6-0.4,0.9c-0.4,0.4-0.8,0.9-1.2,1.4c-0.1,0.1-0.1,0.2-0.2,0.3v0c0,0,0,0,0,0c0.1,0,0.2,0,0.3-0.2
			c0.5-0.5,1.1-0.9,1.5-1.4C248.1,111.3,248.2,111.2,248.3,111.1z M237.7,112.5C237.7,112.4,237.7,112.4,237.7,112.5
			C237.6,112.4,237.7,112.4,237.7,112.5L237.7,112.5z M237.8,111.8L237.8,111.8L237.8,111.8L237.8,111.8z M238,111.4
			C238,111.4,238,111.3,238,111.4C238,111.3,237.9,111.3,238,111.4z M238,111.3c0,0,0.1,0,0.2,0c0-0.1,0-0.2,0-0.2
			C238.1,111.1,238,111.2,238,111.3z M239.6,116.2c-0.2-0.1-0.3-0.1-0.4-0.2c0,0-0.1-0.1-0.2-0.2c-0.1-0.2-0.3-0.3-0.4-0.4
			c0,0,0-0.1-0.1-0.1c0,0,0,0,0,0c0,0.1-0.1,0.2-0.1,0.3c-0.1,0.3-0.2,0.7-0.2,1.1c0,0,0,0.1,0,0.2c0,0,0.2,0.1,0.2,0.1
			c0.1,0,0.2,0,0.3-0.1C239.1,116.6,239.3,116.4,239.6,116.2z M238.2,111c0.1,0,0.1-0.1,0.1-0.2C238.2,110.8,238.2,110.9,238.2,111z
			 M238.3,110.7c0,0,0.1,0,0.2,0c0,0,0.1,0,0.1,0c0,0,0,0,0,0c0,0,0,0-0.1,0C238.5,110.7,238.4,110.7,238.3,110.7z M239.1,112.6
			c0,0,0.1,0.1,0.1,0.1c0.1,0.2,0.1,0.4,0.2,0.6c0,0.1,0,0.2,0,0.4c-0.1,0.4-0.1,0.7-0.1,1c0,0.2,0.1,0.4,0.3,0.6
			c0,0.1,0.2,0.1,0.2,0.2c0.1,0,0.2,0,0.3,0c0.2-0.3,0.4-0.6,0.4-0.6c0,0,0.1-0.1,0.1-0.1c0.2-0.3,0.4-0.5,0.5-0.8
			c0.2-0.4,0.3-0.8,0.4-1.2c0.2-0.5,0.3-1,0.2-1.5c0-0.5-0.1-0.9-0.3-1.3c-0.1-0.2-0.3-0.4-0.5-0.5c0,0-0.2,0-0.2,0
			c-0.1,0-0.2,0.1-0.2,0.2c-0.2,0.2-0.3,0.4-0.4,0.6c-0.3,0.3-0.4,0.6-0.7,0.9c0,0.1-0.1,0.1-0.1,0.2c0,0.3-0.1,0.6-0.2,0.9
			C239.1,112.3,239.1,112.5,239.1,112.6z M242,109.7c0,0,0,0.1,0,0.1c0,0,0,0,0.1,0l0,0C242.1,109.7,242.1,109.7,242,109.7
			L242,109.7z M242.3,111.1L242.3,111.1L242.3,111.1L242.3,111.1z M248.1,110.4C248,110.4,248,110.4,248.1,110.4
			c0,0,0.1-0.1,0.1-0.1h0C248.2,110.3,248.1,110.4,248.1,110.4z M248.5,110.9c0,0.1-0.1,0.2-0.2,0.2
			C248.4,111,248.4,110.9,248.5,110.9z M248.4,111.1C248.4,111.1,248.4,111.1,248.4,111.1C248.4,111.1,248.4,111.1,248.4,111.1z
			 M248.7,110.6c0,0.1-0.1,0.2-0.2,0.2C248.6,110.7,248.6,110.6,248.7,110.6z M248.5,110.8C248.5,110.8,248.5,110.8,248.5,110.8
			L248.5,110.8z M248.8,110.4c0,0.1-0.1,0.1-0.2,0.2C248.7,110.5,248.7,110.4,248.8,110.4z M248.7,110.5
			C248.7,110.6,248.7,110.6,248.7,110.5L248.7,110.5z M249,110.1c0,0.1,0,0.2-0.1,0.2C248.9,110.2,249,110.1,249,110.1z
			 M248.8,110.3C248.8,110.3,248.8,110.3,248.8,110.3L248.8,110.3z M249.3,109.6c0,0.2-0.1,0.4-0.3,0.5c0-0.1,0-0.2,0-0.3
			c0-0.2,0.1-0.3,0.2-0.4c0,0,0.1,0,0.1,0C249.3,109.5,249.3,109.6,249.3,109.6z M249,110.1C249,110.1,249,110.1,249,110.1
			S249,110.1,249,110.1z"/>
		<path class="st2" d="M256.2,106.4c0,0.1-0.1,0.1-0.2,0.2c-0.2,0.1-0.3,0.2-0.5,0.3c-0.5,0.3-0.9,0.7-1.2,1.2
			c0,0.1-0.1,0.2-0.2,0.3c-0.2,0.2-0.3,0.5-0.3,0.8c0,0.2-0.1,0.4-0.2,0.6c-0.1,0.2-0.2,0.5-0.3,0.7c0,0.1,0,0.2-0.1,0.2
			c-0.3,0.3-0.3,0.7-0.4,1.1c-0.2,0.6-0.3,1.3-0.4,1.9c-0.1,0.6-0.2,1-0.5,1.6c-0.1,0.2-0.1,0.4-0.2,0.6c0,0.1-0.2,0.2-0.2,0.2
			c-0.4,0-0.7-0.1-1-0.2c0,0-0.1-0.1-0.1-0.1c-0.4-0.3-0.8-0.7-0.8-1.3c-0.2-1.1-0.5-2.2-0.8-3.3c-0.2-0.7-0.4-1.4-0.7-2.1
			c-0.1-0.2-0.2-0.3-0.3-0.4c0-0.1,0-0.4,0.1-0.4c0.2-0.2,0.4-0.2,0.7-0.3c0,0,0,0,0.1,0c0.3,0.1,0.5,0.2,0.8,0.2
			c0.2,0.1,0.4,0.3,0.5,0.6c0.1,0.2,0.2,0.4,0.2,0.6c0.2,0.7,0.4,1.5,0.5,2.2c0,0.2,0,0.3,0,0.4c0,0,0,0.1,0.1,0.1c0,0,0.1,0,0.1,0
			c0.2-0.3,0.2-0.6,0.3-0.8c0.2-0.8,0.5-1.6,0.9-2.4c0.3-0.6,0.7-1.2,1.2-1.7c0.3-0.3,0.6-0.6,1-0.8c0.4-0.2,0.9-0.4,1.4-0.4
			c0.1,0,0.2,0.1,0.3,0.1C256.2,106.2,256.2,106.3,256.2,106.4z M252.6,110.3c-0.1,0-0.2,0-0.2,0.2c-0.1,0.4-0.1,0.8-0.2,1.1
			c0,0,0,0.1,0,0.1c0,0,0.1,0,0.1-0.1c0.1-0.4,0.2-0.7,0.3-1C252.6,110.5,252.6,110.4,252.6,110.3z M253.1,109.4
			c-0.1,0.1-0.2,0.1-0.2,0.2c-0.1,0.1-0.2,0.2-0.2,0.4c0,0.1,0,0.1,0,0.2C252.9,110,253,109.7,253.1,109.4z M253.6,108.3
			c0,0-0.1,0-0.2,0c-0.2,0-0.3,0.2-0.3,0.3c0,0.2-0.2,0.5-0.1,0.7c0,0,0.1,0,0.1,0C253.4,109,253.5,108.7,253.6,108.3z"/>
		<path class="st2" d="M267.4,108.5c0,0.1,0,0.2-0.1,0.4c-0.4,0.4-0.7,1-1.2,1.4c-0.2,0.1-0.2,0.3-0.4,0.4c-0.1,0.2-0.2,0.4-0.3,0.5
			c-0.2,0.4-0.4,0.7-0.9,0.9c-0.1,0-0.2,0.2-0.3,0.2c-0.1,0.1-0.2,0.2-0.4,0.4c-0.4,0.4-0.9,0.7-1.3,1.1c0,0,0,0.1,0,0.1
			c0,0,0,0,0.1,0c0,0,0,0,0.1,0c1.2-0.6,2.2-1.2,3.1-2.2c0.4-0.5,1-1,1.4-1.4c0,0,0.1-0.1,0.2-0.1c0,0.1,0,0.2-0.1,0.2
			c-0.2,0.3-0.4,0.6-0.7,0.9c-0.6,0.8-1.3,1.4-2,2.1c0,0-0.2,0.1-0.2,0.2c-0.5,0.3-1,0.8-1.6,1c-0.1,0-0.2,0.2-0.3,0.2
			c-0.4,0.2-0.8,0.5-1.2,0.7c-0.4,0.2-1,0.4-1.4,0.3c-0.1,0-0.2-0.1-0.4,0c-0.4,0-0.8-0.1-1.1-0.5c0-0.1-0.1-0.1-0.2-0.2
			c-0.5-0.4-0.8-1-0.8-1.6c-0.1-0.7,0-1.5,0.2-2.2c0.2-0.6,0.3-1.3,0.6-1.9c0-0.1,0.2-0.1,0.2,0c0,0,0,0.1,0.1,0.1c0,0,0,0.1,0,0.2
			c0,0.1-0.1,0.2-0.1,0.4c-0.2,0.6-0.4,1.2-0.4,1.9c0,0,0,0,0,0c0.2-0.3,0.3-0.6,0.5-1c0.1-0.1,0.1-0.3,0.1-0.5h0v0c0,0,0,0,0-0.1
			c0,0,0,0,0,0c0,0,0,0,0,0l0,0c0-0.2,0.1-0.5,0.2-0.7c0.2-0.4,0.3-0.6,0.4-1h0v-0.1l0,0c0.1-0.1,0.2-0.2,0.2-0.3
			c0.2-0.2,0.3-0.4,0.4-0.6c0,0,0-0.1,0-0.1c0,0-0.1,0-0.2,0s-0.2,0-0.3,0.1c0-0.1,0-0.2,0.1-0.3c0.4-0.8,1.1-1.2,2-1.4
			c0.2,0,0.3,0,0.5,0c0.2,0.1,0.4,0.1,0.6,0.2c0.6,0.3,0.9,0.8,1,1.5c0,0.2,0,0.4-0.1,0.6c-0.3,0.8-0.8,1.5-1.2,2.2
			c-0.1,0.1-0.2,0.3-0.4,0.4c-0.2,0.2-0.4,0.3-0.5,0.4c-0.5,0.5-0.4,0.4-1,0.6c-0.4,0.1-0.8,0.1-1.1,0c-0.1,0-0.3,0.1-0.3,0.2
			c-0.2,0.8-0.2,1.6,0,2.4c0,0,0,0.1,0,0.2c0.1,0.1,0.2,0.2,0.4,0.2c0.2,0,0.4,0,0.7,0c0.4-0.1,0.8-0.2,1.2-0.4
			c1.2-0.7,2.4-1.5,3.4-2.5c0.5-0.4,1-1,1.4-1.4c0.2-0.2,0.4-0.4,0.7-0.7c0.2-0.2,0.3-0.4,0.4-0.6
			C267,108.7,267.2,108.5,267.4,108.5z M257.6,111.9c0,0,0-0.1,0-0.1C257.6,111.8,257.6,111.8,257.6,111.9
			C257.5,111.9,257.5,111.9,257.6,111.9C257.6,112,257.6,111.9,257.6,111.9z M258.5,108.3L258.5,108.3L258.5,108.3
			c0-0.1,0.1-0.1,0.2-0.2l0,0c0,0,0,0,0,0C258.6,108.1,258.5,108.2,258.5,108.3z M259.2,107.3L259.2,107.3
			C259.1,107.3,259.1,107.3,259.2,107.3L259.2,107.3C259.1,107.3,259.1,107.3,259.2,107.3z M259.3,110.2c0,0,0.1,0,0.2,0
			c0.3-0.2,0.7-0.4,0.9-0.8c0.3-0.4,0.6-0.7,0.9-1.1c0.3-0.4,0.5-0.8,0.4-1.3c0-0.1,0-0.1,0-0.2c0-0.2-0.2-0.2-0.3-0.2
			c-0.3,0.2-0.5,0.4-0.8,0.7c-0.3,0.3-0.6,0.7-0.8,1.1c-0.1,0.4-0.3,0.6-0.5,1c0,0.1-0.1,0.3-0.2,0.5
			C259.2,110.1,259.2,110.3,259.3,110.2z M267.5,108.2C267.6,108.2,267.6,108.2,267.5,108.2c0,0.1-0.1,0.1-0.2,0.2v0
			C267.4,108.4,267.5,108.3,267.5,108.2z M267.4,110.1L267.4,110.1L267.4,110.1C267.4,110,267.4,110,267.4,110.1z M267.4,110
			c0,0,0.1-0.1,0.1-0.1C267.5,110,267.4,110,267.4,110z M267.6,109.9L267.6,109.9C267.5,109.9,267.5,109.9,267.6,109.9
			C267.6,109.9,267.6,109.9,267.6,109.9C267.6,109.9,267.6,109.9,267.6,109.9z M268.1,107.7c-0.1,0.2-0.2,0.5-0.5,0.5
			C267.6,107.9,267.8,107.7,268.1,107.7L268.1,107.7z M267.6,109.9c0,0,0.1-0.1,0.1-0.1C267.6,109.8,267.6,109.8,267.6,109.9z
			 M267.7,109.7C267.7,109.7,267.7,109.7,267.7,109.7C267.7,109.7,267.7,109.7,267.7,109.7C267.7,109.7,267.7,109.7,267.7,109.7
			L267.7,109.7z M269.2,107C269.2,107,269.2,107,269.2,107S269.2,107,269.2,107L269.2,107L269.2,107z M269.2,106.9
			c0-0.1,0-0.2,0.1-0.3c0,0,0.1,0,0.1,0l0,0C269.4,106.8,269.3,106.9,269.2,106.9z"/>
		<path class="st2" d="M270.2,116.3c-0.2,0.6-0.6,1-1,1.6c-0.2,0.3-0.5,0.6-0.8,0.9c-0.4,0.5-1,0.7-1.6,0.9c-0.1,0-0.2,0-0.4,0
			c0-0.4,0.2-0.6,0.3-0.9c0.4-0.7,0.8-1.4,1.2-2.1c0.7-1.4,1-2.8,0.7-4.3c0,0,0,0,0-0.2c0.6-0.2,1-0.1,1.5,0.2
			c0.2,0.2,0.4,0.3,0.4,0.7C270.8,114.1,270.8,115.3,270.2,116.3z"/>
		<path class="st2" d="M302.9,90.6c-0.4,1.1-0.9,2.1-1.6,3c-0.1,0.1-0.2,0.3-0.2,0.4c-0.2,0.2-0.3,0.5-0.5,0.6
			c-0.3,0.3-0.6,0.5-0.9,0.8c-0.3,0.3-0.8,0.3-1.1,0c-0.3-0.2-0.3-0.5-0.1-0.7c0.4-0.4,0.8-0.8,1-1.3c0.4-0.8,1-1.5,1.4-2.3
			c0.3-0.6,0.5-1.2,0.7-1.8c0.1-0.5,0-0.9-0.2-1.2c-0.2-0.4-0.7-0.6-1.1-0.8c-0.1-0.1-0.4,0-0.6,0c-1.2,0.2-2.3,0.8-3.4,1.4
			c-0.7,0.4-1.2,0.8-1.8,1.2c-0.4,0.3-0.5,0.6-0.6,1c-0.3,1.6-0.5,3.2-0.9,4.9c-0.4,2-0.7,4-1.1,6c0,0,0,0.1,0.1,0.2
			c0.1,0,0.2,0,0.3-0.1c0.6-0.2,1.2-0.6,1.7-0.8c0,0,0.1,0,0.1-0.1c0.6-0.3,1.1-0.4,1.6,0c0,0.2,0,0.6-0.4,0.6
			c-0.3,0.2-0.4,0.5-0.4,0.8c-0.3,0.1-0.5,0.2-0.8,0.3c-0.7,0.3-1.4,0.6-2.1,0.8c-0.4,0.2-0.6,0.4-0.7,0.9c-0.1,0.7-0.2,1.4-0.3,2
			c-0.2,1.2-0.4,2.4-0.4,3.6c0,0.2,0,0.3-0.1,0.5c-0.2,0.6-0.1,1.2-0.2,1.9c0.9-0.4,1.6-1,2.4-1.5c0.7-0.6,1.4-1.2,2-1.9
			c0.2,0,0.2,0.1,0.2,0.2c-0.2,0.5-0.7,0.8-1,1.2c-0.1,0.1-0.2,0.2-0.4,0.4c0.2,0.1,0.3-0.1,0.4-0.2c0.1,0,0.2,0,0.3-0.1
			c-0.2,0.5-0.6,0.7-1,1c-0.8,0.6-1.6,1.1-2.5,1.6c-0.3,0.2-0.4,0.4-0.5,0.7c0,0.2-0.1,0.4-0.1,0.6c0,0.6-0.1,1.2,0,1.8
			c0.1,0.6,0.1,1.4,0.2,2.1c0,0.1,0,0.2,0,0.3c0,0.2-0.1,0.4-0.3,0.4c-0.7,0.2-1.3-0.2-1.4-0.8c-0.2-0.9-0.2-1.9-0.2-2.9
			c0-0.3,0.1-0.6-0.1-0.8c0,0-0.1,0-0.2,0c-0.8,0.2-1.5,0.3-2.3,0.5c0,0-0.2,0-0.3,0.1c-1-0.2-1.9-0.4-2.3-1.4
			c-0.8-1.8-0.7-1.7-0.3-3.2c0.4-1.4,1.2-2.8,2-4c0.6-0.8,1.3-1.5,2.1-2c0.2-0.2,0.4-0.3,0.5-0.4c-0.1-0.2-0.2-0.1-0.3-0.1
			c-0.6,0-1.2-0.1-1.8-0.2c-0.7-0.2-1.2-0.6-1.5-1.2c-0.2-0.4-0.4-0.8-0.6-1.1c-0.2-0.4-0.1-0.9,0-1.4c0.1-0.3,0.2-0.8,0.4-1.1
			c0.1,0.2,0.1,0.2,0.2,0c0,0,0.1-0.1,0.1-0.2h0c0.1-0.1,0.2-0.2,0.2-0.4c1-1.6,2.3-3.1,3.7-4.5c1.3-1.2,2.6-2.3,3.9-3.4
			c0.2-0.2,0.4-0.4,0.4-0.6c0.1-0.9,0.3-1.8,0.5-2.8c0.1-0.6,0.1-1.1,0.1-1.7c0-0.1,0-0.2,0-0.2c0-0.1,0.2-0.3,0.4-0.3
			c0.4,0,0.9,0,1.2,0.3c0,0.1,0.1,0.2,0.2,0.2c0,0.2,0,0.4-0.1,0.6c-0.1,0.5-0.2,0.9-0.3,1.4c-0.1,0.4-0.2,0.9-0.1,1.3
			c0.6-0.3,1.2-0.7,1.8-1.1c0,0,0-0.1,0.1-0.1c-0.1,0-0.2,0-0.2,0c0,0,0-0.1,0-0.1c1.2-0.7,2.5-1.2,3.8-1.3c1.4,0,3,0.9,3.2,2.5
			C303.2,89.6,303.1,90.1,302.9,90.6z M283.9,111.6c-0.2,0.3-0.2,0.7-0.2,1.3c0.1-0.4,0.2-0.7,0.2-1
			C284,111.8,283.9,111.7,283.9,111.6z M284.1,99.1c-0.1,0-0.2,0.1-0.3,0.2c0-0.1,0-0.2,0.1-0.2c0,0,0.1,0,0.2-0.1
			C284.1,99.1,284.1,99.1,284.1,99.1z M284.4,110.5c-0.4,0.3-0.4,0.6-0.4,1C284.3,111.3,284.3,110.9,284.4,110.5z M290.3,105.2
			c-0.6-0.1-0.8,0-1.2,0.2c-0.8,0.6-1.7,1.2-2.3,2.1c-0.2,0.3-0.5,0.5-0.9,0.7c0,0-0.1,0.2-0.2,0.3c-0.3,0.1-0.4,0.3-0.4,0.6
			c0.1,0.2,0.1,0.2-0.2,0.5c0,0.1,0,0.2-0.2,0.3c0,0.2-0.1,0.4-0.2,0.6c-0.3,0.7-0.4,1.5-0.6,2.2c0,0.2,0,0.4,0,0.6
			c0,0.3,0.2,0.6,0.3,0.8c0.2,0.3,0.4,0.4,0.9,0.3c1-0.1,2-0.4,2.9-0.8c0.2-0.1,0.4-0.2,0.6-0.5c0.1-0.1,0.2-0.3,0.2-0.4
			c0,0,0.1,0.1,0.1,0.2c0.3-0.4,0.2-0.9,0.3-1.3c0.2-0.5,0.1-1,0.1-1.4c-0.1-0.1-0.2-0.2-0.2-0.3c0-0.1,0-0.2,0-0.2
			c0.3-0.1,0.4-0.4,0.3-0.7c0-0.2,0-0.2,0.1-0.3c0.1-0.2-0.1-0.2-0.2-0.3c0.4-0.4,0.4-0.4,0.4-1c0-0.3,0-0.6,0-0.8
			c-0.1,0-0.2-0.1-0.2-0.1c0-0.2,0.1-0.2,0.2-0.2c0.2-0.1,0.2-0.2,0.1-0.3c-0.2-0.3-0.1-0.5,0.1-0.8
			C290.3,105.3,290.3,105.2,290.3,105.2z M284.5,98.2L284.5,98.2L284.5,98.2c0-0.1,0.1-0.2,0.1-0.3h0c0,0,0,0,0,0
			C284.5,98,284.5,98.1,284.5,98.2z M284.6,110.1c0,0.1-0.1,0.2-0.1,0.2C284.5,110.3,284.6,110.3,284.6,110.1z M284.6,110.1
			c0.1,0,0.2-0.1,0.3-0.2c0-0.1,0.1-0.2,0.2-0.3c0-0.1,0-0.2,0-0.3C284.8,109.5,284.7,109.7,284.6,110.1z M292.1,92.2
			c-0.3,0-0.6,0.2-0.8,0.4c-0.3,0.2-0.5,0.4-0.8,0.6c-0.1,0.2-0.4,0.4-0.6,0.5c-0.2,0.4-0.6,0.6-1,0.9c-0.4,0.6-1,1.2-1.6,1.6
			c0,0.1,0,0.1-0.1,0c-0.2,0.2-0.4,0.3-0.6,0.6c-0.1,0.2-0.4,0.4-0.6,0.7c0,0,0,0.1,0,0.2c0,0,0,0,0,0c0.1,0.1,0.1,0.2,0,0.3
			c-0.2,0.3-0.3,0.5-0.5,0.8c-0.4,0.8-0.5,1.6-0.7,2.3c-0.1,0.5,0,0.9,0.1,1.2c0.3,0.6,0.8,1,1.5,1.1c1,0,2.1-0.1,3.1-0.4
			c0.5-0.2,0.9-0.4,1-1c0.2-0.9,0.1-1.9,0.7-2.6c-0.2-0.4-0.2-0.4-0.1-0.9c0-0.2,0.2-0.5,0.2-0.7c0.1-0.6,0.1-1.2,0.2-1.8
			c0.1-0.8,0.3-1.6,0.4-2.3C292.2,93.3,292.2,92.7,292.1,92.2z M284.9,97.4L284.9,97.4L284.9,97.4C284.9,97.4,284.9,97.4,284.9,97.4
			S284.9,97.4,284.9,97.4z M285.7,108.5L285.7,108.5C285.7,108.5,285.7,108.5,285.7,108.5c0.1,0,0.2,0,0.2,0v0v0.1
			C285.8,108.5,285.7,108.5,285.7,108.5z M285.9,106.6c0.2,0,0.3-0.1,0.4-0.2C286.1,106.4,286,106.6,285.9,106.6z M286.5,106.1
			c0.1,0,0.2-0.2,0.4-0.2C286.7,105.9,286.6,106,286.5,106.1z M287.1,105.6c0.2,0,0.3-0.2,0.4-0.3
			C287.4,105.4,287.3,105.5,287.1,105.6z M287.4,95.9c0,0,0,0.1-0.1,0.1c0,0,0.1,0,0.1,0C287.4,96,287.4,96,287.4,95.9z
			 M289.1,115.3c-0.2,0.3-0.2,0.3,0,0.9C289.1,116,289.1,115.7,289.1,115.3z M289.1,116.8L289.1,116.8L289.1,116.8L289.1,116.8z
			 M289.2,110.9L289.2,110.9L289.2,110.9L289.2,110.9z M289.8,115.9c-0.2,0.8,0.1,1.4,0.1,2c0-0.3,0-0.7,0-1
			C289.9,116.6,289.9,116.3,289.8,115.9z M289.9,93.6c0-0.2,0.2-0.3,0.2-0.5c-0.2,0-0.3,0.1-0.4,0.3
			C289.7,93.6,289.8,93.6,289.9,93.6z M289.9,114.8L289.9,114.8L289.9,114.8L289.9,114.8z M290,118.4C290,118.4,290,118.4,290,118.4
			C289.9,118.4,289.9,118.4,290,118.4L290,118.4L290,118.4z M290.2,111.2C290.1,111.3,290.1,111.3,290.2,111.2
			c-0.1,0.1-0.1,0.1,0,0.2c0,0,0,0,0,0C290.2,111.3,290.2,111.3,290.2,111.2z M290.3,93.1c0.1,0,0.2,0,0.2,0
			C290.4,92.9,290.4,92.9,290.3,93.1z M290.4,109c-0.2,0.4-0.2,0.8-0.1,1.2C290.3,109.8,290.7,109.5,290.4,109z M290.6,107.6
			c-0.1,0.4-0.2,0.6-0.2,0.8c0,0.1,0,0.2,0.2,0.2C290.7,108.3,290.8,108,290.6,107.6z M290.9,106.9c0,0-0.1,0-0.1-0.1
			c0,0.1,0,0.2,0,0.3c0,0,0,0,0,0.1C290.8,107.1,290.8,107,290.9,106.9z M291,106.1c0,0,0-0.1,0-0.2C290.9,106,290.9,106,291,106.1
			C290.9,106.1,290.9,106.2,291,106.1C291,106.2,291,106.2,291,106.1z M291.1,104.6c0,0.1,0,0.2-0.1,0.2s0,0.2,0,0.2
			c0,0,0,0.1,0,0.1c0,0.1,0,0.2,0,0.2c0,0.1,0,0.1,0.1,0.2C291.2,105.2,291.1,104.9,291.1,104.6z M291.8,100.8
			C291.8,100.7,291.8,100.7,291.8,100.8C291.7,100.7,291.7,100.7,291.8,100.8L291.8,100.8z M292.2,98.4c0-0.2,0-0.3,0-0.4
			C292.2,98.1,292.1,98.3,292.2,98.4z M293.5,91.2L293.5,91.2c0,0.1,0,0.2,0,0.4h0C293.5,91.4,293.5,91.3,293.5,91.2z M294.3,111
			c0.1,0,0.1-0.1,0.2-0.2v0C294.4,110.9,294.4,110.9,294.3,111L294.3,111z M295,110.3L295,110.3L295,110.3z M295.3,109.6
			c0,0.3-0.2,0.5-0.4,0.7C295,110,295,109.8,295.3,109.6z"/>
		<path class="st2" d="M327,91c0,0.3-0.1,0.6-0.2,0.9c0,0.2-0.1,0.4-0.2,0.6c-0.5,0.9-1.1,1.7-1.8,2.5c-0.4,0.4-1,0.9-1.4,1.4
			c-0.2,0.3-0.5,0.5-0.8,0.7c-0.6,0.4-1.2,0.8-1.7,1.3c-0.1,0.1-0.2,0.2-0.4,0.2c-0.3,0.2-0.5,0.3-0.8,0.5c-0.2,0.2-0.4,0.4-0.7,0.6
			c-0.1,0.1-0.2,0.2-0.3,0.2c-0.3,0.1-0.6,0.2-0.9,0.3c-0.3,0-0.5,0.2-0.8,0.2c-0.2,0-0.3,0.2-0.5,0.2c-0.1,0.1-0.2,0.2-0.3,0.2
			c0,0,0,0,0,0v0c0,0,0,0,0,0c-0.1,0-0.2,0-0.2,0.1c0,0,0.1,0,0.2,0.1c-0.2,0.2-0.4,0.3-0.7,0.3c-0.2,0-0.3,0.2-0.3,0.3
			c0,0.2-0.1,0.4-0.1,0.6c0,0.8-0.1,1.4-0.2,2.2c0,0.2,0,0.3,0,0.5c-0.2,0.8-0.2,1.5-0.3,2.2c0,0.6-0.1,1.2-0.1,1.8c0,0,0,0.1,0,0.1
			c-0.2,0.8-0.2,1.7-0.3,2.5c0,0.1,0,0.2-0.1,0.4c-0.1,0.2-0.1,0.2-0.1,0.4c0,0.4,0,0.7,0,1.1c0,0.2,0,0.4-0.1,0.7
			c-0.1,0.2-0.3,0.3-0.6,0.2c0,0-0.1-0.1-0.1-0.2c0,0,0-0.2,0-0.2c0.1-0.2,0.2-0.5,0.2-0.7c0-0.4,0-0.9-0.1-1.3c0-0.1,0-0.3,0-0.4
			c-0.2-0.4-0.2-0.8-0.2-1.2c0-0.3,0-0.7,0-1c0-0.3,0-0.6,0-1c0-0.3,0-0.7,0-1c0-0.2,0-0.4,0-0.6c0-1.2,0-2.4,0.1-3.5
			c0-0.1,0-0.2,0-0.3c0-0.1-0.2-0.2-0.3-0.1c-0.2,0-0.4,0.1-0.6,0.2c-0.2,0.2-0.5,0.2-0.8,0.3c-0.2,0-0.4,0-0.5,0
			c-0.1,0-0.2-0.1-0.3,0c-0.2,0.1-0.5,0.2-0.8,0.3c-0.3,0.1-0.6,0.1-0.8-0.1c0,0-0.1-0.1-0.2-0.2c0,0,0-0.1,0-0.1
			c0,0,0.1-0.1,0.2-0.1c0.2,0,0.3,0,0.5,0c0,0,0.1,0,0.1,0.1c0.1,0.1,0.2,0.1,0.4,0c0.4-0.2,0.7-0.4,1.1-0.5
			c0.6-0.3,1.2-0.6,1.8-0.8c0.2,0,0.2-0.2,0.3-0.3c0.1-0.5,0.1-1,0.2-1.4c0-0.4,0-0.8,0-1.1c0-0.2,0-0.3,0-0.4
			c0-1.8,0.1-3.6,0.2-5.4c0-0.6,0.1-1.2,0.1-1.9c0-0.1,0-0.2,0-0.2c0-0.8,0-1.6,0-2.4c0-0.4,0.1-0.8,0.1-1.1c0-0.1,0.2-0.3,0.3-0.4
			c0.4-0.1,0.9-0.2,1.3-0.2c0.4,0,0.6,0.2,0.8,0.5c0,0,0,0,0,0.1c0.2,0.7,0.2,0.7,0.2,1.6c-0.1,0.4-0.2,0.8-0.1,1.2
			c0,0.2,0,0.3,0,0.4c-0.2,1.2-0.3,2.3-0.4,3.5c-0.1,1.6-0.2,3.2-0.3,4.9c0,0.2,0,0.3,0,0.5c0,0.2,0.2,0.3,0.3,0.2
			c0.6-0.3,1.2-0.6,1.7-1c0.6-0.4,1.2-0.7,1.8-1.1c0.8-0.4,1.5-0.9,2.2-1.5c0.4-0.4,0.9-0.8,1.4-1.1c0.2,0,0.3-0.2,0.4-0.3
			c0.3-0.2,0.5-0.5,0.8-0.7c0.4-0.4,0.7-0.8,1-1.3c0.1-0.2,0.2-0.4,0.3-0.5c0.4-0.4,0.4-1,0.5-1.4c0.1-0.5,0.1-1,0-1.4
			c-0.2-0.6-0.5-1.1-1-1.4c-0.7-0.5-1.5-0.9-2.4-1.1c-0.4-0.2-1-0.2-1.4-0.4c-0.9-0.2-1.8-0.2-2.7-0.3c-0.1,0-0.3,0-0.4,0
			c-0.2,0-0.4,0.1-0.6,0c-0.2,0-0.3,0-0.5,0c-0.3,0.1-0.6,0.1-1,0.1c-0.4,0-0.8,0.1-1.1,0.2c-0.4,0.2-0.8,0.3-1.2,0.4
			c-0.9,0.2-1.7,0.6-2.5,1c-0.4,0.2-0.8,0.6-1.1,0.9c-0.1,0.1-0.3,0.3-0.4,0.4c-0.2,0.2-0.6,0.2-0.7,0c-0.2-0.3-0.2-0.5-0.1-0.8
			c0.1-0.2,0.2-0.5,0.4-0.6c0.3-0.3,0.8-0.6,1.2-0.8c1-0.5,2-0.9,3.1-1.2c1.6-0.4,3.3-0.6,4.9-0.6c0.3,0,0.6,0,0.8,0
			c1.2,0.2,2.4,0.3,3.5,0.7c1.1,0.4,2.1,0.8,2.8,1.6c0.1,0.1,0.2,0.2,0.2,0.2c0.7,0.3,1,1,1.2,1.6C327,89.8,327.1,90.4,327,91z
			 M314.2,105.9c-0.1,0.1-0.1,0.2-0.2,0.4c0,0.1-0.1,0.2-0.2,0.2s-0.1-0.1-0.2-0.2c0,0,0-0.1-0.1-0.1c-0.1,0.3-0.1,0.6-0.2,1.1
			c0-1.3,0-2.6,0-3.8c0-0.2,0-0.4,0-0.7c0-0.1,0-0.2,0-0.2c0,0-0.1,0.1-0.1,0.1c0,0.4-0.1,0.9-0.1,1.3c0,0.6-0.1,1.1-0.1,1.7
			c0,0.6,0,1-0.1,1.5c0,0.4,0,0.8,0,1.1c0,0.4,0.1,1,0,1.4c0,0.2,0,0.3,0.1,0.4c0,0,0.1,0.1,0.1,0.1c0,0,0,0,0.1-0.1
			c0-0.2,0-0.4,0.1-0.6c0.2,0,0,0.3,0.2,0.2c0.2-0.9,0-1.7,0.3-2.6c0-0.1,0.2,0,0.2-0.2C314.2,106.6,314.2,106.2,314.2,105.9z
			 M313.4,108.5c0,0.1,0,0.2-0.1,0.3c0-0.3,0-0.6,0.1-1c0,0.2,0,0.2,0,0.3C313.4,108.2,313.4,108.4,313.4,108.5z M317.4,99.2
			c0,0,0.1-0.1,0.1-0.2c-0.1,0-0.2,0-0.3,0.1c-0.6,0.3-1.2,0.6-1.7,0.9c-0.1,0-0.1,0-0.2,0.1c0,0,0,0.1,0,0.1c0,0,0.1,0,0.1,0
			c0,0,0,0,0.1,0C316.2,100,316.8,99.6,317.4,99.2z M316.1,101.1c0,0,0-0.1,0-0.2c0,0,0.1,0,0.1,0.1
			C316.2,101,316.1,101.1,316.1,101.1z M317.9,98.9c-0.1,0-0.2,0-0.3,0.2C317.7,99,317.8,99,317.9,98.9z M317.9,98.8
			c0.1,0,0.2-0.1,0.3-0.2C318.1,98.7,318,98.7,317.9,98.8z M321.2,97.1c0,0,0-0.1,0.1-0.2c-0.1,0-0.2,0-0.2,0.1
			c-0.3,0.2-0.6,0.4-0.9,0.6l0,0c0,0,0,0.1,0,0.1c0,0,0,0,0,0C320.6,97.7,320.9,97.5,321.2,97.1z M320.9,97.8
			c-0.2,0-0.4,0.2-0.5,0.3C320.6,98.1,320.7,98,320.9,97.8z M321.8,96.6c-0.2,0-0.3,0.2-0.4,0.3C321.5,96.9,321.7,96.8,321.8,96.6z
			 M324.7,94.1c-0.1,0-0.1,0-0.2,0c-0.3,0.1-0.5,0.2-0.7,0.5c-0.2,0.3-0.4,0.5-0.8,0.7c-0.3,0.2-0.6,0.5-0.8,0.8
			c0.2,0,0.3,0,0.4-0.2c0.2-0.2,0.4-0.3,0.6-0.5c0.3-0.3,0.6-0.6,1-0.8C324.6,94.6,324.7,94.4,324.7,94.1z M325.6,93.1
			C325.6,93.1,325.6,93.1,325.6,93.1C325.6,93.1,325.6,93.1,325.6,93.1c-0.3,0.1-0.4,0.2-0.6,0.4c0,0.2-0.2,0.4-0.2,0.5
			c0.1,0,0.2,0,0.2-0.1C325.3,93.7,325.5,93.4,325.6,93.1z"/>
		<path class="st2" d="M338.3,100.9c0,0.2-0.1,0.3-0.2,0.4c-0.2,0.2-0.5,0.5-0.8,0.8c-0.8,0.6-1.4,1.3-2.2,1.9
			c-0.4,0.4-0.8,0.8-1.2,1.2c-0.3,0.4-0.6,0.7-1,1c-0.1,0.1-0.2,0.3-0.4,0.5c0,0,0,0,0,0.1c0,0,0.1,0,0.1,0c0.2-0.2,0.4-0.3,0.7-0.4
			c0.1-0.1,0.2-0.2,0.3-0.2c0,0.1-0.1,0.2-0.2,0.3c0,0.1,0,0.2,0,0.2c0,0,0,0.1,0,0.1c-0.2,0.4-0.5,0.7-0.9,1
			c-0.7,0.6-1.4,1-2.1,1.5c-0.3,0.2-0.6,0.2-0.9,0.1c-0.2-0.1-0.4-0.3-0.6-0.4c-0.1-0.1-0.2-0.2-0.2-0.2c-0.4-0.4-0.7-1.1-0.8-1.7
			c0-0.3-0.1-0.6-0.1-0.9c0-0.1-0.2-0.2-0.2-0.2c-0.6,0.5-1.2,0.8-1.7,1.4c-0.5,0.5-1,1-1.5,1.4c-0.4,0.2-0.7,0.6-1.1,0.8
			c-0.2,0.1-0.4,0.2-0.5,0.3c-0.2,0.1-0.4,0.1-0.7,0l-0.6-0.3c-0.2-0.1-0.3-0.3-0.4-0.5c0-0.2-0.1-0.4-0.2-0.5
			c0-0.6,0.1-1.1,0.4-1.6c0.3-0.8,0.8-1.5,1.3-2.1c0.2-0.4,0.6-0.8,0.9-1.1c0.5-0.5,1-1.1,1.6-1.6c0.4-0.4,0.9-0.8,1.4-1
			c0.2-0.2,0.4-0.2,0.6-0.3c0.2,0,0.4-0.1,0.5-0.3c0.1-0.1,0.2-0.2,0.3-0.2c0.4,0,0.9,0,1.3,0.1c0.4,0.1,0.7,0.4,1,0.8
			c0.1,0.2,0.2,0.4,0,0.6c-0.1,0.1-0.1,0.2-0.2,0.3c0,0.2-0.1,0.3-0.2,0.4l-0.4,0.3c-0.1,0.1-0.2,0.2-0.3,0.1
			c-0.2-0.1-0.3,0-0.5-0.1c0,0,0-0.1-0.1-0.1l0,0l0.4-0.5c0.1-0.2,0.2-0.4,0.1-0.6c-0.1-0.2-0.3-0.3-0.5-0.2c-0.1,0-0.2,0.1-0.2,0.2
			c-0.2,0.2-0.5,0.4-0.8,0.5c-0.5,0.3-1,0.7-1.4,1.1c-0.5,0.4-0.9,1-1.4,1.4c-0.1,0.1-0.2,0.3-0.3,0.5c-0.2,0.3-0.4,0.6-0.7,0.8
			c-0.4,0.6-0.8,1.2-1.1,1.9v0.2c0,0,0.1,0.1,0.2,0.1l0.1-0.1c0.2-0.2,0.5-0.2,0.8-0.4l1.7-1.3l2-1.5c0.2-0.2,0.4-0.3,0.6-0.3
			c0.2,0,0.3,0,0.4,0.1c0.2,0.2,0.4,0.4,0.7,0.5c0.1,0,0.2,0.1,0.2,0.2c0.1,0.1,0.1,0.2,0.2,0.4s0,0.3,0,0.4c-0.1,0.5,0,1.3,0.1,1.8
			c0,0.1,0,0.2,0.1,0.2c0,0,0.1,0.1,0.2,0.1c0.1,0,0.2,0,0.2-0.1c1.1-0.7,2.1-1.5,3-2.4c0.7-0.7,1.4-1.4,2.2-2
			c0.9-0.8,1.8-1.6,2.7-2.4C338.1,101,338.3,101,338.3,100.9z M321.7,107.3L321.7,107.3C321.6,107.4,321.6,107.4,321.7,107.3
			C321.6,107.4,321.7,107.3,321.7,107.3z M325.1,103c0.2-0.2,0.4-0.4,0.6-0.6c0,0,0-0.1,0.1-0.2c0,0-0.1,0-0.1,0
			c-0.4,0.3-0.9,0.6-1.3,1.1l-0.4,0.5l-1.4,1.8c-0.3,0.4-0.5,1-0.8,1.5v0.2c0.1,0,0.2-0.1,0.2-0.2l0.6-0.9
			C323.2,105,324.1,103.9,325.1,103z M327.8,105.4c0,0-0.1,0-0.1,0v0c0,0-0.1,0.1-0.2,0.1c-0.3,0-0.5,0.1-0.8,0.3l-0.3,0.3
			c-0.1,0.1-0.2,0.2-0.2,0.4c0,0.1-0.1,0.2-0.2,0.2c-0.2,0.1-0.3,0.2-0.4,0.4l0.4-0.1c0.6-0.3,1.2-0.7,1.7-1.2c0,0,0.1-0.1,0.1-0.1
			C327.9,105.6,327.9,105.5,327.8,105.4z M325.8,102.2c0.1,0,0.1,0,0.2-0.2C325.9,102.1,325.8,102.1,325.8,102.2z M333.9,106.2
			C333.9,106.2,333.9,106.2,333.9,106.2c0,0,0.1-0.1,0.1-0.1C333.9,106.2,333.9,106.2,333.9,106.2
			C333.9,106.2,333.9,106.2,333.9,106.2z M334,106C334,106,334,106,334,106c0.1-0.1,0.1,0,0.1-0.1C334.1,106,334.1,106,334,106
			C334.1,106,334,106,334,106z M334.2,105.9C334.2,105.8,334.3,105.8,334.2,105.9C334.3,105.8,334.2,105.8,334.2,105.9
			C334.2,105.9,334.2,105.9,334.2,105.9C334.2,105.9,334.2,105.9,334.2,105.9z M334.7,105.3c0,0-0.1,0.1-0.2,0.2
			c0,0-0.1,0.1-0.2,0.2c0,0,0,0-0.1,0c0,0,0,0,0.1-0.1c0,0,0.1-0.1,0.1-0.2C334.6,105.4,334.7,105.4,334.7,105.3z M334.9,105.2
			c0,0,0.1-0.1,0.2-0.2C334.9,105.1,334.9,105.1,334.9,105.2c0,0.1-0.1,0.2-0.2,0.2C334.7,105.3,334.8,105.2,334.9,105.2z
			 M335.2,104.8C335.2,104.8,335.2,104.8,335.2,104.8C335.2,104.8,335.2,104.8,335.2,104.8c0,0.1,0,0.1-0.1,0.1
			C335.1,104.9,335.1,104.9,335.2,104.8z M338.4,100.9C338.4,100.9,338.4,100.9,338.4,100.9C338.3,100.8,338.4,100.8,338.4,100.9
			C338.5,100.8,338.5,100.9,338.4,100.9z"/>
		<path class="st2" d="M337.2,104.4c0-1,0-1.9,0-2.8c0,0,0,0,0-0.1c0-0.9,0.4-1.1,1.2-1.2c0.1,0,0.2,0,0.4,0c0.3,0,0.5,0.2,0.6,0.5
			c0,0.2,0,0.5,0.2,0.7c0,0,0.1,0,0.2,0c0,0,0.1-0.1,0.2-0.2c0.4-0.6,0.7-1.1,1.1-1.7c0.3-0.4,0.6-0.8,0.9-1.2
			c0.5-0.6,1.1-1.2,1.7-1.7c0.4-0.4,1-0.6,1.5-0.8c0.2,0,0.3-0.1,0.5-0.1c0.5,0,1,0,1.5,0.1c0.5,0,0.8,0.4,1,0.8
			c0.1,0.2,0.1,0.4,0,0.7c-0.1,0.1-0.3,0.2-0.4,0.1c0-0.1-0.1-0.1-0.2-0.2c-0.1-0.2-0.2-0.4-0.4-0.6c-0.2-0.3-0.8-0.4-1.1-0.2
			c-0.2,0.1-0.3,0.2-0.5,0.4c-0.6,0.5-1.2,1-1.6,1.6c-0.3,0.4-0.6,0.7-0.8,1c-0.5,0.6-1,1.3-1.5,2c-0.1,0.2-0.2,0.4-0.3,0.6
			c-0.6,1-1.1,2-1.6,3.1c-0.2,0.4-0.5,2.1-0.6,2.6c0,0.2-0.1,0.4-0.2,0.6c-0.1,0.3-0.5,0.4-0.8,0.3c-0.2-0.1-0.3-0.2-0.5-0.3
			c0,0-0.2,0-0.2,0c-0.1,0-0.2,0-0.2-0.1c-0.1-0.2-0.2-0.3-0.2-0.5C337.1,107,337.2,105.2,337.2,104.4z M340.6,101
			c0.2-0.1,0.3-0.3,0.4-0.5h0l0,0C340.8,100.7,340.7,100.8,340.6,101c-0.1,0.1-0.1,0.3-0.1,0.4c-0.1,0-0.2,0.1-0.2,0.2
			c-0.1,0.2-0.2,0.4-0.4,0.6s-0.1,0.5,0,0.6c0.1,0.2,0.2,0.2,0.3,0c0-0.1,0.1-0.2,0.2-0.2c0.2-0.3,0.4-0.6,0.6-0.9
			c0.2-0.3,0.4-0.6,0.6-0.8c0.3-0.4,0.5-0.8,0.8-1.2c0.4-0.5,0.8-0.9,1.1-1.4c0.1-0.2,0.2-0.4,0.3-0.5c0.2,0,0.4-0.2,0.5-0.4
			c0,0,0-0.1,0-0.1c0,0,0,0-0.1,0c-0.2,0.1-0.4,0.3-0.4,0.5c-0.1,0-0.2-0.1-0.4,0c-0.3,0.3-0.6,0.6-0.8,0.8c-0.8,1-1.4,2-2,3
			c0,0.1-0.1,0.2-0.2,0.3c0,0,0,0-0.1,0c0,0-0.1,0-0.1-0.1c0-0.1,0-0.3,0-0.4c0.1,0,0.2-0.1,0.2-0.2
			C340.6,101.3,340.6,101.2,340.6,101z M340,102.8C340,102.8,340,102.8,340,102.8L340,102.8z"/>
		<path class="st2" d="M364.9,90.6C364.9,90.6,364.9,90.7,364.9,90.6c0,0.1-0.1,0.2-0.1,0.2c-0.1,0-0.2,0.1-0.2,0.1
			c-0.2,0-0.4,0.1-0.6,0c-0.3,0-0.6,0-0.9,0c-0.1,0-0.2,0-0.4,0.1c-0.2,0-0.3,0.1-0.5,0.1c-0.2-0.1-0.5,0-0.8,0
			c-0.1,0-0.3,0.1-0.4,0.1c-0.3,0-0.7,0-1,0s-0.6,0.2-1,0.2c-0.6,0-1.2,0.1-1.7,0.4c0,0-0.1,0,0,0.1l0,0c0.1,0,0.2,0,0.2,0
			c0.3-0.1,0.5-0.1,0.8-0.2c0.4,0,0.8-0.1,1.1-0.1c0.4,0,0.9-0.2,1.4-0.2c0.4,0,0.9-0.1,1.3,0c0,0,0.1,0,0.1,0.1c0,0,0,0.1,0,0.1
			s-0.1,0-0.1,0c-0.5,0.1-1,0.2-1.4,0.3c-0.3,0-0.7,0.1-1,0.2c-0.1,0-0.3,0.1-0.4,0.1c-0.3,0-0.6,0.1-1,0.1c-0.1,0-0.2,0-0.3,0.1
			c-0.2,0.1-0.3,0.2-0.5,0.2c-0.1,0-0.2,0.1-0.4,0.1c-0.9,0.2-1.7,0.3-2.6,0.5c-0.2,0-0.4,0.1-0.6,0.1c-0.3,0.1-0.4,0.2-0.5,0.6
			c0,0.1,0,0.2,0,0.2c-0.2,0.8-0.3,1.7-0.4,2.5c-0.1,0.2-0.1,0.5-0.2,0.7c0,0.2-0.2,0.5-0.2,0.8c-0.1,0.5-0.3,0.8-0.5,1.2
			c-0.2,0.3-0.3,0.6-0.3,0.8c0,0.6,0,1.2,0,1.7c0,1,0,1.9,0,2.8c0,0.4,0.1,0.7,0.1,1.1c0.1,0.4,0.1,0.8,0.1,1.2c0,0.2,0,0.3,0,0.4
			c0,0.4,0.1,0.7,0.2,1.1c0,0.1-0.1,0.2-0.2,0.1c-0.2,0-0.3-0.1-0.4-0.2c0,0,0,0-0.1,0c0,0,0,0,0,0.1c0.1,0.7,0.3,1.3,0.7,1.8
			c0,0,0,0,0,0c0,0,0.1,0,0.1,0h0l0,0c0.2,0.1,0.4,0.3,0.4,0.6c0.2,0.6,0.6,1.2,1.1,1.6c0.3,0.3,0.7,0.4,1.1,0.3
			c0.1,0,0.2,0,0.2,0.1c0,0-0.1,0.1-0.1,0.2c0,0-0.1,0-0.1,0c-0.1,0-0.1,0-0.2,0c-0.1,0-0.2,0-0.3,0c-1.1,0.2-1.8-0.3-2.4-1.1
			c-0.3-0.4-0.5-0.9-0.8-1.3c-0.1-0.3-0.2-0.6-0.4-0.9c-0.2-0.4-0.4-0.9-0.4-1.5c0-0.3-0.1-0.6-0.2-0.8c-0.1-0.4-0.2-0.8-0.2-1.1
			c0-0.3-0.1-0.7-0.1-1c0-0.3-0.1-0.6-0.1-1c0-0.8-0.1-1.6,0-2.4c0-0.3,0-0.6,0-0.9c0-0.7,0-1.4,0.2-2.1c0.1-0.5,0.1-1,0.1-1.4
			c0.2-1,0.3-2.1,0.4-3.2c0-0.1,0-0.2,0-0.3c0-0.2-0.1-0.4-0.3-0.4c-1,0.1-2,0.1-3,0.3c0,0,0,0-0.1,0c-0.5,0-1,0-1.6,0
			c-0.1,0-0.2-0.1-0.2-0.1c-0.3-0.2-0.4-0.6-0.4-1c0-0.1,0.2-0.3,0.3-0.3c0.2,0,0.4-0.1,0.6-0.1c0.8,0,1.4,0,2.2-0.1
			c0.8-0.1,1.6-0.2,2.4-0.3c0.2,0,0.4-0.2,0.4-0.4c0,0,0,0,0-0.1c0.3-1.6,0.6-3.2,1-4.8c0.2-0.7,0.4-1.4,0.6-2
			c0.1-0.2,0.2-0.4,0.4-0.6c0.1-0.1,0.3-0.3,0.5-0.3c0.1,0,0.2,0,0.2,0c0.3-0.1,0.5-0.1,0.8,0c0.3,0.1,0.5,0.3,0.5,0.6
			c0,0.2,0,0.3,0,0.5c-0.1,0.6-0.2,1.2-0.3,1.8c-0.1,0.6-0.2,1.1-0.3,1.7c-0.2,0.9-0.2,1.8-0.3,2.8c0,0,0,0.1,0,0.1
			c0,0.1,0.1,0.2,0.2,0.2c0.1,0,0.2,0,0.3,0c0.7-0.1,1.4-0.2,2.1-0.3c0.5,0,1.1-0.1,1.6-0.2c0.2,0,0.3,0,0.4,0c1-0.2,2.1-0.3,3-0.4
			c0.4-0.1,0.8-0.2,1.2-0.1c0.4-0.1,0.8-0.1,1.2-0.1c0.4,0,0.8-0.1,1.2-0.2C364.9,90.5,364.9,90.6,364.9,90.6z M350.4,106.5
			c0-0.1-0.1-0.2-0.2-0.1c0,0-0.1,0.1-0.1,0.1c0,0.1,0.1,0.2,0.2,0.1C350.3,106.6,350.3,106.6,350.4,106.5z M350.4,97.8L350.4,97.8
			L350.4,97.8L350.4,97.8z M350.5,104.6c0,0,0.1,0,0.1,0c0,0,0,0,0-0.1c0,0,0-0.1,0-0.1c0-0.2,0-0.4-0.1-0.6c0,0,0,0-0.1,0
			c0,0,0,0,0,0C350.4,104.2,350.4,104.4,350.5,104.6z M350.7,101.3c0.1-0.1,0.1-0.3,0-0.4c0,0-0.1-0.1-0.1-0.1c0,0,0,0,0,0
			c0,0.1-0.1,0.2-0.1,0.2c0,0.1,0,0.2,0,0.2c0,0,0,0.1,0.1,0.1C350.7,101.4,350.7,101.4,350.7,101.3z M350.7,109.1
			c0-0.2,0-0.4,0-0.6c0,0,0,0,0,0c0,0-0.1,0-0.1,0C350.5,108.8,350.6,109,350.7,109.1z M351.7,93.8c0,0-0.1-0.1-0.1-0.1
			c0,0-0.2,0.1-0.2,0.1c-0.2,0.6-0.3,1.1-0.3,1.7c0,0.4-0.1,0.8-0.1,1.2c-0.1,0.5-0.2,1-0.2,1.6c0,0.2,0,0.5-0.1,0.8
			c0,0.1-0.1,0.3-0.1,0.4c0,0.2,0,0.3,0.1,0.4c0,0,0,0,0.1,0s0.1,0,0.1-0.1c0.1-0.3,0.2-0.6,0.2-1c0-0.2,0-0.6,0.1-0.8
			c0.1-0.6,0.2-1.2,0.2-1.8c0-0.4,0.1-0.7,0.2-1c0-0.3,0.1-0.6,0.1-1C351.7,94.1,351.8,93.9,351.7,93.8z M350.7,102.9L350.7,102.9
			c0,0,0,0.1,0,0.1c0,0,0,0,0.1,0C350.7,103,350.7,102.9,350.7,102.9z M350.7,105.9c0,0.1,0,0.2,0.1,0.2c0,0,0.1-0.1,0.1-0.2
			c0-0.1,0-0.2,0-0.5C350.7,105.6,350.7,105.8,350.7,105.9z M351.1,107.2c-0.1-0.2-0.2-0.4-0.3-0.6c0,0.2,0,0.3,0,0.4
			c0,0.3,0.1,0.7,0.2,1l0,0c0,0,0.1,0.1,0.1,0c0,0,0.1,0,0.1-0.1C351.3,107.7,351.2,107.5,351.1,107.2z M350.9,109.9
			c0,0,0.1,0.1,0.1,0.2C351,110,351,110,350.9,109.9C351,109.9,351,109.8,350.9,109.9L350.9,109.9z M351.1,110.1c0,0.1,0,0.1,0,0.2
			c0,0.1,0.1,0.1,0.1,0v0C351.1,110.2,351.1,110.2,351.1,110.1z M352,109.3c0,0.1,0.1,0.1,0.1,0.2c0,0,0,0,0,0.1
			c0,0-0.1,0.1-0.1,0.1c-0.2,0-0.3-0.2-0.2-0.3c0,0,0,0,0.1-0.1C351.9,109.3,351.9,109.3,352,109.3z M352.3,90.4c0-0.1,0-0.2,0-0.3
			c0,0,0,0-0.1,0c0,0.2-0.1,0.3-0.1,0.5c0,0.2-0.1,0.3-0.2,0.5c0,0.2-0.1,0.5-0.1,0.7c0,0,0,0.1,0.1,0.1c0,0,0,0,0,0
			C352.2,91.3,352.4,90.9,352.3,90.4z M352,110.5c0,0-0.1,0-0.1,0c0-0.1,0-0.2,0.1-0.3C352,110.3,352,110.4,352,110.5z M352.1,110.2
			C352,110.2,352,110.2,352.1,110.2L352.1,110.2L352.1,110.2z M352.3,94.1c0,0,0-0.1,0-0.1C352.3,94,352.3,94.1,352.3,94.1
			C352.2,94.1,352.3,94.1,352.3,94.1C352.3,94.1,352.3,94.1,352.3,94.1z M352.8,91.7c0.2-0.5,0.2-1,0.2-1.5c-0.3,0.4-0.4,1-0.3,1.4
			C352.7,91.7,352.7,91.7,352.8,91.7C352.8,91.7,352.8,91.7,352.8,91.7z M353.1,89.7c0,0.2,0,0.3,0,0.4
			C353.1,90,353.1,89.9,353.1,89.7z M356.7,92C356.7,91.9,356.7,91.9,356.7,92c-0.2-0.2-0.5,0-0.8-0.1c0,0-0.1,0-0.2,0
			c-0.3,0.1-0.6,0.1-0.9,0.2c0,0,0,0,0,0.1c0.5,0,1-0.1,1.6-0.1C356.5,92.1,356.6,92,356.7,92L356.7,92z M363.1,91.4
			C363.1,91.4,363.1,91.4,363.1,91.4L363.1,91.4C363,91.4,363,91.3,363.1,91.4C363.1,91.3,363.1,91.3,363.1,91.4z M364.4,91.2
			c-0.3,0.1-0.5,0.2-0.7,0.2c0,0-0.1-0.1-0.1-0.1c0,0,0-0.1,0.1-0.1C363.9,91.1,364.1,91.1,364.4,91.2z"/>
		<path class="st2" d="M373.5,99.4c-0.1,0.2-0.2,0.4-0.4,0.5c-0.2,0.2-0.4,0.3-0.5,0.4l-0.5,0.4c0,0,0,0-0.1,0
			c-0.4,0.2-0.7,0.6-1,0.9c-0.2,0.2-0.4,0.4-0.7,0.6c0,0-0.1,0.1-0.2,0.2c-0.1,0.1-0.2,0.1-0.2,0.2c-0.1-0.1-0.2-0.1-0.2,0l-0.1,0.1
			c0,0,0.1,0,0.2,0l-0.2,0.3l-1.6,1.6c0,0,0,0-0.1,0c0-0.1,0-0.2,0-0.3c0,0-0.1,0-0.2,0c-0.2,0.2-0.4,0.5-0.7,0.8
			c0,0.1-0.1,0.2-0.2,0.3c-0.2,0.1-0.3,0.3-0.5,0.4c-0.3,0.2-0.5,0.6-0.8,0.8l-0.1,0.2c0,0-0.1,0.2-0.2,0.2c-0.2,0-0.2,0.2-0.4,0.3
			l-0.3,0.4c-0.1,0.1-0.2,0.3-0.2,0.5c0,0,0,0.1-0.1,0.2c0,0,0,0,0,0.1l0,0c-0.2,0.3-0.3,0.6-0.3,0.9c0,0.1,0,0.2-0.1,0.3l-0.1,0.5
			l-0.2,1.4c0,0,0,0.1,0,0.1c0,0.4-0.2,0.7-0.3,1.1c-0.1,0.3-0.1,0.7-0.2,1c-0.1,0.3-0.2,0.6-0.2,0.9c-0.2,0.6-0.4,1.3-0.7,1.9
			c-0.2,0.6-0.4,1.2-0.8,1.8l-0.7,1.2c-0.3,0.6-0.8,1.1-1.2,1.6c-0.1,0.1-0.2,0.2-0.2,0.2c-0.7,0.5-2.1,0.5-2.6-0.4
			c-0.2-0.2-0.3-0.5-0.4-0.8c-0.2-0.4-0.2-0.9-0.1-1.5c0.2-0.7,0.5-1.4,0.8-2.1c0.6-1.4,1.4-2.6,2.3-3.9c0.5-0.8,1.2-1.6,1.7-2.4
			l0.7-0.8c0.2-0.3,0.5-0.6,0.8-1c0.2-0.2,0.2-0.4,0.2-0.6c0.1-0.8,0.2-1.5,0.3-2.2c0-0.3,0-0.6,0-0.9c0,0,0-0.1-0.1-0.1
			c-0.1,0-0.2,0-0.2,0l-0.3,0.4c-0.2,0.4-0.5,0.8-0.9,1c-0.2,0.2-0.3,0.3-0.5,0.4c-0.2,0.3-0.5,0.3-0.9,0.3c-0.6,0-1.1-0.2-1.5-0.6
			c-0.4-0.3-0.7-0.8-0.8-1.4c-0.1-0.8-0.1-1.8-0.1-2.6l0.1-1.8c0-0.4,0-1,0-1.4c0-0.4,0.1-0.7,0.4-0.9c0.1-0.1,0.2-0.2,0.4-0.2
			c0.1,0,0.3,0,0.4,0c0.3,0,0.5,0.2,0.7,0.4c0,0.1,0.1,0.2,0.1,0.2c-0.1,1-0.1,2-0.3,2.9c-0.1,1.2-0.2,2.4,0,3.5
			c0,0.1,0,0.2,0.1,0.3c0,0.1,0.2,0.2,0.3,0.1c0.2-0.1,0.3-0.3,0.5-0.5c0.6-0.8,1.2-1.5,1.7-2.4l1-1.6c0.2-0.4,0.4-0.8,0.4-1.2
			c0,0,0-0.1,0-0.2c0-0.1,0.1-0.2,0.2-0.2c0.5-0.2,1-0.2,1.4,0.1c0.2,0.1,0.2,0.3,0.2,0.5c0,0.2,0,0.4,0,0.6c0,0.3,0,0.5,0,0.8
			c-0.2,1.1-0.4,2.2-0.5,3.4c-0.1,0.4-0.2,0.8-0.2,1.2v0c0,0,0.1,0.1,0.1,0.1l0.1,0l0.3-0.2c0.8-0.9,1.7-1.4,2.7-2.2l0.1-0.1
			c0.6-0.7,1.3-1.2,2-1.8c0.2-0.2,0.4-0.4,0.6-0.4c0.1,0,0.1-0.1,0.2-0.2c0.2-0.3,0.5-0.4,0.8-0.7l0.6-0.5c0.5-0.4,1-0.7,1.6-0.9
			c0,0,0.1,0,0.1,0S373.5,99.4,373.5,99.4z M357,117.7l0.1-0.4l-0.2,0.4C356.8,117.7,356.9,117.8,357,117.7
			C357,117.7,357,117.7,357,117.7z M361.8,111.7c0-0.1-0.1-0.1-0.2-0.1l-0.1,0.1c-0.1,0.2-0.2,0.3-0.4,0.4c0-0.2,0.1-0.4,0.3-0.4
			v-0.3c-0.2,0-0.3,0.2-0.4,0.3c-0.2,0.3-0.4,0.6-0.7,0.9c0,0,0,0.1,0,0.2c0.2-0.1,0.3-0.2,0.4-0.4c0.1-0.2,0.2-0.3,0.4-0.4
			c0,0.3-0.2,0.6-0.4,0.8c-0.4,0.5-0.8,1.1-1.2,1.7c-0.2,0.4-0.5,0.8-0.7,1.1c-0.4,0.7-0.8,1.5-1.1,2.2c0,0,0,0.1,0,0.1
			c-0.2,0.8-0.4,1.6-0.6,2.4v0.2c0,0.1,0.1,0.3,0.3,0.4l0.3,0c0.4-0.1,0.7-0.4,0.9-0.6c0.6-0.7,1-1.4,1.4-2.1
			c0.2-0.3,0.3-0.5,0.4-0.8l0.5-1.4c0-0.2,0-0.4,0.2-0.6c0.2-0.3,0.2-0.6,0.2-0.8l0.1-0.5c0.2-0.7,0.2-1.4,0.4-2.1
			C361.8,111.8,361.8,111.7,361.8,111.7z M357.1,117.2c0.1-0.1,0.2-0.2,0.3-0.4l0,0c0,0,0,0-0.1,0
			C357.2,116.9,357.2,117,357.1,117.2z M357.6,116.1c0.1,0,0.1-0.2,0.1-0.2C357.7,115.9,357.6,116,357.6,116.1z M357.8,115.8
			c0.2,0,0.3-0.2,0.3-0.2c0.2-0.3,0.3-0.6,0.3-0.9c0,0-0.1,0-0.2,0.1c-0.2,0.3-0.4,0.6-0.4,0.9C357.8,115.7,357.8,115.7,357.8,115.8
			z M358.5,114.5c0.1,0,0.2,0,0.2-0.2c0.2-0.2,0.3-0.4,0.2-0.7l-0.3,0.3C358.5,114.1,358.5,114.3,358.5,114.5z M358.9,120.6
			C358.9,120.6,358.9,120.6,358.9,120.6l-0.1,0c-0.1,0.1-0.2,0.2-0.2,0.4c0,0.1,0,0.1,0,0.1s0.1,0,0.1,0c0.1-0.1,0.2-0.2,0.2-0.3
			C358.9,120.7,358.9,120.7,358.9,120.6z M359,113.5c0.2-0.1,0.4-0.2,0.5-0.4l0.1-0.4C359.3,112.9,359.1,113.2,359,113.5z
			 M360.2,118.6c-0.1,0-0.2,0-0.2,0.2c-0.1,0.2-0.2,0.4-0.3,0.6l-0.2,0.3c0,0.1,0,0.2,0,0.2c0.1,0,0.1,0,0.2-0.1
			C359.9,119.4,360.1,119,360.2,118.6z M359.7,112.7l0.2-0.1c0.2-0.3,0.4-0.5,0.5-0.9c0,0,0-0.1,0-0.1c0,0,0,0,0,0
			C360,111.9,359.8,112.2,359.7,112.7z M360.2,112.8c-0.2,0.1-0.3,0.3-0.4,0.5c0,0,0,0,0.1,0C360.1,113.3,360.2,113.1,360.2,112.8z
			 M360.4,118.2c-0.1,0.1-0.1,0.1-0.1,0.2L360.4,118.2z M361.1,115.9c0,0-0.1-0.1-0.1,0c0,0-0.1,0-0.1,0c0,0,0.1,0,0.1,0
			C361,116,361,115.9,361.1,115.9L361.1,115.9z M361.3,110.7C361.3,110.6,361.4,110.6,361.3,110.7c0.1,0,0.1-0.1,0.1-0.1v-0.1
			c0,0-0.1,0-0.1,0C361.2,110.5,361.3,110.6,361.3,110.7z M361.8,110.7c0,0-0.1,0-0.1,0c-0.1,0.1-0.2,0.3-0.2,0.5l0.2-0.2
			c0-0.1,0.1-0.2,0.1-0.2C361.8,110.8,361.8,110.8,361.8,110.7z M367.2,105.2C367.2,105.2,367.3,105.2,367.2,105.2L367.2,105.2
			L367.2,105.2z M367.5,105C367.5,105,367.5,105,367.5,105c-0.1,0.1-0.1,0.2-0.2,0.2L367.5,105C367.5,105,367.5,105,367.5,105z
			 M367.8,104.8c0,0.1-0.2,0.2-0.3,0.2l0.1-0.2C367.7,104.8,367.7,104.7,367.8,104.8z M367.9,104.7
			C367.9,104.7,367.9,104.7,367.9,104.7S367.9,104.8,367.9,104.7C367.8,104.7,367.9,104.7,367.9,104.7z M369.8,102.8L369.8,102.8
			C369.8,102.8,369.8,102.8,369.8,102.8C369.7,102.8,369.7,102.8,369.8,102.8z M369.9,102.7c0,0.1,0,0.1-0.1,0.1
			C369.8,102.8,369.9,102.7,369.9,102.7z"/>
	</g>
</g>
</svg>
