<?xml version="1.0" encoding="utf-8"?>
<!-- Generator: Adobe Illustrator 24.1.2, SVG Export Plug-In . SVG Version: 6.00 Build 0)  -->
<svg version="1.1"
	 id="Calque_1" xmlns:cc="http://creativecommons.org/ns#" xmlns:dc="http://purl.org/dc/elements/1.1/" xmlns:inkscape="http://www.inkscape.org/namespaces/inkscape" xmlns:rdf="http://www.w3.org/1999/02/22-rdf-syntax-ns#" xmlns:sodipodi="http://sodipodi.sourceforge.net/DTD/sodipodi-0.dtd" xmlns:svg="http://www.w3.org/2000/svg"
	 xmlns="http://www.w3.org/2000/svg" xmlns:xlink="http://www.w3.org/1999/xlink" x="0px" y="0px" viewBox="0 0 100 19.1"
	 style="enable-background:new 0 0 100 19.1;" xml:space="preserve">
<style type="text/css">
	.st0{fill:#FFFFFF;}
	.st1{fill-rule:evenodd;clip-rule:evenodd;fill:#FFFFFF;}
</style>
<g id="g8252" transform="translate(0,86.843818)">
	<path id="path8175" inkscape:connector-curvature="0" class="st0" d="M23.4-74.2c0,4,2.5,6.4,6.1,6.4c1.8,0,3.4-0.5,4.2-1.8v1.8
		h3.3v-19.1h-3.5v8.1c-0.8-1.3-2.3-1.9-4.1-1.9C26-80.7,23.4-78.2,23.4-74.2L23.4-74.2z M33.8-74.2c0,2.3-1.6,3.7-3.4,3.7
		c-1.9,0-3.4-1.4-3.4-3.7c0-2.3,1.5-3.8,3.4-3.8C32.2-77.9,33.8-76.5,33.8-74.2z"/>
	<path id="path8177" inkscape:connector-curvature="0" class="st0" d="M48-72.7c-0.4,1.5-1.4,2.2-3,2.2c-1.8,0-3.4-1.1-3.4-3.1h8.8
		c0.1-0.5,0.2-1,0.2-1.6c0-3.5-2.4-5.5-6-5.5c-3.8,0-6.4,2.7-6.4,6.4c0,4.1,2.9,6.6,6.9,6.6c3,0,5.1-1.3,6-3.8L48-72.7z M41.5-75.9
		c0.3-1.4,1.5-2.3,3-2.3c1.6,0,2.6,0.8,2.6,2.2l0,0.1C47.1-75.9,41.5-75.9,41.5-75.9z"/>
	<path id="path8179" inkscape:connector-curvature="0" class="st0" d="M60.9-72.7c-0.4,1.5-1.4,2.2-3,2.2c-1.9,0-3.4-1.1-3.4-3.1
		h8.8c0.1-0.5,0.2-1,0.2-1.6c0-3.5-2.4-5.5-6-5.5c-3.8,0-6.4,2.7-6.4,6.4c0,4.1,2.9,6.6,6.9,6.6c3,0,5.1-1.3,6-3.8L60.9-72.7z
		 M54.5-75.9c0.3-1.4,1.5-2.3,2.9-2.3c1.6,0,2.6,0.8,2.6,2.2l0,0.1H54.5z"/>
	<path id="path8181" inkscape:connector-curvature="0" class="st0" d="M75.7-67.7v-3.2h-7.3l7.1-6.9v-2.9H64.2v3h6.9l-7.1,7v3H75.7z
		"/>
	<path id="path8183" inkscape:connector-curvature="0" class="st0" d="M85.8-72.7c-0.4,1.5-1.4,2.2-3,2.2c-1.8,0-3.4-1.1-3.4-3.1
		h8.8c0.1-0.5,0.2-1,0.2-1.6c0-3.5-2.4-5.5-6-5.5c-3.8,0-6.4,2.7-6.4,6.4c0,4.1,2.9,6.6,6.9,6.6c3,0,5.1-1.3,6-3.8L85.8-72.7z
		 M79.4-75.9c0.3-1.4,1.5-2.3,2.9-2.3c1.6,0,2.6,0.8,2.6,2.2l0,0.1H79.4z"/>
	<rect id="rect8185" x="15.6" y="-80.7" class="st1" width="4.3" height="2.5"/>
	<rect id="rect8192" x="15.6" y="-77.2" class="st1" width="4.3" height="2.5"/>
	<rect id="rect8199" x="15.6" y="-73.7" class="st1" width="4.3" height="2.5"/>
	<rect id="rect8206" y="-70.2" class="st1" width="4.3" height="2.5"/>
	<rect id="rect8213" x="5.2" y="-70.2" class="st1" width="4.3" height="2.5"/>
	<rect id="rect8220" x="10.4" y="-70.2" class="st1" width="4.3" height="2.5"/>
	<rect id="rect8227" x="15.6" y="-70.2" class="st1" width="4.3" height="2.5"/>
	<rect id="rect8234" x="10.4" y="-73.7" class="st1" width="4.3" height="2.5"/>
	<rect id="rect8241" x="5.2" y="-73.7" class="st1" width="4.3" height="2.5"/>
	<rect id="rect8248" x="5.2" y="-77.2" class="st1" width="4.3" height="2.5"/>
	<path id="path8250" inkscape:connector-curvature="0" class="st0" d="M96.6-76.2c0,0.1,0,0.4,0,0.4h3.4c0,0,0-0.6,0-1
		c0-2.2-1.4-3.8-3.7-3.8c-1.5,0-2.6,0.7-3.1,1.9v-1.9h-3.5v12.9h3.5v-8.3c0-1.3,0.7-2.1,1.8-2.1C96-78.1,96.6-77.2,96.6-76.2z"/>
</g>
</svg>
