<?xml version="1.0" encoding="utf-8"?>
<!-- Generator: Adobe Illustrator 24.1.2, SVG Export Plug-In . SVG Version: 6.00 Build 0)  -->
<svg version="1.1" id="Layer_1" xmlns="http://www.w3.org/2000/svg" xmlns:xlink="http://www.w3.org/1999/xlink" x="0px" y="0px"
	 viewBox="0 0 183 38.8" style="enable-background:new 0 0 183 38.8;" xml:space="preserve">
<style type="text/css">
	.st0{fill:#272A31;}
</style>
<g>
	<g>
		<path class="st0" d="M35.1,20.8c-0.1-0.6,0-1.2,0.1-1.7c0.4-2.4,1-4.8,1.9-7c0.5-1.3,1.3-2.5,2.3-3.5c0.2-0.2,0.5-0.4,0.7-0.7
			c0,0,0.1,0,0.1,0.1c0,0.1-0.1,0.2-0.1,0.2c-0.7,1-1.4,2-2,3.1c-1,1.6-1.6,3.4-2,5.3C35.7,17.9,35.4,19.3,35.1,20.8
			C35.1,20.7,35.1,20.7,35.1,20.8z"/>
		<path class="st0" d="M36.4,9.7c0.1-0.2,0.1-0.5,0.2-0.7c0.1-0.1,0.3-0.3,0.5-0.3c0.2,0,0.3,0.2,0.3,0.4c0.1,0.6-0.1,1.1-0.3,1.6
			c0,0.1-0.1,0.1-0.2,0.2c-0.1,0-0.2-0.1-0.2-0.2C36.5,10.4,36.5,10,36.4,9.7z"/>
		<path class="st0" d="M41.7,6c0.3,0,0.4,0.2,0.3,0.5c-0.3,0.6-0.8,0.9-1.4,1.2c0,0-0.2-0.1-0.2-0.1C40.3,7.1,41.2,6,41.7,6
			C41.7,6,41.7,6,41.7,6z"/>
		<path class="st0" d="M38.1,8c0-0.2,0.1-0.4,0.1-0.7c0.1-0.2,0.2-0.3,0.3-0.4c0.3-0.2,0.5,0,0.5,0.3c0,0.5-0.3,1-0.6,1.4
			c-0.1,0.1-0.3,0.1-0.3-0.1C38.2,8.3,38.2,8.2,38.1,8z"/>
		<path class="st0" d="M38.7,11.4c0,0-0.2,0-0.2-0.1c0,0,0-0.2,0.1-0.3c0.3-0.2,0.5-0.4,0.8-0.6c0.1-0.1,0.3-0.1,0.4-0.1
			c0.1,0,0.3,0.1,0.3,0.2c0,0.1,0,0.3-0.1,0.3C39.7,11.2,39.2,11.3,38.7,11.4z"/>
		<path class="st0" d="M36.2,12.1c-0.1,0.3-0.1,0.5-0.2,0.8c0,0.1-0.1,0.1-0.2,0.1c0,0-0.1-0.1-0.1-0.1c-0.2-0.4-0.4-0.7-0.3-1.2
			c0-0.1,0-0.2,0.1-0.3c0.2-0.2,0.4-0.2,0.5,0.1C36.1,11.6,36.2,11.9,36.2,12.1z"/>
		<path class="st0" d="M40.5,9.3c-0.2,0-0.3,0-0.5-0.1c-0.1,0-0.2-0.1-0.2-0.1c0,0,0-0.2,0.1-0.2c0.3-0.2,0.6-0.3,0.9-0.4
			c0.1,0,0.3,0,0.4,0.1c0.2,0.2,0.2,0.4,0,0.6C41.1,9.2,40.8,9.3,40.5,9.3C40.5,9.3,40.5,9.3,40.5,9.3z"/>
		<path class="st0" d="M37.3,14c0,0-0.2,0-0.2-0.1c0-0.1,0-0.2,0.1-0.3c0.3-0.2,0.5-0.4,0.8-0.6c0.1-0.1,0.3-0.1,0.4-0.1
			c0.1,0,0.3,0.1,0.3,0.2c0,0.1,0,0.3-0.1,0.3C38.2,13.8,37.8,13.9,37.3,14z"/>
	</g>
	<g>
		<path class="st0" d="M34.9,14.7c-0.3,0-0.6,0-0.9,0c-0.3,0-0.4,0-0.4-0.3c0-0.4-0.2-0.7-0.4-0.9c-0.4-0.3-0.8-0.5-1.3-0.5
			c-0.8,0-1.5,0.3-2.2,0.8c-1.1,0.7-2,1.5-2.8,2.5c-0.2,0.3-0.3,0.3-0.5-0.1c-0.5-1.3-1.2-2.4-2.1-3.4c-1.1-1.3-2.3-2.6-3.5-3.8
			c-2.3-2.4-5-4.5-8-5.9c-1.4-0.7-2.9-1.2-4.5-1.3c-0.7,0-1.4,0-2,0.4C5.5,2.5,5.3,3.1,5.4,3.8C5.5,4.3,5.9,4.9,6.5,5
			C6.4,4.8,6.3,4.6,6.2,4.5C5.8,3.8,6.1,3,6.8,2.8c0.6-0.2,1.1-0.1,1.7,0c2.7,0.5,5.2,1.6,7.4,3.2c3,2.3,5.7,4.9,8.1,7.8
			c0.8,1,1.4,2,1.8,3.2c0.1,0.2,0.1,0.3,0,0.5c-0.3,0.6-0.6,1.3-0.9,1.9c-0.2,0.6-0.4,1.3-0.1,1.9c0.2,0.5,0.7,0.6,1.1,0.3
			c0.5-0.4,0.7-0.8,0.8-1.4c0.1-0.7,0-1.3,0.1-2c0-0.2,0-0.5,0.1-0.7c0.7-1,1.5-1.9,2.3-2.8c0.7-0.7,1.6-1.1,2.7-0.9
			c0.3,0,0.5,0.2,0.5,0.6c0,0.1,0,0.2,0,0.3c0,0.2,0,0.4,0.2,0.6c0.2,0.1,0.4,0,0.6-0.1c0.4-0.3,0.8-0.2,1.3-0.2
			c0,0.1,0,0.1-0.1,0.1c-0.1,0.1-0.3,0.2-0.4,0.3c-0.9,0.5-1.6,1.3-2.1,2.2c-0.4,0.8-0.7,1.6-0.8,2.5c-0.3,1.4-0.8,2.6-1.8,3.5
			c-0.1,0.1-0.2,0.2-0.3,0.2c-0.2,0.2-1,0.8-1,0.8c-0.1,0.1-0.2,0.1-0.3,0.2c-1.6,1-3.2,1.8-5.1,2.2c-1.5,0.3-3.1,0.6-4.6,0.9
			c-1.6,0.3-3.1,0.8-4.5,1.7c-2.1,1.3-3.8,3-4.7,5.4c-0.3,0.7-0.5,1.4-0.4,2.2c0,0.2,0,0.4,0.3,0.5c0-0.2,0.1-0.3,0.1-0.4
			c0-0.7,0.2-1.5,0.5-2.1c0.8-2,2.3-3.5,4.2-4.4c1.1-0.6,2.3-0.9,3.5-1.2c2.3-0.6,4.6-1.2,6.9-1.8c0.6-0.1,1.1-0.3,1.7-0.4
			c0.2-0.1,2.2-0.7,2.2-0.8c1-0.4,1.9-1,2.7-1.8c0.7-0.7,1.2-1.5,1.6-2.3c0.4-1,0.6-2,0.8-3c0.3-1.5,1-2.8,2.3-3.8
			c0.1-0.1,0.3-0.3,0.4-0.4C35.3,14.9,35.1,14.8,34.9,14.7z M26.3,20.5c0,0.3-0.2,0.6-0.5,0.8c-0.2,0.1-0.3,0.1-0.3-0.1
			c0-0.1,0-0.2,0-0.4c0.1-0.6,0.3-1.2,0.6-1.7c0-0.1,0.1-0.1,0.1-0.1c0,0,0.1,0,0.1-0.1c0,0.1,0.1,0.2,0.1,0.2
			C26.3,19.6,26.3,20,26.3,20.5z"/>
		<path class="st0" d="M19.6,12.1c-0.8-1-1.7-1.9-2.8-2.6c-0.9-0.6-1.9-1.1-2.9-1.6C12.3,7,10.5,6.4,8.7,6C8.1,5.9,7.5,6,7,6.3
			C6.6,6.7,6.5,7.1,6.7,7.5C6.8,7.7,7,7.9,7.2,8.1c0.4,0.3,0.8,0.6,1.1,1c0.1,0.1,0.1,0.1,0.2,0.2c-0.1,0-0.2,0.1-0.3,0
			C8,9.3,7.7,9.3,7.5,9.3C6.6,9.2,5.8,9.3,5,9.9c-0.7,0.5-0.7,1.2-0.1,1.8c0.3,0.4,0.8,0.7,1.2,0.9c0.8,0.4,1.5,0.8,2.3,1.2
			c0.1,0,0.2,0.1,0.3,0.2c-0.2,0.1-0.3,0.1-0.4,0.2c-0.3,0.1-0.7,0.2-1,0.4c-0.8,0.4-1.1,1.5-0.4,2.1c0.4,0.4,0.9,0.8,1.4,1.1
			c1,0.6,2.2,1,3.3,1.3c0.2,0.1,0.3,0.1,0.5,0.2c-0.3,0.4-0.5,0.7-0.7,1.1c-0.4,0.7-0.4,1.5,0.1,2c0.7,0.9,1.8,1,2.8,1.2
			c0,0,0,0,0-0.1c-0.4-0.2-0.9-0.3-1.3-0.5c-0.5-0.2-0.9-0.6-1.1-1.1c-0.2-0.4-0.1-0.8,0.2-1.1c0.3-0.2,0.6-0.5,0.9-0.6
			c0.4-0.3,0.9-0.3,1.4-0.3c0.5,0.1,0.9,0.2,1.4,0.2c0.6,0.1,1.2,0,1.7-0.3c0.6-0.3,0.6-0.9,0.1-1.3c-0.2-0.1-0.4-0.2-0.6-0.2
			c-1.1-0.3-2.1-0.2-3.1,0.1c-0.4,0.1-0.7,0.1-1.1,0c-1.1-0.5-2.3-0.9-3.4-1.4c-0.8-0.3-1.6-0.7-2.3-1.3c-0.1-0.1-0.2-0.3-0.2-0.4
			c0-0.2,0.2-0.3,0.4-0.3c0.3,0,0.6-0.1,0.9-0.1c0.5,0,1,0,1.5,0c0.7,0,1.3,0.2,1.8,0.5c0.8,0.4,1.7,0.8,2.6,1.1
			c0.6,0.2,1.2,0.3,1.9,0.2c0.2,0,0.4-0.1,0.5-0.3c0.1-0.2,0-0.4-0.2-0.5c-0.3-0.2-0.6-0.5-0.9-0.7c-1.6-0.8-3.3-1.3-5.1-1.4
			c-0.3,0-0.7-0.1-1-0.3c-0.6-0.3-1.2-0.6-1.7-1c-0.7-0.4-1.4-1-1.9-1.6c-0.2-0.2-0.2-0.4,0.1-0.5c0.1-0.1,0.3-0.2,0.5-0.2
			c0.7,0,1.5-0.1,2.2,0c1.4,0.1,2.8,0.4,4,1.2c0.1,0.1,0.2,0.1,0.2,0.1c1.2,0.6,2.3,1.3,3.5,1.8c0.4,0.1,0.6,0.1,0.7-0.1
			c0.1-0.2-0.1-0.5-0.4-0.7c-1.5-0.8-3-1.6-4.6-2.2c-0.6-0.2-1.3-0.4-1.9-0.8C9.2,9.2,8.4,8.5,7.7,7.7C7.4,7.3,7.5,7.1,7.9,7
			c0.5-0.2,1-0.1,1.4,0.1c1.4,0.5,2.8,1,4.1,1.5c2.2,0.9,4.2,2.2,5.9,3.8c0.1,0.1,0.2,0.1,0.3,0.2c0,0,0,0,0.1-0.1
			C19.7,12.4,19.7,12.2,19.6,12.1z M17.3,19.4c-0.3,0.2-0.9,0.3-1.3,0.1C16.4,19.2,16.9,19.2,17.3,19.4z M16,16.3
			C16,16.3,16,16.3,16,16.3c-0.2,0.1-0.4,0.1-0.6,0.1c-0.9-0.2-1.7-0.6-2.6-1C14,15.4,15,15.7,16,16.3z M13.3,11.6
			c0.2,0.1,0.4,0.1,0.5,0.2c0.7,0.3,1.3,0.6,2,0.9c0.1,0.1,0.3,0.2,0.4,0.4C15.1,12.7,14.2,12.2,13.3,11.6
			C13.3,11.6,13.3,11.6,13.3,11.6z"/>
		<path class="st0" d="M29,10.2c-0.2-1.9-0.7-3.8-1.4-5.6c-0.6-1.5-1.5-2.8-2.8-3.8C24.4,0.4,24,0.1,23.4,0
			c-0.7-0.1-1.2,0.1-1.4,0.7c-0.1,0.3-0.2,0.7-0.2,1c0.1,0.8,0.2,1.6,0.3,2.3c0.1,0.4,0.1,0.8,0.2,1.3c0,0.1,0,0.2-0.1,0.3
			c-0.1,0-0.2,0-0.2-0.1c-0.2-0.2-0.4-0.4-0.6-0.5c-1-0.8-2.1-1.5-3.3-1.9C17.8,3,17.5,3,17.2,3c-0.4,0-0.5,0.3-0.2,0.6
			C17,3.8,17.1,3.9,17.2,4c0.8,0.8,1.7,1.6,2.5,2.3c0.5,0.4,1.1,0.8,1.7,1.1c0.3,0.2,0.7,0.2,1.1,0c0.1-0.1,0.2-0.1,0.3,0
			c0.3,0.3,0.6,0.6,0.8,0.9c0.9,1.3,1.7,2.7,2.4,4.2c0.2,0.4,0.4,0.7,0.5,1c0.1,0.2,0.3,0.3,0.5,0.2c0.2-0.1,0.3-0.3,0.2-0.5
			c-0.1-0.5-0.2-1-0.5-1.4c-0.9-1.9-2-3.7-3.6-5.2c-0.2-0.2-0.3-0.4-0.3-0.7c0-0.4-0.1-0.8-0.1-1.3c-0.1-1-0.2-1.9-0.3-2.9
			c0-0.4,0.1-0.7,0.4-1c0.5,0.3,1,0.7,1.4,1.1c1.1,1.3,2,2.8,2.6,4.4c0.6,1.5,0.9,3.2,1.1,4.8c0.1,0.4,0.2,0.7,0.3,1.1
			c0,0.1,0.2,0.2,0.3,0.2c0.1,0,0.3-0.1,0.3-0.2c0.1-0.2,0.2-0.5,0.2-0.7C29.1,11.1,29.1,10.6,29,10.2z M21.9,6.9
			c-0.2-0.1-0.4-0.1-0.6-0.2c-1.1-0.6-2.1-1.4-2.9-2.3c-0.1-0.1-0.2-0.2-0.3-0.4c0,0,0,0,0-0.1c0.2,0.1,0.4,0.1,0.5,0.2
			c1.2,0.6,2.2,1.3,3.1,2.2c0.1,0.1,0.2,0.2,0.2,0.3c0,0.1,0,0.1,0.1,0.2C22.1,6.9,22,7,21.9,6.9z"/>
		<path class="st0" d="M2.6,32.2c0.2,0,0.3,0,0.4,0c1.3-0.4,2.4-0.9,3.6-1.5c0.7-0.4,1.4-0.9,2-1.3C8.9,29.1,9.1,29,9.3,29
			c0.1,0,0.3,0,0.4,0.1c0.1,0.1,0.1,0.3,0,0.4c-0.1,0.2-0.3,0.4-0.4,0.6c-0.7,0.9-1.5,1.7-2.1,2.7c-0.6,1.1-0.9,2.2-0.9,3.4
			c0,0.6,1.1,2.2,1.3,2.6c-0.4,0-1.7-1-1.8-1.2c-0.6-0.8-0.7-1.7-0.7-2.7c0.1-1.2,0.5-2.2,1.1-3.2c0.1-0.1,0.1-0.2,0.1-0.3
			c0,0,0-0.1,0-0.2c0,0-0.1,0-0.2,0c-0.1,0-0.1,0.1-0.2,0.1c-0.8,0.4-1.6,0.8-2.4,1.2c-0.3,0.1-0.7,0.2-1,0.2
			c-0.4,0-0.6-0.4-0.5-0.8c0.1-0.5,0.4-1,0.7-1.5c0.5-0.7,1.1-1.3,1.7-1.8c0.2-0.1,0.3-0.2,0.5-0.4c0,0,0.1-0.1,0.1-0.1
			c0,0-0.1-0.1-0.1-0.1c-0.1,0-0.2,0-0.3,0c-1,0-2.1,0-3.1-0.2c-0.4-0.1-0.8-0.3-1.1-0.6c-0.4-0.3-0.4-0.8-0.1-1.2
			c0.4-0.5,0.9-0.7,1.4-0.9c1.2-0.5,2.4-0.8,3.6-1c2.2-0.2,4.4,0,6.6,0.5c0.3,0.1,0.6,0.2,0.9,0.3c0.2,0.1,0.4,0.1,0.3,0.4
			c-0.1,0.2-0.3,0.1-0.4,0.1c-1.8-0.7-3.7-0.9-5.7-0.9c-1.7,0.1-3.3,0.3-4.9,0.9c-0.3,0.1-0.6,0.3-0.9,0.5C1,26,0.8,26.2,0.7,26.3
			c-0.2,0.2-0.1,0.4,0.1,0.4c0.4,0.1,0.7,0.2,1.1,0.2c1.3,0.1,2.6,0.1,3.9-0.1c1.2-0.1,2.4-0.3,3.6-0.6c0.3-0.1,0.6,0.1,0.7,0.4
			c0.1,0.3-0.1,0.5-0.4,0.6c-0.8,0.3-1.6,0.5-2.4,0.8c-1.6,0.6-2.9,1.5-4,2.8c-0.2,0.2-0.3,0.4-0.4,0.7C2.7,31.7,2.7,31.9,2.6,32.2z
			"/>
		<path class="st0" d="M31.8,15.3c0,0.2-0.2,0.4-0.4,0.4c-0.2,0-0.4-0.1-0.3-0.3c0-0.2,0.2-0.4,0.4-0.4C31.7,15,31.8,15.1,31.8,15.3
			z"/>
	</g>
</g>
<g>
	<g>
		<path class="st0" d="M44.1,17.2c-0.1,0-0.3-0.1-0.4-0.2c-0.1-0.1-0.2-0.2-0.2-0.4V4.3h-4c-0.1,0-0.3-0.1-0.4-0.2
			C39,4,39,3.9,39,3.7V2.1c0-0.2,0.1-0.3,0.2-0.4c0.1-0.1,0.2-0.2,0.4-0.2h11.1c0.2,0,0.3,0.1,0.4,0.2c0.1,0.1,0.2,0.2,0.2,0.4v1.7
			c0,0.1-0.1,0.3-0.2,0.4c-0.1,0.1-0.2,0.2-0.4,0.2h-4v12.4c0,0.1-0.1,0.3-0.2,0.4c-0.1,0.1-0.2,0.2-0.4,0.2H44.1z"/>
		<path class="st0" d="M53.9,17.2c-0.1,0-0.3,0-0.4-0.1c-0.1-0.1-0.2-0.2-0.2-0.4V2.1c0-0.2,0.1-0.3,0.2-0.4
			c0.1-0.1,0.2-0.2,0.4-0.2h2c0.2,0,0.3,0.1,0.4,0.2c0.1,0.1,0.1,0.2,0.1,0.4v5.8h6.4V2.1c0-0.2,0.1-0.3,0.2-0.4
			c0.1-0.1,0.2-0.2,0.4-0.2h2c0.2,0,0.3,0.1,0.4,0.2c0.1,0.1,0.2,0.2,0.2,0.4v14.6c0,0.1-0.1,0.3-0.2,0.4c-0.1,0.1-0.2,0.2-0.4,0.2
			h-2c-0.1,0-0.3-0.1-0.4-0.2c-0.1-0.1-0.2-0.2-0.2-0.4v-6h-6.4v6c0,0.1,0,0.3-0.1,0.4c-0.1,0.1-0.2,0.2-0.4,0.2H53.9z"/>
		<path class="st0" d="M69.9,17.2c-0.1,0-0.3-0.1-0.4-0.2c-0.1-0.1-0.2-0.2-0.2-0.4V2.1c0-0.2,0.1-0.3,0.2-0.4
			c0.1-0.1,0.2-0.2,0.4-0.2h9.6c0.2,0,0.3,0.1,0.4,0.2C80,1.8,80,1.9,80,2.1v1.5c0,0.1-0.1,0.3-0.2,0.4c-0.1,0.1-0.2,0.2-0.4,0.2
			h-7.2v4H79c0.2,0,0.3,0,0.4,0.1c0.1,0.1,0.2,0.2,0.2,0.4V10c0,0.2-0.1,0.3-0.2,0.4c-0.1,0.1-0.2,0.1-0.4,0.1h-6.7v4.1h7.4
			c0.2,0,0.3,0.1,0.4,0.2c0.1,0.1,0.2,0.2,0.2,0.4v1.5c0,0.1-0.1,0.3-0.2,0.4c-0.1,0.1-0.2,0.2-0.4,0.2H69.9z"/>
		<path class="st0" d="M86.4,17.2c-0.1,0-0.2,0-0.3-0.1C86,16.9,86,16.8,86,16.7c0-0.1,0-0.1,0-0.2l5.3-14.4c0-0.1,0.1-0.3,0.3-0.4
			c0.1-0.1,0.3-0.2,0.5-0.2h2.4c0.2,0,0.4,0.1,0.5,0.2c0.1,0.1,0.2,0.2,0.3,0.4l5.3,14.4c0,0.1,0,0.1,0,0.2c0,0.1,0,0.2-0.1,0.3
			c-0.1,0.1-0.2,0.1-0.3,0.1h-1.9c-0.2,0-0.4,0-0.4-0.1c-0.1-0.1-0.2-0.2-0.2-0.3l-1-2.7H90l-1,2.7c0,0.1-0.1,0.2-0.2,0.3
			c-0.1,0.1-0.2,0.1-0.4,0.1H86.4z M90.8,11.4h5l-2.5-6.9L90.8,11.4z"/>
		<path class="st0" d="M103,17.2c-0.1,0-0.3-0.1-0.4-0.2c-0.1-0.1-0.2-0.2-0.2-0.4V2.1c0-0.2,0.1-0.3,0.2-0.4
			c0.1-0.1,0.2-0.2,0.4-0.2h1.7c0.2,0,0.4,0,0.4,0.1c0.1,0.1,0.2,0.2,0.2,0.2l6.3,10V2.1c0-0.2,0-0.3,0.1-0.4
			c0.1-0.1,0.2-0.2,0.4-0.2h1.8c0.2,0,0.3,0.1,0.4,0.2c0.1,0.1,0.2,0.2,0.2,0.4v14.5c0,0.2-0.1,0.3-0.2,0.4
			c-0.1,0.1-0.2,0.2-0.4,0.2h-1.7c-0.2,0-0.3-0.1-0.4-0.2c-0.1-0.1-0.2-0.2-0.2-0.2L105.4,7v9.6c0,0.1-0.1,0.3-0.2,0.4
			c-0.1,0.1-0.2,0.2-0.4,0.2H103z"/>
		<path class="st0" d="M118.5,17.2c-0.1,0-0.3-0.1-0.4-0.2c-0.1-0.1-0.2-0.2-0.2-0.4V2.1c0-0.2,0.1-0.3,0.2-0.4
			c0.1-0.1,0.2-0.2,0.4-0.2h1.7c0.2,0,0.4,0,0.4,0.1c0.1,0.1,0.2,0.2,0.2,0.2l6.3,10V2.1c0-0.2,0-0.3,0.1-0.4
			c0.1-0.1,0.2-0.2,0.4-0.2h1.8c0.2,0,0.3,0.1,0.4,0.2c0.1,0.1,0.2,0.2,0.2,0.4v14.5c0,0.2-0.1,0.3-0.2,0.4
			c-0.1,0.1-0.2,0.2-0.4,0.2h-1.7c-0.2,0-0.3-0.1-0.4-0.2c-0.1-0.1-0.2-0.2-0.2-0.2L120.9,7v9.6c0,0.1-0.1,0.3-0.2,0.4
			c-0.1,0.1-0.2,0.2-0.4,0.2H118.5z"/>
		<path class="st0" d="M139.5,17.4c-1.3,0-2.4-0.2-3.3-0.7c-0.9-0.4-1.7-1.1-2.2-2c-0.5-0.9-0.8-2.1-0.8-3.5V2.1
			c0-0.2,0.1-0.3,0.2-0.4c0.1-0.1,0.2-0.2,0.4-0.2h2c0.2,0,0.3,0.1,0.4,0.2c0.1,0.1,0.1,0.2,0.1,0.4v9.1c0,1.2,0.3,2.1,0.9,2.7
			c0.6,0.6,1.3,0.9,2.3,0.9c1,0,1.8-0.3,2.3-0.9c0.6-0.6,0.8-1.5,0.8-2.7V2.1c0-0.2,0.1-0.3,0.2-0.4c0.1-0.1,0.2-0.2,0.4-0.2h2
			c0.2,0,0.3,0.1,0.4,0.2c0.1,0.1,0.1,0.2,0.1,0.4v9.1c0,1.4-0.3,2.6-0.8,3.5c-0.5,0.9-1.2,1.6-2.1,2
			C141.9,17.2,140.8,17.4,139.5,17.4z"/>
		<path class="st0" d="M147.7,17.2c-0.1,0-0.2,0-0.3-0.1c-0.1-0.1-0.1-0.2-0.1-0.3c0-0.1,0-0.1,0-0.2l5.3-14.4
			c0-0.1,0.1-0.3,0.3-0.4c0.1-0.1,0.3-0.2,0.5-0.2h2.4c0.2,0,0.4,0.1,0.5,0.2c0.1,0.1,0.2,0.2,0.3,0.4l5.3,14.4c0,0.1,0,0.1,0,0.2
			c0,0.1,0,0.2-0.1,0.3c-0.1,0.1-0.2,0.1-0.3,0.1h-1.9c-0.2,0-0.4,0-0.4-0.1c-0.1-0.1-0.2-0.2-0.2-0.3l-1-2.7h-6.5l-1,2.7
			c0,0.1-0.1,0.2-0.2,0.3c-0.1,0.1-0.2,0.1-0.4,0.1H147.7z M152.1,11.4h5l-2.5-6.9L152.1,11.4z"/>
		<path class="st0" d="M164.3,17.2c-0.1,0-0.3-0.1-0.4-0.2c-0.1-0.1-0.2-0.2-0.2-0.4V2c0-0.1,0.1-0.3,0.2-0.4
			c0.1-0.1,0.2-0.2,0.4-0.2h2c0.1,0,0.3,0.1,0.4,0.2c0.1,0.1,0.2,0.2,0.2,0.4v12.5h6.9c0.2,0,0.3,0.1,0.4,0.2
			c0.1,0.1,0.2,0.2,0.2,0.4v1.6c0,0.1-0.1,0.3-0.2,0.4c-0.1,0.1-0.2,0.2-0.4,0.2H164.3z"/>
	</g>
	<g>
		<path class="st0" d="M39.4,35.2c-0.1,0-0.2,0-0.3-0.1C39,35,39,34.9,39,34.8V23.2c0-0.1,0-0.2,0.1-0.3c0.1-0.1,0.2-0.1,0.3-0.1
			h4.9c1,0,1.8,0.2,2.5,0.5s1.3,0.8,1.7,1.4c0.4,0.6,0.6,1.4,0.6,2.3c0,0.9-0.2,1.7-0.6,2.3c-0.4,0.6-1,1-1.7,1.3
			c-0.7,0.3-1.6,0.4-2.5,0.4h-2.1v3.9c0,0.1,0,0.2-0.1,0.3c-0.1,0.1-0.2,0.1-0.3,0.1H39.4z M42.2,28.4h2c0.5,0,0.9-0.1,1.2-0.4
			c0.3-0.3,0.4-0.7,0.4-1.2c0-0.5-0.1-0.8-0.4-1.1c-0.3-0.3-0.7-0.5-1.3-0.5h-2V28.4z"/>
		<path class="st0" d="M51.2,35.2c-0.1,0-0.2,0-0.3-0.1c-0.1-0.1-0.1-0.2-0.1-0.3V23.2c0-0.1,0-0.2,0.1-0.3c0.1-0.1,0.2-0.1,0.3-0.1
			h8.1c0.1,0,0.2,0,0.3,0.1c0.1,0.1,0.1,0.2,0.1,0.3v1.7c0,0.1,0,0.2-0.1,0.3c-0.1,0.1-0.2,0.1-0.3,0.1h-5.6v2.4h5.2
			c0.1,0,0.2,0,0.3,0.1c0.1,0.1,0.1,0.2,0.1,0.3v1.6c0,0.1,0,0.2-0.1,0.3c-0.1,0.1-0.2,0.1-0.3,0.1h-5.2v2.5h5.7
			c0.1,0,0.2,0,0.3,0.1c0.1,0.1,0.1,0.2,0.1,0.3v1.7c0,0.1,0,0.2-0.1,0.3c-0.1,0.1-0.2,0.1-0.3,0.1H51.2z"/>
		<path class="st0" d="M61.2,35.2c-0.1,0-0.2,0-0.3-0.1c-0.1-0.1-0.1-0.2-0.1-0.3c0-0.1,0-0.1,0-0.2l4.1-11.4c0-0.1,0.1-0.2,0.2-0.3
			c0.1-0.1,0.3-0.2,0.5-0.2h2.6c0.2,0,0.4,0.1,0.5,0.2c0.1,0.1,0.2,0.2,0.2,0.3l4.1,11.4c0,0,0,0.1,0,0.2c0,0.1,0,0.2-0.1,0.3
			c-0.1,0.1-0.2,0.1-0.3,0.1h-2.1c-0.2,0-0.3,0-0.4-0.1c-0.1-0.1-0.1-0.2-0.2-0.2L69.2,33h-4.7l-0.7,1.8c0,0.1-0.1,0.2-0.2,0.2
			c-0.1,0.1-0.2,0.1-0.4,0.1H61.2z M65.3,30.4h3.2l-1.6-4.7L65.3,30.4z"/>
		<path class="st0" d="M79.1,35.4c-1.1,0-2-0.2-2.8-0.6c-0.8-0.4-1.4-0.9-1.8-1.6c-0.4-0.7-0.7-1.6-0.7-2.7c0-0.5,0-1,0-1.6
			c0-0.6,0-1.1,0-1.6c0-1,0.3-1.9,0.7-2.6c0.4-0.7,1.1-1.3,1.8-1.6c0.8-0.4,1.7-0.6,2.8-0.6c0.8,0,1.5,0.1,2.1,0.3
			c0.7,0.2,1.2,0.5,1.7,0.9c0.5,0.4,0.9,0.8,1.1,1.4c0.3,0.5,0.4,1.1,0.4,1.8c0,0.1,0,0.2-0.1,0.3c-0.1,0.1-0.2,0.1-0.3,0.1h-2.4
			c-0.2,0-0.3,0-0.3-0.1c-0.1-0.1-0.2-0.2-0.2-0.4c-0.2-0.6-0.4-1.1-0.8-1.3c-0.4-0.2-0.8-0.3-1.3-0.3c-0.6,0-1.1,0.2-1.5,0.5
			c-0.4,0.4-0.6,1-0.6,1.8c0,1,0,2,0,3c0,0.8,0.2,1.4,0.6,1.8c0.4,0.4,0.9,0.5,1.5,0.5c0.5,0,1-0.1,1.4-0.4c0.4-0.2,0.6-0.7,0.8-1.3
			c0-0.2,0.1-0.3,0.2-0.4c0.1-0.1,0.2-0.1,0.4-0.1h2.4c0.1,0,0.2,0,0.3,0.1c0.1,0.1,0.1,0.2,0.1,0.3c0,0.7-0.2,1.3-0.4,1.8
			c-0.3,0.5-0.7,1-1.1,1.4c-0.5,0.4-1.1,0.7-1.7,0.9C80.6,35.3,79.9,35.4,79.1,35.4z"/>
		<path class="st0" d="M86.8,35.2c-0.1,0-0.2,0-0.3-0.1c-0.1-0.1-0.1-0.2-0.1-0.3V23.2c0-0.1,0-0.2,0.1-0.3c0.1-0.1,0.2-0.1,0.3-0.1
			h8.1c0.1,0,0.2,0,0.3,0.1c0.1,0.1,0.1,0.2,0.1,0.3v1.7c0,0.1,0,0.2-0.1,0.3c-0.1,0.1-0.2,0.1-0.3,0.1h-5.6v2.4h5.2
			c0.1,0,0.2,0,0.3,0.1c0.1,0.1,0.1,0.2,0.1,0.3v1.6c0,0.1,0,0.2-0.1,0.3c-0.1,0.1-0.2,0.1-0.3,0.1h-5.2v2.5H95c0.1,0,0.2,0,0.3,0.1
			c0.1,0.1,0.1,0.2,0.1,0.3v1.7c0,0.1,0,0.2-0.1,0.3c-0.1,0.1-0.2,0.1-0.3,0.1H86.8z"/>
		<path class="st0" d="M106.2,35.4c-1.1,0-2-0.2-2.8-0.6c-0.8-0.4-1.4-0.9-1.8-1.6c-0.4-0.7-0.7-1.6-0.7-2.7c0-0.5,0-1,0-1.6
			c0-0.6,0-1.1,0-1.6c0-1,0.3-1.9,0.7-2.6c0.4-0.7,1.1-1.3,1.8-1.6c0.8-0.4,1.7-0.6,2.8-0.6c0.8,0,1.5,0.1,2.1,0.3
			c0.7,0.2,1.2,0.5,1.7,0.9c0.5,0.4,0.9,0.8,1.1,1.4c0.3,0.5,0.4,1.1,0.4,1.8c0,0.1,0,0.2-0.1,0.3c-0.1,0.1-0.2,0.1-0.3,0.1h-2.4
			c-0.2,0-0.3,0-0.3-0.1c-0.1-0.1-0.2-0.2-0.2-0.4c-0.2-0.6-0.4-1.1-0.8-1.3c-0.4-0.2-0.8-0.3-1.3-0.3c-0.6,0-1.1,0.2-1.5,0.5
			c-0.4,0.4-0.6,1-0.6,1.8c0,1,0,2,0,3c0,0.8,0.2,1.4,0.6,1.8c0.4,0.4,0.9,0.5,1.5,0.5c0.5,0,1-0.1,1.4-0.4c0.4-0.2,0.6-0.7,0.8-1.3
			c0-0.2,0.1-0.3,0.2-0.4c0.1-0.1,0.2-0.1,0.4-0.1h2.4c0.1,0,0.2,0,0.3,0.1c0.1,0.1,0.1,0.2,0.1,0.3c0,0.7-0.2,1.3-0.4,1.8
			c-0.3,0.5-0.7,1-1.1,1.4c-0.5,0.4-1.1,0.7-1.7,0.9C107.6,35.3,106.9,35.4,106.2,35.4z"/>
		<path class="st0" d="M118.4,35.4c-1.1,0-2-0.2-2.8-0.5c-0.8-0.4-1.4-0.9-1.8-1.6c-0.4-0.7-0.7-1.6-0.7-2.7c0-0.5,0-1,0-1.5
			c0-0.5,0-1,0-1.5c0-1.1,0.3-2,0.7-2.7c0.4-0.7,1.1-1.3,1.9-1.6c0.8-0.4,1.7-0.6,2.8-0.6c1.1,0,2,0.2,2.8,0.6
			c0.8,0.4,1.4,0.9,1.9,1.6c0.5,0.7,0.7,1.6,0.7,2.7c0,0.5,0,1,0,1.5c0,0.5,0,1,0,1.5c0,1.1-0.3,2-0.7,2.7c-0.4,0.7-1.1,1.3-1.9,1.6
			C120.4,35.2,119.4,35.4,118.4,35.4z M118.4,32.8c0.6,0,1.1-0.2,1.5-0.6c0.4-0.4,0.6-1,0.6-1.8c0-0.5,0-1,0-1.5c0-0.5,0-0.9,0-1.4
			c0-0.6-0.1-1-0.3-1.4c-0.2-0.4-0.4-0.6-0.7-0.8c-0.3-0.2-0.7-0.2-1.1-0.2c-0.4,0-0.7,0.1-1.1,0.2c-0.3,0.2-0.6,0.4-0.7,0.8
			c-0.2,0.4-0.3,0.8-0.3,1.4c0,0.5,0,1,0,1.4c0,0.5,0,1,0,1.5c0,0.8,0.2,1.4,0.6,1.8C117.3,32.6,117.8,32.8,118.4,32.8z"/>
		<path class="st0" d="M126.2,35.2c-0.1,0-0.2,0-0.3-0.1c-0.1-0.1-0.1-0.2-0.1-0.3V23.2c0-0.1,0-0.2,0.1-0.3
			c0.1-0.1,0.2-0.1,0.3-0.1h1.8c0.2,0,0.3,0,0.4,0.1c0.1,0.1,0.1,0.2,0.2,0.2l4.3,6.8v-6.7c0-0.1,0-0.2,0.1-0.3
			c0.1-0.1,0.2-0.1,0.3-0.1h2.1c0.1,0,0.2,0,0.3,0.1c0.1,0.1,0.1,0.2,0.1,0.3v11.6c0,0.1,0,0.2-0.1,0.3c-0.1,0.1-0.2,0.1-0.3,0.1
			h-1.9c-0.2,0-0.3,0-0.4-0.1c-0.1-0.1-0.1-0.2-0.2-0.2l-4.3-6.6v6.5c0,0.1,0,0.2-0.1,0.3c-0.1,0.1-0.2,0.1-0.3,0.1H126.2z"/>
		<path class="st0" d="M143.3,35.4c-1.1,0-2-0.2-2.8-0.6c-0.8-0.4-1.4-0.9-1.8-1.6c-0.4-0.7-0.7-1.6-0.7-2.7c0-0.5,0-1,0-1.6
			c0-0.6,0-1.1,0-1.6c0-1,0.3-1.9,0.7-2.6c0.4-0.7,1.1-1.3,1.8-1.6c0.8-0.4,1.7-0.6,2.8-0.6c0.8,0,1.5,0.1,2.1,0.3
			c0.7,0.2,1.2,0.5,1.7,0.9c0.5,0.4,0.9,0.8,1.1,1.4c0.3,0.5,0.4,1.1,0.4,1.8c0,0.1,0,0.2-0.1,0.3c-0.1,0.1-0.2,0.1-0.3,0.1H146
			c-0.2,0-0.3,0-0.3-0.1c-0.1-0.1-0.2-0.2-0.2-0.4c-0.2-0.6-0.4-1.1-0.8-1.3c-0.4-0.2-0.8-0.3-1.4-0.3c-0.6,0-1.1,0.2-1.5,0.5
			c-0.4,0.4-0.6,1-0.6,1.8c0,1,0,2,0,3c0,0.8,0.2,1.4,0.6,1.8c0.4,0.4,0.9,0.5,1.5,0.5c0.5,0,1-0.1,1.4-0.4c0.4-0.2,0.6-0.7,0.8-1.3
			c0-0.2,0.1-0.3,0.2-0.4c0.1-0.1,0.2-0.1,0.4-0.1h2.4c0.1,0,0.2,0,0.3,0.1c0.1,0.1,0.1,0.2,0.1,0.3c0,0.7-0.2,1.3-0.4,1.8
			c-0.3,0.5-0.7,1-1.1,1.4c-0.5,0.4-1.1,0.7-1.7,0.9C144.8,35.3,144.1,35.4,143.3,35.4z"/>
		<path class="st0" d="M151,35.2c-0.1,0-0.2,0-0.3-0.1c-0.1-0.1-0.1-0.2-0.1-0.3V23.2c0-0.1,0-0.2,0.1-0.3c0.1-0.1,0.2-0.1,0.3-0.1
			h8.1c0.1,0,0.2,0,0.3,0.1c0.1,0.1,0.1,0.2,0.1,0.3v1.7c0,0.1,0,0.2-0.1,0.3c-0.1,0.1-0.2,0.1-0.3,0.1h-5.6v2.4h5.2
			c0.1,0,0.2,0,0.3,0.1c0.1,0.1,0.1,0.2,0.1,0.3v1.6c0,0.1,0,0.2-0.1,0.3c-0.1,0.1-0.2,0.1-0.3,0.1h-5.2v2.5h5.7
			c0.1,0,0.2,0,0.3,0.1c0.1,0.1,0.1,0.2,0.1,0.3v1.7c0,0.1,0,0.2-0.1,0.3c-0.1,0.1-0.2,0.1-0.3,0.1H151z"/>
		<path class="st0" d="M162.1,35.2c-0.1,0-0.2,0-0.3-0.1c-0.1-0.1-0.1-0.2-0.1-0.3V23.2c0-0.1,0-0.2,0.1-0.3
			c0.1-0.1,0.2-0.1,0.3-0.1h4.7c1.5,0,2.7,0.4,3.6,1.1c0.9,0.7,1.3,1.7,1.3,3c0,0.8-0.2,1.6-0.6,2.1c-0.4,0.6-0.9,1-1.6,1.3l2.4,4.4
			c0,0.1,0.1,0.1,0.1,0.2c0,0.1,0,0.2-0.1,0.3c-0.1,0.1-0.2,0.1-0.3,0.1h-2.3c-0.2,0-0.4-0.1-0.5-0.2c-0.1-0.1-0.2-0.2-0.2-0.3
			l-2-3.9h-1.8v4c0,0.1,0,0.2-0.1,0.3c-0.1,0.1-0.2,0.1-0.3,0.1H162.1z M164.8,28.3h2c0.5,0,1-0.1,1.2-0.4c0.3-0.3,0.4-0.6,0.4-1.1
			c0-0.5-0.1-0.8-0.4-1.1c-0.3-0.3-0.7-0.4-1.2-0.4h-2V28.3z"/>
		<path class="st0" d="M176.7,35.2c-0.1,0-0.2,0-0.3-0.1c-0.1-0.1-0.1-0.2-0.1-0.3v-9.2h-3.1c-0.1,0-0.2,0-0.3-0.1
			c-0.1-0.1-0.1-0.2-0.1-0.3v-1.9c0-0.1,0-0.2,0.1-0.3c0.1-0.1,0.2-0.1,0.3-0.1h9.4c0.1,0,0.2,0,0.3,0.1c0.1,0.1,0.1,0.2,0.1,0.3
			v1.9c0,0.1,0,0.2-0.1,0.3c-0.1,0.1-0.2,0.1-0.3,0.1h-3.1v9.2c0,0.1,0,0.2-0.1,0.3c-0.1,0.1-0.2,0.1-0.3,0.1H176.7z"/>
	</g>
</g>
</svg>
