<?xml version="1.0" encoding="utf-8"?>
<!-- Generator: Adobe Illustrator 24.1.2, SVG Export Plug-In . SVG Version: 6.00 Build 0)  -->
<svg version="1.1"
	 id="svg71" xmlns:cc="http://creativecommons.org/ns#" xmlns:dc="http://purl.org/dc/elements/1.1/" xmlns:rdf="http://www.w3.org/1999/02/22-rdf-syntax-ns#" xmlns:svg="http://www.w3.org/2000/svg"
	 xmlns="http://www.w3.org/2000/svg" xmlns:xlink="http://www.w3.org/1999/xlink" x="0px" y="0px" viewBox="0 0 203 203"
	 style="enable-background:new 0 0 203 203;" xml:space="preserve">
<style type="text/css">
	.st0{fill:none;stroke:#FFFFFF;stroke-width:6;stroke-miterlimit:10;}
	.st1{opacity:0.1;fill:none;stroke:#FFFFFF;stroke-width:6;stroke-miterlimit:10;enable-background:new    ;}
	.st2{opacity:0.722;}
	.st3{fill:none;stroke:#FFFFFF;stroke-width:6;stroke-miterlimit:2.6458;}
	.st4{opacity:0.3;fill:none;stroke:#FFFFFF;stroke-width:6;stroke-miterlimit:10;enable-background:new    ;}
</style>
<g id="layer1" transform="translate(-84.93125,-125.55004)">
	<path id="path21" class="st0" d="M234,215.2l-100-56.9c-4.3-2.4-8.1-2.2-10.4,0.1c-1.7,1.6-2.5,4.1-2.5,7.4v113.5
		c0,3.3,1,5.8,2.5,7.4c2.4,2.3,6.2,2.5,10.4,0.1l100-56.9C241.2,225.9,241.2,219.3,234,215.2L234,215.2z"/>
	<path id="path23" class="st1" d="M234,215.9l-100-56.8c-7.2-4.1-13.1-0.7-13.1,7.5v-0.8c0-8.3,5.9-11.6,13.1-7.5l100,56.9
		c3.7,2.1,5.5,4.9,5.3,7.8C239.2,220.4,237.5,217.9,234,215.9L234,215.9z"/>
	<path id="path25" class="st0" d="M224.1,235.6c1.2-4.1,1.8-8.6,1.8-13c0-26.5-21.5-48-48-48s-48,21.5-48,48
		c0,22.2,15.1,40.9,35.6,46.3L224.1,235.6z"/>
	<circle id="circle27" class="st0" cx="177.9" cy="222.6" r="30"/>
	<path id="path29" class="st0" d="M177.9,174.6c-26.5,0-48,21.5-48,48c0,22.2,15.1,40.9,35.6,46.3l58.7-33.3c1.2-4.1,1.8-8.6,1.8-13
		C225.9,196.1,204.4,174.6,177.9,174.6z"/>
	<g id="g33" transform="matrix(0.26458333,0,0,0.26458333,85.325876,125.9572)" class="st2">
		<path id="path31" class="st3" d="M354.2,309.9v69.7c-4-2.3-8.5-3.7-13.3-3.7c-14.7,0-26.4,11.9-26.4,26.4
			c0,14.7,11.9,26.4,26.4,26.4c14.7,0,27.5-11.9,27.5-26.4v-64.1h25.5v-28.3C393.9,309.9,354.2,309.9,354.2,309.9z"/>
	</g>
	<path id="path35" class="st0" d="M177.9,206.8v18.4c-1-0.6-2.3-1-3.5-1c-3.9,0-7,3.2-7,7c0,3.9,3.2,7,7,7c3.9,0,7.3-3.2,7.3-7
		v-16.9h6.7v-7.5H177.9z"/>
	<path id="path37" class="st4" d="M177.9,175.3c26.4,0,47.8,21.3,48,47.7v-0.4c0-26.5-21.5-48-48-48s-48,21.5-48,48v0.4
		C130.2,196.6,151.5,175.3,177.9,175.3L177.9,175.3z"/>
</g>
</svg>
