<?xml version="1.0" encoding="utf-8"?>
<!-- Generator: Adobe Illustrator 24.1.2, SVG Export Plug-In . SVG Version: 6.00 Build 0)  -->
<svg version="1.1" id="Layer_1" xmlns="http://www.w3.org/2000/svg" xmlns:xlink="http://www.w3.org/1999/xlink" x="0px" y="0px"
	 viewBox="0 0 960 1080" style="enable-background:new 0 0 960 1080;" xml:space="preserve">
<style type="text/css">
	.st0{opacity:0.95;fill:#FFFFFF;enable-background:new    ;}
	.st1{fill:#21262E;}
	.st2{fill:none;stroke:#FF513F;stroke-width:9.7213;stroke-linecap:round;stroke-linejoin:round;stroke-miterlimit:10;}
	.st3{opacity:0.5;}
	.st4{opacity:0.5;enable-background:new    ;}
	.st5{stroke:#FFFFFF;stroke-width:3;stroke-linecap:round;stroke-linejoin:round;stroke-miterlimit:10;}
	.st6{stroke:#FFFFFF;stroke-width:3;stroke-miterlimit:10;}
	.st7{opacity:0.3;}
	.st8{opacity:0.29;}
</style>
<rect x="-503" y="-25" class="st0" width="1977" height="1130"/>
<g>
	
		<image style="overflow:visible;opacity:0.75;enable-background:new    ;" width="299" height="62" xlink:href="61E0277A.png"  transform="matrix(0.9961 0 0 0.9961 332.7458 515.2874)">
	</image>
	<g>
		<polyline class="st1" points="341.8,527.7 375.6,561 409.4,527.7 443.2,561 477,527.7 510.8,561 544.6,527.7 578.4,561 
			612.2,527.7 		"/>
		<polyline class="st2" points="341.8,527.7 375.6,561 409.4,527.7 443.2,561 477,527.7 510.8,561 544.6,527.7 578.4,561 
			612.2,527.7 		"/>
	</g>
</g>
<g class="st3">
	<circle class="st4" cx="84.7" cy="68.6" r="7.8"/>
	<circle class="st4" cx="1353.6" cy="630.6" r="7.8"/>
	<g class="st3">
		<g>
			<path d="M97.4,685.9c-1,0-1.8-0.8-1.8-1.8v-29.4c0-1,0.8-1.8,1.8-1.8s1.8,0.8,1.8,1.8V684C99.2,685,98.4,685.9,97.4,685.9z"/>
		</g>
		<g>
			<path d="M88.2,686.4c-0.5,0-0.9-0.2-1.3-0.5l-14.6-14c-0.7-0.7-0.8-1.9-0.1-2.6c0.7-0.7,1.9-0.8,2.6-0.1l14.6,14
				c0.7,0.7,0.8,1.9,0.1,2.6C89.2,686.2,88.7,686.4,88.2,686.4z"/>
		</g>
		<g>
			<path d="M89,694.2H59.6c-1,0-1.8-0.8-1.8-1.8s0.8-1.8,1.8-1.8H89c1,0,1.8,0.8,1.8,1.8C90.9,693.4,90.1,694.2,89,694.2z"/>
		</g>
		<g>
			<path d="M75.6,718c-0.5,0-0.9-0.2-1.3-0.5c-0.7-0.7-0.8-1.9-0.1-2.6l14-14.6c0.7-0.7,1.9-0.8,2.6-0.1s0.8,1.9,0.1,2.6l-14,14.6
				C76.6,717.8,76.1,718,75.6,718z"/>
		</g>
		<g>
			<path d="M97.4,732c-1,0-1.8-0.8-1.8-1.8v-29.4c0-1,0.8-1.8,1.8-1.8s1.8,0.8,1.8,1.8v29.4C99.2,731.1,98.4,732,97.4,732z"/>
		</g>
		<g>
			<path d="M121.2,716c-0.5,0-0.9-0.2-1.3-0.5l-14.6-14c-0.7-0.7-0.8-1.9-0.1-2.6c0.7-0.7,1.9-0.8,2.6-0.1l14.6,14
				c0.7,0.7,0.8,1.9,0.1,2.6C122.1,715.8,121.6,716,121.2,716z"/>
		</g>
		<g>
			<path d="M135.2,694.2h-29.4c-1,0-1.8-0.8-1.8-1.8s0.8-1.8,1.8-1.8h29.4c1,0,1.8,0.8,1.8,1.8S136.2,694.2,135.2,694.2z"/>
		</g>
		<g>
			<path d="M105.2,685c-0.5,0-0.9-0.2-1.3-0.5c-0.7-0.7-0.8-1.9-0.1-2.6l14-14.6c0.7-0.7,1.9-0.8,2.6-0.1s0.8,1.9,0.1,2.6l-14,14.6
				C106.1,684.9,105.7,685,105.2,685z"/>
		</g>
	</g>
	<g class="st3">
		<g>
			<g>
				<path d="M1363.1,338.9c-1,0-1.8-0.8-1.8-1.8v-29.4c0-1,0.8-1.8,1.8-1.8s1.8,0.8,1.8,1.8V337
					C1364.9,338.1,1364.1,338.9,1363.1,338.9z"/>
			</g>
			<g>
				<path d="M1353.9,339.5c-0.5,0-0.9-0.2-1.3-0.5l-14.6-14c-0.7-0.7-0.8-1.9-0.1-2.6c0.7-0.7,1.9-0.8,2.6-0.1l14.6,14
					c0.7,0.7,0.8,1.9,0.1,2.6C1354.9,339.3,1354.4,339.5,1353.9,339.5z"/>
			</g>
			<g>
				<path d="M1354.7,347.2h-29.4c-1,0-1.8-0.8-1.8-1.8s0.8-1.8,1.8-1.8h29.4c1,0,1.8,0.8,1.8,1.8
					C1356.6,346.4,1355.7,347.2,1354.7,347.2z"/>
			</g>
			<g>
				<path d="M1341.3,371c-0.5,0-0.9-0.2-1.3-0.5c-0.7-0.7-0.8-1.9-0.1-2.6l14-14.6c0.7-0.7,1.9-0.8,2.6-0.1c0.7,0.7,0.8,1.9,0.1,2.6
					l-14,14.6C1342.3,370.8,1341.8,371,1341.3,371z"/>
			</g>
			<g>
				<path d="M1363.1,385c-1,0-1.8-0.8-1.8-1.8v-29.4c0-1,0.8-1.8,1.8-1.8s1.8,0.8,1.8,1.8v29.4C1364.9,384.2,1364.1,385,1363.1,385z
					"/>
			</g>
			<g>
				<path d="M1386.8,369c-0.5,0-0.9-0.2-1.3-0.5l-14.6-14c-0.7-0.7-0.8-1.9-0.1-2.6c0.7-0.7,1.9-0.8,2.6-0.1l14.6,14
					c0.7,0.7,0.8,1.9,0.1,2.6C1387.8,368.8,1387.3,369,1386.8,369z"/>
			</g>
			<g>
				<path d="M1400.8,347.2h-29.4c-1,0-1.8-0.8-1.8-1.8s0.8-1.8,1.8-1.8h29.4c1,0,1.8,0.8,1.8,1.8
					C1402.7,346.4,1401.9,347.2,1400.8,347.2z"/>
			</g>
			<g>
				<path d="M1370.9,338.1c-0.5,0-0.9-0.2-1.3-0.5c-0.7-0.7-0.8-1.9-0.1-2.6l14-14.6c0.7-0.7,1.9-0.8,2.6-0.1
					c0.7,0.7,0.8,1.9,0.1,2.6l-14,14.6C1371.8,337.9,1371.3,338.1,1370.9,338.1z"/>
			</g>
		</g>
	</g>
	<g class="st3">
		<path class="st5" d="M730,111.1c5.5,0,10.1,4.5,10.1,10.1v53.9c0,5.5-4.5,10.1-10.1,10.1c-1.8,0-3.5-0.5-5-1.3l-46.7-27
			c-3.1-1.8-5-5.1-5-8.7c0-3.6,1.9-6.9,5-8.7l46.7-26.9C726.5,111.6,728.3,111.1,730,111.1z"/>
		<path d="M683,148.8c-0.5-0.3-0.5-1,0-1.3l23.3-13.5l23.3-13.5c0.5-0.3,1.1,0.1,1.1,0.6v27v27c0,0.6-0.6,0.9-1.1,0.6l-23.3-13.5
			L683,148.8z"/>
	</g>
	<path class="st4" d="M68.5,438.5c0,3.1-2.5,5.7-5.7,5.7c-3.1,0-5.7-2.5-5.7-5.7s2.5-5.7,5.7-5.7S68.5,435.4,68.5,438.5z"/>
	<path class="st4" d="M399.1,1035.4c0,3.1-2.5,5.7-5.7,5.7c-3.1,0-5.7-2.5-5.7-5.7s2.5-5.7,5.7-5.7
		C396.5,1029.7,399.1,1032.3,399.1,1035.4z"/>
	<path class="st4" d="M502.1,385c0,3.1-2.5,5.7-5.7,5.7c-3.1,0-5.7-2.5-5.7-5.7c0-3.1,2.5-5.7,5.7-5.7S502.1,381.9,502.1,385z"/>
	<g class="st3">
		<path d="M550.1,861.4L550.1,861.4c-2,0-3.7-1.7-3.7-3.7v-34.6c0-2,1.7-3.7,3.7-3.7l0,0c2,0,3.7,1.7,3.7,3.7v34.6
			C553.8,859.7,552.1,861.4,550.1,861.4z"/>
		<path d="M529.1,840.3L529.1,840.3c0-2,1.7-3.7,3.7-3.7h34.6c2,0,3.7,1.7,3.7,3.7l0,0c0,2-1.7,3.7-3.7,3.7h-34.6
			C530.7,844.1,529.1,842.4,529.1,840.3z"/>
	</g>
	<g class="st3">
		<path d="M1291.8-27.4c-2.5,0-4.5,2-4.5,4.5s2,4.5,4.5,4.5s4.5-2,4.5-4.5S1294.3-27.4,1291.8-27.4z"/>
		<path d="M1322.6-27.4c-2.5,0-4.5,2-4.5,4.5c0,0.1,0,0.3,0,0.4c0.2,2.3,2.1,4.1,4.5,4.1c2.5,0,4.5-2,4.5-4.5l0,0
			C1327.1-25.4,1325.1-27.4,1322.6-27.4z"/>
		<path d="M1353.4-27.4c-2.5,0-4.5,2-4.5,4.5c0,0.4,0.1,0.8,0.2,1.2c0.5,1.9,2.2,3.3,4.3,3.3c1.6,0,2.9-0.8,3.7-2
			c0.5-0.7,0.8-1.6,0.8-2.5C1357.9-25.4,1355.9-27.4,1353.4-27.4z"/>
		<path d="M1230.2,6c-2.5,0-4.5,2-4.5,4.5c0,2,1.3,3.7,3.1,4.3c0.4,0.1,0.9,0.2,1.4,0.2c2.5,0,4.5-2,4.5-4.5c0-0.2,0-0.4-0.1-0.6
			C1234.4,7.7,1232.5,6,1230.2,6z"/>
		<path d="M1261,6c-2.5,0-4.5,2-4.5,4.5s2,4.5,4.5,4.5s4.5-2,4.5-4.5S1263.5,6,1261,6z"/>
		<path d="M1291.8,6c-2.5,0-4.5,2-4.5,4.5s2,4.5,4.5,4.5s4.5-2,4.5-4.5S1294.3,6,1291.8,6z"/>
		<circle cx="1322.6" cy="10.5" r="4.5"/>
		<circle cx="1353.4" cy="10.5" r="4.5"/>
		<path d="M1384.2,6c-2.5,0-4.5,2-4.5,4.5s2,4.5,4.5,4.5s4.5-2,4.5-4.5S1386.6,6,1384.2,6z"/>
		<circle cx="1414.9" cy="10.5" r="4.5"/>
		<path d="M1199.4,39.4c-2.5,0-4.5,2-4.5,4.5s2,4.5,4.5,4.5c0.2,0,0.3,0,0.5-0.1c2.2-0.3,4-2.1,4-4.4c0-0.4-0.1-0.8-0.2-1.2
			C1203.2,40.7,1201.5,39.4,1199.4,39.4z"/>
		<circle cx="1230.2" cy="43.8" r="4.5"/>
		<path d="M1261,39.4c-2.5,0-4.5,2-4.5,4.5s2,4.5,4.5,4.5s4.5-2,4.5-4.5S1263.5,39.4,1261,39.4z"/>
		<path d="M1291.8,39.4c-2.5,0-4.5,2-4.5,4.5s2,4.5,4.5,4.5s4.5-2,4.5-4.5S1294.3,39.4,1291.8,39.4z"/>
		<circle cx="1322.6" cy="43.8" r="4.5"/>
		<circle cx="1353.4" cy="43.8" r="4.5"/>
		<path d="M1384.2,39.4c-2.5,0-4.5,2-4.5,4.5s2,4.5,4.5,4.5s4.5-2,4.5-4.5S1386.6,39.4,1384.2,39.4z"/>
		<circle cx="1414.9" cy="43.8" r="4.5"/>
		<circle cx="1445.7" cy="43.8" r="4.5"/>
		<circle cx="1199.4" cy="77.2" r="4.5"/>
		<circle cx="1230.2" cy="77.2" r="4.5"/>
		<path d="M1261,72.7c-2.5,0-4.5,2-4.5,4.5s2,4.5,4.5,4.5s4.5-2,4.5-4.5S1263.5,72.7,1261,72.7z"/>
		<path d="M1291.8,72.7c-2.5,0-4.5,2-4.5,4.5s2,4.5,4.5,4.5s4.5-2,4.5-4.5S1294.3,72.7,1291.8,72.7z"/>
		<circle cx="1322.6" cy="77.2" r="4.5"/>
		<circle cx="1353.4" cy="77.2" r="4.5"/>
		<path d="M1384.2,72.7c-2.5,0-4.5,2-4.5,4.5s2,4.5,4.5,4.5s4.5-2,4.5-4.5S1386.6,72.7,1384.2,72.7z"/>
		<circle cx="1414.9" cy="77.2" r="4.5"/>
		<circle cx="1445.7" cy="77.2" r="4.5"/>
		<path d="M1474.9,81.4c0.5,0.2,1.1,0.3,1.6,0.3c2.5,0,4.5-2,4.5-4.5s-2-4.5-4.5-4.5c-1.7,0-3.2,1-3.9,2.4c-0.3,0.6-0.6,1.4-0.6,2.1
			C1472,79.1,1473.2,80.7,1474.9,81.4z"/>
		<circle cx="1199.4" cy="110.6" r="4.5"/>
		<circle cx="1230.2" cy="110.6" r="4.5"/>
		<path d="M1261,106.1c-2.5,0-4.5,2-4.5,4.5s2,4.5,4.5,4.5s4.5-2,4.5-4.5S1263.5,106.1,1261,106.1z"/>
		<path d="M1291.8,106.1c-2.5,0-4.5,2-4.5,4.5s2,4.5,4.5,4.5s4.5-2,4.5-4.5S1294.3,106.1,1291.8,106.1z"/>
		<circle cx="1322.6" cy="110.6" r="4.5"/>
		<circle cx="1353.4" cy="110.6" r="4.5"/>
		<path d="M1384.2,106.1c-2.5,0-4.5,2-4.5,4.5s2,4.5,4.5,4.5s4.5-2,4.5-4.5C1388.6,108.1,1386.6,106.1,1384.2,106.1z"/>
		<circle cx="1414.9" cy="110.6" r="4.5"/>
		<circle cx="1445.7" cy="110.6" r="4.5"/>
		<path d="M1476.5,106.1c-2.5,0-4.5,2-4.5,4.5s2,4.5,4.5,4.5s4.5-2,4.5-4.5S1479,106.1,1476.5,106.1z"/>
		<path d="M1199.4,139.5c-2.5,0-4.5,2-4.5,4.5s2,4.5,4.5,4.5s4.5-2,4.5-4.5S1201.9,139.5,1199.4,139.5z"/>
		<path d="M1230.2,139.5c-2.5,0-4.5,2-4.5,4.5s2,4.5,4.5,4.5s4.5-2,4.5-4.5S1232.7,139.5,1230.2,139.5z"/>
		<path d="M1261,139.5c-2.5,0-4.5,2-4.5,4.5s2,4.5,4.5,4.5s4.5-2,4.5-4.5S1263.5,139.5,1261,139.5z"/>
		<path d="M1291.8,139.5c-2.5,0-4.5,2-4.5,4.5s2,4.5,4.5,4.5s4.5-2,4.5-4.5S1294.3,139.5,1291.8,139.5z"/>
		<path d="M1322.6,139.5c-2.5,0-4.5,2-4.5,4.5s2,4.5,4.5,4.5s4.5-2,4.5-4.5S1325.1,139.5,1322.6,139.5z"/>
		<path d="M1353.4,139.5c-2.5,0-4.5,2-4.5,4.5s2,4.5,4.5,4.5s4.5-2,4.5-4.5S1355.9,139.5,1353.4,139.5z"/>
		<path d="M1384.2,139.5c-2.5,0-4.5,2-4.5,4.5s2,4.5,4.5,4.5s4.5-2,4.5-4.5S1386.6,139.5,1384.2,139.5z"/>
		<path d="M1414.9,139.5c-2.5,0-4.5,2-4.5,4.5s2,4.5,4.5,4.5s4.5-2,4.5-4.5S1417.4,139.5,1414.9,139.5z"/>
		<path d="M1445.7,139.5c-2.5,0-4.5,2-4.5,4.5s2,4.5,4.5,4.5s4.5-2,4.5-4.5S1448.2,139.5,1445.7,139.5z"/>
		<path d="M1476.5,139.5c-2.5,0-4.5,2-4.5,4.5s2,4.5,4.5,4.5s4.5-2,4.5-4.5S1479,139.5,1476.5,139.5z"/>
		<circle cx="1199.4" cy="177.3" r="4.5"/>
		<circle cx="1230.2" cy="177.3" r="4.5"/>
		<path d="M1261,172.8c-2.5,0-4.5,2-4.5,4.5s2,4.5,4.5,4.5s4.5-2,4.5-4.5S1263.5,172.8,1261,172.8z"/>
		<path d="M1291.8,172.8c-2.5,0-4.5,2-4.5,4.5s2,4.5,4.5,4.5s4.5-2,4.5-4.5S1294.3,172.8,1291.8,172.8z"/>
		<circle cx="1322.6" cy="177.3" r="4.5"/>
		<circle cx="1353.4" cy="177.3" r="4.5"/>
		<path d="M1384.2,172.8c-2.5,0-4.5,2-4.5,4.5s2,4.5,4.5,4.5s4.5-2,4.5-4.5C1388.6,174.8,1386.6,172.8,1384.2,172.8z"/>
		<circle cx="1414.9" cy="177.3" r="4.5"/>
		<circle cx="1445.7" cy="177.3" r="4.5"/>
		<path d="M1477,172.9c-0.2,0-0.3,0-0.5,0c-2.5,0-4.5,2-4.5,4.5c0,1.7,0.9,3.1,2.3,3.9c0.6,0.4,1.4,0.6,2.2,0.6c2.5,0,4.5-2,4.5-4.5
			C1481,175,1479.3,173.1,1477,172.9z"/>
		<path d="M1167,72.7c-1.7,0-3.2,1-3.9,2.4c-0.3,0.6-0.6,1.4-0.6,2.1c0,1.9,1.2,3.5,2.9,4.2c0.5,0.2,1.1,0.3,1.6,0.3
			c2.5,0,4.5-2,4.5-4.5S1169.4,72.7,1167,72.7z"/>
		<path d="M1167,106.1c-2.5,0-4.5,2-4.5,4.5s2,4.5,4.5,4.5s4.5-2,4.5-4.5S1169.4,106.1,1167,106.1z"/>
		<path d="M1167,139.5c-2.5,0-4.5,2-4.5,4.5s2,4.5,4.5,4.5s4.5-2,4.5-4.5S1169.4,139.5,1167,139.5z"/>
		<path d="M1167.5,172.9c-0.2,0-0.3,0-0.5,0c-2.5,0-4.5,2-4.5,4.5c0,1.7,0.9,3.1,2.3,3.9c0.6,0.4,1.4,0.6,2.2,0.6
			c2.5,0,4.5-2,4.5-4.5C1171.5,175,1169.7,173.1,1167.5,172.9z"/>
		<path d="M1199.4,206.2c-1.1,0-2.1,0.4-2.9,1.1c-1,0.8-1.6,2-1.6,3.4c0,2.5,2,4.5,4.5,4.5c0.6,0,1.2-0.1,1.8-0.4
			c1.6-0.7,2.7-2.3,2.7-4.1C1203.9,208.2,1201.9,206.2,1199.4,206.2z"/>
		<path d="M1230.2,206.2c-2.5,0-4.5,2-4.5,4.5s2,4.5,4.5,4.5s4.5-2,4.5-4.5S1232.7,206.2,1230.2,206.2z"/>
		<path d="M1261,206.2c-2.5,0-4.5,2-4.5,4.5s2,4.5,4.5,4.5s4.5-2,4.5-4.5S1263.5,206.2,1261,206.2z"/>
		<path d="M1291.8,206.2c-2.5,0-4.5,2-4.5,4.5s2,4.5,4.5,4.5s4.5-2,4.5-4.5S1294.3,206.2,1291.8,206.2z"/>
		<path d="M1322.6,206.2c-2.5,0-4.5,2-4.5,4.5s2,4.5,4.5,4.5s4.5-2,4.5-4.5S1325.1,206.2,1322.6,206.2z"/>
		<path d="M1353.4,206.2c-2.5,0-4.5,2-4.5,4.5s2,4.5,4.5,4.5s4.5-2,4.5-4.5S1355.9,206.2,1353.4,206.2z"/>
		<path d="M1384.2,206.2c-2.5,0-4.5,2-4.5,4.5s2,4.5,4.5,4.5s4.5-2,4.5-4.5C1388.6,208.2,1386.6,206.2,1384.2,206.2z"/>
		<path d="M1414.9,206.2c-2.5,0-4.5,2-4.5,4.5s2,4.5,4.5,4.5s4.5-2,4.5-4.5S1417.4,206.2,1414.9,206.2z"/>
		<path d="M1445.7,206.2c-2.5,0-4.5,2-4.5,4.5s2,4.5,4.5,4.5s4.5-2,4.5-4.5S1448.2,206.2,1445.7,206.2z"/>
		<path d="M1230.2,239.6c-2.3,0-4.2,1.8-4.5,4.1c0,0.1,0,0.3,0,0.4c0,2.5,2,4.5,4.5,4.5c0.3,0,0.7,0,1-0.1c2-0.5,3.5-2.2,3.5-4.4
			C1234.7,241.6,1232.7,239.6,1230.2,239.6z"/>
		<path d="M1261,239.6c-2.5,0-4.5,2-4.5,4.5s2,4.5,4.5,4.5s4.5-2,4.5-4.5S1263.5,239.6,1261,239.6z"/>
		<path d="M1291.8,239.6c-2.5,0-4.5,2-4.5,4.5s2,4.5,4.5,4.5s4.5-2,4.5-4.5S1294.3,239.6,1291.8,239.6z"/>
		<circle cx="1322.6" cy="244.1" r="4.5"/>
		<circle cx="1353.4" cy="244.1" r="4.5"/>
		<path d="M1384.2,239.6c-2.5,0-4.5,2-4.5,4.5s2,4.5,4.5,4.5s4.5-2,4.5-4.5C1388.6,241.6,1386.6,239.6,1384.2,239.6z"/>
		<circle cx="1414.9" cy="244.1" r="4.5"/>
		<path d="M1291.8,272.9c-2.5,0-4.5,2-4.5,4.5c0,0.3,0,0.5,0.1,0.7c0.4,2.1,2.2,3.8,4.4,3.8c1.4,0,2.7-0.7,3.5-1.7
			c0.6-0.8,1-1.7,1-2.8C1296.3,274.9,1294.3,272.9,1291.8,272.9z"/>
		<path d="M1322.6,272.9c-2.5,0-4.5,2-4.5,4.5s2,4.5,4.5,4.5s4.5-2,4.5-4.5S1325.1,272.9,1322.6,272.9z"/>
		<path d="M1353.4,272.9c-2.5,0-4.5,2-4.5,4.5s2,4.5,4.5,4.5s4.5-2,4.5-4.5S1355.9,272.9,1353.4,272.9z"/>
		<path d="M1385.9,273.3c-0.5-0.2-1.1-0.4-1.8-0.4c-1.8,0-3.3,1-4,2.5c-0.3,0.6-0.5,1.3-0.5,2c0,2.5,2,4.5,4.5,4.5s4.5-2,4.5-4.5
			C1388.6,275.6,1387.5,274,1385.9,273.3z"/>
	</g>
	<ellipse class="st4" cx="153.3" cy="164.5" rx="14.6" ry="14.6"/>
	<g class="st3">
		<path d="M77.7,819.7c-2.4,0-4.4,2-4.4,4.4s2,4.4,4.4,4.4s4.4-2,4.4-4.4S80.1,819.7,77.7,819.7z"/>
		<path d="M107.8,819.7c-2.4,0-4.4,2-4.4,4.4c0,0.1,0,0.3,0,0.4c0.2,2.2,2.1,4,4.4,4c2.4,0,4.4-2,4.4-4.4l0,0
			C112.2,821.7,110.3,819.7,107.8,819.7z"/>
		<path d="M138,819.7c-2.4,0-4.4,2-4.4,4.4c0,0.4,0.1,0.8,0.2,1.2c0.5,1.8,2.2,3.2,4.2,3.2c1.5,0,2.9-0.8,3.7-2
			c0.5-0.7,0.7-1.5,0.7-2.4C142.4,821.7,140.4,819.7,138,819.7z"/>
		<path d="M17.4,852.4c-2.4,0-4.4,2-4.4,4.4c0,2,1.3,3.6,3,4.2c0.4,0.1,0.9,0.2,1.4,0.2c2.4,0,4.4-2,4.4-4.4c0-0.2,0-0.4-0.1-0.6
			C21.4,854,19.6,852.4,17.4,852.4z"/>
		<path d="M47.5,852.4c-2.4,0-4.4,2-4.4,4.4s2,4.4,4.4,4.4s4.4-2,4.4-4.4C51.9,854.3,49.9,852.4,47.5,852.4z"/>
		<path d="M77.7,852.4c-2.4,0-4.4,2-4.4,4.4s2,4.4,4.4,4.4s4.4-2,4.4-4.4C82.1,854.3,80.1,852.4,77.7,852.4z"/>
		<path d="M107.8,852.4c-2.4,0-4.4,2-4.4,4.4s2,4.4,4.4,4.4s4.4-2,4.4-4.4C112.2,854.3,110.3,852.4,107.8,852.4z"/>
		<path d="M138,852.4c-2.4,0-4.4,2-4.4,4.4s2,4.4,4.4,4.4s4.4-2,4.4-4.4C142.4,854.3,140.4,852.4,138,852.4z"/>
		<path d="M168.1,852.4c-2.4,0-4.4,2-4.4,4.4s2,4.4,4.4,4.4s4.4-2,4.4-4.4C172.5,854.3,170.6,852.4,168.1,852.4z"/>
		<path d="M198.3,852.4c-2.4,0-4.4,2-4.4,4.4s2,4.4,4.4,4.4s4.4-2,4.4-4.4C202.7,854.3,200.7,852.4,198.3,852.4z"/>
		<path d="M-12.8,885.1c-2.4,0-4.4,2-4.4,4.4s2,4.4,4.4,4.4c0.2,0,0.3,0,0.5,0c2.2-0.2,3.9-2.1,3.9-4.4c0-0.4-0.1-0.8-0.2-1.2
			C-9.1,886.4-10.8,885.1-12.8,885.1z"/>
		<path d="M17.4,885.1c-2.4,0-4.4,2-4.4,4.4s2,4.4,4.4,4.4s4.4-2,4.4-4.4S19.8,885.1,17.4,885.1z"/>
		<path d="M47.5,885.1c-2.4,0-4.4,2-4.4,4.4s2,4.4,4.4,4.4s4.4-2,4.4-4.4S49.9,885.1,47.5,885.1z"/>
		<path d="M77.7,885.1c-2.4,0-4.4,2-4.4,4.4s2,4.4,4.4,4.4s4.4-2,4.4-4.4S80.1,885.1,77.7,885.1z"/>
		<path d="M107.8,885.1c-2.4,0-4.4,2-4.4,4.4s2,4.4,4.4,4.4s4.4-2,4.4-4.4S110.3,885.1,107.8,885.1z"/>
		<path d="M138,885.1c-2.4,0-4.4,2-4.4,4.4s2,4.4,4.4,4.4s4.4-2,4.4-4.4S140.4,885.1,138,885.1z"/>
		<path d="M168.1,885.1c-2.4,0-4.4,2-4.4,4.4s2,4.4,4.4,4.4s4.4-2,4.4-4.4S170.6,885.1,168.1,885.1z"/>
		<path d="M198.3,885.1c-2.4,0-4.4,2-4.4,4.4s2,4.4,4.4,4.4s4.4-2,4.4-4.4S200.7,885.1,198.3,885.1z"/>
		<path d="M228.4,885.1c-2.4,0-4.4,2-4.4,4.4s2,4.4,4.4,4.4s4.4-2,4.4-4.4S230.9,885.1,228.4,885.1z"/>
		<path d="M-12.8,917.7c-2.4,0-4.4,2-4.4,4.4s2,4.4,4.4,4.4s4.4-2,4.4-4.4S-10.4,917.7-12.8,917.7z"/>
		<path d="M17.4,917.7c-2.4,0-4.4,2-4.4,4.4s2,4.4,4.4,4.4s4.4-2,4.4-4.4S19.8,917.7,17.4,917.7z"/>
		<path d="M47.5,917.7c-2.4,0-4.4,2-4.4,4.4s2,4.4,4.4,4.4s4.4-2,4.4-4.4S49.9,917.7,47.5,917.7z"/>
		<path d="M77.7,917.7c-2.4,0-4.4,2-4.4,4.4s2,4.4,4.4,4.4s4.4-2,4.4-4.4S80.1,917.7,77.7,917.7z"/>
		<path d="M107.8,917.7c-2.4,0-4.4,2-4.4,4.4s2,4.4,4.4,4.4s4.4-2,4.4-4.4C112.2,919.7,110.3,917.7,107.8,917.7z"/>
		<path d="M138,917.7c-2.4,0-4.4,2-4.4,4.4s2,4.4,4.4,4.4s4.4-2,4.4-4.4S140.4,917.7,138,917.7z"/>
		<path d="M168.1,917.7c-2.4,0-4.4,2-4.4,4.4s2,4.4,4.4,4.4s4.4-2,4.4-4.4S170.6,917.7,168.1,917.7z"/>
		<path d="M198.3,917.7c-2.4,0-4.4,2-4.4,4.4s2,4.4,4.4,4.4s4.4-2,4.4-4.4S200.7,917.7,198.3,917.7z"/>
		<path d="M228.4,917.7c-2.4,0-4.4,2-4.4,4.4s2,4.4,4.4,4.4s4.4-2,4.4-4.4C232.8,919.7,230.9,917.7,228.4,917.7z"/>
		<path d="M257,926.2c0.5,0.2,1,0.3,1.6,0.3c2.4,0,4.4-2,4.4-4.4s-2-4.4-4.4-4.4c-1.7,0-3.1,0.9-3.9,2.3c-0.3,0.6-0.5,1.3-0.5,2.1
			C254.2,924,255.3,925.6,257,926.2z"/>
		<path d="M-12.8,950.4c-2.4,0-4.4,2-4.4,4.4s2,4.4,4.4,4.4s4.4-2,4.4-4.4S-10.4,950.4-12.8,950.4z"/>
		<path d="M17.4,950.4c-2.4,0-4.4,2-4.4,4.4s2,4.4,4.4,4.4s4.4-2,4.4-4.4S19.8,950.4,17.4,950.4z"/>
		<path d="M47.5,950.4c-2.4,0-4.4,2-4.4,4.4s2,4.4,4.4,4.4s4.4-2,4.4-4.4S49.9,950.4,47.5,950.4z"/>
		<path d="M77.7,950.4c-2.4,0-4.4,2-4.4,4.4s2,4.4,4.4,4.4s4.4-2,4.4-4.4S80.1,950.4,77.7,950.4z"/>
		<path d="M107.8,950.4c-2.4,0-4.4,2-4.4,4.4s2,4.4,4.4,4.4s4.4-2,4.4-4.4C112.2,952.4,110.3,950.4,107.8,950.4z"/>
		<path d="M138,950.4c-2.4,0-4.4,2-4.4,4.4s2,4.4,4.4,4.4s4.4-2,4.4-4.4S140.4,950.4,138,950.4z"/>
		<path d="M168.1,950.4c-2.4,0-4.4,2-4.4,4.4s2,4.4,4.4,4.4s4.4-2,4.4-4.4S170.6,950.4,168.1,950.4z"/>
		<path d="M198.3,950.4c-2.4,0-4.4,2-4.4,4.4s2,4.4,4.4,4.4s4.4-2,4.4-4.4S200.7,950.4,198.3,950.4z"/>
		<path d="M228.4,950.4c-2.4,0-4.4,2-4.4,4.4s2,4.4,4.4,4.4s4.4-2,4.4-4.4C232.8,952.4,230.9,950.4,228.4,950.4z"/>
		<path d="M258.6,950.4c-2.4,0-4.4,2-4.4,4.4s2,4.4,4.4,4.4s4.4-2,4.4-4.4S261,950.4,258.6,950.4z"/>
		<path d="M-12.8,983.1c-2.4,0-4.4,2-4.4,4.4s2,4.4,4.4,4.4s4.4-2,4.4-4.4S-10.4,983.1-12.8,983.1z"/>
		<path d="M17.4,983.1c-2.4,0-4.4,2-4.4,4.4s2,4.4,4.4,4.4s4.4-2,4.4-4.4S19.8,983.1,17.4,983.1z"/>
		<path d="M47.5,983.1c-2.4,0-4.4,2-4.4,4.4s2,4.4,4.4,4.4s4.4-2,4.4-4.4S49.9,983.1,47.5,983.1z"/>
		<path d="M77.7,983.1c-2.4,0-4.4,2-4.4,4.4s2,4.4,4.4,4.4s4.4-2,4.4-4.4S80.1,983.1,77.7,983.1z"/>
		<path d="M107.8,983.1c-2.4,0-4.4,2-4.4,4.4s2,4.4,4.4,4.4s4.4-2,4.4-4.4C112.2,985.1,110.3,983.1,107.8,983.1z"/>
		<path d="M138,983.1c-2.4,0-4.4,2-4.4,4.4s2,4.4,4.4,4.4s4.4-2,4.4-4.4S140.4,983.1,138,983.1z"/>
		<path d="M168.1,983.1c-2.4,0-4.4,2-4.4,4.4s2,4.4,4.4,4.4s4.4-2,4.4-4.4S170.6,983.1,168.1,983.1z"/>
		<path d="M198.3,983.1c-2.4,0-4.4,2-4.4,4.4s2,4.4,4.4,4.4s4.4-2,4.4-4.4S200.7,983.1,198.3,983.1z"/>
		<path d="M228.4,983.1c-2.4,0-4.4,2-4.4,4.4s2,4.4,4.4,4.4s4.4-2,4.4-4.4C232.8,985.1,230.9,983.1,228.4,983.1z"/>
		<path d="M258.6,983.1c-2.4,0-4.4,2-4.4,4.4s2,4.4,4.4,4.4s4.4-2,4.4-4.4S261,983.1,258.6,983.1z"/>
		<path d="M-12.8,1015.8c-2.4,0-4.4,2-4.4,4.4s2,4.4,4.4,4.4s4.4-2,4.4-4.4C-8.4,1017.7-10.4,1015.8-12.8,1015.8z"/>
		<path d="M17.4,1015.8c-2.4,0-4.4,2-4.4,4.4s2,4.4,4.4,4.4s4.4-2,4.4-4.4C21.8,1017.7,19.8,1015.8,17.4,1015.8z"/>
		<path d="M47.5,1015.8c-2.4,0-4.4,2-4.4,4.4s2,4.4,4.4,4.4s4.4-2,4.4-4.4C51.9,1017.7,49.9,1015.8,47.5,1015.8z"/>
		<path d="M77.7,1015.8c-2.4,0-4.4,2-4.4,4.4s2,4.4,4.4,4.4s4.4-2,4.4-4.4C82.1,1017.7,80.1,1015.8,77.7,1015.8z"/>
		<path d="M107.8,1015.8c-2.4,0-4.4,2-4.4,4.4s2,4.4,4.4,4.4s4.4-2,4.4-4.4C112.2,1017.7,110.3,1015.8,107.8,1015.8z"/>
		<path d="M138,1015.8c-2.4,0-4.4,2-4.4,4.4s2,4.4,4.4,4.4s4.4-2,4.4-4.4C142.4,1017.7,140.4,1015.8,138,1015.8z"/>
		<path d="M168.1,1015.8c-2.4,0-4.4,2-4.4,4.4s2,4.4,4.4,4.4s4.4-2,4.4-4.4C172.5,1017.7,170.6,1015.8,168.1,1015.8z"/>
		<path d="M198.3,1015.8c-2.4,0-4.4,2-4.4,4.4s2,4.4,4.4,4.4s4.4-2,4.4-4.4C202.7,1017.7,200.7,1015.8,198.3,1015.8z"/>
		<path d="M228.4,1015.8c-2.4,0-4.4,2-4.4,4.4s2,4.4,4.4,4.4s4.4-2,4.4-4.4C232.8,1017.7,230.9,1015.8,228.4,1015.8z"/>
		<path d="M259.1,1015.8c-0.2,0-0.3,0-0.5,0c-2.4,0-4.4,2-4.4,4.4c0,1.7,0.9,3.1,2.3,3.8c0.6,0.4,1.4,0.6,2.1,0.6
			c2.4,0,4.4-2,4.4-4.4C263,1017.9,261.3,1016.1,259.1,1015.8z"/>
		<path d="M-44.6,917.7c-1.7,0-3.1,0.9-3.9,2.3c-0.3,0.6-0.5,1.3-0.5,2.1c0,1.9,1.2,3.4,2.8,4.1c0.5,0.2,1,0.3,1.6,0.3
			c2.4,0,4.4-2,4.4-4.4C-40.2,919.7-42.2,917.7-44.6,917.7z"/>
		<path d="M-44.6,950.4c-2.4,0-4.4,2-4.4,4.4s2,4.4,4.4,4.4s4.4-2,4.4-4.4C-40.2,952.4-42.2,950.4-44.6,950.4z"/>
		<path d="M-44.6,983.1c-2.4,0-4.4,2-4.4,4.4s2,4.4,4.4,4.4s4.4-2,4.4-4.4C-40.2,985.1-42.2,983.1-44.6,983.1z"/>
		<path d="M-44.1,1015.8c-0.2,0-0.3,0-0.5,0c-2.4,0-4.4,2-4.4,4.4c0,1.7,0.9,3.1,2.3,3.8c0.6,0.4,1.3,0.6,2.1,0.6
			c2.4,0,4.4-2,4.4-4.4C-40.2,1017.9-41.9,1016.1-44.1,1015.8z"/>
		<path d="M-12.8,1048.5c-1.1,0-2.1,0.4-2.8,1c-1,0.8-1.6,2-1.6,3.4c0,2.4,2,4.4,4.4,4.4c0.6,0,1.2-0.1,1.7-0.4
			c1.6-0.7,2.7-2.2,2.7-4C-8.4,1050.4-10.4,1048.5-12.8,1048.5z"/>
		<path d="M17.4,1048.5c-2.4,0-4.4,2-4.4,4.4s2,4.4,4.4,4.4s4.4-2,4.4-4.4C21.8,1050.4,19.8,1048.5,17.4,1048.5z"/>
		<path d="M47.5,1048.5c-2.4,0-4.4,2-4.4,4.4s2,4.4,4.4,4.4s4.4-2,4.4-4.4C51.9,1050.4,49.9,1048.5,47.5,1048.5z"/>
		<path d="M77.7,1048.5c-2.4,0-4.4,2-4.4,4.4s2,4.4,4.4,4.4s4.4-2,4.4-4.4C82.1,1050.4,80.1,1048.5,77.7,1048.5z"/>
		<path d="M107.8,1048.5c-2.4,0-4.4,2-4.4,4.4s2,4.4,4.4,4.4s4.4-2,4.4-4.4C112.2,1050.4,110.3,1048.5,107.8,1048.5z"/>
		<path d="M138,1048.5c-2.4,0-4.4,2-4.4,4.4s2,4.4,4.4,4.4s4.4-2,4.4-4.4C142.4,1050.4,140.4,1048.5,138,1048.5z"/>
		<path d="M168.1,1048.5c-2.4,0-4.4,2-4.4,4.4s2,4.4,4.4,4.4s4.4-2,4.4-4.4C172.5,1050.4,170.6,1048.5,168.1,1048.5z"/>
		<path d="M198.3,1048.5c-2.4,0-4.4,2-4.4,4.4s2,4.4,4.4,4.4s4.4-2,4.4-4.4C202.7,1050.4,200.7,1048.5,198.3,1048.5z"/>
		<path d="M228.4,1048.5c-2.4,0-4.4,2-4.4,4.4s2,4.4,4.4,4.4s4.4-2,4.4-4.4C232.8,1050.4,230.9,1048.5,228.4,1048.5z"/>
		<path d="M17.4,1081.1c-2.3,0-4.2,1.8-4.4,4c0,0.1,0,0.3,0,0.4c0,2.4,2,4.4,4.4,4.4c0.3,0,0.7,0,1-0.1c2-0.5,3.4-2.2,3.4-4.3
			C21.8,1083.1,19.8,1081.1,17.4,1081.1z"/>
		<path d="M47.5,1081.1c-2.4,0-4.4,2-4.4,4.4s2,4.4,4.4,4.4s4.4-2,4.4-4.4S49.9,1081.1,47.5,1081.1z"/>
		<path d="M77.7,1081.1c-2.4,0-4.4,2-4.4,4.4s2,4.4,4.4,4.4s4.4-2,4.4-4.4S80.1,1081.1,77.7,1081.1z"/>
		<path d="M107.8,1081.1c-2.4,0-4.4,2-4.4,4.4s2,4.4,4.4,4.4s4.4-2,4.4-4.4C112.2,1083.1,110.3,1081.1,107.8,1081.1z"/>
		<path d="M138,1081.1c-2.4,0-4.4,2-4.4,4.4s2,4.4,4.4,4.4s4.4-2,4.4-4.4S140.4,1081.1,138,1081.1z"/>
		<path d="M168.1,1081.1c-2.4,0-4.4,2-4.4,4.4s2,4.4,4.4,4.4s4.4-2,4.4-4.4S170.6,1081.1,168.1,1081.1z"/>
		<path d="M198.3,1081.1c-2.4,0-4.4,2-4.4,4.4s2,4.4,4.4,4.4s4.4-2,4.4-4.4S200.7,1081.1,198.3,1081.1z"/>
		<path d="M77.7,1113.8c-2.4,0-4.4,2-4.4,4.4c0,0.2,0,0.5,0.1,0.7c0.3,2.1,2.1,3.7,4.3,3.7c1.4,0,2.6-0.7,3.4-1.7
			c0.6-0.7,1-1.7,1-2.7C82.1,1115.8,80.1,1113.8,77.7,1113.8z"/>
		<path d="M107.8,1113.8c-2.4,0-4.4,2-4.4,4.4s2,4.4,4.4,4.4s4.4-2,4.4-4.4C112.2,1115.8,110.3,1113.8,107.8,1113.8z"/>
		<path d="M138,1113.8c-2.4,0-4.4,2-4.4,4.4s2,4.4,4.4,4.4s4.4-2,4.4-4.4S140.4,1113.8,138,1113.8z"/>
		<path d="M169.8,1114.2c-0.5-0.2-1.1-0.4-1.7-0.4c-1.7,0-3.2,1-3.9,2.4c-0.3,0.6-0.5,1.2-0.5,2c0,2.4,2,4.4,4.4,4.4s4.4-2,4.4-4.4
			C172.5,1116.4,171.4,1114.8,169.8,1114.2z"/>
	</g>
	<g class="st3">
		<path class="st6" d="M844.3,933c-4,0-7.3-3.3-7.3-7.3v-39.2c0-4,3.3-7.3,7.3-7.3c1.3,0,2.5,0.3,3.7,1l34,19.6
			c2.3,1.3,3.7,3.7,3.7,6.3s-1.4,5-3.7,6.3L848.1,932C846.8,932.7,845.5,933,844.3,933z"/>
		<path d="M878.5,905.6c0.4,0.2,0.4,0.7,0,0.9l-17,9.8l-17,9.8c-0.4,0.2-0.8-0.1-0.8-0.5V906v-19.6c0-0.4,0.5-0.7,0.8-0.5l17,9.8
			L878.5,905.6z"/>
	</g>
	<g class="st7">
		<g class="st8">
			<rect x="90.3" y="800.9" transform="matrix(0.6305 -0.7762 0.7762 0.6305 -236.5153 1134.5364)" width="1966.3" height="29.6"/>
		</g>
		<g class="st8">
			<rect x="-309.8" y="385.6" transform="matrix(0.6305 -0.7762 0.7762 0.6305 -62.0411 670.5416)" width="1966.3" height="29.6"/>
		</g>
		<g class="st8">
			<rect x="-190.5" y="661.2" transform="matrix(0.6305 -0.7762 0.7762 0.6305 -249.0895 873.2089)" width="1966.3" height="74.2"/>
		</g>
	</g>
</g>
</svg>
