<?xml version="1.0" encoding="utf-8"?>
<!-- Generator: Adobe Illustrator 24.1.2, SVG Export Plug-In . SVG Version: 6.00 Build 0)  -->
<svg version="1.1" id="Layer_1" xmlns="http://www.w3.org/2000/svg" xmlns:xlink="http://www.w3.org/1999/xlink" x="0px" y="0px"
	 viewBox="0 0 1920 1080" style="enable-background:new 0 0 1920 1080;" xml:space="preserve">
<style type="text/css">
	.st0{opacity:0.95;fill:#FFFFFF;enable-background:new    ;}
	.st1{fill:#21262E;}
	.st2{fill:none;stroke:#FF513F;stroke-width:9.7213;stroke-linecap:round;stroke-linejoin:round;stroke-miterlimit:10;}
	.st3{opacity:0.5;}
	.st4{opacity:0.5;enable-background:new    ;}
	.st5{stroke:#FFFFFF;stroke-width:3;stroke-linecap:round;stroke-linejoin:round;stroke-miterlimit:10;}
	.st6{stroke:#FFFFFF;stroke-width:3;stroke-miterlimit:10;}
	.st7{opacity:0.3;}
	.st8{opacity:0.29;}
</style>
<rect x="-23" y="-25" class="st0" width="1977" height="1130"/>
<g>
	
		<image style="overflow:visible;opacity:0.75;enable-background:new    ;" width="299" height="62" xlink:href="61E0277A.png"  transform="matrix(0.9961 0 0 0.9961 732.7458 474.2874)">
	</image>
	<g>
		<polyline class="st1" points="741.8,486.7 775.6,520 809.4,486.7 843.2,520 877,486.7 910.8,520 944.6,486.7 978.4,520 
			1012.2,486.7 		"/>
		<polyline class="st2" points="741.8,486.7 775.6,520 809.4,486.7 843.2,520 877,486.7 910.8,520 944.6,486.7 978.4,520 
			1012.2,486.7 		"/>
	</g>
</g>
<g class="st3">
	<circle class="st4" cx="564.7" cy="68.6" r="7.8"/>
	<circle class="st4" cx="1833.6" cy="630.6" r="7.8"/>
	<g class="st3">
		<g>
			<path d="M107.4,695.9c-1,0-1.8-0.8-1.8-1.8v-29.4c0-1,0.8-1.8,1.8-1.8s1.8,0.8,1.8,1.8V694C109.2,695,108.4,695.9,107.4,695.9z"
				/>
		</g>
		<g>
			<path d="M98.2,696.4c-0.5,0-0.9-0.2-1.3-0.5l-14.6-14c-0.7-0.7-0.8-1.9-0.1-2.6c0.7-0.7,1.9-0.8,2.6-0.1l14.6,14
				c0.7,0.7,0.8,1.9,0.1,2.6C99.2,696.2,98.7,696.4,98.2,696.4z"/>
		</g>
		<g>
			<path d="M99,704.2H69.6c-1,0-1.8-0.8-1.8-1.8s0.8-1.8,1.8-1.8H99c1,0,1.8,0.8,1.8,1.8C100.9,703.4,100.1,704.2,99,704.2z"/>
		</g>
		<g>
			<path d="M85.6,728c-0.5,0-0.9-0.2-1.3-0.5c-0.7-0.7-0.8-1.9-0.1-2.6l14-14.6c0.7-0.7,1.9-0.8,2.6-0.1s0.8,1.9,0.1,2.6l-14,14.6
				C86.6,727.8,86.1,728,85.6,728z"/>
		</g>
		<g>
			<path d="M107.4,742c-1,0-1.8-0.8-1.8-1.8v-29.4c0-1,0.8-1.8,1.8-1.8s1.8,0.8,1.8,1.8v29.4C109.2,741.1,108.4,742,107.4,742z"/>
		</g>
		<g>
			<path d="M131.2,726c-0.5,0-0.9-0.2-1.3-0.5l-14.6-14c-0.7-0.7-0.8-1.9-0.1-2.6c0.7-0.7,1.9-0.8,2.6-0.1l14.6,14
				c0.7,0.7,0.8,1.9,0.1,2.6C132.1,725.8,131.6,726,131.2,726z"/>
		</g>
		<g>
			<path d="M145.2,704.2h-29.4c-1,0-1.8-0.8-1.8-1.8s0.8-1.8,1.8-1.8h29.4c1,0,1.8,0.8,1.8,1.8S146.2,704.2,145.2,704.2z"/>
		</g>
		<g>
			<path d="M115.2,695c-0.5,0-0.9-0.2-1.3-0.5c-0.7-0.7-0.8-1.9-0.1-2.6l14-14.6c0.7-0.7,1.9-0.8,2.6-0.1s0.8,1.9,0.1,2.6l-14,14.6
				C116.1,694.9,115.7,695,115.2,695z"/>
		</g>
	</g>
	<g class="st3">
		<g>
			<g>
				<path d="M1843.1,338.9c-1,0-1.8-0.8-1.8-1.8v-29.4c0-1,0.8-1.8,1.8-1.8s1.8,0.8,1.8,1.8V337
					C1844.9,338.1,1844.1,338.9,1843.1,338.9z"/>
			</g>
			<g>
				<path d="M1833.9,339.5c-0.5,0-0.9-0.2-1.3-0.5l-14.6-14c-0.7-0.7-0.8-1.9-0.1-2.6c0.7-0.7,1.9-0.8,2.6-0.1l14.6,14
					c0.7,0.7,0.8,1.9,0.1,2.6C1834.9,339.3,1834.4,339.5,1833.9,339.5z"/>
			</g>
			<g>
				<path d="M1834.7,347.2h-29.4c-1,0-1.8-0.8-1.8-1.8s0.8-1.8,1.8-1.8h29.4c1,0,1.8,0.8,1.8,1.8
					C1836.6,346.4,1835.7,347.2,1834.7,347.2z"/>
			</g>
			<g>
				<path d="M1821.3,371c-0.5,0-0.9-0.2-1.3-0.5c-0.7-0.7-0.8-1.9-0.1-2.6l14-14.6c0.7-0.7,1.9-0.8,2.6-0.1c0.7,0.7,0.8,1.9,0.1,2.6
					l-14,14.6C1822.3,370.8,1821.8,371,1821.3,371z"/>
			</g>
			<g>
				<path d="M1843.1,385c-1,0-1.8-0.8-1.8-1.8v-29.4c0-1,0.8-1.8,1.8-1.8s1.8,0.8,1.8,1.8v29.4C1844.9,384.2,1844.1,385,1843.1,385z
					"/>
			</g>
			<g>
				<path d="M1866.8,369c-0.5,0-0.9-0.2-1.3-0.5l-14.6-14c-0.7-0.7-0.8-1.9-0.1-2.6c0.7-0.7,1.9-0.8,2.6-0.1l14.6,14
					c0.7,0.7,0.8,1.9,0.1,2.6C1867.8,368.8,1867.3,369,1866.8,369z"/>
			</g>
			<g>
				<path d="M1880.8,347.2h-29.4c-1,0-1.8-0.8-1.8-1.8s0.8-1.8,1.8-1.8h29.4c1,0,1.8,0.8,1.8,1.8
					C1882.7,346.4,1881.9,347.2,1880.8,347.2z"/>
			</g>
			<g>
				<path d="M1850.9,338.1c-0.5,0-0.9-0.2-1.3-0.5c-0.7-0.7-0.8-1.9-0.1-2.6l14-14.6c0.7-0.7,1.9-0.8,2.6-0.1
					c0.7,0.7,0.8,1.9,0.1,2.6l-14,14.6C1851.8,337.9,1851.3,338.1,1850.9,338.1z"/>
			</g>
		</g>
	</g>
	<g class="st3">
		<path class="st5" d="M900,111.1c5.5,0,10.1,4.5,10.1,10.1v53.9c0,5.5-4.5,10.1-10.1,10.1c-1.8,0-3.5-0.5-5-1.3l-46.7-27
			c-3.1-1.8-5-5.1-5-8.7c0-3.6,1.9-6.9,5-8.7l46.7-26.9C896.5,111.6,898.3,111.1,900,111.1z"/>
		<path d="M853,148.8c-0.5-0.3-0.5-1,0-1.3l23.3-13.5l23.3-13.5c0.5-0.3,1.1,0.1,1.1,0.6v27v27c0,0.6-0.6,0.9-1.1,0.6l-23.3-13.5
			L853,148.8z"/>
	</g>
	<path class="st4" d="M78.5,448.5c0,3.1-2.5,5.7-5.7,5.7c-3.1,0-5.7-2.5-5.7-5.7s2.5-5.7,5.7-5.7S78.5,445.4,78.5,448.5z"/>
	<path class="st4" d="M409.1,1045.4c0,3.1-2.5,5.7-5.7,5.7c-3.1,0-5.7-2.5-5.7-5.7s2.5-5.7,5.7-5.7
		C406.5,1039.7,409.1,1042.3,409.1,1045.4z"/>
	<path class="st4" d="M982.1,385c0,3.1-2.5,5.7-5.7,5.7c-3.1,0-5.7-2.5-5.7-5.7c0-3.1,2.5-5.7,5.7-5.7S982.1,381.9,982.1,385z"/>
	<g class="st3">
		<path d="M1030.1,861.4L1030.1,861.4c-2,0-3.7-1.7-3.7-3.7v-34.6c0-2,1.7-3.7,3.7-3.7l0,0c2,0,3.7,1.7,3.7,3.7v34.6
			C1033.8,859.7,1032.1,861.4,1030.1,861.4z"/>
		<path d="M1009.1,840.3L1009.1,840.3c0-2,1.7-3.7,3.7-3.7h34.6c2,0,3.7,1.7,3.7,3.7l0,0c0,2-1.7,3.7-3.7,3.7h-34.6
			C1010.7,844.1,1009.1,842.4,1009.1,840.3z"/>
	</g>
	<g class="st3">
		<path d="M1771.8-27.4c-2.5,0-4.5,2-4.5,4.5s2,4.5,4.5,4.5s4.5-2,4.5-4.5S1774.3-27.4,1771.8-27.4z"/>
		<path d="M1802.6-27.4c-2.5,0-4.5,2-4.5,4.5c0,0.1,0,0.3,0,0.4c0.2,2.3,2.1,4.1,4.5,4.1c2.5,0,4.5-2,4.5-4.5l0,0
			C1807.1-25.4,1805.1-27.4,1802.6-27.4z"/>
		<path d="M1833.4-27.4c-2.5,0-4.5,2-4.5,4.5c0,0.4,0.1,0.8,0.2,1.2c0.5,1.9,2.2,3.3,4.3,3.3c1.6,0,2.9-0.8,3.7-2
			c0.5-0.7,0.8-1.6,0.8-2.5C1837.9-25.4,1835.9-27.4,1833.4-27.4z"/>
		<path d="M1710.2,6c-2.5,0-4.5,2-4.5,4.5c0,2,1.3,3.7,3.1,4.3c0.4,0.1,0.9,0.2,1.4,0.2c2.5,0,4.5-2,4.5-4.5c0-0.2,0-0.4-0.1-0.6
			C1714.4,7.7,1712.5,6,1710.2,6z"/>
		<path d="M1741,6c-2.5,0-4.5,2-4.5,4.5s2,4.5,4.5,4.5s4.5-2,4.5-4.5S1743.5,6,1741,6z"/>
		<path d="M1771.8,6c-2.5,0-4.5,2-4.5,4.5s2,4.5,4.5,4.5s4.5-2,4.5-4.5S1774.3,6,1771.8,6z"/>
		<circle cx="1802.6" cy="10.5" r="4.5"/>
		<circle cx="1833.4" cy="10.5" r="4.5"/>
		<path d="M1864.2,6c-2.5,0-4.5,2-4.5,4.5s2,4.5,4.5,4.5s4.5-2,4.5-4.5S1866.6,6,1864.2,6z"/>
		<circle cx="1894.9" cy="10.5" r="4.5"/>
		<path d="M1679.4,39.4c-2.5,0-4.5,2-4.5,4.5s2,4.5,4.5,4.5c0.2,0,0.3,0,0.5-0.1c2.2-0.3,4-2.1,4-4.4c0-0.4-0.1-0.8-0.2-1.2
			C1683.2,40.7,1681.5,39.4,1679.4,39.4z"/>
		<circle cx="1710.2" cy="43.8" r="4.5"/>
		<path d="M1741,39.4c-2.5,0-4.5,2-4.5,4.5s2,4.5,4.5,4.5s4.5-2,4.5-4.5S1743.5,39.4,1741,39.4z"/>
		<path d="M1771.8,39.4c-2.5,0-4.5,2-4.5,4.5s2,4.5,4.5,4.5s4.5-2,4.5-4.5S1774.3,39.4,1771.8,39.4z"/>
		<circle cx="1802.6" cy="43.8" r="4.5"/>
		<circle cx="1833.4" cy="43.8" r="4.5"/>
		<path d="M1864.2,39.4c-2.5,0-4.5,2-4.5,4.5s2,4.5,4.5,4.5s4.5-2,4.5-4.5S1866.6,39.4,1864.2,39.4z"/>
		<circle cx="1894.9" cy="43.8" r="4.5"/>
		<circle cx="1925.7" cy="43.8" r="4.5"/>
		<circle cx="1679.4" cy="77.2" r="4.5"/>
		<circle cx="1710.2" cy="77.2" r="4.5"/>
		<path d="M1741,72.7c-2.5,0-4.5,2-4.5,4.5s2,4.5,4.5,4.5s4.5-2,4.5-4.5S1743.5,72.7,1741,72.7z"/>
		<path d="M1771.8,72.7c-2.5,0-4.5,2-4.5,4.5s2,4.5,4.5,4.5s4.5-2,4.5-4.5S1774.3,72.7,1771.8,72.7z"/>
		<circle cx="1802.6" cy="77.2" r="4.5"/>
		<circle cx="1833.4" cy="77.2" r="4.5"/>
		<path d="M1864.2,72.7c-2.5,0-4.5,2-4.5,4.5s2,4.5,4.5,4.5s4.5-2,4.5-4.5S1866.6,72.7,1864.2,72.7z"/>
		<circle cx="1894.9" cy="77.2" r="4.5"/>
		<circle cx="1925.7" cy="77.2" r="4.5"/>
		<path d="M1954.9,81.4c0.5,0.2,1.1,0.3,1.6,0.3c2.5,0,4.5-2,4.5-4.5s-2-4.5-4.5-4.5c-1.7,0-3.2,1-3.9,2.4c-0.3,0.6-0.6,1.4-0.6,2.1
			C1952,79.1,1953.2,80.7,1954.9,81.4z"/>
		<circle cx="1679.4" cy="110.6" r="4.5"/>
		<circle cx="1710.2" cy="110.6" r="4.5"/>
		<path d="M1741,106.1c-2.5,0-4.5,2-4.5,4.5s2,4.5,4.5,4.5s4.5-2,4.5-4.5S1743.5,106.1,1741,106.1z"/>
		<path d="M1771.8,106.1c-2.5,0-4.5,2-4.5,4.5s2,4.5,4.5,4.5s4.5-2,4.5-4.5S1774.3,106.1,1771.8,106.1z"/>
		<circle cx="1802.6" cy="110.6" r="4.5"/>
		<circle cx="1833.4" cy="110.6" r="4.5"/>
		<path d="M1864.2,106.1c-2.5,0-4.5,2-4.5,4.5s2,4.5,4.5,4.5s4.5-2,4.5-4.5C1868.6,108.1,1866.6,106.1,1864.2,106.1z"/>
		<circle cx="1894.9" cy="110.6" r="4.5"/>
		<circle cx="1925.7" cy="110.6" r="4.5"/>
		<path d="M1956.5,106.1c-2.5,0-4.5,2-4.5,4.5s2,4.5,4.5,4.5s4.5-2,4.5-4.5S1959,106.1,1956.5,106.1z"/>
		<path d="M1679.4,139.5c-2.5,0-4.5,2-4.5,4.5s2,4.5,4.5,4.5s4.5-2,4.5-4.5S1681.9,139.5,1679.4,139.5z"/>
		<path d="M1710.2,139.5c-2.5,0-4.5,2-4.5,4.5s2,4.5,4.5,4.5s4.5-2,4.5-4.5S1712.7,139.5,1710.2,139.5z"/>
		<path d="M1741,139.5c-2.5,0-4.5,2-4.5,4.5s2,4.5,4.5,4.5s4.5-2,4.5-4.5S1743.5,139.5,1741,139.5z"/>
		<path d="M1771.8,139.5c-2.5,0-4.5,2-4.5,4.5s2,4.5,4.5,4.5s4.5-2,4.5-4.5S1774.3,139.5,1771.8,139.5z"/>
		<path d="M1802.6,139.5c-2.5,0-4.5,2-4.5,4.5s2,4.5,4.5,4.5s4.5-2,4.5-4.5S1805.1,139.5,1802.6,139.5z"/>
		<path d="M1833.4,139.5c-2.5,0-4.5,2-4.5,4.5s2,4.5,4.5,4.5s4.5-2,4.5-4.5S1835.9,139.5,1833.4,139.5z"/>
		<path d="M1864.2,139.5c-2.5,0-4.5,2-4.5,4.5s2,4.5,4.5,4.5s4.5-2,4.5-4.5S1866.6,139.5,1864.2,139.5z"/>
		<path d="M1894.9,139.5c-2.5,0-4.5,2-4.5,4.5s2,4.5,4.5,4.5s4.5-2,4.5-4.5S1897.4,139.5,1894.9,139.5z"/>
		<path d="M1925.7,139.5c-2.5,0-4.5,2-4.5,4.5s2,4.5,4.5,4.5s4.5-2,4.5-4.5S1928.2,139.5,1925.7,139.5z"/>
		<path d="M1956.5,139.5c-2.5,0-4.5,2-4.5,4.5s2,4.5,4.5,4.5s4.5-2,4.5-4.5S1959,139.5,1956.5,139.5z"/>
		<circle cx="1679.4" cy="177.3" r="4.5"/>
		<circle cx="1710.2" cy="177.3" r="4.5"/>
		<path d="M1741,172.8c-2.5,0-4.5,2-4.5,4.5s2,4.5,4.5,4.5s4.5-2,4.5-4.5S1743.5,172.8,1741,172.8z"/>
		<path d="M1771.8,172.8c-2.5,0-4.5,2-4.5,4.5s2,4.5,4.5,4.5s4.5-2,4.5-4.5S1774.3,172.8,1771.8,172.8z"/>
		<circle cx="1802.6" cy="177.3" r="4.5"/>
		<circle cx="1833.4" cy="177.3" r="4.5"/>
		<path d="M1864.2,172.8c-2.5,0-4.5,2-4.5,4.5s2,4.5,4.5,4.5s4.5-2,4.5-4.5C1868.6,174.8,1866.6,172.8,1864.2,172.8z"/>
		<circle cx="1894.9" cy="177.3" r="4.5"/>
		<circle cx="1925.7" cy="177.3" r="4.5"/>
		<path d="M1957,172.9c-0.2,0-0.3,0-0.5,0c-2.5,0-4.5,2-4.5,4.5c0,1.7,0.9,3.1,2.3,3.9c0.6,0.4,1.4,0.6,2.2,0.6c2.5,0,4.5-2,4.5-4.5
			C1961,175,1959.3,173.1,1957,172.9z"/>
		<path d="M1647,72.7c-1.7,0-3.2,1-3.9,2.4c-0.3,0.6-0.6,1.4-0.6,2.1c0,1.9,1.2,3.5,2.9,4.2c0.5,0.2,1.1,0.3,1.6,0.3
			c2.5,0,4.5-2,4.5-4.5S1649.4,72.7,1647,72.7z"/>
		<path d="M1647,106.1c-2.5,0-4.5,2-4.5,4.5s2,4.5,4.5,4.5s4.5-2,4.5-4.5S1649.4,106.1,1647,106.1z"/>
		<path d="M1647,139.5c-2.5,0-4.5,2-4.5,4.5s2,4.5,4.5,4.5s4.5-2,4.5-4.5S1649.4,139.5,1647,139.5z"/>
		<path d="M1647.5,172.9c-0.2,0-0.3,0-0.5,0c-2.5,0-4.5,2-4.5,4.5c0,1.7,0.9,3.1,2.3,3.9c0.6,0.4,1.4,0.6,2.2,0.6
			c2.5,0,4.5-2,4.5-4.5C1651.5,175,1649.7,173.1,1647.5,172.9z"/>
		<path d="M1679.4,206.2c-1.1,0-2.1,0.4-2.9,1.1c-1,0.8-1.6,2-1.6,3.4c0,2.5,2,4.5,4.5,4.5c0.6,0,1.2-0.1,1.8-0.4
			c1.6-0.7,2.7-2.3,2.7-4.1C1683.9,208.2,1681.9,206.2,1679.4,206.2z"/>
		<path d="M1710.2,206.2c-2.5,0-4.5,2-4.5,4.5s2,4.5,4.5,4.5s4.5-2,4.5-4.5S1712.7,206.2,1710.2,206.2z"/>
		<path d="M1741,206.2c-2.5,0-4.5,2-4.5,4.5s2,4.5,4.5,4.5s4.5-2,4.5-4.5S1743.5,206.2,1741,206.2z"/>
		<path d="M1771.8,206.2c-2.5,0-4.5,2-4.5,4.5s2,4.5,4.5,4.5s4.5-2,4.5-4.5S1774.3,206.2,1771.8,206.2z"/>
		<path d="M1802.6,206.2c-2.5,0-4.5,2-4.5,4.5s2,4.5,4.5,4.5s4.5-2,4.5-4.5S1805.1,206.2,1802.6,206.2z"/>
		<path d="M1833.4,206.2c-2.5,0-4.5,2-4.5,4.5s2,4.5,4.5,4.5s4.5-2,4.5-4.5S1835.9,206.2,1833.4,206.2z"/>
		<path d="M1864.2,206.2c-2.5,0-4.5,2-4.5,4.5s2,4.5,4.5,4.5s4.5-2,4.5-4.5C1868.6,208.2,1866.6,206.2,1864.2,206.2z"/>
		<path d="M1894.9,206.2c-2.5,0-4.5,2-4.5,4.5s2,4.5,4.5,4.5s4.5-2,4.5-4.5S1897.4,206.2,1894.9,206.2z"/>
		<path d="M1925.7,206.2c-2.5,0-4.5,2-4.5,4.5s2,4.5,4.5,4.5s4.5-2,4.5-4.5S1928.2,206.2,1925.7,206.2z"/>
		<path d="M1710.2,239.6c-2.3,0-4.2,1.8-4.5,4.1c0,0.1,0,0.3,0,0.4c0,2.5,2,4.5,4.5,4.5c0.3,0,0.7,0,1-0.1c2-0.5,3.5-2.2,3.5-4.4
			C1714.7,241.6,1712.7,239.6,1710.2,239.6z"/>
		<path d="M1741,239.6c-2.5,0-4.5,2-4.5,4.5s2,4.5,4.5,4.5s4.5-2,4.5-4.5S1743.5,239.6,1741,239.6z"/>
		<path d="M1771.8,239.6c-2.5,0-4.5,2-4.5,4.5s2,4.5,4.5,4.5s4.5-2,4.5-4.5S1774.3,239.6,1771.8,239.6z"/>
		<circle cx="1802.6" cy="244.1" r="4.5"/>
		<circle cx="1833.4" cy="244.1" r="4.5"/>
		<path d="M1864.2,239.6c-2.5,0-4.5,2-4.5,4.5s2,4.5,4.5,4.5s4.5-2,4.5-4.5C1868.6,241.6,1866.6,239.6,1864.2,239.6z"/>
		<circle cx="1894.9" cy="244.1" r="4.5"/>
		<path d="M1771.8,272.9c-2.5,0-4.5,2-4.5,4.5c0,0.3,0,0.5,0.1,0.7c0.4,2.1,2.2,3.8,4.4,3.8c1.4,0,2.7-0.7,3.5-1.7
			c0.6-0.8,1-1.7,1-2.8C1776.3,274.9,1774.3,272.9,1771.8,272.9z"/>
		<path d="M1802.6,272.9c-2.5,0-4.5,2-4.5,4.5s2,4.5,4.5,4.5s4.5-2,4.5-4.5S1805.1,272.9,1802.6,272.9z"/>
		<path d="M1833.4,272.9c-2.5,0-4.5,2-4.5,4.5s2,4.5,4.5,4.5s4.5-2,4.5-4.5S1835.9,272.9,1833.4,272.9z"/>
		<path d="M1865.9,273.3c-0.5-0.2-1.1-0.4-1.8-0.4c-1.8,0-3.3,1-4,2.5c-0.3,0.6-0.5,1.3-0.5,2c0,2.5,2,4.5,4.5,4.5s4.5-2,4.5-4.5
			C1868.6,275.6,1867.5,274,1865.9,273.3z"/>
	</g>
	<ellipse class="st4" cx="163.3" cy="174.5" rx="14.6" ry="14.6"/>
	<g class="st3">
		<path d="M87.7,829.7c-2.4,0-4.4,2-4.4,4.4s2,4.4,4.4,4.4s4.4-2,4.4-4.4S90.1,829.7,87.7,829.7z"/>
		<path d="M117.8,829.7c-2.4,0-4.4,2-4.4,4.4c0,0.1,0,0.3,0,0.4c0.2,2.2,2.1,4,4.4,4c2.4,0,4.4-2,4.4-4.4l0,0
			C122.2,831.7,120.3,829.7,117.8,829.7z"/>
		<path d="M148,829.7c-2.4,0-4.4,2-4.4,4.4c0,0.4,0.1,0.8,0.2,1.2c0.5,1.8,2.2,3.2,4.2,3.2c1.5,0,2.9-0.8,3.7-2
			c0.5-0.7,0.7-1.5,0.7-2.4C152.4,831.7,150.4,829.7,148,829.7z"/>
		<path d="M27.4,862.4c-2.4,0-4.4,2-4.4,4.4c0,2,1.3,3.6,3,4.2c0.4,0.1,0.9,0.2,1.4,0.2c2.4,0,4.4-2,4.4-4.4c0-0.2,0-0.4-0.1-0.6
			C31.4,864,29.6,862.4,27.4,862.4z"/>
		<path d="M57.5,862.4c-2.4,0-4.4,2-4.4,4.4s2,4.4,4.4,4.4s4.4-2,4.4-4.4C61.9,864.3,59.9,862.4,57.5,862.4z"/>
		<path d="M87.7,862.4c-2.4,0-4.4,2-4.4,4.4s2,4.4,4.4,4.4s4.4-2,4.4-4.4C92.1,864.3,90.1,862.4,87.7,862.4z"/>
		<path d="M117.8,862.4c-2.4,0-4.4,2-4.4,4.4s2,4.4,4.4,4.4s4.4-2,4.4-4.4C122.2,864.3,120.3,862.4,117.8,862.4z"/>
		<path d="M148,862.4c-2.4,0-4.4,2-4.4,4.4s2,4.4,4.4,4.4s4.4-2,4.4-4.4C152.4,864.3,150.4,862.4,148,862.4z"/>
		<path d="M178.1,862.4c-2.4,0-4.4,2-4.4,4.4s2,4.4,4.4,4.4s4.4-2,4.4-4.4C182.5,864.3,180.6,862.4,178.1,862.4z"/>
		<path d="M208.3,862.4c-2.4,0-4.4,2-4.4,4.4s2,4.4,4.4,4.4s4.4-2,4.4-4.4C212.7,864.3,210.7,862.4,208.3,862.4z"/>
		<path d="M-2.8,895.1c-2.4,0-4.4,2-4.4,4.4s2,4.4,4.4,4.4c0.2,0,0.3,0,0.5,0c2.2-0.2,3.9-2.1,3.9-4.4c0-0.4-0.1-0.8-0.2-1.2
			C0.9,896.4-0.8,895.1-2.8,895.1z"/>
		<path d="M27.4,895.1c-2.4,0-4.4,2-4.4,4.4s2,4.4,4.4,4.4s4.4-2,4.4-4.4S29.8,895.1,27.4,895.1z"/>
		<path d="M57.5,895.1c-2.4,0-4.4,2-4.4,4.4s2,4.4,4.4,4.4s4.4-2,4.4-4.4S59.9,895.1,57.5,895.1z"/>
		<path d="M87.7,895.1c-2.4,0-4.4,2-4.4,4.4s2,4.4,4.4,4.4s4.4-2,4.4-4.4S90.1,895.1,87.7,895.1z"/>
		<path d="M117.8,895.1c-2.4,0-4.4,2-4.4,4.4s2,4.4,4.4,4.4s4.4-2,4.4-4.4S120.3,895.1,117.8,895.1z"/>
		<path d="M148,895.1c-2.4,0-4.4,2-4.4,4.4s2,4.4,4.4,4.4s4.4-2,4.4-4.4S150.4,895.1,148,895.1z"/>
		<path d="M178.1,895.1c-2.4,0-4.4,2-4.4,4.4s2,4.4,4.4,4.4s4.4-2,4.4-4.4S180.6,895.1,178.1,895.1z"/>
		<path d="M208.3,895.1c-2.4,0-4.4,2-4.4,4.4s2,4.4,4.4,4.4s4.4-2,4.4-4.4S210.7,895.1,208.3,895.1z"/>
		<path d="M238.4,895.1c-2.4,0-4.4,2-4.4,4.4s2,4.4,4.4,4.4s4.4-2,4.4-4.4S240.9,895.1,238.4,895.1z"/>
		<path d="M-2.8,927.7c-2.4,0-4.4,2-4.4,4.4s2,4.4,4.4,4.4s4.4-2,4.4-4.4C1.6,929.7-0.4,927.7-2.8,927.7z"/>
		<path d="M27.4,927.7c-2.4,0-4.4,2-4.4,4.4s2,4.4,4.4,4.4s4.4-2,4.4-4.4S29.8,927.7,27.4,927.7z"/>
		<path d="M57.5,927.7c-2.4,0-4.4,2-4.4,4.4s2,4.4,4.4,4.4s4.4-2,4.4-4.4S59.9,927.7,57.5,927.7z"/>
		<path d="M87.7,927.7c-2.4,0-4.4,2-4.4,4.4s2,4.4,4.4,4.4s4.4-2,4.4-4.4S90.1,927.7,87.7,927.7z"/>
		<path d="M117.8,927.7c-2.4,0-4.4,2-4.4,4.4s2,4.4,4.4,4.4s4.4-2,4.4-4.4C122.2,929.7,120.3,927.7,117.8,927.7z"/>
		<path d="M148,927.7c-2.4,0-4.4,2-4.4,4.4s2,4.4,4.4,4.4s4.4-2,4.4-4.4S150.4,927.7,148,927.7z"/>
		<path d="M178.1,927.7c-2.4,0-4.4,2-4.4,4.4s2,4.4,4.4,4.4s4.4-2,4.4-4.4S180.6,927.7,178.1,927.7z"/>
		<path d="M208.3,927.7c-2.4,0-4.4,2-4.4,4.4s2,4.4,4.4,4.4s4.4-2,4.4-4.4S210.7,927.7,208.3,927.7z"/>
		<path d="M238.4,927.7c-2.4,0-4.4,2-4.4,4.4s2,4.4,4.4,4.4s4.4-2,4.4-4.4C242.8,929.7,240.9,927.7,238.4,927.7z"/>
		<path d="M267,936.2c0.5,0.2,1,0.3,1.6,0.3c2.4,0,4.4-2,4.4-4.4s-2-4.4-4.4-4.4c-1.7,0-3.1,0.9-3.9,2.3c-0.3,0.6-0.5,1.3-0.5,2.1
			C264.2,934,265.3,935.6,267,936.2z"/>
		<path d="M-2.8,960.4c-2.4,0-4.4,2-4.4,4.4s2,4.4,4.4,4.4s4.4-2,4.4-4.4C1.6,962.4-0.4,960.4-2.8,960.4z"/>
		<path d="M27.4,960.4c-2.4,0-4.4,2-4.4,4.4s2,4.4,4.4,4.4s4.4-2,4.4-4.4S29.8,960.4,27.4,960.4z"/>
		<path d="M57.5,960.4c-2.4,0-4.4,2-4.4,4.4s2,4.4,4.4,4.4s4.4-2,4.4-4.4S59.9,960.4,57.5,960.4z"/>
		<path d="M87.7,960.4c-2.4,0-4.4,2-4.4,4.4s2,4.4,4.4,4.4s4.4-2,4.4-4.4S90.1,960.4,87.7,960.4z"/>
		<path d="M117.8,960.4c-2.4,0-4.4,2-4.4,4.4s2,4.4,4.4,4.4s4.4-2,4.4-4.4C122.2,962.4,120.3,960.4,117.8,960.4z"/>
		<path d="M148,960.4c-2.4,0-4.4,2-4.4,4.4s2,4.4,4.4,4.4s4.4-2,4.4-4.4S150.4,960.4,148,960.4z"/>
		<path d="M178.1,960.4c-2.4,0-4.4,2-4.4,4.4s2,4.4,4.4,4.4s4.4-2,4.4-4.4S180.6,960.4,178.1,960.4z"/>
		<path d="M208.3,960.4c-2.4,0-4.4,2-4.4,4.4s2,4.4,4.4,4.4s4.4-2,4.4-4.4S210.7,960.4,208.3,960.4z"/>
		<path d="M238.4,960.4c-2.4,0-4.4,2-4.4,4.4s2,4.4,4.4,4.4s4.4-2,4.4-4.4C242.8,962.4,240.9,960.4,238.4,960.4z"/>
		<path d="M268.6,960.4c-2.4,0-4.4,2-4.4,4.4s2,4.4,4.4,4.4s4.4-2,4.4-4.4S271,960.4,268.6,960.4z"/>
		<path d="M-2.8,993.1c-2.4,0-4.4,2-4.4,4.4s2,4.4,4.4,4.4s4.4-2,4.4-4.4C1.6,995.1-0.4,993.1-2.8,993.1z"/>
		<path d="M27.4,993.1c-2.4,0-4.4,2-4.4,4.4s2,4.4,4.4,4.4s4.4-2,4.4-4.4S29.8,993.1,27.4,993.1z"/>
		<path d="M57.5,993.1c-2.4,0-4.4,2-4.4,4.4s2,4.4,4.4,4.4s4.4-2,4.4-4.4S59.9,993.1,57.5,993.1z"/>
		<path d="M87.7,993.1c-2.4,0-4.4,2-4.4,4.4s2,4.4,4.4,4.4s4.4-2,4.4-4.4S90.1,993.1,87.7,993.1z"/>
		<path d="M117.8,993.1c-2.4,0-4.4,2-4.4,4.4s2,4.4,4.4,4.4s4.4-2,4.4-4.4C122.2,995.1,120.3,993.1,117.8,993.1z"/>
		<path d="M148,993.1c-2.4,0-4.4,2-4.4,4.4s2,4.4,4.4,4.4s4.4-2,4.4-4.4S150.4,993.1,148,993.1z"/>
		<path d="M178.1,993.1c-2.4,0-4.4,2-4.4,4.4s2,4.4,4.4,4.4s4.4-2,4.4-4.4S180.6,993.1,178.1,993.1z"/>
		<path d="M208.3,993.1c-2.4,0-4.4,2-4.4,4.4s2,4.4,4.4,4.4s4.4-2,4.4-4.4S210.7,993.1,208.3,993.1z"/>
		<path d="M238.4,993.1c-2.4,0-4.4,2-4.4,4.4s2,4.4,4.4,4.4s4.4-2,4.4-4.4C242.8,995.1,240.9,993.1,238.4,993.1z"/>
		<path d="M268.6,993.1c-2.4,0-4.4,2-4.4,4.4s2,4.4,4.4,4.4s4.4-2,4.4-4.4S271,993.1,268.6,993.1z"/>
		<path d="M-2.8,1025.8c-2.4,0-4.4,2-4.4,4.4s2,4.4,4.4,4.4s4.4-2,4.4-4.4C1.6,1027.7-0.4,1025.8-2.8,1025.8z"/>
		<path d="M27.4,1025.8c-2.4,0-4.4,2-4.4,4.4s2,4.4,4.4,4.4s4.4-2,4.4-4.4C31.8,1027.7,29.8,1025.8,27.4,1025.8z"/>
		<path d="M57.5,1025.8c-2.4,0-4.4,2-4.4,4.4s2,4.4,4.4,4.4s4.4-2,4.4-4.4C61.9,1027.7,59.9,1025.8,57.5,1025.8z"/>
		<path d="M87.7,1025.8c-2.4,0-4.4,2-4.4,4.4s2,4.4,4.4,4.4s4.4-2,4.4-4.4C92.1,1027.7,90.1,1025.8,87.7,1025.8z"/>
		<path d="M117.8,1025.8c-2.4,0-4.4,2-4.4,4.4s2,4.4,4.4,4.4s4.4-2,4.4-4.4C122.2,1027.7,120.3,1025.8,117.8,1025.8z"/>
		<path d="M148,1025.8c-2.4,0-4.4,2-4.4,4.4s2,4.4,4.4,4.4s4.4-2,4.4-4.4C152.4,1027.7,150.4,1025.8,148,1025.8z"/>
		<path d="M178.1,1025.8c-2.4,0-4.4,2-4.4,4.4s2,4.4,4.4,4.4s4.4-2,4.4-4.4C182.5,1027.7,180.6,1025.8,178.1,1025.8z"/>
		<path d="M208.3,1025.8c-2.4,0-4.4,2-4.4,4.4s2,4.4,4.4,4.4s4.4-2,4.4-4.4C212.7,1027.7,210.7,1025.8,208.3,1025.8z"/>
		<path d="M238.4,1025.8c-2.4,0-4.4,2-4.4,4.4s2,4.4,4.4,4.4s4.4-2,4.4-4.4C242.8,1027.7,240.9,1025.8,238.4,1025.8z"/>
		<path d="M269.1,1025.8c-0.2,0-0.3,0-0.5,0c-2.4,0-4.4,2-4.4,4.4c0,1.7,0.9,3.1,2.3,3.8c0.6,0.4,1.4,0.6,2.1,0.6
			c2.4,0,4.4-2,4.4-4.4C273,1027.9,271.3,1026.1,269.1,1025.8z"/>
		<path d="M-34.6,927.7c-1.7,0-3.1,0.9-3.9,2.3c-0.3,0.6-0.5,1.3-0.5,2.1c0,1.9,1.2,3.4,2.8,4.1c0.5,0.2,1,0.3,1.6,0.3
			c2.4,0,4.4-2,4.4-4.4C-30.2,929.7-32.2,927.7-34.6,927.7z"/>
		<path d="M-34.6,960.4c-2.4,0-4.4,2-4.4,4.4s2,4.4,4.4,4.4s4.4-2,4.4-4.4C-30.2,962.4-32.2,960.4-34.6,960.4z"/>
		<path d="M-34.6,993.1c-2.4,0-4.4,2-4.4,4.4s2,4.4,4.4,4.4s4.4-2,4.4-4.4C-30.2,995.1-32.2,993.1-34.6,993.1z"/>
		<path d="M-34.1,1025.8c-0.2,0-0.3,0-0.5,0c-2.4,0-4.4,2-4.4,4.4c0,1.7,0.9,3.1,2.3,3.8c0.6,0.4,1.3,0.6,2.1,0.6
			c2.4,0,4.4-2,4.4-4.4C-30.2,1027.9-31.9,1026.1-34.1,1025.8z"/>
		<path d="M-2.8,1058.5c-1.1,0-2.1,0.4-2.8,1c-1,0.8-1.6,2-1.6,3.4c0,2.4,2,4.4,4.4,4.4c0.6,0,1.2-0.1,1.7-0.4
			c1.6-0.7,2.7-2.2,2.7-4C1.6,1060.4-0.4,1058.5-2.8,1058.5z"/>
		<path d="M27.4,1058.5c-2.4,0-4.4,2-4.4,4.4s2,4.4,4.4,4.4s4.4-2,4.4-4.4C31.8,1060.4,29.8,1058.5,27.4,1058.5z"/>
		<path d="M57.5,1058.5c-2.4,0-4.4,2-4.4,4.4s2,4.4,4.4,4.4s4.4-2,4.4-4.4C61.9,1060.4,59.9,1058.5,57.5,1058.5z"/>
		<path d="M87.7,1058.5c-2.4,0-4.4,2-4.4,4.4s2,4.4,4.4,4.4s4.4-2,4.4-4.4C92.1,1060.4,90.1,1058.5,87.7,1058.5z"/>
		<path d="M117.8,1058.5c-2.4,0-4.4,2-4.4,4.4s2,4.4,4.4,4.4s4.4-2,4.4-4.4C122.2,1060.4,120.3,1058.5,117.8,1058.5z"/>
		<path d="M148,1058.5c-2.4,0-4.4,2-4.4,4.4s2,4.4,4.4,4.4s4.4-2,4.4-4.4C152.4,1060.4,150.4,1058.5,148,1058.5z"/>
		<path d="M178.1,1058.5c-2.4,0-4.4,2-4.4,4.4s2,4.4,4.4,4.4s4.4-2,4.4-4.4C182.5,1060.4,180.6,1058.5,178.1,1058.5z"/>
		<path d="M208.3,1058.5c-2.4,0-4.4,2-4.4,4.4s2,4.4,4.4,4.4s4.4-2,4.4-4.4C212.7,1060.4,210.7,1058.5,208.3,1058.5z"/>
		<path d="M238.4,1058.5c-2.4,0-4.4,2-4.4,4.4s2,4.4,4.4,4.4s4.4-2,4.4-4.4C242.8,1060.4,240.9,1058.5,238.4,1058.5z"/>
		<path d="M27.4,1091.1c-2.3,0-4.2,1.8-4.4,4c0,0.1,0,0.3,0,0.4c0,2.4,2,4.4,4.4,4.4c0.3,0,0.7,0,1-0.1c2-0.5,3.4-2.2,3.4-4.3
			C31.8,1093.1,29.8,1091.1,27.4,1091.1z"/>
		<path d="M57.5,1091.1c-2.4,0-4.4,2-4.4,4.4s2,4.4,4.4,4.4s4.4-2,4.4-4.4S59.9,1091.1,57.5,1091.1z"/>
		<path d="M87.7,1091.1c-2.4,0-4.4,2-4.4,4.4s2,4.4,4.4,4.4s4.4-2,4.4-4.4S90.1,1091.1,87.7,1091.1z"/>
		<path d="M117.8,1091.1c-2.4,0-4.4,2-4.4,4.4s2,4.4,4.4,4.4s4.4-2,4.4-4.4C122.2,1093.1,120.3,1091.1,117.8,1091.1z"/>
		<path d="M148,1091.1c-2.4,0-4.4,2-4.4,4.4s2,4.4,4.4,4.4s4.4-2,4.4-4.4S150.4,1091.1,148,1091.1z"/>
		<path d="M178.1,1091.1c-2.4,0-4.4,2-4.4,4.4s2,4.4,4.4,4.4s4.4-2,4.4-4.4S180.6,1091.1,178.1,1091.1z"/>
		<path d="M208.3,1091.1c-2.4,0-4.4,2-4.4,4.4s2,4.4,4.4,4.4s4.4-2,4.4-4.4S210.7,1091.1,208.3,1091.1z"/>
		<path d="M87.7,1123.8c-2.4,0-4.4,2-4.4,4.4c0,0.2,0,0.5,0.1,0.7c0.3,2.1,2.1,3.7,4.3,3.7c1.4,0,2.6-0.7,3.4-1.7
			c0.6-0.7,1-1.7,1-2.7C92.1,1125.8,90.1,1123.8,87.7,1123.8z"/>
		<path d="M117.8,1123.8c-2.4,0-4.4,2-4.4,4.4s2,4.4,4.4,4.4s4.4-2,4.4-4.4C122.2,1125.8,120.3,1123.8,117.8,1123.8z"/>
		<path d="M148,1123.8c-2.4,0-4.4,2-4.4,4.4s2,4.4,4.4,4.4s4.4-2,4.4-4.4S150.4,1123.8,148,1123.8z"/>
		<path d="M179.8,1124.2c-0.5-0.2-1.1-0.4-1.7-0.4c-1.7,0-3.2,1-3.9,2.4c-0.3,0.6-0.5,1.2-0.5,2c0,2.4,2,4.4,4.4,4.4s4.4-2,4.4-4.4
			C182.5,1126.4,181.4,1124.8,179.8,1124.2z"/>
	</g>
	<g class="st3">
		<path class="st6" d="M1724.3,933c-4,0-7.3-3.3-7.3-7.3v-39.2c0-4,3.3-7.3,7.3-7.3c1.3,0,2.5,0.3,3.7,1l34,19.6
			c2.3,1.3,3.7,3.7,3.7,6.3s-1.4,5-3.7,6.3l-33.9,19.6C1726.8,932.7,1725.5,933,1724.3,933z"/>
		<path d="M1758.5,905.6c0.4,0.2,0.4,0.7,0,0.9l-17,9.8l-17,9.8c-0.4,0.2-0.8-0.1-0.8-0.5V906v-19.6c0-0.4,0.5-0.7,0.8-0.5l17,9.8
			L1758.5,905.6z"/>
	</g>
	<g class="st7">
		<g class="st8">
			<rect x="570.3" y="800.9" transform="matrix(0.6305 -0.7762 0.7762 0.6305 -59.1763 1507.0901)" width="1966.3" height="29.6"/>
		</g>
		<g class="st8">
			<rect x="170.2" y="385.6" transform="matrix(0.6305 -0.7762 0.7762 0.6305 115.298 1043.0953)" width="1966.3" height="29.6"/>
		</g>
		<g class="st8">
			<rect x="289.5" y="661.2" transform="matrix(0.6305 -0.7762 0.7762 0.6305 -71.7505 1245.7627)" width="1966.3" height="74.2"/>
		</g>
	</g>
</g>
</svg>
