<?xml version="1.0" encoding="utf-8"?>
<!-- Generator: Adobe Illustrator 24.1.2, SVG Export Plug-In . SVG Version: 6.00 Build 0)  -->
<svg version="1.1" id="Layer_1" xmlns="http://www.w3.org/2000/svg" xmlns:xlink="http://www.w3.org/1999/xlink" x="0px" y="0px"
	 viewBox="0 0 100 13.2" style="enable-background:new 0 0 100 13.2;" xml:space="preserve">
<style type="text/css">
	.st0{fill:none;}
	.st1{fill:#FFFFFF;}
</style>
<rect x="-181.1" y="-383.2" class="st0" width="816" height="1056"/>
<g>
	<path class="st1" d="M36.4,13h-2.6V3.9h-3.3V1.7h9.2v2.2h-3.3V13z"/>
	<path class="st1" d="M50,13h-2.6V1.7H50V13z"/>
	<path class="st1" d="M95.5,10.7h4.5V13h-7V1.7h2.6V10.7z"/>
	<path class="st1" d="M62.7,1.7h-4.2V13h4.3c3,0,6-1.9,6-5.7C68.9,3.3,65.8,1.7,62.7,1.7z M62.7,10.7h-1.6V3.9h1.7
		c2.1,0,3.5,1.4,3.5,3.4C66.3,9.4,64.8,10.7,62.7,10.7z"/>
	<path class="st1" d="M81.4,1.7h-2.7L74,13h2.8l0.8-2.2h4.8l0.8,2.2h2.8L81.4,1.7z M78.3,8.7L80,4.3l1.7,4.4H78.3z"/>
	<path class="st1" d="M13.2,3.3L9.9,6.6L6.6,3.3L9.9,0L13.2,3.3z"/>
	<path class="st1" d="M13.2,9.9l-3.3,3.3L6.6,9.9l3.3-3.3L13.2,9.9z"/>
	<path class="st1" d="M6.6,3.3L3.3,6.6L0,3.3L3.3,0L6.6,3.3z"/>
	<path class="st1" d="M19.9,3.3l-3.3,3.3l-3.3-3.3L16.5,0L19.9,3.3z"/>
</g>
</svg>
